  0
SECTION
  2
HEADER
  9
$ACADVER
  1
AC1015
  9
$ACADMAINTVER
 70
    13
  9
$DWGCODEPAGE
  3
ANSI_1252
  9
$INSBASE
 10
0.0
 20
0.0
 30
0.0
  9
$EXTMIN
 10
-0.025633200973175
 20
-0.0181263351950065
 30
-0.0000000349181948
  9
$EXTMAX
 10
37.01773303441337
 20
18.51774778810431
 30
0.0000000814935746
  9
$LIMMIN
 10
0.0
 20
0.0
  9
$LIMMAX
 10
420.0
 20
297.0
  9
$ORTHOMODE
 70
     0
  9
$REGENMODE
 70
     1
  9
$FILLMODE
 70
     1
  9
$QTEXTMODE
 70
     0
  9
$MIRRTEXT
 70
     1
  9
$LTSCALE
 40
1.0
  9
$ATTMODE
 70
     1
  9
$TEXTSIZE
 40
2.5
  9
$TRACEWID
 40
1.0
  9
$TEXTSTYLE
  7
Standard
  9
$CLAYER
  8
ceco.net 457
  9
$CELTYPE
  6
ceco.net
  9
$CECOLOR
 62
   256
  9
$CELTSCALE
 40
1.0
  9
$DISPSILH
 70
     0
  9
$DIMSCALE
 40
1.0
  9
$DIMASZ
 40
2.5
  9
$DIMEXO
 40
0.625
  9
$DIMDLI
 40
3.75
  9
$DIMRND
 40
0.0
  9
$DIMDLE
 40
0.0
  9
$DIMEXE
 40
1.25
  9
$DIMTP
 40
0.0
  9
$DIMTM
 40
0.0
  9
$DIMTXT
 40
2.5
  9
$DIMCEN
 40
2.5
  9
$DIMTSZ
 40
0.0
  9
$DIMTOL
 70
     0
  9
$DIMLIM
 70
     0
  9
$DIMTIH
 70
     0
  9
$DIMTOH
 70
     0
  9
$DIMSE1
 70
     0
  9
$DIMSE2
 70
     0
  9
$DIMTAD
 70
     1
  9
$DIMZIN
 70
     8
  9
$DIMBLK
  1

  9
$DIMASO
 70
     1
  9
$DIMSHO
 70
     1
  9
$DIMPOST
  1

  9
$DIMAPOST
  1

  9
$DIMALT
 70
     0
  9
$DIMALTD
 70
     3
  9
$DIMALTF
 40
0.03937007874016
  9
$DIMLFAC
 40
1.0
  9
$DIMTOFL
 70
     1
  9
$DIMTVP
 40
0.0
  9
$DIMTIX
 70
     0
  9
$DIMSOXD
 70
     0
  9
$DIMSAH
 70
     0
  9
$DIMBLK1
  1

  9
$DIMBLK2
  1

  9
$DIMSTYLE
  2
ISO-25
  9
$DIMCLRD
 70
     0
  9
$DIMCLRE
 70
     0
  9
$DIMCLRT
 70
     0
  9
$DIMTFAC
 40
1.0
  9
$DIMGAP
 40
0.625
  9
$DIMJUST
 70
     0
  9
$DIMSD1
 70
     0
  9
$DIMSD2
 70
     0
  9
$DIMTOLJ
 70
     0
  9
$DIMTZIN
 70
     8
  9
$DIMALTZ
 70
     0
  9
$DIMALTTZ
 70
     0
  9
$DIMUPT
 70
     0
  9
$DIMDEC
 70
     2
  9
$DIMTDEC
 70
     2
  9
$DIMALTU
 70
     2
  9
$DIMALTTD
 70
     3
  9
$DIMTXSTY
  7
Standard
  9
$DIMAUNIT
 70
     0
  9
$DIMADEC
 70
     0
  9
$DIMALTRND
 40
0.0
  9
$DIMAZIN
 70
     0
  9
$DIMDSEP
 70
    44
  9
$DIMATFIT
 70
     3
  9
$DIMFRAC
 70
     0
  9
$DIMLDRBLK
  1

  9
$DIMLUNIT
 70
     2
  9
$DIMLWD
 70
    -2
  9
$DIMLWE
 70
    -2
  9
$DIMTMOVE
 70
     0
  9
$LUNITS
 70
     2
  9
$LUPREC
 70
     4
  9
$SKETCHINC
 40
1.0
  9
$FILLETRAD
 40
10.0
  9
$AUNITS
 70
     0
  9
$AUPREC
 70
     0
  9
$MENU
  1
.
  9
$ELEVATION
 40
0.0
  9
$PELEVATION
 40
0.0
  9
$THICKNESS
 40
0.0
  9
$LIMCHECK
 70
     0
  9
$CHAMFERA
 40
10.0
  9
$CHAMFERB
 40
10.0
  9
$CHAMFERC
 40
20.0
  9
$CHAMFERD
 40
0.0
  9
$SKPOLY
 70
     0
  9
$TDCREATE
 40
2457858.695660799
  9
$TDUCREATE
 40
2457858.820660799
  9
$TDUPDATE
 40
2458400.929342986
  9
$TDUUPDATE
 40
2458401.054342985
  9
$TDINDWG
 40
0.0054934606
  9
$TDUSRTIMER
 40
0.0054934491
  9
$USRTIMER
 70
     1
  9
$ANGBASE
 50
0.0
  9
$ANGDIR
 70
     0
  9
$PDMODE
 70
     0
  9
$PDSIZE
 40
0.0
  9
$PLINEWID
 40
0.0
  9
$SPLFRAME
 70
     0
  9
$SPLINETYPE
 70
     6
  9
$SPLINESEGS
 70
     8
  9
$HANDSEED
  5
1BE
  9
$SURFTAB1
 70
     6
  9
$SURFTAB2
 70
     6
  9
$SURFTYPE
 70
     6
  9
$SURFU
 70
     6
  9
$SURFV
 70
     6
  9
$UCSBASE
  2

  9
$UCSNAME
  2

  9
$UCSORG
 10
0.0
 20
0.0
 30
0.0
  9
$UCSXDIR
 10
1.0
 20
0.0
 30
0.0
  9
$UCSYDIR
 10
0.0
 20
1.0
 30
0.0
  9
$UCSORTHOREF
  2

  9
$UCSORTHOVIEW
 70
     0
  9
$UCSORGTOP
 10
0.0
 20
0.0
 30
0.0
  9
$UCSORGBOTTOM
 10
0.0
 20
0.0
 30
0.0
  9
$UCSORGLEFT
 10
0.0
 20
0.0
 30
0.0
  9
$UCSORGRIGHT
 10
0.0
 20
0.0
 30
0.0
  9
$UCSORGFRONT
 10
0.0
 20
0.0
 30
0.0
  9
$UCSORGBACK
 10
0.0
 20
0.0
 30
0.0
  9
$PUCSBASE
  2

  9
$PUCSNAME
  2

  9
$PUCSORG
 10
0.0
 20
0.0
 30
0.0
  9
$PUCSXDIR
 10
1.0
 20
0.0
 30
0.0
  9
$PUCSYDIR
 10
0.0
 20
1.0
 30
0.0
  9
$PUCSORTHOREF
  2

  9
$PUCSORTHOVIEW
 70
     0
  9
$PUCSORGTOP
 10
0.0
 20
0.0
 30
0.0
  9
$PUCSORGBOTTOM
 10
0.0
 20
0.0
 30
0.0
  9
$PUCSORGLEFT
 10
0.0
 20
0.0
 30
0.0
  9
$PUCSORGRIGHT
 10
0.0
 20
0.0
 30
0.0
  9
$PUCSORGFRONT
 10
0.0
 20
0.0
 30
0.0
  9
$PUCSORGBACK
 10
0.0
 20
0.0
 30
0.0
  9
$USERI1
 70
     0
  9
$USERI2
 70
     0
  9
$USERI3
 70
     0
  9
$USERI4
 70
     0
  9
$USERI5
 70
     0
  9
$USERR1
 40
0.0
  9
$USERR2
 40
0.0
  9
$USERR3
 40
0.0
  9
$USERR4
 40
0.0
  9
$USERR5
 40
0.0
  9
$WORLDVIEW
 70
     1
  9
$SHADEDGE
 70
     3
  9
$SHADEDIF
 70
    70
  9
$TILEMODE
 70
     1
  9
$MAXACTVP
 70
    64
  9
$PINSBASE
 10
0.0
 20
0.0
 30
0.0
  9
$PLIMCHECK
 70
     0
  9
$PEXTMIN
 10
26.66999878883362
 20
20.31999878883362
 30
0.0
  9
$PEXTMAX
 10
240.0299890995025
 20
182.8799890995025
 30
0.0
  9
$PLIMMIN
 10
-6.350006103515625
 20
-6.349999904632568
  9
$PLIMMAX
 10
273.0499877929687
 20
209.5499939918517
  9
$UNITMODE
 70
     0
  9
$VISRETAIN
 70
     1
  9
$PLINEGEN
 70
     0
  9
$PSLTSCALE
 70
     1
  9
$TREEDEPTH
 70
  3020
  9
$CMLSTYLE
  2
Standard
  9
$CMLJUST
 70
     0
  9
$CMLSCALE
 40
20.0
  9
$PROXYGRAPHICS
 70
     1
  9
$MEASUREMENT
 70
     1
  9
$CELWEIGHT
370
    -1
  9
$ENDCAPS
280
     0
  9
$JOINSTYLE
280
     0
  9
$LWDISPLAY
290
     0
  9
$INSUNITS
 70
     6
  9
$HYPERLINKBASE
  1

  9
$STYLESHEET
  1

  9
$XEDIT
290
     1
  9
$CEPSNTYPE
380
     0
  9
$PSTYLEMODE
290
     1
  9
$FINGERPRINTGUID
  2
{FDEAD578-A652-11D2-9A35-0060089B3A3F}
  9
$VERSIONGUID
  2
{5E05EB46-26BC-4E04-81B2-4B706ECA4397}
  9
$EXTNAMES
290
     1
  9
$PSVPSCALE
 40
0.0
  9
$OLESTARTUP
290
     0
  0
ENDSEC
  0
SECTION
  2
CLASSES
  0
CLASS
  1
ACDBDICTIONARYWDFLT
  2
AcDbDictionaryWithDefault
  3
AutoCAD 2000
 90
        0
280
     0
281
     0
  0
CLASS
  1
ACDBPLACEHOLDER
  2
AcDbPlaceHolder
  3
AutoCAD 2000
 90
        0
280
     0
281
     0
  0
CLASS
  1
LAYOUT
  2
AcDbLayout
  3
AutoCAD 2000
 90
        0
280
     0
281
     0
  0
CLASS
  1
DICTIONARYVAR
  2
AcDbDictionaryVar
  3
AutoCAD 2000
 90
        0
280
     0
281
     0
  0
ENDSEC
  0
SECTION
  2
TABLES
  0
TABLE
  2
VPORT
  5
8
330
0
100
AcDbSymbolTable
 70
     5
  0
VPORT
  5
1BD
330
8
100
AcDbSymbolTableRecord
100
AcDbViewportTableRecord
  2
*Active
 70
     0
 10
0.0
 20
0.0
 11
1.0
 21
1.0
 12
18.50830153621307
 22
9.247261576544644
 13
0.0
 23
0.0
 14
10.0
 24
10.0
 15
10.0
 25
10.0
 16
0.0
 26
0.0
 36
1.0
 17
0.0
 27
0.0
 37
0.0
 40
18.64843881496627
 41
2.25703794369645
 42
50.0
 43
0.0
 44
0.0
 50
0.0
 51
0.0
 71
     0
 72
   100
 73
     1
 74
     3
 75
     0
 76
     0
 77
     0
 78
     0
281
     0
 65
     1
110
0.0
120
0.0
130
0.0
111
1.0
121
0.0
131
0.0
112
0.0
122
1.0
132
0.0
 79
     0
146
0.0
  0
ENDTAB
  0
TABLE
  2
LTYPE
  5
5
330
0
100
AcDbSymbolTable
 70
     2
  0
LTYPE
  5
14
330
5
100
AcDbSymbolTableRecord
100
AcDbLinetypeTableRecord
  2
ByBlock
 70
     0
  3

 72
    65
 73
     0
 40
0.0
  0
LTYPE
  5
15
330
5
100
AcDbSymbolTableRecord
100
AcDbLinetypeTableRecord
  2
ByLayer
 70
     0
  3

 72
    65
 73
     0
 40
0.0
  0
LTYPE
  5
16
330
5
100
AcDbSymbolTableRecord
100
AcDbLinetypeTableRecord
  2
Continuous
 70
     0
  3
Solid line
 72
    65
 73
     0
 40
0.0
  0
LTYPE
  5
88
330
5
100
AcDbSymbolTableRecord
100
AcDbLinetypeTableRecord
  2
ceco.net
 70
     0
  3
__ __ __ __ __ __ __ __ __ __ __ __ __ __ __ __
 72
    65
 73
     2
 40
0.375
 49
0.25
 74
     0
 49
-0.125
 74
     0
  0
ENDTAB
  0
TABLE
  2
LAYER
  5
2
102
{ACAD_XDICTIONARY
360
95
102
}
330
0
100
AcDbSymbolTable
 70
     2
  0
LAYER
  5
10
330
2
100
AcDbSymbolTableRecord
100
AcDbLayerTableRecord
  2
0
 70
     0
 62
     7
  6
Continuous
370
    -3
390
F
  0
LAYER
  5
89
102
{ACAD_XDICTIONARY
360
8A
102
}
330
2
100
AcDbSymbolTableRecord
100
AcDbLayerTableRecord
  2
ceco.net 457
 70
     0
 62
    74
  6
Continuous
370
    -3
390
F
1001
AcAecLayerStandard
1000

1000

  0
ENDTAB
  0
TABLE
  2
STYLE
  5
3
330
0
100
AcDbSymbolTable
 70
     1
  0
STYLE
  5
11
330
3
100
AcDbSymbolTableRecord
100
AcDbTextStyleTableRecord
  2
Standard
 70
     0
 40
0.0
 41
1.0
 50
0.0
 71
     0
 42
2.5
  3
txt
  4

  0
ENDTAB
  0
TABLE
  2
VIEW
  5
6
330
0
100
AcDbSymbolTable
 70
     0
  0
ENDTAB
  0
TABLE
  2
UCS
  5
7
330
0
100
AcDbSymbolTable
 70
     0
  0
ENDTAB
  0
TABLE
  2
APPID
  5
9
330
0
100
AcDbSymbolTable
 70
     9
  0
APPID
  5
12
330
9
100
AcDbSymbolTableRecord
100
AcDbRegAppTableRecord
  2
ACAD
 70
     0
  0
APPID
  5
8D
330
9
100
AcDbSymbolTableRecord
100
AcDbRegAppTableRecord
  2
ACAD_PSEXT
 70
     0
  0
APPID
  5
8E
330
9
100
AcDbSymbolTableRecord
100
AcDbRegAppTableRecord
  2
AcadAnnoPO
 70
     0
  0
APPID
  5
8F
330
9
100
AcDbSymbolTableRecord
100
AcDbRegAppTableRecord
  2
AcadAnnotative
 70
     0
  0
APPID
  5
90
330
9
100
AcDbSymbolTableRecord
100
AcDbRegAppTableRecord
  2
ACAD_DSTYLE_DIMJAG
 70
     0
  0
APPID
  5
91
330
9
100
AcDbSymbolTableRecord
100
AcDbRegAppTableRecord
  2
ACAD_DSTYLE_DIMTALN
 70
     0
  0
APPID
  5
92
330
9
100
AcDbSymbolTableRecord
100
AcDbRegAppTableRecord
  2
ACAD_MLEADERVER
 70
     0
  0
APPID
  5
93
330
9
100
AcDbSymbolTableRecord
100
AcDbRegAppTableRecord
  2
AcAecLayerStandard
 70
     0
  0
APPID
  5
94
330
9
100
AcDbSymbolTableRecord
100
AcDbRegAppTableRecord
  2
ACAD_EXEMPT_FROM_CAD_STANDARDS
 70
     0
  0
ENDTAB
  0
TABLE
  2
DIMSTYLE
  5
A
330
0
100
AcDbSymbolTable
 70
     2
100
AcDbDimStyleTable
 71
     0
  0
DIMSTYLE
105
27
330
A
100
AcDbSymbolTableRecord
100
AcDbDimStyleTableRecord
  2
ISO-25
 70
     0
 41
2.5
 42
0.625
 43
3.75
 44
1.25
 73
     0
 74
     0
 77
     1
 78
     8
140
2.5
141
2.5
143
0.03937007874016
147
0.625
171
     3
172
     1
271
     2
272
     2
274
     3
278
    44
283
     0
284
     8
340
11
  0
DIMSTYLE
105
8C
330
A
100
AcDbSymbolTableRecord
100
AcDbDimStyleTableRecord
  2
Standard
 70
     0
340
11
  0
ENDTAB
  0
TABLE
  2
BLOCK_RECORD
  5
1
330
0
100
AcDbSymbolTable
 70
     1
  0
BLOCK_RECORD
  5
1F
330
1
100
AcDbSymbolTableRecord
100
AcDbBlockTableRecord
  2
*Model_Space
340
22
  0
BLOCK_RECORD
  5
55
330
1
100
AcDbSymbolTableRecord
100
AcDbBlockTableRecord
  2
*Paper_Space
340
56
  0
ENDTAB
  0
ENDSEC
  0
SECTION
  2
BLOCKS
  0
BLOCK
  5
20
330
1F
100
AcDbEntity
  8
0
100
AcDbBlockBegin
  2
*Model_Space
 70
     0
 10
0.0
 20
0.0
 30
0.0
  3
*Model_Space
  1

  0
ENDBLK
  5
21
330
1F
100
AcDbEntity
  8
0
100
AcDbBlockEnd
  0
BLOCK
  5
57
330
55
100
AcDbEntity
 67
     1
  8
0
100
AcDbBlockBegin
  2
*Paper_Space
 70
     0
 10
0.0
 20
0.0
 30
0.0
  3
*Paper_Space
  1

  0
ENDBLK
  5
58
330
55
100
AcDbEntity
 67
     1
  8
0
100
AcDbBlockEnd
  0
ENDSEC
  0
SECTION
  2
ENTITIES
  0
LINE
  5
12A
330
1F
100
AcDbEntity
  8
ceco.net 457
  6
ceco.net
 62
    74
100
AcDbLine
 10
0.0000000000006821
 20
0.0
 30
0.0
 11
37.0000000000025
 21
-0.0000000002180514
 31
0.0
  0
LINE
  5
12B
330
1F
100
AcDbEntity
  8
ceco.net 457
  6
ceco.net
 62
    74
100
AcDbLine
 10
27.64999999996712
 20
0.0999999997557097
 30
0.0
 11
36.800000000002
 21
0.0999999997015948
 31
0.0
  0
LINE
  5
12C
330
1F
100
AcDbEntity
  8
ceco.net 457
 62
    74
100
AcDbLine
 10
36.65000000001782
 20
9.199999999801548
 30
0.0
 11
36.75000000002365
 21
9.199999999800866
 31
0.0
  0
LINE
  5
12D
330
1F
100
AcDbEntity
  8
ceco.net 457
 62
    74
100
AcDbLine
 10
36.75000000001478
 20
5.209999999810179
 30
0.0
 11
36.65000000000896
 21
5.209999999810861
 31
0.0
  0
LINE
  5
12E
330
1F
100
AcDbEntity
  8
ceco.net 457
 62
    74
100
AcDbLine
 10
36.65000000000827
 20
5.109999999834144
 30
0.0
 11
36.75000000001409
 21
5.109999999833462
 31
0.0
  0
LINE
  5
12F
330
1F
100
AcDbEntity
  8
ceco.net 457
 62
    74
100
AcDbLine
 10
36.75000000002114
 20
3.839999999756628
 30
0.0
 11
36.65000000001532
 21
3.83999999975731
 31
0.0
  0
LINE
  5
130
330
1F
100
AcDbEntity
  8
ceco.net 457
 62
    74
100
AcDbLine
 10
36.65000000001487
 20
3.739999999780593
 30
0.0
 11
36.75000000002069
 21
3.739999999779911
 31
0.0
  0
LINE
  5
131
330
1F
100
AcDbEntity
  8
ceco.net 457
  6
ceco.net
 62
    74
100
AcDbLine
 10
27.65000000007467
 20
18.39999999975566
 30
0.0
 11
36.80000000010977
 21
18.39999999970177
 31
0.0
  0
LINE
  5
132
330
1F
100
AcDbEntity
  8
ceco.net 457
  6
ceco.net
 62
    74
100
AcDbLine
 10
0.0000000001095941
 20
18.49999999983697
 30
0.0
 11
37.00000000011141
 21
18.49999999961892
 31
0.0
  0
LINE
  5
133
330
1F
100
AcDbEntity
  8
ceco.net 457
 62
    74
100
AcDbLine
 10
36.65000000007967
 20
14.75999999962459
 30
0.0
 11
36.75000000008549
 21
14.75999999962391
 31
0.0
  0
LINE
  5
134
330
1F
100
AcDbEntity
  8
ceco.net 457
 62
    74
100
AcDbLine
 10
36.75000000008504
 20
14.65999999964719
 30
0.0
 11
36.65000000007921
 21
14.65999999964788
 31
0.0
  0
LINE
  5
135
330
1F
100
AcDbEntity
  8
ceco.net 457
 62
    74
100
AcDbLine
 10
36.65000000005716
 20
13.38999999957104
 30
0.0
 11
36.75000000006298
 21
13.38999999957036
 31
0.0
  0
LINE
  5
136
330
1F
100
AcDbEntity
  8
ceco.net 457
 62
    74
100
AcDbLine
 10
36.7500000000623
 20
13.28999999959364
 30
0.0
 11
36.65000000005647
 21
13.28999999959433
 31
0.0
  0
LINE
  5
137
330
1F
100
AcDbEntity
  8
ceco.net 457
 62
    74
100
AcDbLine
 10
36.6500000000185
 20
9.299999999603642
 30
0.0
 11
36.75000000002432
 21
9.29999999960296
 31
0.0
  0
LINE
  5
138
330
1F
100
AcDbEntity
  8
ceco.net 457
 62
    74
100
AcDbLine
 10
6.660000000098307
 20
13.36499999984039
 30
0.0
 11
30.34000000009132
 21
13.36499999964303
 31
0.0
  0
LINE
  5
139
330
1F
100
AcDbEntity
  8
ceco.net 457
 62
    74
100
AcDbLine
 10
6.660000000098079
 20
13.31499999979451
 30
0.0
 11
12.0900000001202
 21
13.31499999977563
 31
0.0
  0
LINE
  5
13A
330
1F
100
AcDbEntity
  8
ceco.net 457
 62
    74
100
AcDbLine
 10
6.660000000106037
 20
14.68499999978962
 30
0.0
 11
30.34000000009905
 21
14.68499999976643
 31
0.0
  0
LINE
  5
13B
330
1F
100
AcDbEntity
  8
ceco.net 457
 62
    74
100
AcDbLine
 10
6.610000000132458
 20
14.73499999977821
 30
0.0
 11
30.39000000013129
 21
14.73499999963815
 31
0.0
  0
LINE
  5
13C
330
1F
100
AcDbEntity
  8
ceco.net 457
 62
    74
100
AcDbLine
 10
12.140000000099
 20
9.274999999724968
 30
0.0
 11
24.86000000006424
 21
9.274999999765441
 31
0.0
  0
LINE
  5
13D
330
1F
100
AcDbEntity
  8
ceco.net 457
 62
    74
100
AcDbLine
 10
12.14000000009878
 20
9.224999999852798
 30
0.0
 11
24.86000000006379
 21
9.224999999777764
 31
0.0
  0
LINE
  5
13E
330
1F
100
AcDbEntity
  8
ceco.net 457
 62
    74
100
AcDbLine
 10
6.66000000006079
 20
5.184999999847832
 30
0.0
 11
12.09000000007222
 21
5.184999999829187
 31
0.0
  0
LINE
  5
13F
330
1F
100
AcDbEntity
  8
ceco.net 457
 62
    74
100
AcDbLine
 10
6.660000000060563
 20
5.134999999917454
 30
0.0
 11
30.3400000000322
 21
5.134999999720321
 31
0.0
  0
LINE
  5
140
330
1F
100
AcDbEntity
  8
ceco.net 457
 62
    74
100
AcDbLine
 10
6.610000000067884
 20
3.764999999864357
 30
0.0
 11
30.39000000002306
 21
3.764999999724295
 31
0.0
  0
LINE
  5
141
330
1F
100
AcDbEntity
  8
ceco.net 457
 62
    74
100
AcDbLine
 10
6.660000000056243
 20
3.814999999852261
 30
0.0
 11
30.34000000002061
 21
3.814999999712881
 31
0.0
  0
LINE
  5
142
330
1F
100
AcDbEntity
  8
ceco.net 457
  6
ceco.net
 62
    74
100
AcDbLine
 10
0.1999999999884494
 20
0.0999999999173724
 30
0.0
 11
0.2000000000962245
 21
18.39999999991732
 31
0.0
  0
LINE
  5
143
330
1F
100
AcDbEntity
  8
ceco.net 457
  6
ceco.net
 62
    74
100
AcDbLine
 10
0.0
 20
0.0
 30
0.0
 11
0.000000000108912
 21
18.49999999983697
 31
0.0
  0
LINE
  5
144
330
1F
100
AcDbEntity
  8
ceco.net 457
 62
    74
100
AcDbLine
 10
6.660000000117634
 20
9.224999999885085
 30
0.0
 11
6.660000000083073
 21
5.184999999847832
 31
0.0
  0
LINE
  5
145
330
1F
100
AcDbEntity
  8
ceco.net 457
 62
    74
100
AcDbLine
 10
12.0900000001202
 20
13.31499999977563
 30
0.0
 11
12.09000000007222
 21
5.184999999829187
 31
0.0
  0
LINE
  5
146
330
1F
100
AcDbEntity
  8
ceco.net 457
 62
    74
100
AcDbLine
 10
12.14000000012311
 20
13.31499999977563
 30
0.0
 11
12.140000000099
 21
9.274999999724968
 31
0.0
  0
LINE
  5
147
330
1F
100
AcDbEntity
  8
ceco.net 457
 62
    74
100
AcDbLine
 10
6.610000000132458
 20
14.73499999983642
 30
0.0
 11
6.610000000067884
 21
3.764999999922565
 31
0.0
  0
LINE
  5
148
330
1F
100
AcDbEntity
  8
ceco.net 457
  6
ceco.net
 62
    74
100
AcDbLine
 10
9.350000000066074
 20
0.0999999998634849
 30
0.0
 11
0.1999999999904958
 21
0.0999999999173724
 31
0.0
  0
LINE
  5
149
330
1F
100
AcDbEntity
  8
ceco.net 457
 62
    74
100
AcDbLine
 10
0.3500000000328782
 20
3.839999999971041
 30
0.0
 11
0.3500000000321961
 21
3.739999999994324
 31
0.0
  0
LINE
  5
14A
330
1F
100
AcDbEntity
  8
ceco.net 457
 62
    74
100
AcDbLine
 10
0.3500000000321961
 20
3.739999999994324
 30
0.0
 11
0.2500000000263753
 21
3.739999999995006
 31
0.0
  0
LINE
  5
14B
330
1F
100
AcDbEntity
  8
ceco.net 457
 62
    74
100
AcDbLine
 10
0.2500000000263753
 20
3.739999999995006
 30
0.0
 11
0.2500000000270575
 21
3.839999999971723
 31
0.0
  0
LINE
  5
14C
330
1F
100
AcDbEntity
  8
ceco.net 457
 62
    74
100
AcDbLine
 10
0.2500000000270575
 20
3.839999999971723
 30
0.0
 11
0.3500000000328782
 21
3.839999999971041
 31
0.0
  0
LINE
  5
14D
330
1F
100
AcDbEntity
  8
ceco.net 457
 62
    74
100
AcDbLine
 10
0.3500000000553882
 20
5.210000000024592
 30
0.0
 11
0.3500000000549335
 21
5.110000000047875
 31
0.0
  0
LINE
  5
14E
330
1F
100
AcDbEntity
  8
ceco.net 457
 62
    74
100
AcDbLine
 10
0.3500000000549335
 20
5.110000000047875
 30
0.0
 11
0.2500000000491127
 21
5.110000000048557
 31
0.0
  0
LINE
  5
14F
330
1F
100
AcDbEntity
  8
ceco.net 457
 62
    74
100
AcDbLine
 10
0.2500000000491127
 20
5.110000000048557
 30
0.0
 11
0.2500000000495675
 21
5.210000000025274
 31
0.0
  0
LINE
  5
150
330
1F
100
AcDbEntity
  8
ceco.net 457
 62
    74
100
AcDbLine
 10
0.2500000000495675
 20
5.210000000025274
 30
0.0
 11
0.3500000000553882
 21
5.210000000024592
 31
0.0
  0
LINE
  5
151
330
1F
100
AcDbEntity
  8
ceco.net 457
 62
    74
100
AcDbLine
 10
9.350000000066074
 20
0.0999999998634849
 30
0.0
 11
9.350000000051068
 21
-0.0000000001132321
 31
0.0
  0
LINE
  5
152
330
1F
100
AcDbEntity
  8
ceco.net 457
 62
    74
100
AcDbLine
 10
6.685000000058153
 20
0.1499999998675321
 30
0.0
 11
6.585000000052332
 21
0.1499999998679868
 31
0.0
  0
LINE
  5
153
330
1F
100
AcDbEntity
  8
ceco.net 457
 62
    74
100
AcDbLine
 10
6.585000000053014
 20
0.2499999998447038
 30
0.0
 11
6.685000000058835
 21
0.249999999844249
 31
0.0
  0
LINE
  5
154
330
1F
100
AcDbEntity
  8
ceco.net 457
 62
    74
100
AcDbLine
 10
6.685000000058835
 20
0.249999999844249
 30
0.0
 11
6.685000000058153
 21
0.1499999998675321
 31
0.0
  0
LINE
  5
155
330
1F
100
AcDbEntity
  8
ceco.net 457
 62
    74
100
AcDbLine
 10
6.585000000052332
 20
0.1499999998679868
 30
0.0
 11
6.585000000053014
 21
0.2499999998447038
 31
0.0
  0
LINE
  5
156
330
1F
100
AcDbEntity
  8
ceco.net 457
 62
    74
100
AcDbLine
 10
12.16500000003952
 20
0.149999999835245
 30
0.0
 11
12.0650000000337
 21
0.1499999998356998
 31
0.0
  0
LINE
  5
157
330
1F
100
AcDbEntity
  8
ceco.net 457
 62
    74
100
AcDbLine
 10
12.06500000003438
 20
0.2499999998124167
 30
0.0
 11
12.1650000000402
 21
0.249999999811962
 31
0.0
  0
LINE
  5
158
330
1F
100
AcDbEntity
  8
ceco.net 457
 62
    74
100
AcDbLine
 10
12.1650000000402
 20
0.249999999811962
 30
0.0
 11
12.16500000003952
 21
0.149999999835245
 31
0.0
  0
LINE
  5
159
330
1F
100
AcDbEntity
  8
ceco.net 457
 62
    74
100
AcDbLine
 10
12.0650000000337
 20
0.1499999998356998
 30
0.0
 11
12.06500000003438
 21
0.2499999998124167
 31
0.0
  0
LINE
  5
15A
330
1F
100
AcDbEntity
  8
ceco.net 457
  6
ceco.net
 62
    74
100
AcDbLine
 10
9.350000000173849
 20
18.39999999986344
 30
0.0
 11
0.2000000000982709
 21
18.39999999991732
 31
0.0
  0
LINE
  5
15B
330
1F
100
AcDbEntity
  8
ceco.net 457
 62
    74
100
AcDbLine
 10
0.350000000093587
 20
9.200000000015279
 30
0.0
 11
0.2500000000877662
 21
9.200000000015961
 31
0.0
  0
LINE
  5
15C
330
1F
100
AcDbEntity
  8
ceco.net 457
 62
    74
100
AcDbLine
 10
0.350000000093587
 20
9.199999999898864
 30
0.0
 11
0.3500000000940417
 21
9.299999999817373
 31
0.0
  0
LINE
  5
15D
330
1F
100
AcDbEntity
  8
ceco.net 457
 62
    74
100
AcDbLine
 10
0.2500000000877662
 20
9.199999999899546
 30
0.0
 11
0.250000000088221
 21
9.299999999818055
 31
0.0
  0
LINE
  5
15E
330
1F
100
AcDbEntity
  8
ceco.net 457
 62
    74
100
AcDbLine
 10
0.3500000000940417
 20
9.299999999933788
 30
0.0
 11
0.250000000088221
 21
9.29999999993447
 31
0.0
  0
LINE
  5
15F
330
1F
100
AcDbEntity
  8
ceco.net 457
 62
    74
100
AcDbLine
 10
0.2500000001118678
 20
13.28999999992515
 30
0.0
 11
0.3500000001176886
 21
13.28999999992447
 31
0.0
  0
LINE
  5
160
330
1F
100
AcDbEntity
  8
ceco.net 457
 62
    74
100
AcDbLine
 10
0.2500000001123226
 20
13.38999999990187
 30
0.0
 11
0.2500000001118678
 21
13.28999999992515
 31
0.0
  0
LINE
  5
161
330
1F
100
AcDbEntity
  8
ceco.net 457
 62
    74
100
AcDbLine
 10
0.3500000001181434
 20
13.38999999990119
 30
0.0
 11
0.2500000001123226
 21
13.38999999990187
 31
0.0
  0
LINE
  5
162
330
1F
100
AcDbEntity
  8
ceco.net 457
 62
    74
100
AcDbLine
 10
0.3500000001176886
 20
13.28999999992447
 30
0.0
 11
0.3500000001181434
 21
13.38999999990119
 31
0.0
  0
LINE
  5
163
330
1F
100
AcDbEntity
  8
ceco.net 457
 62
    74
100
AcDbLine
 10
0.2500000001198259
 20
14.65999999997871
 30
0.0
 11
0.3500000001256467
 21
14.65999999997802
 31
0.0
  0
LINE
  5
164
330
1F
100
AcDbEntity
  8
ceco.net 457
 62
    74
100
AcDbLine
 10
0.250000000120508
 20
14.75999999995542
 30
0.0
 11
0.2500000001198259
 21
14.65999999997871
 31
0.0
  0
LINE
  5
165
330
1F
100
AcDbEntity
  8
ceco.net 457
 62
    74
100
AcDbLine
 10
0.3500000001263288
 20
14.75999999995474
 30
0.0
 11
0.250000000120508
 21
14.75999999995542
 31
0.0
  0
LINE
  5
166
330
1F
100
AcDbEntity
  8
ceco.net 457
 62
    74
100
AcDbLine
 10
0.3500000001256467
 20
14.65999999997802
 30
0.0
 11
0.3500000001263288
 21
14.75999999995474
 31
0.0
  0
LINE
  5
167
330
1F
100
AcDbEntity
  8
ceco.net 457
 62
    74
100
AcDbLine
 10
6.660000000135141
 20
14.68499999978985
 30
0.0
 11
6.660000000131276
 21
13.36499999984062
 31
0.0
  0
LINE
  5
168
330
1F
100
AcDbEntity
  8
ceco.net 457
 62
    74
100
AcDbLine
 10
6.660000000074205
 20
9.274999999757255
 30
0.0
 11
6.710000000106219
 21
9.274999999756801
 31
0.0
  0
LINE
  5
169
330
1F
100
AcDbEntity
  8
ceco.net 457
 62
    74
100
AcDbLine
 10
6.660000000074205
 20
9.224999999885085
 30
0.0
 11
6.710000000105992
 21
9.224999999884857
 31
0.0
  0
LINE
  5
16A
330
1F
100
AcDbEntity
  8
ceco.net 457
 62
    74
100
AcDbLine
 10
6.710000000106219
 20
9.274999999756801
 30
0.0
 11
6.710000000105992
 21
9.224999999884857
 31
0.0
  0
LINE
  5
16B
330
1F
100
AcDbEntity
  8
ceco.net 457
 62
    74
100
AcDbLine
 10
6.585000000129866
 20
18.2499999998563
 30
0.0
 11
6.585000000130548
 21
18.34999999983301
 31
0.0
  0
LINE
  5
16C
330
1F
100
AcDbEntity
  8
ceco.net 457
 62
    74
100
AcDbLine
 10
6.685000000136369
 20
18.34999999983256
 30
0.0
 11
6.685000000135687
 21
18.24999999985584
 31
0.0
  0
LINE
  5
16D
330
1F
100
AcDbEntity
  8
ceco.net 457
 62
    74
100
AcDbLine
 10
6.685000000135687
 20
18.24999999985584
 30
0.0
 11
6.585000000129866
 21
18.2499999998563
 31
0.0
  0
LINE
  5
16E
330
1F
100
AcDbEntity
  8
ceco.net 457
 62
    74
100
AcDbLine
 10
6.585000000130548
 20
18.34999999983301
 30
0.0
 11
6.685000000136369
 21
18.34999999983256
 31
0.0
  0
LINE
  5
16F
330
1F
100
AcDbEntity
  8
ceco.net 457
 62
    74
100
AcDbLine
 10
9.350000000173849
 20
18.39999999986344
 30
0.0
 11
9.35000000015998
 21
18.49999999984015
 31
0.0
  0
LINE
  5
170
330
1F
100
AcDbEntity
  8
ceco.net 457
 62
    74
100
AcDbLine
 10
12.06500000014102
 20
18.34999999985893
 30
0.0
 11
12.06500000014034
 21
18.24999999988222
 31
0.0
  0
LINE
  5
171
330
1F
100
AcDbEntity
  8
ceco.net 457
 62
    74
100
AcDbLine
 10
12.16500000014616
 20
18.24999999988176
 30
0.0
 11
12.16500000014684
 21
18.34999999985848
 31
0.0
  0
LINE
  5
172
330
1F
100
AcDbEntity
  8
ceco.net 457
 62
    74
100
AcDbLine
 10
12.06500000014034
 20
18.24999999988222
 30
0.0
 11
12.16500000014616
 21
18.24999999988176
 31
0.0
  0
LINE
  5
173
330
1F
100
AcDbEntity
  8
ceco.net 457
 62
    74
100
AcDbLine
 10
12.16500000014684
 20
18.34999999985848
 30
0.0
 11
12.06500000014102
 21
18.34999999985893
 31
0.0
  0
LINE
  5
174
330
1F
100
AcDbEntity
  8
ceco.net 457
 62
    74
100
AcDbLine
 10
30.34000000002038
 20
3.814999999712881
 30
0.0
 11
30.3400000000322
 21
5.134999999720321
 31
0.0
  0
LINE
  5
175
330
1F
100
AcDbEntity
  8
ceco.net 457
 62
    74
100
AcDbLine
 10
24.9100000000376
 20
5.184999999784849
 30
0.0
 11
24.91000000009626
 21
13.3149999997313
 31
0.0
  0
LINE
  5
176
330
1F
100
AcDbEntity
  8
ceco.net 457
 62
    74
100
AcDbLine
 10
24.86000000003468
 20
5.184999999785077
 30
0.0
 11
24.86000000006379
 21
9.224999999777764
 31
0.0
  0
LINE
  5
177
330
1F
100
AcDbEntity
  8
ceco.net 457
 62
    74
100
AcDbLine
 10
30.39000000002306
 20
3.764999999782503
 30
0.0
 11
30.39000000011674
 21
14.73499999963815
 31
0.0
  0
LINE
  5
178
330
1F
100
AcDbEntity
  8
ceco.net 457
 62
    74
100
AcDbLine
 10
24.9350000000145
 20
0.149999999818192
 30
0.0
 11
24.83500000000868
 21
0.1499999998186468
 31
0.0
  0
LINE
  5
179
330
1F
100
AcDbEntity
  8
ceco.net 457
 62
    74
100
AcDbLine
 10
24.83500000000935
 20
0.2499999997953637
 30
0.0
 11
24.93500000001517
 21
0.2499999997949089
 31
0.0
  0
LINE
  5
17A
330
1F
100
AcDbEntity
  8
ceco.net 457
  6
ceco.net
 62
    74
100
AcDbLine
 10
18.50000000002614
 20
4.199999999850206
 30
0.0
 11
18.50000000001841
 21
2.879999999901428
 31
0.0
  0
LINE
  5
17B
330
1F
100
AcDbEntity
  8
ceco.net 457
 62
    74
100
AcDbLine
 10
17.00000000000227
 20
0.1499999998065959
 30
0.0
 11
16.70000000001391
 21
0.1499999998084149
 31
0.0
  0
LINE
  5
17C
330
1F
100
AcDbEntity
  8
ceco.net 457
 62
    74
100
AcDbLine
 10
16.70000000001437
 20
0.1999999997967734
 30
0.0
 11
17.00000000000272
 21
0.1999999997949544
 31
0.0
  0
LINE
  5
17D
330
1F
100
AcDbEntity
  8
ceco.net 457
 62
    74
100
AcDbLine
 10
16.69999999999981
 20
0.1999999997967734
 30
0.0
 11
16.69999999999936
 21
0.1499999998084149
 31
0.0
  0
LINE
  5
17E
330
1F
100
AcDbEntity
  8
ceco.net 457
 62
    74
100
AcDbLine
 10
17.00000000000272
 20
0.1999999997949544
 30
0.0
 11
17.00000000000227
 21
0.1499999998065959
 31
0.0
  0
LINE
  5
17F
330
1F
100
AcDbEntity
  8
ceco.net 457
  6
ceco.net
 62
    74
100
AcDbLine
 10
18.5000000000266
 20
4.249999999896772
 30
0.0
 11
18.50000000008549
 21
14.24999999989677
 31
0.0
  0
LINE
  5
180
330
1F
100
AcDbEntity
  8
ceco.net 457
 62
    74
100
AcDbLine
 10
20.29999999999063
 20
0.1499999999036845
 30
0.0
 11
20.00000000000227
 21
0.1499999998472958
 31
0.0
  0
LINE
  5
181
330
1F
100
AcDbEntity
  8
ceco.net 457
 62
    74
100
AcDbLine
 10
20.00000000000273
 20
0.1999999998356543
 30
0.0
 11
20.29999999999108
 21
0.199999999892043
 31
0.0
  0
LINE
  5
182
330
1F
100
AcDbEntity
  8
ceco.net 457
 62
    74
100
AcDbLine
 10
20.30000000000518
 20
0.1499999998454768
 30
0.0
 11
20.30000000000563
 21
0.1999999998338353
 31
0.0
  0
LINE
  5
183
330
1F
100
AcDbEntity
  8
ceco.net 457
 62
    74
100
AcDbLine
 10
20.00000000000227
 20
0.1499999998472958
 30
0.0
 11
20.00000000000273
 21
0.1999999998356543
 31
0.0
  0
LINE
  5
184
330
1F
100
AcDbEntity
  8
ceco.net 457
 62
    74
100
AcDbLine
 10
24.83500000000868
 20
0.1499999998186468
 30
0.0
 11
24.83500000000935
 21
0.2499999997953637
 31
0.0
  0
LINE
  5
185
330
1F
100
AcDbEntity
  8
ceco.net 457
 62
    74
100
AcDbLine
 10
27.64999999996712
 20
0.0999999996975021
 30
0.0
 11
27.64999999998122
 21
-0.0000000002210072
 31
0.0
  0
LINE
  5
186
330
1F
100
AcDbEntity
  8
ceco.net 457
 62
    74
100
AcDbLine
 10
24.93500000001517
 20
0.2499999997949089
 30
0.0
 11
24.9350000000145
 21
0.149999999818192
 31
0.0
  0
LINE
  5
187
330
1F
100
AcDbEntity
  8
ceco.net 457
 62
    74
100
AcDbLine
 10
30.41500000001042
 20
0.1499999997859049
 30
0.0
 11
30.3150000000046
 21
0.1499999997863597
 31
0.0
  0
LINE
  5
188
330
1F
100
AcDbEntity
  8
ceco.net 457
 62
    74
100
AcDbLine
 10
30.31500000000528
 20
0.2499999997630766
 30
0.0
 11
30.4150000000111
 21
0.2499999997626219
 31
0.0
  0
LINE
  5
189
330
1F
100
AcDbEntity
  8
ceco.net 457
 62
    74
100
AcDbLine
 10
30.4150000000111
 20
0.2499999997626219
 30
0.0
 11
30.41500000001042
 21
0.1499999997859049
 31
0.0
  0
LINE
  5
18A
330
1F
100
AcDbEntity
  8
ceco.net 457
 62
    74
100
AcDbLine
 10
30.3150000000046
 20
0.1499999997863597
 30
0.0
 11
30.31500000000528
 21
0.2499999997630766
 31
0.0
  0
LINE
  5
18B
330
1F
100
AcDbEntity
  8
ceco.net 457
 62
    74
100
AcDbLine
 10
36.65000000001532
 20
3.83999999975731
 30
0.0
 11
36.65000000001487
 21
3.739999999780593
 31
0.0
  0
LINE
  5
18C
330
1F
100
AcDbEntity
  8
ceco.net 457
 62
    74
100
AcDbLine
 10
36.65000000000896
 20
5.209999999810861
 30
0.0
 11
36.65000000000827
 21
5.109999999834144
 31
0.0
  0
LINE
  5
18D
330
1F
100
AcDbEntity
  8
ceco.net 457
 62
    74
100
AcDbLine
 10
24.83500000011531
 20
18.24999999974897
 30
0.0
 11
24.93500000012113
 21
18.24999999974829
 31
0.0
  0
LINE
  5
18E
330
1F
100
AcDbEntity
  8
ceco.net 457
 62
    74
100
AcDbLine
 10
24.93500000012181
 20
18.34999999972501
 30
0.0
 11
24.83500000011599
 21
18.34999999972569
 31
0.0
  0
LINE
  5
18F
330
1F
100
AcDbEntity
  8
ceco.net 457
  6
ceco.net
 62
    74
100
AcDbLine
 10
18.50000000008572
 20
14.29999999994334
 30
0.0
 11
18.50000000009345
 21
15.61999999989211
 31
0.0
  0
CIRCLE
  5
190
330
1F
100
AcDbEntity
  8
ceco.net 457
 62
    74
100
AcDbCircle
 10
18.50000000009367
 20
15.64499999991539
 30
0.0
 40
0.0357523605866845
  0
LINE
  5
191
330
1F
100
AcDbEntity
  8
ceco.net 457
 62
    74
100
AcDbLine
 10
17.00000000010936
 20
18.2999999998417
 30
0.0
 11
17.00000000010959
 21
18.34999999983006
 31
0.0
  0
LINE
  5
192
330
1F
100
AcDbEntity
  8
ceco.net 457
 62
    74
100
AcDbLine
 10
16.70000000010645
 20
18.29999999984329
 30
0.0
 11
16.70000000010668
 21
18.34999999983165
 31
0.0
  0
LINE
  5
193
330
1F
100
AcDbEntity
  8
ceco.net 457
 62
    74
100
AcDbLine
 10
16.700000000121
 20
18.29999999984329
 30
0.0
 11
17.00000000010936
 21
18.2999999998417
 31
0.0
  0
LINE
  5
194
330
1F
100
AcDbEntity
  8
ceco.net 457
 62
    74
100
AcDbLine
 10
17.00000000010959
 20
18.34999999983006
 30
0.0
 11
16.70000000012123
 21
18.34999999983165
 31
0.0
  0
LINE
  5
195
330
1F
100
AcDbEntity
  8
ceco.net 457
 62
    74
100
AcDbLine
 10
20.00000000010959
 20
18.34999999975411
 30
0.0
 11
20.00000000010936
 21
18.29999999976576
 31
0.0
  0
LINE
  5
196
330
1F
100
AcDbEntity
  8
ceco.net 457
 62
    74
100
AcDbLine
 10
20.3000000001125
 20
18.34999999975229
 30
0.0
 11
20.30000000011227
 21
18.29999999976394
 31
0.0
  0
LINE
  5
197
330
1F
100
AcDbEntity
  8
ceco.net 457
 62
    74
100
AcDbLine
 10
20.00000000010936
 20
18.29999999976576
 30
0.0
 11
20.30000000009772
 21
18.29999999970573
 31
0.0
  0
LINE
  5
198
330
1F
100
AcDbEntity
  8
ceco.net 457
 62
    74
100
AcDbLine
 10
20.30000000009795
 20
18.34999999969409
 30
0.0
 11
20.00000000010959
 21
18.34999999975411
 31
0.0
  0
LINE
  5
199
330
1F
100
AcDbEntity
  8
ceco.net 457
 62
    74
100
AcDbLine
 10
24.83500000011599
 20
18.34999999972569
 30
0.0
 11
24.83500000011531
 21
18.24999999974897
 31
0.0
  0
LINE
  5
19A
330
1F
100
AcDbEntity
  8
ceco.net 457
 62
    74
100
AcDbLine
 10
30.34000000006722
 20
9.274999999733836
 30
0.0
 11
30.34000000009132
 21
13.31499999971288
 31
0.0
  0
LINE
  5
19B
330
1F
100
AcDbEntity
  8
ceco.net 457
 62
    74
100
AcDbLine
 10
30.29000000006385
 20
9.224999999745932
 30
0.0
 11
30.29000000004975
 21
9.274999999734291
 31
0.0
  0
LINE
  5
19C
330
1F
100
AcDbEntity
  8
ceco.net 457
 62
    74
100
AcDbLine
 10
30.29000000004975
 20
9.274999999676083
 30
0.0
 11
30.34000000006722
 21
9.274999999675628
 31
0.0
  0
LINE
  5
19D
330
1F
100
AcDbEntity
  8
ceco.net 457
 62
    74
100
AcDbLine
 10
30.29000000006385
 20
9.224999999687724
 30
0.0
 11
30.34000000006699
 21
9.224999999716374
 31
0.0
  0
LINE
  5
19E
330
1F
100
AcDbEntity
  8
ceco.net 457
 62
    74
100
AcDbLine
 10
36.65000000001782
 20
9.199999999801548
 30
0.0
 11
36.6500000000185
 21
9.299999999603642
 31
0.0
  0
LINE
  5
19F
330
1F
100
AcDbEntity
  8
ceco.net 457
 62
    74
100
AcDbLine
 10
36.65000000005647
 20
13.28999999959433
 30
0.0
 11
36.65000000005716
 21
13.38999999957104
 31
0.0
  0
LINE
  5
1A0
330
1F
100
AcDbEntity
  8
ceco.net 457
 62
    74
100
AcDbLine
 10
36.65000000007921
 20
14.65999999964788
 30
0.0
 11
36.65000000007967
 21
14.75999999962459
 31
0.0
  0
LINE
  5
1A1
330
1F
100
AcDbEntity
  8
ceco.net 457
 62
    74
100
AcDbLine
 10
24.93500000012113
 20
18.24999999974829
 30
0.0
 11
24.93500000012181
 21
18.34999999972501
 31
0.0
  0
LINE
  5
1A2
330
1F
100
AcDbEntity
  8
ceco.net 457
 62
    74
100
AcDbLine
 10
27.65000000007489
 20
18.39999999981387
 30
0.0
 11
27.65000000009013
 21
18.49999999973238
 31
0.0
  0
LINE
  5
1A3
330
1F
100
AcDbEntity
  8
ceco.net 457
 62
    74
100
AcDbLine
 10
30.31500000011192
 20
18.3499999996934
 30
0.0
 11
30.31500000011124
 21
18.24999999971669
 31
0.0
  0
LINE
  5
1A4
330
1F
100
AcDbEntity
  8
ceco.net 457
 62
    74
100
AcDbLine
 10
30.41500000011706
 20
18.24999999971601
 30
0.0
 11
30.41500000011774
 21
18.34999999969272
 31
0.0
  0
LINE
  5
1A5
330
1F
100
AcDbEntity
  8
ceco.net 457
 62
    74
100
AcDbLine
 10
30.31500000011124
 20
18.24999999971669
 30
0.0
 11
30.41500000011706
 21
18.24999999971601
 31
0.0
  0
LINE
  5
1A6
330
1F
100
AcDbEntity
  8
ceco.net 457
 62
    74
100
AcDbLine
 10
30.41500000011774
 20
18.34999999969272
 30
0.0
 11
30.31500000011192
 21
18.3499999996934
 31
0.0
  0
LINE
  5
1A7
330
1F
100
AcDbEntity
  8
ceco.net 457
  6
ceco.net
 62
    74
100
AcDbLine
 10
37.00000000000295
 20
-0.0000000002180514
 30
0.0
 11
37.00000000011209
 21
18.49999999961892
 31
0.0
  0
LINE
  5
1A8
330
1F
100
AcDbEntity
  8
ceco.net 457
  6
ceco.net
 62
    74
100
AcDbLine
 10
36.800000000002
 20
0.0999999997015948
 30
0.0
 11
36.80000000010977
 21
18.39999999970177
 31
0.0
  0
LINE
  5
1A9
330
1F
100
AcDbEntity
  8
ceco.net 457
 62
    74
100
AcDbLine
 10
36.75000000002069
 20
3.739999999779911
 30
0.0
 11
36.75000000002114
 21
3.839999999756628
 31
0.0
  0
LINE
  5
1AA
330
1F
100
AcDbEntity
  8
ceco.net 457
 62
    74
100
AcDbLine
 10
36.75000000001409
 20
5.109999999833462
 30
0.0
 11
36.75000000001478
 21
5.209999999810179
 31
0.0
  0
LINE
  5
1AB
330
1F
100
AcDbEntity
  8
ceco.net 457
 62
    74
100
AcDbLine
 10
36.75000000002365
 20
9.199999999800866
 30
0.0
 11
36.75000000002432
 21
9.29999999960296
 31
0.0
  0
LINE
  5
1AC
330
1F
100
AcDbEntity
  8
ceco.net 457
 62
    74
100
AcDbLine
 10
36.75000000006298
 20
13.38999999957036
 30
0.0
 11
36.7500000000623
 21
13.28999999959364
 31
0.0
  0
LINE
  5
1AD
330
1F
100
AcDbEntity
  8
ceco.net 457
 62
    74
100
AcDbLine
 10
36.75000000008549
 20
14.75999999962391
 30
0.0
 11
36.75000000008504
 21
14.65999999964719
 31
0.0
  0
LINE
  5
1AE
330
1F
100
AcDbEntity
  8
ceco.net 457
 62
    74
100
AcDbLine
 10
30.34000000009155
 20
13.36499999964326
 30
0.0
 11
30.34000000009905
 21
14.68499999976643
 31
0.0
  0
LINE
  5
1AF
330
1F
100
AcDbEntity
  8
ceco.net 457
 62
    74
100
AcDbLine
 10
30.34000000003243
 20
5.184999999766205
 30
0.0
 11
30.34000000006676
 21
9.224999999745477
 31
0.0
  0
LINE
  5
1B0
330
1F
100
AcDbEntity
  8
ceco.net 457
 62
    74
100
AcDbLine
 10
24.9100000000376
 20
5.184999999784849
 30
0.0
 11
30.34000000003243
 21
5.184999999766205
 31
0.0
  0
LINE
  5
1B1
330
1F
100
AcDbEntity
  8
ceco.net 457
 62
    74
100
AcDbLine
 10
24.86000000006424
 20
9.274999999765441
 30
0.0
 11
24.86000000009335
 21
13.3149999997313
 31
0.0
  0
LINE
  5
1B2
330
1F
100
AcDbEntity
  8
ceco.net 457
 62
    74
100
AcDbLine
 10
24.91000000009626
 20
13.3149999997313
 30
0.0
 11
30.34000000009109
 21
13.31499999971242
 31
0.0
  0
LINE
  5
1B3
330
1F
100
AcDbEntity
  8
ceco.net 457
 62
    74
100
AcDbLine
 10
12.1400000000749
 20
5.18499999982896
 30
0.0
 11
24.86000000003468
 21
5.184999999785077
 31
0.0
  0
LINE
  5
1B4
330
1F
100
AcDbEntity
  8
ceco.net 457
 62
    74
100
AcDbLine
 10
12.14000000009878
 20
9.224999999852798
 30
0.0
 11
12.1400000000749
 21
5.18499999982896
 31
0.0
  0
LINE
  5
1B5
330
1F
100
AcDbEntity
  8
ceco.net 457
 62
    74
100
AcDbLine
 10
6.660000000082391
 20
5.134999999917454
 30
0.0
 11
6.660000000071022
 21
3.814999999852261
 31
0.0
  0
LINE
  5
1B6
330
1F
100
AcDbEntity
  8
ceco.net 457
 62
    74
100
AcDbLine
 10
6.660000000131049
 20
13.31499999979451
 30
0.0
 11
6.660000000117861
 21
9.274999999757028
 31
0.0
  0
LINE
  5
1B7
330
1F
100
AcDbEntity
  8
ceco.net 457
 62
    74
100
AcDbLine
 10
12.14000000012311
 20
13.31499999977563
 30
0.0
 11
24.86000000009335
 21
13.3149999997313
 31
0.0
  0
CIRCLE
  5
1B8
330
1F
100
AcDbEntity
  8
ceco.net 457
 62
    74
100
AcDbCircle
 10
18.50000000009367
 20
2.854999999645315
 30
0.0
 40
0.0357523605866845
  0
VIEWPORT
  5
7A
330
55
100
AcDbEntity
 67
     1
  8
0
100
AcDbViewport
 10
141.3004632695199
 20
101.5999970436096
 30
0.0
 40
515.5575580077527
 41
228.4221935424804
 68
     2
 69
     1
 12
141.3004632695199
 22
101.5999970436096
 13
0.0
 23
0.0
 14
10.0
 24
10.0
 15
10.0
 25
10.0
 16
0.0
 26
0.0
 36
1.0
 17
0.0
 27
0.0
 37
0.0
 42
50.0
 43
0.0
 44
0.0
 45
228.4221935424804
 50
0.0
 51
0.0
 72
   100
 90
    32800
  1

281
     0
 71
     1
 74
     0
110
0.0
120
0.0
130
0.0
111
1.0
121
0.0
131
0.0
112
0.0
122
1.0
132
0.0
 79
     0
146
0.0
  0
VIEWPORT
  5
7C
330
55
100
AcDbEntity
 67
     1
  8
0
100
AcDbViewport
 10
133.349993944168
 20
101.599993944168
 30
0.0
 40
213.3599903106689
 41
162.5599903106689
 68
     1
 69
     2
 12
18.4960499167201
 22
9.249810726454654
 13
0.0
 23
0.0
 14
10.0
 24
10.0
 15
10.0
 25
10.0
 16
0.0
 26
0.0
 36
1.0
 17
0.0
 27
0.0
 37
0.0
 42
50.0
 43
0.0
 44
0.0
 45
28.44596809142828
 50
0.0
 51
0.0
 72
   100
 90
    32864
  1

281
     0
 71
     1
 74
     0
110
0.0
120
0.0
130
0.0
111
1.0
121
0.0
131
0.0
112
0.0
122
1.0
132
0.0
 79
     0
146
0.0
  0
ENDSEC
  0
SECTION
  2
OBJECTS
  0
DICTIONARY
  5
C
330
0
100
AcDbDictionary
281
     1
  3
ACAD_GROUP
350
D
  3
ACAD_LAYOUT
350
1A
  3
ACAD_MLINESTYLE
350
17
  3
ACAD_PLOTSETTINGS
350
19
  3
ACAD_PLOTSTYLENAME
350
E
  3
AcDbVariableDictionary
350
5E
  0
DICTIONARY
  5
95
330
2
100
AcDbDictionary
280
     1
281
     1
  3
ACAD_LAYERFILTERS
360
1B9
  3
ACAD_LAYERSTATES
360
96
  0
DICTIONARY
  5
8A
330
89
100
AcDbDictionary
280
     1
281
     1
  3
ACAD_XREC_ROUNDTRIP
360
8B
  0
DICTIONARY
  5
D
102
{ACAD_REACTORS
330
C
102
}
330
C
100
AcDbDictionary
281
     1
  0
DICTIONARY
  5
1A
102
{ACAD_REACTORS
330
C
102
}
330
C
100
AcDbDictionary
281
     1
  3
Model
350
22
  3
www.ceco.net
350
56
  0
DICTIONARY
  5
17
102
{ACAD_REACTORS
330
C
102
}
330
C
100
AcDbDictionary
281
     1
  3
Standard
350
18
  0
DICTIONARY
  5
19
102
{ACAD_REACTORS
330
C
102
}
330
C
100
AcDbDictionary
281
     1
  0
ACDBDICTIONARYWDFLT
  5
E
102
{ACAD_REACTORS
330
C
102
}
330
C
100
AcDbDictionary
281
     1
  3
Normal
350
F
100
AcDbDictionaryWithDefault
340
F
  0
DICTIONARY
  5
5E
102
{ACAD_REACTORS
330
C
102
}
330
C
100
AcDbDictionary
281
     1
  3
DIMASSOC
350
5F
  3
HIDETEXT
350
63
  0
DICTIONARY
  5
1B9
102
{ACAD_REACTORS
330
95
102
}
330
95
100
AcDbDictionary
280
     1
281
     1
  0
DICTIONARY
  5
96
102
{ACAD_REACTORS
330
95
102
}
330
95
100
AcDbDictionary
281
     1
  0
XRECORD
  5
8B
102
{ACAD_REACTORS
330
8A
102
}
330
8A
100
AcDbXrecord
280
     1
102
MATERIAL
340
0
  0
LAYOUT
  5
22
102
{ACAD_REACTORS
330
1A
102
}
330
1A
100
AcDbPlotSettings
  1

  2
none_device
  4
ANSI_A_(8.50_x_11.00_Inches)
  6

 40
6.349999904632568
 41
19.04999923706054
 42
6.350006103515625
 43
19.04998779296875
 44
215.8999938964843
 45
279.3999938964843
 46
0.0
 47
0.0
 48
0.0
 49
0.0
140
0.0
141
0.0
142
1.0
143
78.436453180766
 70
 11952
 72
     0
 73
     1
 74
     0
  7

 75
     0
147
0.0127491741332998
148
0.0
149
0.0
100
AcDbLayout
  1
Model
 70
     1
 71
     0
 10
0.0
 20
0.0
 11
12.0
 21
9.0
 12
0.0
 22
0.0
 32
0.0
 14
0.0
 24
0.0
 34
0.0
 15
0.0
 25
0.0
 35
0.0
146
0.0
 13
0.0
 23
0.0
 33
0.0
 16
1.0
 26
0.0
 36
0.0
 17
0.0
 27
1.0
 37
0.0
 76
     0
330
1F
  0
LAYOUT
  5
56
102
{ACAD_REACTORS
330
1A
102
}
330
1A
100
AcDbPlotSettings
  1

  2
none_device
  4
Letter_(8.50_x_11.00_Inches)
  6

 40
6.349999904632568
 41
6.349999904632568
 42
6.350006103515625
 43
6.350006103515625
 44
215.8999938964843
 45
279.3999938964843
 46
0.0
 47
0.0
 48
0.0
 49
0.0
140
0.0
141
0.0
142
1.0
143
1.0
 70
   688
 72
     1
 73
     1
 74
     5
  7

 75
    16
147
1.0
148
0.0
149
0.0
100
AcDbLayout
  1
www.ceco.net
 70
     1
 71
     1
 10
-6.350006103515625
 20
-6.349999904632568
 11
273.0499877929687
 21
209.5499939918517
 12
0.0
 22
0.0
 32
0.0
 14
26.66999878883362
 24
20.31999878883362
 34
0.0
 15
240.0299890995025
 25
182.8799890995025
 35
0.0
146
0.0
 13
0.0
 23
0.0
 33
0.0
 16
1.0
 26
0.0
 36
0.0
 17
0.0
 27
1.0
 37
0.0
 76
     0
330
55
331
7C
  0
MLINESTYLE
  5
18
102
{ACAD_REACTORS
330
17
102
}
330
17
100
AcDbMlineStyle
  2
STANDARD
 70
     0
  3

 62
   256
 51
90.0
 52
90.0
 71
     2
 49
0.5
 62
   256
  6
BYLAYER
 49
-0.5
 62
   256
  6
BYLAYER
  0
ACDBPLACEHOLDER
  5
F
102
{ACAD_REACTORS
330
E
102
}
330
E
  0
DICTIONARYVAR
  5
5F
102
{ACAD_REACTORS
330
5E
102
}
330
5E
100
DictionaryVariables
280
     0
  1
2
  0
DICTIONARYVAR
  5
63
102
{ACAD_REACTORS
330
5E
102
}
330
5E
100
DictionaryVariables
280
     0
  1
1
  0
ENDSEC
  0
EOF
