  0
SECTION
  2
HEADER
  9
$ACADVER
  1
AC1015
  9
$ACADMAINTVER
 70
    13
  9
$DWGCODEPAGE
  3
ANSI_1252
  9
$INSBASE
 10
0.0
 20
0.0
 30
0.0
  9
$EXTMIN
 10
-100.0363144697305
 20
-100.01667649624
 30
-0.0000000349181948
  9
$EXTMAX
 10
100.0020677496143
 20
100.0121720099524
 30
0.0000000814935746
  9
$LIMMIN
 10
0.0
 20
0.0
  9
$LIMMAX
 10
420.0
 20
297.0
  9
$ORTHOMODE
 70
     0
  9
$REGENMODE
 70
     1
  9
$FILLMODE
 70
     1
  9
$QTEXTMODE
 70
     0
  9
$MIRRTEXT
 70
     1
  9
$LTSCALE
 40
1.0
  9
$ATTMODE
 70
     1
  9
$TEXTSIZE
 40
2.5
  9
$TRACEWID
 40
1.0
  9
$TEXTSTYLE
  7
Standard
  9
$CLAYER
  8
ceco.net 591 - recycle logo 02
  9
$CELTYPE
  6
ByLayer
  9
$CECOLOR
 62
   256
  9
$CELTSCALE
 40
1.0
  9
$DISPSILH
 70
     0
  9
$DIMSCALE
 40
1.0
  9
$DIMASZ
 40
2.5
  9
$DIMEXO
 40
0.625
  9
$DIMDLI
 40
3.75
  9
$DIMRND
 40
0.0
  9
$DIMDLE
 40
0.0
  9
$DIMEXE
 40
1.25
  9
$DIMTP
 40
0.0
  9
$DIMTM
 40
0.0
  9
$DIMTXT
 40
2.5
  9
$DIMCEN
 40
2.5
  9
$DIMTSZ
 40
0.0
  9
$DIMTOL
 70
     0
  9
$DIMLIM
 70
     0
  9
$DIMTIH
 70
     0
  9
$DIMTOH
 70
     0
  9
$DIMSE1
 70
     0
  9
$DIMSE2
 70
     0
  9
$DIMTAD
 70
     1
  9
$DIMZIN
 70
     8
  9
$DIMBLK
  1

  9
$DIMASO
 70
     1
  9
$DIMSHO
 70
     1
  9
$DIMPOST
  1

  9
$DIMAPOST
  1

  9
$DIMALT
 70
     0
  9
$DIMALTD
 70
     3
  9
$DIMALTF
 40
0.03937007874016
  9
$DIMLFAC
 40
1.0
  9
$DIMTOFL
 70
     1
  9
$DIMTVP
 40
0.0
  9
$DIMTIX
 70
     0
  9
$DIMSOXD
 70
     0
  9
$DIMSAH
 70
     0
  9
$DIMBLK1
  1

  9
$DIMBLK2
  1

  9
$DIMSTYLE
  2
ISO-25
  9
$DIMCLRD
 70
     0
  9
$DIMCLRE
 70
     0
  9
$DIMCLRT
 70
     0
  9
$DIMTFAC
 40
1.0
  9
$DIMGAP
 40
0.625
  9
$DIMJUST
 70
     0
  9
$DIMSD1
 70
     0
  9
$DIMSD2
 70
     0
  9
$DIMTOLJ
 70
     0
  9
$DIMTZIN
 70
     8
  9
$DIMALTZ
 70
     0
  9
$DIMALTTZ
 70
     0
  9
$DIMUPT
 70
     0
  9
$DIMDEC
 70
     2
  9
$DIMTDEC
 70
     2
  9
$DIMALTU
 70
     2
  9
$DIMALTTD
 70
     3
  9
$DIMTXSTY
  7
Standard
  9
$DIMAUNIT
 70
     0
  9
$DIMADEC
 70
     0
  9
$DIMALTRND
 40
0.0
  9
$DIMAZIN
 70
     0
  9
$DIMDSEP
 70
    44
  9
$DIMATFIT
 70
     3
  9
$DIMFRAC
 70
     0
  9
$DIMLDRBLK
  1

  9
$DIMLUNIT
 70
     2
  9
$DIMLWD
 70
    -2
  9
$DIMLWE
 70
    -2
  9
$DIMTMOVE
 70
     0
  9
$LUNITS
 70
     2
  9
$LUPREC
 70
     4
  9
$SKETCHINC
 40
1.0
  9
$FILLETRAD
 40
10.0
  9
$AUNITS
 70
     0
  9
$AUPREC
 70
     0
  9
$MENU
  1
.
  9
$ELEVATION
 40
0.0
  9
$PELEVATION
 40
0.0
  9
$THICKNESS
 40
0.0
  9
$LIMCHECK
 70
     0
  9
$CHAMFERA
 40
10.0
  9
$CHAMFERB
 40
10.0
  9
$CHAMFERC
 40
20.0
  9
$CHAMFERD
 40
0.0
  9
$SKPOLY
 70
     0
  9
$TDCREATE
 40
2460150.869473148
  9
$TDUCREATE
 40
2460150.994473148
  9
$TDUPDATE
 40
2460558.173133206
  9
$TDUUPDATE
 40
2460558.298133206
  9
$TDINDWG
 40
0.0079399537
  9
$TDUSRTIMER
 40
0.0079399537
  9
$USRTIMER
 70
     1
  9
$ANGBASE
 50
0.0
  9
$ANGDIR
 70
     0
  9
$PDMODE
 70
     0
  9
$PDSIZE
 40
0.0
  9
$PLINEWID
 40
0.0
  9
$SPLFRAME
 70
     0
  9
$SPLINETYPE
 70
     6
  9
$SPLINESEGS
 70
     8
  9
$HANDSEED
  5
8204
  9
$SURFTAB1
 70
     6
  9
$SURFTAB2
 70
     6
  9
$SURFTYPE
 70
     6
  9
$SURFU
 70
     6
  9
$SURFV
 70
     6
  9
$UCSBASE
  2

  9
$UCSNAME
  2

  9
$UCSORG
 10
0.0
 20
0.0
 30
0.0
  9
$UCSXDIR
 10
1.0
 20
0.0
 30
0.0
  9
$UCSYDIR
 10
0.0
 20
1.0
 30
0.0
  9
$UCSORTHOREF
  2

  9
$UCSORTHOVIEW
 70
     0
  9
$UCSORGTOP
 10
0.0
 20
0.0
 30
0.0
  9
$UCSORGBOTTOM
 10
0.0
 20
0.0
 30
0.0
  9
$UCSORGLEFT
 10
0.0
 20
0.0
 30
0.0
  9
$UCSORGRIGHT
 10
0.0
 20
0.0
 30
0.0
  9
$UCSORGFRONT
 10
0.0
 20
0.0
 30
0.0
  9
$UCSORGBACK
 10
0.0
 20
0.0
 30
0.0
  9
$PUCSBASE
  2

  9
$PUCSNAME
  2

  9
$PUCSORG
 10
0.0
 20
0.0
 30
0.0
  9
$PUCSXDIR
 10
1.0
 20
0.0
 30
0.0
  9
$PUCSYDIR
 10
0.0
 20
1.0
 30
0.0
  9
$PUCSORTHOREF
  2

  9
$PUCSORTHOVIEW
 70
     0
  9
$PUCSORGTOP
 10
0.0
 20
0.0
 30
0.0
  9
$PUCSORGBOTTOM
 10
0.0
 20
0.0
 30
0.0
  9
$PUCSORGLEFT
 10
0.0
 20
0.0
 30
0.0
  9
$PUCSORGRIGHT
 10
0.0
 20
0.0
 30
0.0
  9
$PUCSORGFRONT
 10
0.0
 20
0.0
 30
0.0
  9
$PUCSORGBACK
 10
0.0
 20
0.0
 30
0.0
  9
$USERI1
 70
     0
  9
$USERI2
 70
     0
  9
$USERI3
 70
     0
  9
$USERI4
 70
     0
  9
$USERI5
 70
     0
  9
$USERR1
 40
0.0
  9
$USERR2
 40
0.0
  9
$USERR3
 40
0.0
  9
$USERR4
 40
0.0
  9
$USERR5
 40
0.0
  9
$WORLDVIEW
 70
     1
  9
$SHADEDGE
 70
     3
  9
$SHADEDIF
 70
    70
  9
$TILEMODE
 70
     1
  9
$MAXACTVP
 70
    64
  9
$PINSBASE
 10
0.0
 20
0.0
 30
0.0
  9
$PLIMCHECK
 70
     0
  9
$PEXTMIN
 10
4.376823999034058
 20
4.864343823140643
 30
0.0
  9
$PEXTMAX
 10
262.323157690419
 20
197.3807079237956
 30
0.0
  9
$PLIMMIN
 10
-6.350006103515625
 20
-6.349999904632568
  9
$PLIMMAX
 10
273.0499877929687
 20
209.5499939918517
  9
$UNITMODE
 70
     0
  9
$VISRETAIN
 70
     1
  9
$PLINEGEN
 70
     0
  9
$PSLTSCALE
 70
     1
  9
$TREEDEPTH
 70
  3020
  9
$CMLSTYLE
  2
Standard
  9
$CMLJUST
 70
     0
  9
$CMLSCALE
 40
20.0
  9
$PROXYGRAPHICS
 70
     1
  9
$MEASUREMENT
 70
     1
  9
$CELWEIGHT
370
    -1
  9
$ENDCAPS
280
     0
  9
$JOINSTYLE
280
     0
  9
$LWDISPLAY
290
     0
  9
$INSUNITS
 70
     4
  9
$HYPERLINKBASE
  1

  9
$STYLESHEET
  1

  9
$XEDIT
290
     1
  9
$CEPSNTYPE
380
     0
  9
$PSTYLEMODE
290
     1
  9
$FINGERPRINTGUID
  2
{FDEAD578-A652-11D2-9A35-0060089B3A3F}
  9
$VERSIONGUID
  2
{12C032AE-6AA6-4581-BC4A-F7085609D3FA}
  9
$EXTNAMES
290
     1
  9
$PSVPSCALE
 40
0.0
  9
$OLESTARTUP
290
     0
  0
ENDSEC
  0
SECTION
  2
CLASSES
  0
CLASS
  1
ACDBDICTIONARYWDFLT
  2
AcDbDictionaryWithDefault
  3
AutoCAD 2000
 90
        0
280
     0
281
     0
  0
CLASS
  1
ACDBPLACEHOLDER
  2
AcDbPlaceHolder
  3
AutoCAD 2000
 90
        0
280
     0
281
     0
  0
CLASS
  1
LAYOUT
  2
AcDbLayout
  3
AutoCAD 2000
 90
        0
280
     0
281
     0
  0
CLASS
  1
DICTIONARYVAR
  2
AcDbDictionaryVar
  3
AutoCAD 2000
 90
        0
280
     0
281
     0
  0
ENDSEC
  0
SECTION
  2
TABLES
  0
TABLE
  2
VPORT
  5
8
330
0
100
AcDbSymbolTable
 70
     4
  0
VPORT
  5
8203
330
8
100
AcDbSymbolTableRecord
100
AcDbViewportTableRecord
  2
*Active
 70
     0
 10
0.0
 20
0.0
 11
1.0
 21
1.0
 12
0.0032050791234042
 22
0.0022664488086832
 13
0.0
 23
0.0
 14
10.0
 24
10.0
 15
10.0
 25
10.0
 16
0.0
 26
0.0
 36
1.0
 17
0.0
 27
0.0
 37
0.0
 40
201.0170694957954
 41
2.078661087866108
 42
50.0
 43
0.0
 44
0.0
 50
0.0
 51
0.0
 71
     0
 72
   100
 73
     1
 74
     3
 75
     0
 76
     0
 77
     0
 78
     0
281
     0
 65
     1
110
0.0
120
0.0
130
0.0
111
1.0
121
0.0
131
0.0
112
0.0
122
1.0
132
0.0
 79
     0
146
0.0
  0
ENDTAB
  0
TABLE
  2
LTYPE
  5
5
330
0
100
AcDbSymbolTable
 70
     1
  0
LTYPE
  5
14
330
5
100
AcDbSymbolTableRecord
100
AcDbLinetypeTableRecord
  2
ByBlock
 70
     0
  3

 72
    65
 73
     0
 40
0.0
  0
LTYPE
  5
15
330
5
100
AcDbSymbolTableRecord
100
AcDbLinetypeTableRecord
  2
ByLayer
 70
     0
  3

 72
    65
 73
     0
 40
0.0
  0
LTYPE
  5
16
330
5
100
AcDbSymbolTableRecord
100
AcDbLinetypeTableRecord
  2
Continuous
 70
     0
  3
Solid line
 72
    65
 73
     0
 40
0.0
  0
ENDTAB
  0
TABLE
  2
LAYER
  5
2
102
{ACAD_XDICTIONARY
360
85
102
}
330
0
100
AcDbSymbolTable
 70
     2
  0
LAYER
  5
10
330
2
100
AcDbSymbolTableRecord
100
AcDbLayerTableRecord
  2
0
 70
     0
 62
     7
  6
Continuous
370
    -3
390
F
  0
LAYER
  5
81EF
102
{ACAD_XDICTIONARY
360
81F0
102
}
330
2
100
AcDbSymbolTableRecord
100
AcDbLayerTableRecord
  2
ceco.net 591 - recycle logo 02
 70
     0
 62
     7
  6
Continuous
370
    -3
390
F
1001
AcAecLayerStandard
1000

1000

1001
AcCmTransparency
1071
        0
  0
ENDTAB
  0
TABLE
  2
STYLE
  5
3
330
0
100
AcDbSymbolTable
 70
     1
  0
STYLE
  5
11
330
3
100
AcDbSymbolTableRecord
100
AcDbTextStyleTableRecord
  2
Standard
 70
     0
 40
0.0
 41
1.0
 50
0.0
 71
     0
 42
2.5
  3
txt
  4

  0
ENDTAB
  0
TABLE
  2
VIEW
  5
6
330
0
100
AcDbSymbolTable
 70
     0
  0
ENDTAB
  0
TABLE
  2
UCS
  5
7
330
0
100
AcDbSymbolTable
 70
     0
  0
ENDTAB
  0
TABLE
  2
APPID
  5
9
330
0
100
AcDbSymbolTable
 70
    17
  0
APPID
  5
12
330
9
100
AcDbSymbolTableRecord
100
AcDbRegAppTableRecord
  2
ACAD
 70
     0
  0
APPID
  5
80
330
9
100
AcDbSymbolTableRecord
100
AcDbRegAppTableRecord
  2
ACAD_NAV_VCDISPLAY
 70
     0
  0
APPID
  5
81
330
9
100
AcDbSymbolTableRecord
100
AcDbRegAppTableRecord
  2
AcAecLayerStandard
 70
     0
  0
APPID
  5
82
330
9
100
AcDbSymbolTableRecord
100
AcDbRegAppTableRecord
  2
AcCmTransparency
 70
     0
  0
APPID
  5
83
330
9
100
AcDbSymbolTableRecord
100
AcDbRegAppTableRecord
  2
ACAD_EXEMPT_FROM_CAD_STANDARDS
 70
     0
  0
APPID
  5
84
330
9
100
AcDbSymbolTableRecord
100
AcDbRegAppTableRecord
  2
ACAD_MLEADERVER
 70
     0
  0
APPID
  5
590E
330
9
100
AcDbSymbolTableRecord
100
AcDbRegAppTableRecord
  2
ACAD_PSEXT
 70
     0
  0
APPID
  5
590F
330
9
100
AcDbSymbolTableRecord
100
AcDbRegAppTableRecord
  2
AcadAnnoPO
 70
     0
  0
APPID
  5
5910
330
9
100
AcDbSymbolTableRecord
100
AcDbRegAppTableRecord
  2
AcadAnnotative
 70
     0
  0
APPID
  5
5911
330
9
100
AcDbSymbolTableRecord
100
AcDbRegAppTableRecord
  2
ACAD_DSTYLE_DIMJAG
 70
     0
  0
APPID
  5
5912
330
9
100
AcDbSymbolTableRecord
100
AcDbRegAppTableRecord
  2
ACAD_DSTYLE_DIMTALN
 70
     0
  0
APPID
  5
5913
330
9
100
AcDbSymbolTableRecord
100
AcDbRegAppTableRecord
  2
_KTI_ARE
 70
     0
  0
APPID
  5
5914
330
9
100
AcDbSymbolTableRecord
100
AcDbRegAppTableRecord
  2
PE_URL
 70
     0
  0
APPID
  5
5915
330
9
100
AcDbSymbolTableRecord
100
AcDbRegAppTableRecord
  2
AcadStringInfo
 70
     0
  0
APPID
  5
5916
330
9
100
AcDbSymbolTableRecord
100
AcDbRegAppTableRecord
  2
AcDbBlockRepETag
 70
     0
  0
APPID
  5
81F2
330
9
100
AcDbSymbolTableRecord
100
AcDbRegAppTableRecord
  2
GradientColor1ACI
 70
     0
  0
APPID
  5
81F3
330
9
100
AcDbSymbolTableRecord
100
AcDbRegAppTableRecord
  2
GradientColor2ACI
 70
     0
  0
ENDTAB
  0
TABLE
  2
DIMSTYLE
  5
A
330
0
100
AcDbSymbolTable
 70
     3
100
AcDbDimStyleTable
 71
     2
340
27
340
7F
  0
DIMSTYLE
105
27
330
A
100
AcDbSymbolTableRecord
100
AcDbDimStyleTableRecord
  2
ISO-25
 70
     0
 41
2.5
 42
0.625
 43
3.75
 44
1.25
 73
     0
 74
     0
 77
     1
 78
     8
140
2.5
141
2.5
143
0.03937007874016
147
0.625
171
     3
172
     1
271
     2
272
     2
274
     3
278
    44
283
     0
284
     8
340
11
  0
DIMSTYLE
105
7F
330
A
100
AcDbSymbolTableRecord
100
AcDbDimStyleTableRecord
  2
Standard
 70
     0
340
11
  0
ENDTAB
  0
TABLE
  2
BLOCK_RECORD
  5
1
330
0
100
AcDbSymbolTable
 70
     3
  0
BLOCK_RECORD
  5
1F
330
1
100
AcDbSymbolTableRecord
100
AcDbBlockTableRecord
  2
*Model_Space
340
22
  0
BLOCK_RECORD
  5
50
330
1
100
AcDbSymbolTableRecord
100
AcDbBlockTableRecord
  2
*Paper_Space
340
51
  0
BLOCK_RECORD
  5
81C5
330
1
100
AcDbSymbolTableRecord
100
AcDbBlockTableRecord
  2
*U0
340
0
102
{BLKREFS
331
81E7
331
81E8
331
81E9
102
}
  0
BLOCK_RECORD
  5
81E6
102
{ACAD_XDICTIONARY
360
81EA
102
}
330
1
100
AcDbSymbolTableRecord
100
AcDbBlockTableRecord
  2
*U1
340
0
102
{BLKREFS
331
81F5
331
81FD
102
}
  0
ENDTAB
  0
ENDSEC
  0
SECTION
  2
BLOCKS
  0
BLOCK
  5
20
330
1F
100
AcDbEntity
  8
0
100
AcDbBlockBegin
  2
*Model_Space
 70
     0
 10
0.0
 20
0.0
 30
0.0
  3
*Model_Space
  1

  0
ENDBLK
  5
21
330
1F
100
AcDbEntity
  8
0
100
AcDbBlockEnd
  0
BLOCK
  5
52
330
50
100
AcDbEntity
 67
     1
  8
0
100
AcDbBlockBegin
  2
*Paper_Space
 70
     0
 10
0.0
 20
0.0
 30
0.0
  3
*Paper_Space
  1

  0
ENDBLK
  5
53
330
50
100
AcDbEntity
 67
     1
  8
0
100
AcDbBlockEnd
  0
BLOCK
  5
81E4
330
81C5
100
AcDbEntity
  8
0
100
AcDbBlockBegin
  2
*U0
 70
     1
 10
0.0
 20
0.0
 30
0.0
  3
*U0
  1

  0
HATCH
  5
81C6
330
81C5
100
AcDbEntity
  8
ceco.net 591 - recycle logo 02
100
AcDbHatch
 10
0.0
 20
0.0
 30
0.0
210
0.0
220
0.0
230
0.9999999999999998
  2
SOLID
 70
     1
 71
     0
 91
        3
 92
        7
 72
     1
 73
     1
 93
       12
 10
-0.0222363788388071
 20
0.0588014731719272
 42
0.0
 10
0.0833722673111996
 20
-0.1223718238516979
 42
0.0
 10
-0.1022122645472546
 20
-0.2331805215437286
 42
0.0
 10
0.3620282782470971
 20
-0.211677031402005
 42
0.0
 10
0.5725875391941379
 20
0.1697285286159734
 42
0.0
 10
0.412550907707148
 20
0.0741739555030669
 42
0.0
 10
0.3238742349520415
 20
0.2229483698158255
 42
0.2642255596766753
 10
0.2072958997061643
 20
0.2891781643708642
 42
0.0
 10
-0.2820266445107866
 20
0.2891781643708642
 42
0.2729218436385257
 10
-0.400797691602781
 20
0.2191301158336281
 42
0.0
 10
-0.5725875391941403
 20
-0.0915791428080609
 42
0.0
 10
-0.2146328628048985
 20
-0.2891781643708642
 42
0.0
 97
        0
 92
       22
 72
     1
 73
     1
 93
        7
 10
-0.5283116152705882
 20
-0.0788153351348982
 42
0.0
 10
-0.3722926403007023
 20
0.2033697923718318
 42
-0.2729218436385255
 10
-0.2820266445107866
 20
0.2566063092601312
 42
0.0
 10
-0.1463008748773971
 20
0.2566063092601316
 42
-0.0840850299520587
 10
-0.1172558653548205
 20
0.2218088999421301
 42
0.0
 10
-0.0413376566858234
 20
0.0915700163837454
 42
0.0
 10
-0.2273881327485102
 20
-0.2449318566773436
 42
0.0
 97
        0
 92
       22
 72
     1
 73
     1
 93
        9
 10
-0.0891158629230146
 20
0.2382121315899671
 42
0.0414265692299078
 10
-0.1019874615274721
 20
0.2566063092601308
 42
0.0
 10
0.2072958997061641
 20
0.2566063092601312
 42
-0.2642255596766783
 10
0.2958954344930315
 20
0.2062716653983012
 42
0.0
 10
0.4012615035512188
 20
0.0294971572267937
 42
0.0
 10
0.4858469171123202
 20
0.0800013637282087
 42
0.0
 10
0.3423195163711487
 20
-0.1799831575481043
 42
0.0
 10
0.0258706547715527
 20
-0.1946409789757819
 42
0.0
 10
0.1277440534518059
 20
-0.1338144729939697
 42
0.0
 97
        0
 75
     1
 76
     1
 47
0.0834802902883648
 98
        3
 10
-0.5426708243661672
 20
-0.0919798884899375
 10
-0.5426708243661672
 20
-0.0919798884899375
 10
-0.5426708243661672
 20
-0.0919798884899375
1001
GradientColor1ACI
1070
     5
1001
GradientColor2ACI
1070
     2
1001
ACAD
1010
0.0
1020
0.0
1030
0.0
  0
LINE
  5
81C7
330
81C5
100
AcDbEntity
  8
ceco.net 591 - recycle logo 02
100
AcDbLine
 10
-0.5725875391941403
 20
-0.0915791428080609
 30
0.0
 11
-0.2146328628048985
 21
-0.2891781643708642
 31
0.0
  0
LINE
  5
81C8
330
81C5
100
AcDbEntity
  8
ceco.net 591 - recycle logo 02
100
AcDbLine
 10
-0.5283116152705864
 20
-0.0788153351348966
 30
0.0
 11
-0.2273881327485108
 21
-0.2449318566773433
 31
0.0
  0
LINE
  5
81C9
330
81C5
100
AcDbEntity
  8
ceco.net 591 - recycle logo 02
100
AcDbLine
 10
-0.5725875391941403
 20
-0.0915791428080609
 30
0.0
 11
-0.4007976916027813
 21
0.2191301158336283
 31
0.0
  0
LINE
  5
81CA
330
81C5
100
AcDbEntity
  8
ceco.net 591 - recycle logo 02
100
AcDbLine
 10
-0.5283116152705864
 20
-0.078815335134895
 30
0.0
 11
-0.3722926403007028
 21
0.2033697923718321
 31
0.0
  0
ARC
  5
81CB
330
81C5
100
AcDbEntity
  8
ceco.net 591 - recycle logo 02
100
AcDbCircle
 10
-0.2820266445107866
 20
0.1534621014094768
 30
0.0
 40
0.1357160629613875
100
AcDbArc
 50
90.0
 51
151.0619779660685
  0
ARC
  5
81CC
330
81C5
100
AcDbEntity
  8
ceco.net 591 - recycle logo 02
100
AcDbCircle
 10
-0.2820266445107866
 20
0.1534621014094768
 30
0.0
 40
0.1031442078506545
100
AcDbArc
 50
90.0
 51
151.0619779660685
  0
LINE
  5
81CD
330
81C5
100
AcDbEntity
  8
ceco.net 591 - recycle logo 02
100
AcDbLine
 10
-0.2146328628048985
 20
-0.2891781643708642
 30
0.0
 11
-0.0222363788388086
 21
0.0588014731719243
 31
0.0
  0
LINE
  5
81CE
330
81C5
100
AcDbEntity
  8
ceco.net 591 - recycle logo 02
100
AcDbLine
 10
-0.22738813274851
 20
-0.2449318566773433
 30
0.0
 11
-0.0413376566858237
 21
0.0915700163837449
 31
0.0
  0
LINE
  5
81CF
330
81C5
100
AcDbEntity
  8
ceco.net 591 - recycle logo 02
100
AcDbLine
 10
-0.2345058754873411
 20
0.2891781643708642
 30
0.0
 11
-0.2820266445107866
 21
0.2891781643708642
 31
0.0
  0
ARC
  5
81D0
330
81C5
100
AcDbEntity
  8
ceco.net 591 - recycle logo 02
100
AcDbCircle
 10
0.2072958997061643
 20
0.1534621014094768
 30
0.0
 40
0.1357160629613875
100
AcDbArc
 50
30.7969659152454
 51
90.0
  0
ARC
  5
81D1
330
81C5
100
AcDbEntity
  8
ceco.net 591 - recycle logo 02
100
AcDbCircle
 10
0.2072958997061643
 20
0.1534621014094768
 30
0.0
 40
0.1031442078506545
100
AcDbArc
 50
30.7969659152454
 51
90.0
  0
LINE
  5
81D2
330
81C5
100
AcDbEntity
  8
ceco.net 591 - recycle logo 02
100
AcDbLine
 10
0.4125509077071473
 20
0.0741739555030682
 30
0.0
 11
0.3238742349520415
 21
0.2229483698158265
 31
0.0
  0
LINE
  5
81D3
330
81C5
100
AcDbEntity
  8
ceco.net 591 - recycle logo 02
100
AcDbLine
 10
0.4012615035512188
 20
0.0294971572267937
 30
0.0
 11
0.2958954344930317
 21
0.2062716653983031
 31
0.0
  0
LINE
  5
81D4
330
81C5
100
AcDbEntity
  8
ceco.net 591 - recycle logo 02
100
AcDbLine
 10
-0.1022122645472548
 20
-0.2331805215437287
 30
0.0
 11
0.0833722673112004
 21
-0.1223718238516974
 31
0.0
  0
LINE
  5
81D5
330
81C5
100
AcDbEntity
  8
ceco.net 591 - recycle logo 02
100
AcDbLine
 10
0.4125509077071503
 20
0.0741739555030682
 30
0.0
 11
0.5725875391941403
 21
0.169728528615975
 31
0.0
  0
LINE
  5
81D6
330
81C5
100
AcDbEntity
  8
ceco.net 591 - recycle logo 02
100
AcDbLine
 10
0.0258706547715539
 20
-0.1946409789757812
 30
0.0
 11
0.1277440534518059
 21
-0.1338144729939698
 31
0.0
  0
LINE
  5
81D7
330
81C5
100
AcDbEntity
  8
ceco.net 591 - recycle logo 02
100
AcDbLine
 10
0.4012615035512188
 20
0.0294971572267937
 30
0.0
 11
0.4858469171123207
 21
0.0800013637282091
 31
0.0
  0
LINE
  5
81D8
330
81C5
100
AcDbEntity
  8
ceco.net 591 - recycle logo 02
100
AcDbLine
 10
-0.1022122645472548
 20
-0.2331805215437287
 30
0.0
 11
0.3620282782470964
 21
-0.2116770314020051
 31
0.0
  0
LINE
  5
81D9
330
81C5
100
AcDbEntity
  8
ceco.net 591 - recycle logo 02
100
AcDbLine
 10
0.0258706547715524
 20
-0.1946409789757819
 30
0.0
 11
0.3423195163711495
 21
-0.1799831575481043
 31
0.0
  0
LINE
  5
81DA
330
81C5
100
AcDbEntity
  8
ceco.net 591 - recycle logo 02
100
AcDbLine
 10
0.5725875391941371
 20
0.1697285286159727
 30
0.0
 11
0.3620282782470979
 21
-0.2116770314020036
 31
0.0
  0
LINE
  5
81DB
330
81C5
100
AcDbEntity
  8
ceco.net 591 - recycle logo 02
100
AcDbLine
 10
0.4858469171123207
 20
0.0800013637282099
 30
0.0
 11
0.3423195163711479
 21
-0.1799831575481059
 31
0.0
  0
LINE
  5
81DC
330
81C5
100
AcDbEntity
  8
ceco.net 591 - recycle logo 02
100
AcDbLine
 10
0.0833722673111988
 20
-0.1223718238516967
 30
0.0
 11
-0.0222363788388071
 21
0.0588014731719274
 31
0.0
  0
LINE
  5
81DD
330
81C5
100
AcDbEntity
  8
ceco.net 591 - recycle logo 02
100
AcDbLine
 10
-0.0413376566858237
 20
0.0915700163837457
 30
0.0
 11
-0.1172558653548199
 21
0.22180889994213
 31
0.0
  0
LINE
  5
81DE
330
81C5
100
AcDbEntity
  8
ceco.net 591 - recycle logo 02
100
AcDbLine
 10
0.1277440534518059
 20
-0.1338144729939698
 30
0.0
 11
-0.0891158629230123
 21
0.2382121315899687
 31
0.0
  0
ARC
  5
81DF
330
81C5
100
AcDbEntity
  8
ceco.net 591 - recycle logo 02
100
AcDbCircle
 10
-0.2345058754873411
 20
0.1534621014094768
 30
0.0
 40
0.1357160629613875
100
AcDbArc
 50
30.23855373681582
 51
49.4641978886829
  0
LINE
  5
81E0
330
81C5
100
AcDbEntity
  8
ceco.net 591 - recycle logo 02
100
AcDbLine
 10
0.2072958997061643
 20
0.2891781643708642
 30
0.0
 11
-0.2820266445107866
 21
0.2891781643708642
 31
0.0
  0
LINE
  5
81E1
330
81C5
100
AcDbEntity
  8
ceco.net 591 - recycle logo 02
100
AcDbLine
 10
0.2072958997061643
 20
0.2566063092601316
 30
0.0
 11
-0.1019874615274723
 21
0.2566063092601309
 31
0.0
  0
LINE
  5
81E2
330
81C5
100
AcDbEntity
  8
ceco.net 591 - recycle logo 02
100
AcDbLine
 10
-0.1463008748773968
 20
0.2566063092601316
 30
0.0
 11
-0.2820266445107866
 21
0.2566063092601316
 31
0.0
  0
ARC
  5
81E3
330
81C5
100
AcDbEntity
  8
ceco.net 591 - recycle logo 02
100
AcDbCircle
 10
-0.2063658730555357
 20
0.1698653330573147
 30
0.0
 40
0.1357160629613875
100
AcDbArc
 50
30.23855373681582
 51
39.72739839781237
  0
ENDBLK
  5
81E5
330
81C5
100
AcDbEntity
  8
0
100
AcDbBlockEnd
  0
BLOCK
  5
81ED
330
81E6
100
AcDbEntity
  8
0
100
AcDbBlockBegin
  2
*U1
 70
     1
 10
0.0
 20
0.0
 30
0.0
  3
*U1
  1

  0
INSERT
  5
81E7
330
81E6
100
AcDbEntity
  8
ceco.net 591 - recycle logo 02
  6
ByBlock
 62
     0
370
    -2
380
     1
100
AcDbBlockReference
  2
*U0
 10
0.0312417613406866
 20
0.4468935337437816
 30
0.0
  0
INSERT
  5
81E8
330
81E6
100
AcDbEntity
  8
ceco.net 591 - recycle logo 02
  6
ByBlock
 62
     0
370
    -2
380
     1
100
AcDbBlockReference
  2
*U0
 10
-0.4026420336794576
 20
-0.1963906078918854
 30
0.0
 50
119.9999999999999
  0
INSERT
  5
81E9
330
81E6
100
AcDbEntity
  8
ceco.net 591 - recycle logo 02
  6
ByBlock
 62
     0
370
    -2
380
     1
100
AcDbBlockReference
  2
*U0
 10
0.371400272338769
 20
-0.250502925851897
 30
0.0
 50
239.9999999999999
  0
ENDBLK
  5
81EE
330
81E6
100
AcDbEntity
  8
0
100
AcDbBlockEnd
  0
ENDSEC
  0
SECTION
  2
ENTITIES
  0
INSERT
  5
81FD
102
{ACAD_REACTORS
330
8200
102
}
330
1F
100
AcDbEntity
  8
ceco.net 591 - recycle logo 02
100
AcDbBlockReference
  2
*U1
 10
-0.000000000001901
 20
-0.0000000000009289
 30
0.0
 41
100.0
 42
100.0
 43
100.0
  0
CIRCLE
  5
81FE
102
{ACAD_REACTORS
330
8200
102
}
330
1F
100
AcDbEntity
  8
ceco.net 591 - recycle logo 02
100
AcDbCircle
 10
-0.000000000001954
 20
-0.0000000000009548
 30
0.0
 40
96.74281448892671
  0
CIRCLE
  5
81FF
102
{ACAD_REACTORS
330
8200
102
}
330
1F
100
AcDbEntity
  8
ceco.net 591 - recycle logo 02
100
AcDbCircle
 10
-0.000000000001954
 20
-0.0000000000009548
 30
0.0
 40
100.0
  0
HATCH
  5
8200
330
1F
100
AcDbEntity
  8
ceco.net 591 - recycle logo 02
100
AcDbHatch
 10
0.0
 20
0.0
 30
0.0
210
0.0
220
0.0
230
1.0
  2
SOLID
 70
     1
 71
     1
 91
       11
 92
        7
 72
     1
 73
     1
 93
        2
 10
-100.0000000000019
 20
-0.0000000000009548
 42
1.0
 10
99.99999999999804
 20
-0.0000000000009548
 42
1.0
 97
        1
330
81FF
 92
       22
 72
     1
 73
     1
 93
        2
 10
96.74281448892475
 20
-0.0000000000009548
 42
-1.0
 10
-96.74281448892866
 20
-0.0000000000009548
 42
-1.0
 97
        1
330
81FE
 92
        6
 72
     1
 73
     1
 93
       12
 10
-83.59250208049342
 20
21.46204826326596
 42
0.0
 10
-40.03384862112121
 20
22.29735936594351
 42
0.0
 10
-14.95956460812753
 20
-16.83187647962887
 42
0.0
 10
-33.83510591720712
 20
-6.300219450344002
 42
0.0
 10
-44.2447413806911
 20
-24.50486134404399
 42
0.0
 10
-4.488996571210668
 20
-23.76790373824849
 42
0.0
 10
-3.703839995382274
 20
-64.64763913204079
 42
0.0
 10
-39.20154349242348
 20
-65.30566485148781
 42
-0.2729218436385256
 10
-51.20643479890038
 20
-58.52219287677511
 42
0.0
 10
-75.67256200974791
 20
-16.14561748314372
 42
-0.2642255596766752
 10
-75.76581031483297
 20
-2.738147770008936
 42
0.0
 10
-67.31540172978828
 20
12.38019807852915
 42
0.0
 97
        1
330
81FD
 92
        6
 72
     1
 73
     1
 93
        9
 10
-71.48487055616654
 20
18.43644828136226
 42
0.0
 10
-41.79318051750554
 20
19.00583682707753
 42
0.0
 10
-24.70133286547528
 20
-7.666547415930214
 42
0.0
 10
-35.06273273985747
 20
-1.885377592324877
 42
0.0
 10
-56.43818596645224
 20
-39.26732748583805
 42
0.0414265692299079
 10
-57.38758855063798
 20
-41.30174950722389
 42
0.0
 10
-72.85175661231981
 20
-14.51702472760709
 42
-0.2642255596766781
 10
-72.92262532418444
 20
-4.327347745624566
 42
0.0
 10
-62.88180729529127
 20
13.63634691308037
 42
0.0
 97
        1
330
81FD
 92
        6
 72
     1
 73
     1
 93
       12
 10
-54.13457778534726
 20
35.53143909357113
 42
0.0
 10
-36.95559302621133
 20
66.60236495774005
 42
-0.2729218436385255
 10
-25.07848831701189
 20
73.60716981146366
 42
0.0
 10
23.85376610468319
 20
73.60716981146366
 42
-0.2642255596766754
 10
35.5115996292709
 20
66.98419035595979
 42
0.0
 10
44.37926690478156
 20
52.10674892468389
 42
0.0
 10
60.38293005348048
 20
61.66220623597453
 42
0.0
 10
39.32700395877646
 20
23.52165023417672
 42
0.0
 10
-7.097050320658704
 20
21.37130122000435
 42
0.0
 10
11.46140286518673
 20
32.45217098920743
 42
0.0
 10
0.9005382501860781
 20
50.56950069156997
 42
0.0
 10
-18.33911014642309
 20
15.7715369372908
 42
0.0
 97
        1
330
81FD
 92
        6
 72
     1
 73
     1
 93
        7
 10
-49.70698539299196
 20
36.80781986088756
 42
0.0
 10
-34.10508789600347
 20
65.02633261156041
 42
-0.2729218436385257
 10
-25.07848831701189
 20
70.34998430039036
 42
0.0
 10
-11.50591135367294
 20
70.34998430039038
 42
-0.0840850299520586
 10
-8.601410401415288
 20
66.87024336859024
 42
0.0
 10
-1.009589534515598
 20
53.84635501275176
 42
0.0
 10
-19.61463714078427
 20
20.19616770664286
 42
0.0
 97
        1
330
81FD
 92
        6
 72
     1
 73
     1
 93
        7
 10
-46.12751657498449
 20
-27.797507690661
 42
0.0
 10
-7.683075722655274
 20
-27.08485790325409
 42
0.0
 10
-7.02301436095788
 20
-61.45142202631658
 42
0.0
 10
-39.26191200854985
 20
-62.04903882202012
 42
-0.2729218436385255
 10
-48.3856294014723
 20
-56.89360012123848
 42
0.0
 10
-55.17191788314181
 20
-45.13940367616749
 42
-0.0840850299520581
 10
-53.61062431374319
 20
-40.88416160029622
 42
0.0
 97
        1
330
81FD
 92
        6
 72
     1
 73
     1
 93
        9
 10
-7.074570018680459
 20
70.34998430039031
 42
0.0
 10
23.85376610468317
 20
70.34998430039036
 42
-0.264225559676679
 10
32.71371958336995
 20
65.31651991420734
 42
0.0
 10
43.25032648918862
 20
47.63906909705659
 42
0.0
 10
51.70886784529877
 20
52.68948974719812
 42
0.0
 10
37.35612777118165
 20
26.69103761956679
 42
0.0
 10
5.711241611222018
 20
25.22525547679903
 42
0.0
 10
15.89858147924732
 20
31.30790607498024
 42
0.0
 10
-5.787410158234695
 20
68.51056653337394
 42
0.041426569229908
 97
        1
330
81FD
 92
        6
 72
     1
 73
     1
 93
       12
 10
22.82810671762792
 20
7.996366800954834
 42
0.0
 10
57.83841778072369
 20
29.11620003846672
 42
0.0
 10
76.15713651862894
 20
-1.296700106255133
 42
-0.2729218436385259
 10
76.28492311590642
 20
-15.08497693469145
 42
0.0
 10
51.8187959050588
 20
-57.46155232832281
 42
-0.2642255596766754
 10
40.25421068555615
 20
-64.24604258595372
 42
0.0
 10
22.93613482500078
 20
-64.48694700321592
 42
0.0
 10
23.20957202700675
 20
-83.1242544992434
 42
0.0
 10
0.7068446623388458
 20
-45.81900960012307
 42
0.0
 10
22.05661492878041
 20
-4.539424740378372
 42
0.0
 10
22.37370305201453
 20
-26.1519515388663
 42
0.0
 10
43.3442031304992
 20
-26.06463934752886
 42
0.0
 97
        1
330
81FD
 92
        6
 72
     1
 73
     1
 93
        7
 10
27.29771286343365
 20
6.888690196608354
 42
0.0
 10
56.72999975394399
 20
24.64360216542605
 42
0.0
 10
73.36699990454746
 20
-2.977293789543211
 42
-0.2729218436385254
 10
73.46411771847832
 20
-13.4563841791548
 42
0.0
 10
66.67782923680888
 20
-25.2105806242258
 42
-0.0840850299520583
 10
62.21203471515259
 20
-25.98608176829696
 42
0.0
 10
47.13710610949424
 20
-26.04884732209364
 42
0.0
 97
        1
330
81FD
 92
        6
 72
     1
 73
     1
 93
        9
 10
18.99009125424737
 20
-17.55870806087165
 42
0.0
 10
19.16415126060424
 20
-29.42252848265821
 42
0.0
 10
62.22559612468106
 20
-29.24323904753879
 42
0.0414265692299077
 10
64.46215856931255
 20
-29.04823479316931
 42
0.0
 10
48.99799050763071
 20
-55.83295957278615
 42
-0.2642255596766778
 10
40.20890574080861
 20
-60.98917216858564
 42
0.0
 10
19.63148080609671
 20
-61.2754160101398
 42
0.0
 10
19.7760027108617
 20
-71.1259380285632
 42
0.0
 10
4.437052746317982
 20
-45.69687444664714
 42
0.0
 97
        1
330
81FD
 75
     1
 76
     1
 47
0.0048496706294465
 98
       11
 10
-91.19811176210532
 20
36.85947430906253
 10
-91.19811176210532
 20
36.85947430906253
 10
-91.19811176210532
 20
36.85947430906253
 10
-91.19811176210532
 20
36.85947430906253
 10
-91.19811176210532
 20
36.85947430906253
 10
-91.19811176210532
 20
36.85947430906253
 10
-91.19811176210532
 20
36.85947430906253
 10
-91.19811176210532
 20
36.85947430906253
 10
-91.19811176210532
 20
36.85947430906253
 10
-91.19811176210532
 20
36.85947430906253
 10
-91.19811176210532
 20
36.85947430906253
1001
GradientColor1ACI
1070
     5
1001
GradientColor2ACI
1070
     2
1001
ACAD
1010
0.0
1020
0.0
1030
0.0
  0
VIEWPORT
  5
75
330
50
100
AcDbEntity
 67
     1
  8
0
100
AcDbViewport
 10
133.3499908447265
 20
101.5999970436096
 30
0.0
 40
474.8123253217753
 41
228.4221935424804
 68
     2
 69
     1
 12
133.3499908447265
 22
101.5999970436096
 13
0.0
 23
0.0
 14
10.0
 24
10.0
 15
10.0
 25
10.0
 16
0.0
 26
0.0
 36
1.0
 17
0.0
 27
0.0
 37
0.0
 42
50.0
 43
0.0
 44
0.0
 45
228.4221935424804
 50
0.0
 51
0.0
 72
   100
 90
    32800
  1

281
     0
 71
     1
 74
     0
110
0.0
120
0.0
130
0.0
111
1.0
121
0.0
131
0.0
112
0.0
122
1.0
132
0.0
 79
     0
146
0.0
  0
VIEWPORT
  5
77
330
50
100
AcDbEntity
 67
     1
  8
0
100
AcDbViewport
 10
133.3499908447265
 20
101.1225258734681
 30
0.0
 40
257.946333691385
 41
192.5163641006549
 68
     1
 69
     2
 12
-0.0171233600581218
 22
-0.0022522431438006
 13
0.0
 23
0.0
 14
10.0
 24
10.0
 15
10.0
 25
10.0
 16
0.0
 26
0.0
 36
1.0
 17
0.0
 27
0.0
 37
0.0
 42
50.0
 43
0.0
 44
0.0
 45
201.220678785276
 50
0.0
 51
0.0
 72
   100
 90
    32864
  1

281
     0
 71
     1
 74
     0
110
0.0
120
0.0
130
0.0
111
1.0
121
0.0
131
0.0
112
0.0
122
1.0
132
0.0
 79
     0
146
0.0
  0
ENDSEC
  0
SECTION
  2
OBJECTS
  0
DICTIONARY
  5
C
330
0
100
AcDbDictionary
281
     1
  3
ACAD_GROUP
350
D
  3
ACAD_IMAGE_DICT
350
81FB
  3
ACAD_LAYOUT
350
1A
  3
ACAD_MLINESTYLE
350
17
  3
ACAD_PLOTSETTINGS
350
19
  3
ACAD_PLOTSTYLENAME
350
E
  3
AcDbVariableDictionary
350
5E
  0
DICTIONARY
  5
85
330
2
100
AcDbDictionary
280
     1
281
     1
  3
ACAD_LAYERFILTERS
360
5903
  3
ACAD_LAYERSTATES
360
86
  0
DICTIONARY
  5
81F0
330
81EF
100
AcDbDictionary
280
     1
281
     1
  3
ADSK_XREC_LAYER_RECONCILED
360
81F1
  0
DICTIONARY
  5
81EA
330
81E6
100
AcDbDictionary
280
     1
281
     1
  3
AcDbBlockTableRecordData
360
81EB
  0
DICTIONARY
  5
D
102
{ACAD_REACTORS
330
C
102
}
330
C
100
AcDbDictionary
281
     1
  0
DICTIONARY
  5
81FB
102
{ACAD_REACTORS
330
C
102
}
330
C
100
AcDbDictionary
281
     1
  0
DICTIONARY
  5
1A
102
{ACAD_REACTORS
330
C
102
}
330
C
100
AcDbDictionary
281
     1
  3
ceco.net
350
51
  3
Model
350
22
  0
DICTIONARY
  5
17
102
{ACAD_REACTORS
330
C
102
}
330
C
100
AcDbDictionary
281
     1
  3
Standard
350
18
  0
DICTIONARY
  5
19
102
{ACAD_REACTORS
330
C
102
}
330
C
100
AcDbDictionary
281
     1
  0
ACDBDICTIONARYWDFLT
  5
E
102
{ACAD_REACTORS
330
C
102
}
330
C
100
AcDbDictionary
281
     1
  3
Normal
350
F
100
AcDbDictionaryWithDefault
340
F
  0
DICTIONARY
  5
5E
102
{ACAD_REACTORS
330
C
102
}
330
C
100
AcDbDictionary
281
     1
  3
DIMASSOC
350
5F
  3
HIDETEXT
350
63
  0
DICTIONARY
  5
5903
102
{ACAD_REACTORS
330
85
102
}
330
85
100
AcDbDictionary
280
     1
281
     1
  0
DICTIONARY
  5
86
102
{ACAD_REACTORS
330
85
102
}
330
85
100
AcDbDictionary
281
     1
  0
XRECORD
  5
81F1
102
{ACAD_REACTORS
330
81F0
102
}
330
81F0
100
AcDbXrecord
280
     1
290
     1
  0
DICTIONARY
  5
81EB
102
{ACAD_REACTORS
330
81EA
102
}
330
81EA
100
AcDbDictionary
280
     1
281
     1
  3
Edit
360
81EC
  0
LAYOUT
  5
51
102
{ACAD_REACTORS
330
1A
102
}
330
1A
100
AcDbPlotSettings
  1

  2
none_device
  4
Letter_(8.50_x_11.00_Inches)
  6

 40
6.349999904632568
 41
6.349999904632568
 42
6.350006103515625
 43
6.350006103515625
 44
215.8999938964843
 45
279.3999938964843
 46
0.0
 47
0.0
 48
0.0
 49
0.0
140
0.0
141
0.0
142
1.0
143
1.0
 70
   688
 72
     1
 73
     1
 74
     5
  7

 75
    16
147
1.0
148
0.0
149
0.0
100
AcDbLayout
  1
ceco.net
 70
     1
 71
     1
 10
-6.350006103515625
 20
-6.349999904632568
 11
273.0499877929687
 21
209.5499939918517
 12
0.0
 22
0.0
 32
0.0
 14
4.376823999034058
 24
4.864343823140643
 34
0.0
 15
262.323157690419
 25
197.3807079237956
 35
0.0
146
0.0
 13
0.0
 23
0.0
 33
0.0
 16
1.0
 26
0.0
 36
0.0
 17
0.0
 27
1.0
 37
0.0
 76
     0
330
50
331
77
  0
LAYOUT
  5
22
102
{ACAD_REACTORS
330
1A
102
}
330
1A
100
AcDbPlotSettings
  1

  2
none_device
  4
ANSI_A_(8.50_x_11.00_Inches)
  6

 40
6.349999904632568
 41
19.04999923706054
 42
6.350006103515625
 43
19.04998779296875
 44
215.8999938964843
 45
279.3999938964843
 46
0.0
 47
0.0
 48
0.0
 49
0.0
140
0.0
141
0.0
142
1.0
143
78.436453180766
 70
 11952
 72
     0
 73
     1
 74
     0
  7

 75
     0
147
0.0127491741332998
148
0.0
149
0.0
100
AcDbLayout
  1
Model
 70
     1
 71
     0
 10
0.0
 20
0.0
 11
12.0
 21
9.0
 12
0.0
 22
0.0
 32
0.0
 14
0.0
 24
0.0
 34
0.0
 15
0.0
 25
0.0
 35
0.0
146
0.0
 13
0.0
 23
0.0
 33
0.0
 16
1.0
 26
0.0
 36
0.0
 17
0.0
 27
1.0
 37
0.0
 76
     0
330
1F
  0
MLINESTYLE
  5
18
102
{ACAD_REACTORS
330
17
102
}
330
17
100
AcDbMlineStyle
  2
STANDARD
 70
     0
  3

 62
   256
 51
90.0
 52
90.0
 71
     2
 49
0.5
 62
   256
  6
BYLAYER
 49
-0.5
 62
   256
  6
BYLAYER
  0
ACDBPLACEHOLDER
  5
F
102
{ACAD_REACTORS
330
E
102
}
330
E
  0
DICTIONARYVAR
  5
5F
102
{ACAD_REACTORS
330
5E
102
}
330
5E
100
DictionaryVariables
280
     0
  1
2
  0
DICTIONARYVAR
  5
63
102
{ACAD_REACTORS
330
5E
102
}
330
5E
100
DictionaryVariables
280
     0
  1
1
  0
XRECORD
  5
81EC
102
{ACAD_REACTORS
330
81EB
102
}
330
81EB
100
AcDbXrecord
280
     1
1070
     0
1070
     1
1070
     1
  0
ENDSEC
  0
EOF
