  0
SECTION
  2
HEADER
  9
$ACADVER
  1
AC1015
  9
$ACADMAINTVER
 70
    13
  9
$DWGCODEPAGE
  3
ANSI_1252
  9
$INSBASE
 10
0.0
 20
0.0
 30
0.0
  9
$EXTMIN
 10
-1.640596339830267
 20
-0.0045292325963828
 30
-0.0000000000112498
  9
$EXTMAX
 10
33.61513993291294
 20
19.00778489650906
 30
0.0000000000002956
  9
$LIMMIN
 10
0.0
 20
0.0
  9
$LIMMAX
 10
420.0
 20
297.0
  9
$ORTHOMODE
 70
     0
  9
$REGENMODE
 70
     1
  9
$FILLMODE
 70
     1
  9
$QTEXTMODE
 70
     0
  9
$MIRRTEXT
 70
     1
  9
$LTSCALE
 40
2.0
  9
$ATTMODE
 70
     1
  9
$TEXTSIZE
 40
2.5
  9
$TRACEWID
 40
1.0
  9
$TEXTSTYLE
  7
Standard
  9
$CLAYER
  8
ceco.net 458
  9
$CELTYPE
  6
ceco.net 1
  9
$CECOLOR
 62
   256
  9
$CELTSCALE
 40
2.0
  9
$DISPSILH
 70
     0
  9
$DIMSCALE
 40
1.0
  9
$DIMASZ
 40
2.5
  9
$DIMEXO
 40
0.625
  9
$DIMDLI
 40
3.75
  9
$DIMRND
 40
0.0
  9
$DIMDLE
 40
0.0
  9
$DIMEXE
 40
1.25
  9
$DIMTP
 40
0.0
  9
$DIMTM
 40
0.0
  9
$DIMTXT
 40
2.5
  9
$DIMCEN
 40
2.5
  9
$DIMTSZ
 40
0.0
  9
$DIMTOL
 70
     0
  9
$DIMLIM
 70
     0
  9
$DIMTIH
 70
     0
  9
$DIMTOH
 70
     0
  9
$DIMSE1
 70
     0
  9
$DIMSE2
 70
     0
  9
$DIMTAD
 70
     1
  9
$DIMZIN
 70
     8
  9
$DIMBLK
  1

  9
$DIMASO
 70
     1
  9
$DIMSHO
 70
     1
  9
$DIMPOST
  1

  9
$DIMAPOST
  1

  9
$DIMALT
 70
     0
  9
$DIMALTD
 70
     3
  9
$DIMALTF
 40
0.03937007874016
  9
$DIMLFAC
 40
1.0
  9
$DIMTOFL
 70
     1
  9
$DIMTVP
 40
0.0
  9
$DIMTIX
 70
     0
  9
$DIMSOXD
 70
     0
  9
$DIMSAH
 70
     0
  9
$DIMBLK1
  1

  9
$DIMBLK2
  1

  9
$DIMSTYLE
  2
ISO-25
  9
$DIMCLRD
 70
     0
  9
$DIMCLRE
 70
     0
  9
$DIMCLRT
 70
     0
  9
$DIMTFAC
 40
1.0
  9
$DIMGAP
 40
0.625
  9
$DIMJUST
 70
     0
  9
$DIMSD1
 70
     0
  9
$DIMSD2
 70
     0
  9
$DIMTOLJ
 70
     0
  9
$DIMTZIN
 70
     8
  9
$DIMALTZ
 70
     0
  9
$DIMALTTZ
 70
     0
  9
$DIMUPT
 70
     0
  9
$DIMDEC
 70
     2
  9
$DIMTDEC
 70
     2
  9
$DIMALTU
 70
     2
  9
$DIMALTTD
 70
     3
  9
$DIMTXSTY
  7
Standard
  9
$DIMAUNIT
 70
     0
  9
$DIMADEC
 70
     0
  9
$DIMALTRND
 40
0.0
  9
$DIMAZIN
 70
     0
  9
$DIMDSEP
 70
    44
  9
$DIMATFIT
 70
     3
  9
$DIMFRAC
 70
     0
  9
$DIMLDRBLK
  1

  9
$DIMLUNIT
 70
     2
  9
$DIMLWD
 70
    -2
  9
$DIMLWE
 70
    -2
  9
$DIMTMOVE
 70
     0
  9
$LUNITS
 70
     2
  9
$LUPREC
 70
     4
  9
$SKETCHINC
 40
1.0
  9
$FILLETRAD
 40
10.0
  9
$AUNITS
 70
     0
  9
$AUPREC
 70
     0
  9
$MENU
  1
.
  9
$ELEVATION
 40
0.0
  9
$PELEVATION
 40
0.0
  9
$THICKNESS
 40
0.0
  9
$LIMCHECK
 70
     0
  9
$CHAMFERA
 40
10.0
  9
$CHAMFERB
 40
10.0
  9
$CHAMFERC
 40
20.0
  9
$CHAMFERD
 40
0.0
  9
$SKPOLY
 70
     0
  9
$TDCREATE
 40
2457858.695660799
  9
$TDUCREATE
 40
2457858.820660799
  9
$TDUPDATE
 40
2458409.041460023
  9
$TDUUPDATE
 40
2458409.166460023
  9
$TDINDWG
 40
0.0058193519
  9
$TDUSRTIMER
 40
0.0058193403
  9
$USRTIMER
 70
     1
  9
$ANGBASE
 50
0.0
  9
$ANGDIR
 70
     0
  9
$PDMODE
 70
     0
  9
$PDSIZE
 40
0.0
  9
$PLINEWID
 40
0.0
  9
$SPLFRAME
 70
     0
  9
$SPLINETYPE
 70
     6
  9
$SPLINESEGS
 70
     8
  9
$HANDSEED
  5
172
  9
$SURFTAB1
 70
     6
  9
$SURFTAB2
 70
     6
  9
$SURFTYPE
 70
     6
  9
$SURFU
 70
     6
  9
$SURFV
 70
     6
  9
$UCSBASE
  2

  9
$UCSNAME
  2

  9
$UCSORG
 10
0.0
 20
0.0
 30
0.0
  9
$UCSXDIR
 10
1.0
 20
0.0
 30
0.0
  9
$UCSYDIR
 10
0.0
 20
1.0
 30
0.0
  9
$UCSORTHOREF
  2

  9
$UCSORTHOVIEW
 70
     0
  9
$UCSORGTOP
 10
0.0
 20
0.0
 30
0.0
  9
$UCSORGBOTTOM
 10
0.0
 20
0.0
 30
0.0
  9
$UCSORGLEFT
 10
0.0
 20
0.0
 30
0.0
  9
$UCSORGRIGHT
 10
0.0
 20
0.0
 30
0.0
  9
$UCSORGFRONT
 10
0.0
 20
0.0
 30
0.0
  9
$UCSORGBACK
 10
0.0
 20
0.0
 30
0.0
  9
$PUCSBASE
  2

  9
$PUCSNAME
  2

  9
$PUCSORG
 10
0.0
 20
0.0
 30
0.0
  9
$PUCSXDIR
 10
1.0
 20
0.0
 30
0.0
  9
$PUCSYDIR
 10
0.0
 20
1.0
 30
0.0
  9
$PUCSORTHOREF
  2

  9
$PUCSORTHOVIEW
 70
     0
  9
$PUCSORGTOP
 10
0.0
 20
0.0
 30
0.0
  9
$PUCSORGBOTTOM
 10
0.0
 20
0.0
 30
0.0
  9
$PUCSORGLEFT
 10
0.0
 20
0.0
 30
0.0
  9
$PUCSORGRIGHT
 10
0.0
 20
0.0
 30
0.0
  9
$PUCSORGFRONT
 10
0.0
 20
0.0
 30
0.0
  9
$PUCSORGBACK
 10
0.0
 20
0.0
 30
0.0
  9
$USERI1
 70
     0
  9
$USERI2
 70
     0
  9
$USERI3
 70
     0
  9
$USERI4
 70
     0
  9
$USERI5
 70
     0
  9
$USERR1
 40
0.0
  9
$USERR2
 40
0.0
  9
$USERR3
 40
0.0
  9
$USERR4
 40
0.0
  9
$USERR5
 40
0.0
  9
$WORLDVIEW
 70
     1
  9
$SHADEDGE
 70
     3
  9
$SHADEDIF
 70
    70
  9
$TILEMODE
 70
     1
  9
$MAXACTVP
 70
    64
  9
$PINSBASE
 10
0.0
 20
0.0
 30
0.0
  9
$PLIMCHECK
 70
     0
  9
$PEXTMIN
 10
26.66076962115562
 20
20.31135699206657
 30
-0.0000000349181948
  9
$PEXTMAX
 10
240.039213369355
 20
182.8886381005154
 30
0.0000000814935746
  9
$PLIMMIN
 10
-6.350006103515625
 20
-6.349999904632568
  9
$PLIMMAX
 10
273.0499877929687
 20
209.5499939918517
  9
$UNITMODE
 70
     0
  9
$VISRETAIN
 70
     1
  9
$PLINEGEN
 70
     0
  9
$PSLTSCALE
 70
     1
  9
$TREEDEPTH
 70
  3020
  9
$CMLSTYLE
  2
Standard
  9
$CMLJUST
 70
     0
  9
$CMLSCALE
 40
20.0
  9
$PROXYGRAPHICS
 70
     1
  9
$MEASUREMENT
 70
     1
  9
$CELWEIGHT
370
    -1
  9
$ENDCAPS
280
     0
  9
$JOINSTYLE
280
     0
  9
$LWDISPLAY
290
     0
  9
$INSUNITS
 70
     6
  9
$HYPERLINKBASE
  1

  9
$STYLESHEET
  1

  9
$XEDIT
290
     1
  9
$CEPSNTYPE
380
     0
  9
$PSTYLEMODE
290
     1
  9
$FINGERPRINTGUID
  2
{FDEAD578-A652-11D2-9A35-0060089B3A3F}
  9
$VERSIONGUID
  2
{DB8F3073-4BB1-4C95-B444-28B841D06D7D}
  9
$EXTNAMES
290
     1
  9
$PSVPSCALE
 40
0.0
  9
$OLESTARTUP
290
     0
  0
ENDSEC
  0
SECTION
  2
CLASSES
  0
CLASS
  1
ACDBDICTIONARYWDFLT
  2
AcDbDictionaryWithDefault
  3
AutoCAD 2000
 90
        0
280
     0
281
     0
  0
CLASS
  1
ACDBPLACEHOLDER
  2
AcDbPlaceHolder
  3
AutoCAD 2000
 90
        0
280
     0
281
     0
  0
CLASS
  1
LAYOUT
  2
AcDbLayout
  3
AutoCAD 2000
 90
        0
280
     0
281
     0
  0
CLASS
  1
DICTIONARYVAR
  2
AcDbDictionaryVar
  3
AutoCAD 2000
 90
        0
280
     0
281
     0
  0
ENDSEC
  0
SECTION
  2
TABLES
  0
TABLE
  2
VPORT
  5
8
330
0
100
AcDbSymbolTable
 70
     5
  0
VPORT
  5
171
330
8
100
AcDbSymbolTableRecord
100
AcDbViewportTableRecord
  2
*Active
 70
     0
 10
0.0
 20
0.0
 11
1.0
 21
1.0
 12
16.00094488982858
 22
9.499070652291662
 13
0.0
 23
0.0
 14
10.0
 24
10.0
 15
10.0
 25
10.0
 16
0.0
 26
0.0
 36
1.0
 17
0.0
 27
0.0
 37
0.0
 40
19.1740105562516
 41
2.25703794369645
 42
50.0
 43
0.0
 44
0.0
 50
0.0
 51
0.0
 71
     0
 72
   100
 73
     1
 74
     3
 75
     0
 76
     0
 77
     0
 78
     0
281
     0
 65
     1
110
0.0
120
0.0
130
0.0
111
1.0
121
0.0
131
0.0
112
0.0
122
1.0
132
0.0
 79
     0
146
0.0
  0
ENDTAB
  0
TABLE
  2
LTYPE
  5
5
330
0
100
AcDbSymbolTable
 70
     2
  0
LTYPE
  5
14
330
5
100
AcDbSymbolTableRecord
100
AcDbLinetypeTableRecord
  2
ByBlock
 70
     0
  3

 72
    65
 73
     0
 40
0.0
  0
LTYPE
  5
15
330
5
100
AcDbSymbolTableRecord
100
AcDbLinetypeTableRecord
  2
ByLayer
 70
     0
  3

 72
    65
 73
     0
 40
0.0
  0
LTYPE
  5
16
330
5
100
AcDbSymbolTableRecord
100
AcDbLinetypeTableRecord
  2
Continuous
 70
     0
  3
Solid line
 72
    65
 73
     0
 40
0.0
  0
LTYPE
  5
88
330
5
100
AcDbSymbolTableRecord
100
AcDbLinetypeTableRecord
  2
ceco.net 1
 70
     0
  3
_ _ _ _ _ _ _ _ _ _ _ _ _ _ _ _ _ _ _ _ _ _ _ _
 72
    65
 73
     2
 40
0.375
 49
0.25
 74
     0
 49
-0.125
 74
     0
  0
ENDTAB
  0
TABLE
  2
LAYER
  5
2
102
{ACAD_XDICTIONARY
360
9F
102
}
330
0
100
AcDbSymbolTable
 70
     2
  0
LAYER
  5
10
330
2
100
AcDbSymbolTableRecord
100
AcDbLayerTableRecord
  2
0
 70
     0
 62
     7
  6
Continuous
370
    -3
390
F
  0
LAYER
  5
89
102
{ACAD_XDICTIONARY
360
8A
102
}
330
2
100
AcDbSymbolTableRecord
100
AcDbLayerTableRecord
  2
ceco.net 458
 70
     0
 62
     7
  6
Continuous
370
    -3
390
F
1001
AcAecLayerStandard
1000

1000

  0
ENDTAB
  0
TABLE
  2
STYLE
  5
3
330
0
100
AcDbSymbolTable
 70
     1
  0
STYLE
  5
11
330
3
100
AcDbSymbolTableRecord
100
AcDbTextStyleTableRecord
  2
Standard
 70
     0
 40
0.0
 41
1.0
 50
0.0
 71
     0
 42
2.5
  3
txt
  4

  0
ENDTAB
  0
TABLE
  2
VIEW
  5
6
330
0
100
AcDbSymbolTable
 70
     0
  0
ENDTAB
  0
TABLE
  2
UCS
  5
7
330
0
100
AcDbSymbolTable
 70
     0
  0
ENDTAB
  0
TABLE
  2
APPID
  5
9
330
0
100
AcDbSymbolTable
 70
    19
  0
APPID
  5
12
330
9
100
AcDbSymbolTableRecord
100
AcDbRegAppTableRecord
  2
ACAD
 70
     0
  0
APPID
  5
8D
330
9
100
AcDbSymbolTableRecord
100
AcDbRegAppTableRecord
  2
ACAD_MLEADERVER
 70
     0
  0
APPID
  5
8E
330
9
100
AcDbSymbolTableRecord
100
AcDbRegAppTableRecord
  2
AcAecLayerStandard
 70
     0
  0
APPID
  5
8F
330
9
100
AcDbSymbolTableRecord
100
AcDbRegAppTableRecord
  2
ACAD_DSTYLE_DIMJOGGED_JOGANGLE_SYMBOL
 70
     0
  0
APPID
  5
90
330
9
100
AcDbSymbolTableRecord
100
AcDbRegAppTableRecord
  2
ACAD_NAV_VCDISPLAY
 70
     0
  0
APPID
  5
91
330
9
100
AcDbSymbolTableRecord
100
AcDbRegAppTableRecord
  2
AcDbBlockRepETag
 70
     0
  0
APPID
  5
92
330
9
100
AcDbSymbolTableRecord
100
AcDbRegAppTableRecord
  2
AcDbDynamicBlockGUID
 70
     0
  0
APPID
  5
93
330
9
100
AcDbSymbolTableRecord
100
AcDbRegAppTableRecord
  2
ACAUTHENVIRON
 70
     0
  0
APPID
  5
94
330
9
100
AcDbSymbolTableRecord
100
AcDbRegAppTableRecord
  2
AcDbDynamicBlockTrueName
 70
     0
  0
APPID
  5
95
330
9
100
AcDbSymbolTableRecord
100
AcDbRegAppTableRecord
  2
GradientColor1ACI
 70
     0
  0
APPID
  5
96
330
9
100
AcDbSymbolTableRecord
100
AcDbRegAppTableRecord
  2
GradientColor2ACI
 70
     0
  0
APPID
  5
97
330
9
100
AcDbSymbolTableRecord
100
AcDbRegAppTableRecord
  2
ACAD_PSEXT
 70
     0
  0
APPID
  5
98
330
9
100
AcDbSymbolTableRecord
100
AcDbRegAppTableRecord
  2
AcLayerTools
 70
     0
  0
APPID
  5
99
330
9
100
AcDbSymbolTableRecord
100
AcDbRegAppTableRecord
  2
ACAD_DSTYLE_DIMJAG
 70
     0
  0
APPID
  5
9A
330
9
100
AcDbSymbolTableRecord
100
AcDbRegAppTableRecord
  2
ACAD_DSTYLE_DIMTALN
 70
     0
  0
APPID
  5
9B
330
9
100
AcDbSymbolTableRecord
100
AcDbRegAppTableRecord
  2
ACAD_DSTYLE_DIMBREAK
 70
     0
  0
APPID
  5
9C
330
9
100
AcDbSymbolTableRecord
100
AcDbRegAppTableRecord
  2
RAK
 70
     0
  0
APPID
  5
9D
330
9
100
AcDbSymbolTableRecord
100
AcDbRegAppTableRecord
  2
ADE
 70
     0
  0
APPID
  5
9E
330
9
100
AcDbSymbolTableRecord
100
AcDbRegAppTableRecord
  2
ACAD_EXEMPT_FROM_CAD_STANDARDS
 70
     0
  0
ENDTAB
  0
TABLE
  2
DIMSTYLE
  5
A
330
0
100
AcDbSymbolTable
 70
     2
100
AcDbDimStyleTable
 71
     0
  0
DIMSTYLE
105
27
330
A
100
AcDbSymbolTableRecord
100
AcDbDimStyleTableRecord
  2
ISO-25
 70
     0
 41
2.5
 42
0.625
 43
3.75
 44
1.25
 73
     0
 74
     0
 77
     1
 78
     8
140
2.5
141
2.5
143
0.03937007874016
147
0.625
171
     3
172
     1
271
     2
272
     2
274
     3
278
    44
283
     0
284
     8
340
11
  0
DIMSTYLE
105
8C
330
A
100
AcDbSymbolTableRecord
100
AcDbDimStyleTableRecord
  2
STANDARD
 70
     0
340
11
  0
ENDTAB
  0
TABLE
  2
BLOCK_RECORD
  5
1
330
0
100
AcDbSymbolTable
 70
     1
  0
BLOCK_RECORD
  5
1F
330
1
100
AcDbSymbolTableRecord
100
AcDbBlockTableRecord
  2
*Model_Space
340
22
  0
BLOCK_RECORD
  5
55
330
1
100
AcDbSymbolTableRecord
100
AcDbBlockTableRecord
  2
*Paper_Space
340
56
  0
ENDTAB
  0
ENDSEC
  0
SECTION
  2
BLOCKS
  0
BLOCK
  5
20
330
1F
100
AcDbEntity
  8
0
100
AcDbBlockBegin
  2
*Model_Space
 70
     0
 10
0.0
 20
0.0
 30
0.0
  3
*Model_Space
  1

  0
ENDBLK
  5
21
330
1F
100
AcDbEntity
  8
0
100
AcDbBlockEnd
  0
BLOCK
  5
57
330
55
100
AcDbEntity
 67
     1
  8
0
100
AcDbBlockBegin
  2
*Paper_Space
 70
     0
 10
0.0
 20
0.0
 30
0.0
  3
*Paper_Space
  1

  0
ENDBLK
  5
58
330
55
100
AcDbEntity
 67
     1
  8
0
100
AcDbBlockEnd
  0
ENDSEC
  0
SECTION
  2
ENTITIES
  0
ARC
  5
109
330
1F
100
AcDbEntity
  8
ceco.net 458
  6
ByBlock
100
AcDbCircle
 10
7.796255095953114
 20
9.50397883578762
 30
0.0
 40
1.801422648073926
100
AcDbArc
 50
269.9745378096513
 51
90.02546219034861
  0
ARC
  5
10A
330
1F
100
AcDbEntity
  8
ceco.net 458
  6
ceco.net 1
100
AcDbCircle
 10
7.794653994955979
 20
9.50397883578762
 30
0.0
 40
1.801422648073926
100
AcDbArc
 50
89.97453780965136
 51
270.0254621903486
  0
LINE
  5
10B
330
1F
100
AcDbEntity
  8
ceco.net 458
  6
ByBlock
100
AcDbLine
 10
2.0
 20
2.0
 30
0.0
 11
2.0
 21
9.40000000000003
 31
0.0
  0
LINE
  5
10C
330
1F
100
AcDbEntity
  8
ceco.net 458
  6
ByBlock
100
AcDbLine
 10
2.0
 20
17.00000000000005
 30
0.0
 11
30.0
 21
17.00000000000005
 31
0.0
  0
LINE
  5
10D
330
1F
100
AcDbEntity
  8
ceco.net 458
  6
ByBlock
100
AcDbLine
 10
30.0
 20
2.0
 30
0.0
 11
2.0
 21
2.0
 31
0.0
  0
LINE
  5
10E
330
1F
100
AcDbEntity
  8
ceco.net 458
  6
ByBlock
100
AcDbLine
 10
16.00000000000003
 20
2.0
 30
0.0
 11
16.00000000000003
 21
17.00000000000005
 31
0.0
  0
LINE
  5
10F
330
1F
100
AcDbEntity
  8
ceco.net 458
100
AcDbLine
 10
3.467770164650431
 20
9.759807621135365
 30
0.0
 11
3.917770164650448
 21
9.500000000000028
 31
0.0
  0
LINE
  5
110
330
1F
100
AcDbEntity
  8
ceco.net 458
100
AcDbLine
 10
3.467770164650431
 20
9.240192378864691
 30
0.0
 11
3.467770164650431
 21
9.759807621135365
 31
0.0
  0
LINE
  5
111
330
1F
100
AcDbEntity
  8
ceco.net 458
100
AcDbLine
 10
3.917770164650448
 20
9.500000000000028
 30
0.0
 11
3.467770164650431
 21
9.240192378864691
 31
0.0
  0
LINE
  5
112
330
1F
100
AcDbEntity
  8
ceco.net 458
100
AcDbLine
 10
3.877577785785774
 20
9.650000000000005
 30
0.0
 11
3.617770164650437
 21
9.200000000000017
 31
0.0
  0
LINE
  5
113
330
1F
100
AcDbEntity
  8
ceco.net 458
100
AcDbLine
 10
3.617770164650437
 20
9.200000000000017
 30
0.0
 11
3.3579625435151
 21
9.650000000000062
 31
0.0
  0
LINE
  5
114
330
1F
100
AcDbEntity
  8
ceco.net 458
100
AcDbLine
 10
3.617770164650437
 20
9.800000000000039
 30
0.0
 11
3.877577785785774
 21
9.350000000000051
 31
0.0
  0
LINE
  5
115
330
1F
100
AcDbEntity
  8
ceco.net 458
100
AcDbLine
 10
3.3579625435151
 20
9.350000000000051
 30
0.0
 11
3.617770164650437
 21
9.800000000000039
 31
0.0
  0
LINE
  5
116
330
1F
100
AcDbEntity
  8
ceco.net 458
100
AcDbLine
 10
3.767770164650443
 20
9.240192378864691
 30
0.0
 11
3.317770164650426
 21
9.500000000000028
 31
0.0
  0
LINE
  5
117
330
1F
100
AcDbEntity
  8
ceco.net 458
100
AcDbLine
 10
3.767770164650443
 20
9.759807621135365
 30
0.0
 11
3.767770164650443
 21
9.240192378864691
 31
0.0
  0
LINE
  5
118
330
1F
100
AcDbEntity
  8
ceco.net 458
100
AcDbLine
 10
3.317770164650426
 20
9.500000000000028
 30
0.0
 11
3.767770164650443
 21
9.759807621135365
 31
0.0
  0
LINE
  5
119
330
1F
100
AcDbEntity
  8
ceco.net 458
100
AcDbLine
 10
3.199999999999988
 20
9.650000000000005
 30
0.0
 11
3.877577785785774
 21
9.650000000000005
 31
0.0
  0
CIRCLE
  5
11A
330
1F
100
AcDbEntity
  8
ceco.net 458
100
AcDbCircle
 10
3.617770164650437
 20
9.500000000000028
 30
0.0
 40
0.3000000000000114
  0
LINE
  5
11B
330
1F
100
AcDbEntity
  8
ceco.net 458
100
AcDbLine
 10
-0.6850000000000592
 20
10.03000000000005
 30
0.0
 11
-0.6850000000000876
 21
9.600000000000028
 31
0.0
  0
LINE
  5
11C
330
1F
100
AcDbEntity
  8
ceco.net 458
100
AcDbLine
 10
-0.8800000000000522
 20
8.969999999999998
 30
0.0
 11
-0.8800000000000522
 21
9.400000000000028
 31
0.0
  0
LINE
  5
11D
330
1F
100
AcDbEntity
  8
ceco.net 458
100
AcDbLine
 10
0.7249999999999659
 20
9.600000000000028
 30
0.0
 11
0.7249999999999944
 21
9.400000000000028
 31
0.0
  0
LINE
  5
11E
330
1F
100
AcDbEntity
  8
ceco.net 458
100
AcDbLine
 10
3.199999999999988
 20
8.599999999999999
 30
0.0
 11
3.199999999999988
 21
10.4
 31
0.0
  0
LINE
  5
11F
330
1F
100
AcDbEntity
  8
ceco.net 458
100
AcDbLine
 10
0.2299999999999898
 20
9.600000000000028
 30
0.0
 11
0.2300000000000182
 21
9.400000000000028
 31
0.0
  0
LINE
  5
120
330
1F
100
AcDbEntity
  8
ceco.net 458
100
AcDbLine
 10
-1.615000000000065
 20
8.969999999999998
 30
0.0
 11
-1.615000000000065
 21
10.03000000000005
 31
0.0
  0
LINE
  5
121
330
1F
100
AcDbEntity
  8
ceco.net 458
100
AcDbLine
 10
3.199999999999988
 20
9.349999999999997
 30
0.0
 11
3.877577785785774
 21
9.350000000000051
 31
0.0
  0
LINE
  5
122
330
1F
100
AcDbEntity
  8
ceco.net 458
100
AcDbLine
 10
-0.6800000000000637
 20
10.03000000000005
 30
0.0
 11
-1.615000000000065
 21
10.03000000000005
 31
0.0
  0
LINE
  5
123
330
1F
100
AcDbEntity
  8
ceco.net 458
100
AcDbLine
 10
-0.6800000000000637
 20
8.969999999999942
 30
0.0
 11
-1.615000000000065
 21
8.969999999999942
 31
0.0
  0
LINE
  5
124
330
1F
100
AcDbEntity
  8
ceco.net 458
  6
ceco.net 1
100
AcDbLine
 10
0.0
 20
19.00000000000005
 30
0.0
 11
32.0
 21
19.00000000000005
 31
0.0
  0
LINE
  5
125
330
1F
100
AcDbEntity
  8
ceco.net 458
  6
ceco.net 1
100
AcDbLine
 10
0.0
 20
0.0
 30
0.0
 11
0.0
 21
19.00000000000005
 31
0.0
  0
LINE
  5
126
330
1F
100
AcDbEntity
  8
ceco.net 458
  6
ceco.net 1
100
AcDbLine
 10
32.0
 20
0.0
 30
0.0
 11
0.0
 21
0.0
 31
0.0
  0
CIRCLE
  5
127
330
1F
100
AcDbEntity
  8
ceco.net 458
100
AcDbCircle
 10
16.00000000000003
 20
9.500000000000028
 30
0.0
 40
1.83
  0
LINE
  5
128
330
1F
100
AcDbEntity
  8
ceco.net 458
100
AcDbLine
 10
3.167336746988183
 20
8.599999999999999
 30
0.0
 11
3.167336746988212
 21
10.4
 31
0.0
  0
LINE
  5
129
330
1F
100
AcDbEntity
  8
ceco.net 458
100
AcDbLine
 10
-0.8800000000000522
 20
8.969999999999942
 30
0.0
 11
-1.17816037735858
 21
9.400000000000028
 31
0.0
  0
LINE
  5
12A
330
1F
100
AcDbEntity
  8
ceco.net 458
100
AcDbLine
 10
-0.8800000000000522
 20
10.03000000000005
 30
0.0
 11
-1.17816037735858
 21
9.600000000000028
 31
0.0
  0
LINE
  5
12B
330
1F
100
AcDbEntity
  8
ceco.net 458
100
AcDbLine
 10
7.800000000000011
 20
11.95000000000002
 30
0.0
 11
2.000000000000028
 21
11.95000000000002
 31
0.0
  0
LINE
  5
12C
330
1F
100
AcDbEntity
  8
ceco.net 458
100
AcDbLine
 10
7.800000000000011
 20
7.050000000000028
 30
0.0
 11
2.000000000000028
 21
7.050000000000028
 31
0.0
  0
LINE
  5
12D
330
1F
100
AcDbEntity
  8
ceco.net 458
  6
ByBlock
100
AcDbLine
 10
7.800000000000011
 20
7.050000000000028
 30
0.0
 11
7.800000000000011
 21
11.95000000000002
 31
0.0
  0
LINE
  5
12E
330
1F
100
AcDbEntity
  8
ceco.net 458
  6
ByBlock
100
AcDbLine
 10
2.0
 20
16.10000000000005
 30
0.0
 11
4.990000000000009
 21
16.10000000000005
 31
0.0
  0
LINE
  5
12F
330
1F
100
AcDbEntity
  8
ceco.net 458
  6
ByBlock
100
AcDbLine
 10
4.98999999999998
 20
2.9
 30
0.0
 11
2.0
 21
2.9
 31
0.0
  0
ARC
  5
130
330
1F
100
AcDbEntity
  8
ceco.net 458
100
AcDbCircle
 10
3.575025773195847
 20
9.500000000000033
 30
0.0
 40
6.749974226804159
100
AcDbArc
 50
282.1004716457979
 51
77.89952835420198
  0
LINE
  5
131
330
1F
100
AcDbEntity
  8
ceco.net 458
100
AcDbLine
 10
3.574999999999988
 20
10.75000000000002
 30
0.0
 11
3.19999999999996
 21
10.75000000000002
 31
0.0
  0
LINE
  5
132
330
1F
100
AcDbEntity
  8
ceco.net 458
100
AcDbLine
 10
3.574999999999988
 20
8.250000000000028
 30
0.0
 11
3.19999999999996
 21
8.250000000000028
 31
0.0
  0
LINE
  5
133
330
1F
100
AcDbEntity
  8
ceco.net 458
100
AcDbLine
 10
3.167336746988212
 20
10.4
 30
0.0
 11
3.199999999999988
 21
10.4
 31
0.0
  0
LINE
  5
134
330
1F
100
AcDbEntity
  8
ceco.net 458
100
AcDbLine
 10
3.167336746988212
 20
8.599999999999999
 30
0.0
 11
3.19999999999996
 21
8.599999999999999
 31
0.0
  0
LINE
  5
135
330
1F
100
AcDbEntity
  8
ceco.net 458
100
AcDbLine
 10
3.167336746988212
 20
9.600000000000028
 30
0.0
 11
-1.316839622641566
 21
9.600000000000028
 31
0.0
  0
LINE
  5
136
330
1F
100
AcDbEntity
  8
ceco.net 458
100
AcDbLine
 10
3.167336746988212
 20
9.400000000000028
 30
0.0
 11
-1.316839622641538
 21
9.400000000000028
 31
0.0
  0
LINE
  5
137
330
1F
100
AcDbEntity
  8
ceco.net 458
100
AcDbLine
 10
-1.316839622641595
 20
9.600000000000028
 30
0.0
 11
-1.316839622641538
 21
9.400000000000028
 31
0.0
  0
LINE
  5
138
330
1F
100
AcDbEntity
  8
ceco.net 458
100
AcDbLine
 10
-1.316839622641595
 20
9.600000000000028
 30
0.0
 11
-1.615000000000065
 21
10.03000000000005
 31
0.0
  0
LINE
  5
139
330
1F
100
AcDbEntity
  8
ceco.net 458
100
AcDbLine
 10
-1.316839622641566
 20
9.400000000000028
 30
0.0
 11
-1.615000000000065
 21
8.969999999999942
 31
0.0
  0
LINE
  5
13A
330
1F
100
AcDbEntity
  8
ceco.net 458
100
AcDbLine
 10
-0.6850000000000876
 20
9.400000000000028
 30
0.0
 11
-0.6850000000000592
 21
8.969999999999998
 31
0.0
  0
LINE
  5
13B
330
1F
100
AcDbEntity
  8
ceco.net 458
100
AcDbLine
 10
-0.8800000000000522
 20
9.600000000000028
 30
0.0
 11
-0.8800000000000522
 21
10.03000000000005
 31
0.0
  0
ARC
  5
13C
330
1F
100
AcDbEntity
  8
ceco.net 458
100
AcDbCircle
 10
3.574999999999988
 20
9.500000000000028
 30
0.0
 40
1.25
100
AcDbArc
 50
270.0
 51
90.0
  0
ARC
  5
13D
330
1F
100
AcDbEntity
  8
ceco.net 458
  6
ByBlock
100
AcDbCircle
 10
24.20374490404694
 20
9.50397883578762
 30
0.0
 40
1.801422648073926
100
AcDbArc
 50
89.97453780965136
 51
270.0254621903486
  0
ARC
  5
13E
330
1F
100
AcDbEntity
  8
ceco.net 458
  6
ceco.net 1
100
AcDbCircle
 10
24.20534600504407
 20
9.50397883578762
 30
0.0
 40
1.801422648073926
100
AcDbArc
 50
269.9745378096513
 51
90.02546219034861
  0
LINE
  5
13F
330
1F
100
AcDbEntity
  8
ceco.net 458
  6
ByBlock
100
AcDbLine
 10
30.00000000000005
 20
2.0
 30
0.0
 11
30.00000000000005
 21
9.40000000000003
 31
0.0
  0
LINE
  5
140
330
1F
100
AcDbEntity
  8
ceco.net 458
  6
ByBlock
100
AcDbLine
 10
24.20000000000004
 20
7.050000000000028
 30
0.0
 11
24.20000000000004
 21
11.95000000000002
 31
0.0
  0
LINE
  5
141
330
1F
100
AcDbEntity
  8
ceco.net 458
  6
ByBlock
100
AcDbLine
 10
30.00000000000005
 20
16.10000000000005
 30
0.0
 11
27.01000000000004
 21
16.10000000000005
 31
0.0
  0
LINE
  5
142
330
1F
100
AcDbEntity
  8
ceco.net 458
  6
ByBlock
100
AcDbLine
 10
27.01000000000007
 20
2.9
 30
0.0
 11
30.00000000000005
 21
2.9
 31
0.0
  0
LINE
  5
143
330
1F
100
AcDbEntity
  8
ceco.net 458
100
AcDbLine
 10
28.53222983534962
 20
9.759807621135365
 30
0.0
 11
28.0822298353496
 21
9.500000000000028
 31
0.0
  0
LINE
  5
144
330
1F
100
AcDbEntity
  8
ceco.net 458
100
AcDbLine
 10
28.53222983534962
 20
9.240192378864691
 30
0.0
 11
28.53222983534962
 21
9.759807621135365
 31
0.0
  0
LINE
  5
145
330
1F
100
AcDbEntity
  8
ceco.net 458
100
AcDbLine
 10
28.0822298353496
 20
9.500000000000028
 30
0.0
 11
28.53222983534962
 21
9.240192378864691
 31
0.0
  0
LINE
  5
146
330
1F
100
AcDbEntity
  8
ceco.net 458
100
AcDbLine
 10
28.12242221421428
 20
9.650000000000005
 30
0.0
 11
28.38222983534961
 21
9.200000000000017
 31
0.0
  0
LINE
  5
147
330
1F
100
AcDbEntity
  8
ceco.net 458
100
AcDbLine
 10
28.38222983534961
 20
9.200000000000017
 30
0.0
 11
28.64203745648495
 21
9.650000000000062
 31
0.0
  0
LINE
  5
148
330
1F
100
AcDbEntity
  8
ceco.net 458
100
AcDbLine
 10
28.38222983534961
 20
9.800000000000039
 30
0.0
 11
28.12242221421428
 21
9.350000000000051
 31
0.0
  0
LINE
  5
149
330
1F
100
AcDbEntity
  8
ceco.net 458
100
AcDbLine
 10
28.64203745648495
 20
9.350000000000051
 30
0.0
 11
28.38222983534961
 21
9.800000000000039
 31
0.0
  0
LINE
  5
14A
330
1F
100
AcDbEntity
  8
ceco.net 458
100
AcDbLine
 10
28.23222983534961
 20
9.240192378864691
 30
0.0
 11
28.68222983534963
 21
9.500000000000028
 31
0.0
  0
LINE
  5
14B
330
1F
100
AcDbEntity
  8
ceco.net 458
100
AcDbLine
 10
28.23222983534961
 20
9.759807621135365
 30
0.0
 11
28.23222983534961
 21
9.240192378864691
 31
0.0
  0
LINE
  5
14C
330
1F
100
AcDbEntity
  8
ceco.net 458
100
AcDbLine
 10
28.68222983534963
 20
9.500000000000028
 30
0.0
 11
28.23222983534961
 21
9.759807621135365
 31
0.0
  0
LINE
  5
14D
330
1F
100
AcDbEntity
  8
ceco.net 458
100
AcDbLine
 10
28.80000000000006
 20
9.650000000000005
 30
0.0
 11
28.12242221421428
 21
9.650000000000005
 31
0.0
  0
CIRCLE
  5
14E
330
1F
100
AcDbEntity
  8
ceco.net 458
100
AcDbCircle
 10
28.38222983534961
 20
9.500000000000028
 30
0.0
 40
0.3000000000000114
  0
LINE
  5
14F
330
1F
100
AcDbEntity
  8
ceco.net 458
100
AcDbLine
 10
32.68500000000011
 20
10.03000000000005
 30
0.0
 11
32.68500000000014
 21
9.600000000000028
 31
0.0
  0
LINE
  5
150
330
1F
100
AcDbEntity
  8
ceco.net 458
100
AcDbLine
 10
32.68500000000014
 20
9.400000000000028
 30
0.0
 11
32.68500000000011
 21
8.969999999999998
 31
0.0
  0
LINE
  5
151
330
1F
100
AcDbEntity
  8
ceco.net 458
100
AcDbLine
 10
32.8800000000001
 20
8.969999999999998
 30
0.0
 11
32.8800000000001
 21
9.400000000000028
 31
0.0
  0
LINE
  5
152
330
1F
100
AcDbEntity
  8
ceco.net 458
100
AcDbLine
 10
32.8800000000001
 20
9.600000000000028
 30
0.0
 11
32.8800000000001
 21
10.03000000000005
 31
0.0
  0
LINE
  5
153
330
1F
100
AcDbEntity
  8
ceco.net 458
100
AcDbLine
 10
31.27500000000009
 20
9.600000000000028
 30
0.0
 11
31.27500000000006
 21
9.400000000000028
 31
0.0
  0
LINE
  5
154
330
1F
100
AcDbEntity
  8
ceco.net 458
100
AcDbLine
 10
28.80000000000006
 20
8.599999999999999
 30
0.0
 11
28.80000000000006
 21
10.4
 31
0.0
  0
LINE
  5
155
330
1F
100
AcDbEntity
  8
ceco.net 458
100
AcDbLine
 10
31.77000000000006
 20
9.600000000000028
 30
0.0
 11
31.77000000000004
 21
9.400000000000028
 31
0.0
  0
LINE
  5
156
330
1F
100
AcDbEntity
  8
ceco.net 458
100
AcDbLine
 10
33.61500000000012
 20
8.969999999999998
 30
0.0
 11
33.61500000000012
 21
10.03000000000005
 31
0.0
  0
LINE
  5
157
330
1F
100
AcDbEntity
  8
ceco.net 458
100
AcDbLine
 10
28.80000000000006
 20
9.349999999999997
 30
0.0
 11
28.12242221421428
 21
9.350000000000051
 31
0.0
  0
LINE
  5
158
330
1F
100
AcDbEntity
  8
ceco.net 458
100
AcDbLine
 10
32.68000000000012
 20
10.03000000000005
 30
0.0
 11
33.61500000000012
 21
10.03000000000005
 31
0.0
  0
LINE
  5
159
330
1F
100
AcDbEntity
  8
ceco.net 458
100
AcDbLine
 10
32.68000000000012
 20
8.969999999999942
 30
0.0
 11
33.61500000000012
 21
8.969999999999942
 31
0.0
  0
LINE
  5
15A
330
1F
100
AcDbEntity
  8
ceco.net 458
  6
ceco.net 1
100
AcDbLine
 10
32.00000000000005
 20
0.0
 30
0.0
 11
32.00000000000005
 21
19.00000000000005
 31
0.0
  0
LINE
  5
15B
330
1F
100
AcDbEntity
  8
ceco.net 458
100
AcDbLine
 10
28.83266325301187
 20
8.599999999999999
 30
0.0
 11
28.83266325301184
 21
10.4
 31
0.0
  0
LINE
  5
15C
330
1F
100
AcDbEntity
  8
ceco.net 458
100
AcDbLine
 10
32.8800000000001
 20
8.969999999999942
 30
0.0
 11
33.17816037735863
 21
9.400000000000028
 31
0.0
  0
LINE
  5
15D
330
1F
100
AcDbEntity
  8
ceco.net 458
100
AcDbLine
 10
33.31683962264165
 20
9.600000000000028
 30
0.0
 11
33.61500000000012
 21
10.03000000000005
 31
0.0
  0
LINE
  5
15E
330
1F
100
AcDbEntity
  8
ceco.net 458
100
AcDbLine
 10
32.8800000000001
 20
10.03000000000005
 30
0.0
 11
33.17816037735863
 21
9.600000000000028
 31
0.0
  0
LINE
  5
15F
330
1F
100
AcDbEntity
  8
ceco.net 458
100
AcDbLine
 10
33.31683962264162
 20
9.400000000000028
 30
0.0
 11
33.61500000000012
 21
8.969999999999942
 31
0.0
  0
LINE
  5
160
330
1F
100
AcDbEntity
  8
ceco.net 458
100
AcDbLine
 10
28.42500000000006
 20
8.250000000000028
 30
0.0
 11
28.80000000000009
 21
8.250000000000028
 31
0.0
  0
LINE
  5
161
330
1F
100
AcDbEntity
  8
ceco.net 458
100
AcDbLine
 10
28.42500000000006
 20
10.75000000000002
 30
0.0
 11
28.80000000000009
 21
10.75000000000002
 31
0.0
  0
LINE
  5
162
330
1F
100
AcDbEntity
  8
ceco.net 458
100
AcDbLine
 10
24.20000000000004
 20
7.050000000000028
 30
0.0
 11
30.00000000000003
 21
7.050000000000028
 31
0.0
  0
LINE
  5
163
330
1F
100
AcDbEntity
  8
ceco.net 458
100
AcDbLine
 10
24.20000000000004
 20
11.95000000000002
 30
0.0
 11
30.00000000000003
 21
11.95000000000002
 31
0.0
  0
ARC
  5
164
330
1F
100
AcDbEntity
  8
ceco.net 458
100
AcDbCircle
 10
28.42497422680421
 20
9.500000000000033
 30
0.0
 40
6.749974226804159
100
AcDbArc
 50
102.1004716457996
 51
257.8995283542036
  0
LINE
  5
165
330
1F
100
AcDbEntity
  8
ceco.net 458
100
AcDbLine
 10
28.83266325301184
 20
10.4
 30
0.0
 11
28.80000000000006
 21
10.4
 31
0.0
  0
LINE
  5
166
330
1F
100
AcDbEntity
  8
ceco.net 458
100
AcDbLine
 10
28.83266325301184
 20
8.599999999999999
 30
0.0
 11
28.80000000000009
 21
8.599999999999999
 31
0.0
  0
LINE
  5
167
330
1F
100
AcDbEntity
  8
ceco.net 458
100
AcDbLine
 10
28.83266325301184
 20
9.400000000000028
 30
0.0
 11
33.31683962264159
 21
9.400000000000028
 31
0.0
  0
LINE
  5
168
330
1F
100
AcDbEntity
  8
ceco.net 458
100
AcDbLine
 10
28.83266325301184
 20
9.600000000000028
 30
0.0
 11
33.31683962264162
 21
9.600000000000028
 31
0.0
  0
LINE
  5
169
330
1F
100
AcDbEntity
  8
ceco.net 458
100
AcDbLine
 10
33.31683962264165
 20
9.600000000000028
 30
0.0
 11
33.31683962264159
 21
9.400000000000028
 31
0.0
  0
ARC
  5
16A
330
1F
100
AcDbEntity
  8
ceco.net 458
100
AcDbCircle
 10
28.42500000000006
 20
9.500000000000028
 30
0.0
 40
1.25
100
AcDbArc
 50
90.0
 51
270.0
  0
LINE
  5
16B
330
1F
100
AcDbEntity
  8
ceco.net 458
  6
ByBlock
100
AcDbLine
 10
2.0
 20
9.600000000000029
 30
0.0
 11
2.0
 21
17.00000000000005
 31
0.0
  0
LINE
  5
16C
330
1F
100
AcDbEntity
  8
ceco.net 458
  6
ByBlock
100
AcDbLine
 10
30.00000000000005
 20
9.600000000000029
 30
0.0
 11
30.00000000000005
 21
17.00000000000005
 31
0.0
  0
VIEWPORT
  5
7A
330
55
100
AcDbEntity
 67
     1
  8
0
100
AcDbViewport
 10
133.3499914952553
 20
101.5999975462909
 30
0.0
 40
369.6346063688179
 41
163.7697795028873
 68
     2
 69
     1
 12
133.3499914952553
 22
101.5999975462909
 13
0.0
 23
0.0
 14
10.0
 24
10.0
 15
10.0
 25
10.0
 16
0.0
 26
0.0
 36
1.0
 17
0.0
 27
0.0
 37
0.0
 42
50.0
 43
0.0
 44
0.0
 45
163.7697795028873
 50
0.0
 51
0.0
 72
   100
 90
    32800
  1

281
     0
 71
     1
 74
     0
110
0.0
120
0.0
130
0.0
111
1.0
121
0.0
131
0.0
112
0.0
122
1.0
132
0.0
 79
     0
146
0.0
  0
VIEWPORT
  5
7C
330
55
100
AcDbEntity
 67
     1
  8
0
100
AcDbViewport
 10
133.349993944168
 20
101.599993944168
 30
0.0
 40
213.3599903106689
 41
162.5599903106689
 68
     1
 69
     2
 12
15.98727179654133
 22
9.501627831956341
 13
0.0
 23
0.0
 14
10.0
 24
10.0
 15
10.0
 25
10.0
 16
0.0
 26
0.0
 36
1.0
 17
0.0
 27
0.0
 37
0.0
 42
50.0
 43
0.0
 44
0.0
 45
27.01311233503149
 50
0.0
 51
0.0
 72
   100
 90
    32864
  1

281
     0
 71
     1
 74
     0
110
0.0
120
0.0
130
0.0
111
1.0
121
0.0
131
0.0
112
0.0
122
1.0
132
0.0
 79
     0
146
0.0
  0
ENDSEC
  0
SECTION
  2
OBJECTS
  0
DICTIONARY
  5
C
330
0
100
AcDbDictionary
281
     1
  3
ACAD_GROUP
350
D
  3
ACAD_LAYOUT
350
1A
  3
ACAD_MLINESTYLE
350
17
  3
ACAD_PLOTSETTINGS
350
19
  3
ACAD_PLOTSTYLENAME
350
E
  3
AcDbVariableDictionary
350
5E
  0
DICTIONARY
  5
9F
330
2
100
AcDbDictionary
280
     1
281
     1
  3
ACAD_LAYERFILTERS
360
16D
  3
ACAD_LAYERSTATES
360
A0
  0
DICTIONARY
  5
8A
330
89
100
AcDbDictionary
280
     1
281
     1
  3
ACAD_XREC_ROUNDTRIP
360
8B
  0
DICTIONARY
  5
D
102
{ACAD_REACTORS
330
C
102
}
330
C
100
AcDbDictionary
281
     1
  0
DICTIONARY
  5
1A
102
{ACAD_REACTORS
330
C
102
}
330
C
100
AcDbDictionary
281
     1
  3
Model
350
22
  3
www.ceco.net
350
56
  0
DICTIONARY
  5
17
102
{ACAD_REACTORS
330
C
102
}
330
C
100
AcDbDictionary
281
     1
  3
Standard
350
18
  0
DICTIONARY
  5
19
102
{ACAD_REACTORS
330
C
102
}
330
C
100
AcDbDictionary
281
     1
  0
ACDBDICTIONARYWDFLT
  5
E
102
{ACAD_REACTORS
330
C
102
}
330
C
100
AcDbDictionary
281
     1
  3
Normal
350
F
100
AcDbDictionaryWithDefault
340
F
  0
DICTIONARY
  5
5E
102
{ACAD_REACTORS
330
C
102
}
330
C
100
AcDbDictionary
281
     1
  3
DIMASSOC
350
5F
  3
HIDETEXT
350
63
  0
DICTIONARY
  5
16D
102
{ACAD_REACTORS
330
9F
102
}
330
9F
100
AcDbDictionary
280
     1
281
     1
  0
DICTIONARY
  5
A0
102
{ACAD_REACTORS
330
9F
102
}
330
9F
100
AcDbDictionary
281
     1
  0
XRECORD
  5
8B
102
{ACAD_REACTORS
330
8A
102
}
330
8A
100
AcDbXrecord
280
     1
102
MATERIAL
340
0
  0
LAYOUT
  5
22
102
{ACAD_REACTORS
330
1A
102
}
330
1A
100
AcDbPlotSettings
  1

  2
none_device
  4
ANSI_A_(8.50_x_11.00_Inches)
  6

 40
6.349999904632568
 41
19.04999923706054
 42
6.350006103515625
 43
19.04998779296875
 44
215.8999938964843
 45
279.3999938964843
 46
0.0
 47
0.0
 48
0.0
 49
0.0
140
0.0
141
0.0
142
1.0
143
78.436453180766
 70
 11952
 72
     0
 73
     1
 74
     0
  7

 75
     0
147
0.0127491741332998
148
0.0
149
0.0
100
AcDbLayout
  1
Model
 70
     1
 71
     0
 10
0.0
 20
0.0
 11
12.0
 21
9.0
 12
0.0
 22
0.0
 32
0.0
 14
0.0
 24
0.0
 34
0.0
 15
0.0
 25
0.0
 35
0.0
146
0.0
 13
0.0
 23
0.0
 33
0.0
 16
1.0
 26
0.0
 36
0.0
 17
0.0
 27
1.0
 37
0.0
 76
     0
330
1F
  0
LAYOUT
  5
56
102
{ACAD_REACTORS
330
1A
102
}
330
1A
100
AcDbPlotSettings
  1

  2
none_device
  4
Letter_(8.50_x_11.00_Inches)
  6

 40
6.349999904632568
 41
6.349999904632568
 42
6.350006103515625
 43
6.350006103515625
 44
215.8999938964843
 45
279.3999938964843
 46
0.0
 47
0.0
 48
0.0
 49
0.0
140
0.0
141
0.0
142
1.0
143
1.0
 70
   688
 72
     1
 73
     1
 74
     5
  7

 75
    16
147
1.0
148
0.0
149
0.0
100
AcDbLayout
  1
www.ceco.net
 70
     1
 71
     1
 10
-6.350006103515625
 20
-6.349999904632568
 11
273.0499877929687
 21
209.5499939918517
 12
0.0
 22
0.0
 32
0.0
 14
26.66076962115562
 24
20.31135699206657
 34
-0.0000000349181948
 15
240.039213369355
 25
182.8886381005154
 35
0.0000000814935746
146
0.0
 13
0.0
 23
0.0
 33
0.0
 16
1.0
 26
0.0
 36
0.0
 17
0.0
 27
1.0
 37
0.0
 76
     0
330
55
331
7C
  0
MLINESTYLE
  5
18
102
{ACAD_REACTORS
330
17
102
}
330
17
100
AcDbMlineStyle
  2
STANDARD
 70
     0
  3

 62
   256
 51
90.0
 52
90.0
 71
     2
 49
0.5
 62
   256
  6
BYLAYER
 49
-0.5
 62
   256
  6
BYLAYER
  0
ACDBPLACEHOLDER
  5
F
102
{ACAD_REACTORS
330
E
102
}
330
E
  0
DICTIONARYVAR
  5
5F
102
{ACAD_REACTORS
330
5E
102
}
330
5E
100
DictionaryVariables
280
     0
  1
2
  0
DICTIONARYVAR
  5
63
102
{ACAD_REACTORS
330
5E
102
}
330
5E
100
DictionaryVariables
280
     0
  1
1
  0
ENDSEC
  0
EOF
