  0
SECTION
  2
HEADER
  9
$ACADVER
  1
AC1015
  9
$ACADMAINTVER
 70
    13
  9
$DWGCODEPAGE
  3
ANSI_1252
  9
$INSBASE
 10
0.0
 20
0.0
 30
0.0
  9
$EXTMIN
 10
-109.7137338042912
 20
-9.693943447790729
 30
-0.0000000349181948
  9
$EXTMAX
 10
109.6869087835259
 20
209.6873635137573
 30
0.0000000814935746
  9
$LIMMIN
 10
0.0
 20
0.0
  9
$LIMMAX
 10
420.0
 20
297.0
  9
$ORTHOMODE
 70
     0
  9
$REGENMODE
 70
     1
  9
$FILLMODE
 70
     1
  9
$QTEXTMODE
 70
     0
  9
$MIRRTEXT
 70
     0
  9
$LTSCALE
 40
1.0
  9
$ATTMODE
 70
     1
  9
$TEXTSIZE
 40
2.5
  9
$TRACEWID
 40
1.0
  9
$TEXTSTYLE
  7
Standard
  9
$CLAYER
  8
ceco.net 596 - no smoking sign
  9
$CELTYPE
  6
ByLayer
  9
$CECOLOR
 62
   256
  9
$CELTSCALE
 40
1.0
  9
$DISPSILH
 70
     0
  9
$DIMSCALE
 40
1.0
  9
$DIMASZ
 40
2.5
  9
$DIMEXO
 40
0.625
  9
$DIMDLI
 40
3.75
  9
$DIMRND
 40
0.0
  9
$DIMDLE
 40
0.0
  9
$DIMEXE
 40
1.25
  9
$DIMTP
 40
0.0
  9
$DIMTM
 40
0.0
  9
$DIMTXT
 40
2.5
  9
$DIMCEN
 40
2.5
  9
$DIMTSZ
 40
0.0
  9
$DIMTOL
 70
     0
  9
$DIMLIM
 70
     0
  9
$DIMTIH
 70
     0
  9
$DIMTOH
 70
     0
  9
$DIMSE1
 70
     0
  9
$DIMSE2
 70
     0
  9
$DIMTAD
 70
     1
  9
$DIMZIN
 70
     8
  9
$DIMBLK
  1

  9
$DIMASO
 70
     1
  9
$DIMSHO
 70
     1
  9
$DIMPOST
  1

  9
$DIMAPOST
  1

  9
$DIMALT
 70
     0
  9
$DIMALTD
 70
     3
  9
$DIMALTF
 40
0.03937007874016
  9
$DIMLFAC
 40
1.0
  9
$DIMTOFL
 70
     1
  9
$DIMTVP
 40
0.0
  9
$DIMTIX
 70
     0
  9
$DIMSOXD
 70
     0
  9
$DIMSAH
 70
     0
  9
$DIMBLK1
  1

  9
$DIMBLK2
  1

  9
$DIMSTYLE
  2
ISO-25
  9
$DIMCLRD
 70
     0
  9
$DIMCLRE
 70
     0
  9
$DIMCLRT
 70
     0
  9
$DIMTFAC
 40
1.0
  9
$DIMGAP
 40
0.625
  9
$DIMJUST
 70
     0
  9
$DIMSD1
 70
     0
  9
$DIMSD2
 70
     0
  9
$DIMTOLJ
 70
     0
  9
$DIMTZIN
 70
     8
  9
$DIMALTZ
 70
     0
  9
$DIMALTTZ
 70
     0
  9
$DIMUPT
 70
     0
  9
$DIMDEC
 70
     2
  9
$DIMTDEC
 70
     2
  9
$DIMALTU
 70
     2
  9
$DIMALTTD
 70
     3
  9
$DIMTXSTY
  7
Standard
  9
$DIMAUNIT
 70
     0
  9
$DIMADEC
 70
     0
  9
$DIMALTRND
 40
0.0
  9
$DIMAZIN
 70
     0
  9
$DIMDSEP
 70
    44
  9
$DIMATFIT
 70
     3
  9
$DIMFRAC
 70
     0
  9
$DIMLDRBLK
  1

  9
$DIMLUNIT
 70
     2
  9
$DIMLWD
 70
    -2
  9
$DIMLWE
 70
    -2
  9
$DIMTMOVE
 70
     0
  9
$LUNITS
 70
     2
  9
$LUPREC
 70
     4
  9
$SKETCHINC
 40
1.0
  9
$FILLETRAD
 40
10.0
  9
$AUNITS
 70
     0
  9
$AUPREC
 70
     0
  9
$MENU
  1
.
  9
$ELEVATION
 40
0.0
  9
$PELEVATION
 40
0.0
  9
$THICKNESS
 40
0.0
  9
$LIMCHECK
 70
     0
  9
$CHAMFERA
 40
10.0
  9
$CHAMFERB
 40
10.0
  9
$CHAMFERC
 40
20.0
  9
$CHAMFERD
 40
0.0
  9
$SKPOLY
 70
     0
  9
$TDCREATE
 40
2460150.869473148
  9
$TDUCREATE
 40
2460150.994473148
  9
$TDUPDATE
 40
2460558.758837488
  9
$TDUUPDATE
 40
2460558.883837488
  9
$TDINDWG
 40
0.0101420255
  9
$TDUSRTIMER
 40
0.0101420255
  9
$USRTIMER
 70
     1
  9
$ANGBASE
 50
0.0
  9
$ANGDIR
 70
     0
  9
$PDMODE
 70
     0
  9
$PDSIZE
 40
0.0
  9
$PLINEWID
 40
0.0
  9
$SPLFRAME
 70
     0
  9
$SPLINETYPE
 70
     6
  9
$SPLINESEGS
 70
     8
  9
$HANDSEED
  5
8239
  9
$SURFTAB1
 70
     6
  9
$SURFTAB2
 70
     6
  9
$SURFTYPE
 70
     6
  9
$SURFU
 70
     6
  9
$SURFV
 70
     6
  9
$UCSBASE
  2

  9
$UCSNAME
  2

  9
$UCSORG
 10
0.0
 20
0.0
 30
0.0
  9
$UCSXDIR
 10
1.0
 20
0.0
 30
0.0
  9
$UCSYDIR
 10
0.0
 20
1.0
 30
0.0
  9
$UCSORTHOREF
  2

  9
$UCSORTHOVIEW
 70
     0
  9
$UCSORGTOP
 10
0.0
 20
0.0
 30
0.0
  9
$UCSORGBOTTOM
 10
0.0
 20
0.0
 30
0.0
  9
$UCSORGLEFT
 10
0.0
 20
0.0
 30
0.0
  9
$UCSORGRIGHT
 10
0.0
 20
0.0
 30
0.0
  9
$UCSORGFRONT
 10
0.0
 20
0.0
 30
0.0
  9
$UCSORGBACK
 10
0.0
 20
0.0
 30
0.0
  9
$PUCSBASE
  2

  9
$PUCSNAME
  2

  9
$PUCSORG
 10
0.0
 20
0.0
 30
0.0
  9
$PUCSXDIR
 10
1.0
 20
0.0
 30
0.0
  9
$PUCSYDIR
 10
0.0
 20
1.0
 30
0.0
  9
$PUCSORTHOREF
  2

  9
$PUCSORTHOVIEW
 70
     0
  9
$PUCSORGTOP
 10
0.0
 20
0.0
 30
0.0
  9
$PUCSORGBOTTOM
 10
0.0
 20
0.0
 30
0.0
  9
$PUCSORGLEFT
 10
0.0
 20
0.0
 30
0.0
  9
$PUCSORGRIGHT
 10
0.0
 20
0.0
 30
0.0
  9
$PUCSORGFRONT
 10
0.0
 20
0.0
 30
0.0
  9
$PUCSORGBACK
 10
0.0
 20
0.0
 30
0.0
  9
$USERI1
 70
     0
  9
$USERI2
 70
     0
  9
$USERI3
 70
     0
  9
$USERI4
 70
     0
  9
$USERI5
 70
     0
  9
$USERR1
 40
0.0
  9
$USERR2
 40
0.0
  9
$USERR3
 40
0.0
  9
$USERR4
 40
0.0
  9
$USERR5
 40
0.0
  9
$WORLDVIEW
 70
     1
  9
$SHADEDGE
 70
     3
  9
$SHADEDIF
 70
    70
  9
$TILEMODE
 70
     1
  9
$MAXACTVP
 70
    64
  9
$PINSBASE
 10
0.0
 20
0.0
 30
0.0
  9
$PLIMCHECK
 70
     0
  9
$PEXTMIN
 10
4.376823999034058
 20
4.864343823140643
 30
0.0
  9
$PEXTMAX
 10
262.323157690419
 20
197.3807079237956
 30
0.0
  9
$PLIMMIN
 10
-6.350006103515625
 20
-6.349999904632568
  9
$PLIMMAX
 10
273.0499877929687
 20
209.5499939918517
  9
$UNITMODE
 70
     0
  9
$VISRETAIN
 70
     1
  9
$PLINEGEN
 70
     0
  9
$PSLTSCALE
 70
     1
  9
$TREEDEPTH
 70
  3020
  9
$CMLSTYLE
  2
Standard
  9
$CMLJUST
 70
     0
  9
$CMLSCALE
 40
20.0
  9
$PROXYGRAPHICS
 70
     1
  9
$MEASUREMENT
 70
     1
  9
$CELWEIGHT
370
    -1
  9
$ENDCAPS
280
     0
  9
$JOINSTYLE
280
     0
  9
$LWDISPLAY
290
     0
  9
$INSUNITS
 70
     4
  9
$HYPERLINKBASE
  1

  9
$STYLESHEET
  1

  9
$XEDIT
290
     1
  9
$CEPSNTYPE
380
     0
  9
$PSTYLEMODE
290
     1
  9
$FINGERPRINTGUID
  2
{FDEAD578-A652-11D2-9A35-0060089B3A3F}
  9
$VERSIONGUID
  2
{03D0A87A-5277-4CF8-9011-973C1BF9D524}
  9
$EXTNAMES
290
     1
  9
$PSVPSCALE
 40
0.0
  9
$OLESTARTUP
290
     0
  0
ENDSEC
  0
SECTION
  2
CLASSES
  0
CLASS
  1
ACDBDICTIONARYWDFLT
  2
AcDbDictionaryWithDefault
  3
AutoCAD 2000
 90
        0
280
     0
281
     0
  0
CLASS
  1
ACDBPLACEHOLDER
  2
AcDbPlaceHolder
  3
AutoCAD 2000
 90
        0
280
     0
281
     0
  0
CLASS
  1
LAYOUT
  2
AcDbLayout
  3
AutoCAD 2000
 90
        0
280
     0
281
     0
  0
CLASS
  1
DICTIONARYVAR
  2
AcDbDictionaryVar
  3
AutoCAD 2000
 90
        0
280
     0
281
     0
  0
ENDSEC
  0
SECTION
  2
TABLES
  0
TABLE
  2
VPORT
  5
8
330
0
100
AcDbSymbolTable
 70
     4
  0
VPORT
  5
8238
330
8
100
AcDbSymbolTableRecord
100
AcDbViewportTableRecord
  2
*Active
 70
     0
 10
0.0
 20
0.0
 11
1.0
 21
1.0
 12
0.0032050791234042
 22
100.0090948733374
 13
0.0
 23
0.0
 14
10.0
 24
10.0
 15
10.0
 25
10.0
 16
0.0
 26
0.0
 36
1.0
 17
0.0
 27
0.0
 37
0.0
 40
220.4879650113734
 41
2.078661087866108
 42
50.0
 43
0.0
 44
0.0
 50
0.0
 51
0.0
 71
     0
 72
   100
 73
     1
 74
     3
 75
     0
 76
     0
 77
     0
 78
     0
281
     0
 65
     1
110
0.0
120
0.0
130
0.0
111
1.0
121
0.0
131
0.0
112
0.0
122
1.0
132
0.0
 79
     0
146
0.0
  0
ENDTAB
  0
TABLE
  2
LTYPE
  5
5
330
0
100
AcDbSymbolTable
 70
     1
  0
LTYPE
  5
14
330
5
100
AcDbSymbolTableRecord
100
AcDbLinetypeTableRecord
  2
ByBlock
 70
     0
  3

 72
    65
 73
     0
 40
0.0
  0
LTYPE
  5
15
330
5
100
AcDbSymbolTableRecord
100
AcDbLinetypeTableRecord
  2
ByLayer
 70
     0
  3

 72
    65
 73
     0
 40
0.0
  0
LTYPE
  5
16
330
5
100
AcDbSymbolTableRecord
100
AcDbLinetypeTableRecord
  2
Continuous
 70
     0
  3
Solid line
 72
    65
 73
     0
 40
0.0
  0
ENDTAB
  0
TABLE
  2
LAYER
  5
2
102
{ACAD_XDICTIONARY
360
85
102
}
330
0
100
AcDbSymbolTable
 70
     2
  0
LAYER
  5
10
330
2
100
AcDbSymbolTableRecord
100
AcDbLayerTableRecord
  2
0
 70
     0
 62
     7
  6
Continuous
370
    -3
390
F
  0
LAYER
  5
81CA
102
{ACAD_XDICTIONARY
360
81CB
102
}
330
2
100
AcDbSymbolTableRecord
100
AcDbLayerTableRecord
  2
ceco.net 596 - no smoking sign
 70
     0
 62
     7
  6
Continuous
370
    -3
390
F
1001
AcAecLayerStandard
1000

1000

1001
AcCmTransparency
1071
        0
  0
ENDTAB
  0
TABLE
  2
STYLE
  5
3
330
0
100
AcDbSymbolTable
 70
     1
  0
STYLE
  5
11
330
3
100
AcDbSymbolTableRecord
100
AcDbTextStyleTableRecord
  2
Standard
 70
     0
 40
0.0
 41
1.0
 50
0.0
 71
     0
 42
2.5
  3
txt
  4

  0
ENDTAB
  0
TABLE
  2
VIEW
  5
6
330
0
100
AcDbSymbolTable
 70
     0
  0
ENDTAB
  0
TABLE
  2
UCS
  5
7
330
0
100
AcDbSymbolTable
 70
     0
  0
ENDTAB
  0
TABLE
  2
APPID
  5
9
330
0
100
AcDbSymbolTable
 70
    18
  0
APPID
  5
12
330
9
100
AcDbSymbolTableRecord
100
AcDbRegAppTableRecord
  2
ACAD
 70
     0
  0
APPID
  5
80
330
9
100
AcDbSymbolTableRecord
100
AcDbRegAppTableRecord
  2
ACAD_NAV_VCDISPLAY
 70
     0
  0
APPID
  5
81
330
9
100
AcDbSymbolTableRecord
100
AcDbRegAppTableRecord
  2
AcAecLayerStandard
 70
     0
  0
APPID
  5
82
330
9
100
AcDbSymbolTableRecord
100
AcDbRegAppTableRecord
  2
AcCmTransparency
 70
     0
  0
APPID
  5
83
330
9
100
AcDbSymbolTableRecord
100
AcDbRegAppTableRecord
  2
ACAD_EXEMPT_FROM_CAD_STANDARDS
 70
     0
  0
APPID
  5
84
330
9
100
AcDbSymbolTableRecord
100
AcDbRegAppTableRecord
  2
ACAD_MLEADERVER
 70
     0
  0
APPID
  5
590E
330
9
100
AcDbSymbolTableRecord
100
AcDbRegAppTableRecord
  2
ACAD_PSEXT
 70
     0
  0
APPID
  5
590F
330
9
100
AcDbSymbolTableRecord
100
AcDbRegAppTableRecord
  2
AcadAnnoPO
 70
     0
  0
APPID
  5
5910
330
9
100
AcDbSymbolTableRecord
100
AcDbRegAppTableRecord
  2
AcadAnnotative
 70
     0
  0
APPID
  5
5911
330
9
100
AcDbSymbolTableRecord
100
AcDbRegAppTableRecord
  2
ACAD_DSTYLE_DIMJAG
 70
     0
  0
APPID
  5
5912
330
9
100
AcDbSymbolTableRecord
100
AcDbRegAppTableRecord
  2
ACAD_DSTYLE_DIMTALN
 70
     0
  0
APPID
  5
5913
330
9
100
AcDbSymbolTableRecord
100
AcDbRegAppTableRecord
  2
_KTI_ARE
 70
     0
  0
APPID
  5
5914
330
9
100
AcDbSymbolTableRecord
100
AcDbRegAppTableRecord
  2
PE_URL
 70
     0
  0
APPID
  5
5915
330
9
100
AcDbSymbolTableRecord
100
AcDbRegAppTableRecord
  2
AcadStringInfo
 70
     0
  0
APPID
  5
5916
330
9
100
AcDbSymbolTableRecord
100
AcDbRegAppTableRecord
  2
AcDbBlockRepETag
 70
     0
  0
APPID
  5
81CD
330
9
100
AcDbSymbolTableRecord
100
AcDbRegAppTableRecord
  2
GradientColor1ACI
 70
     0
  0
APPID
  5
81CE
330
9
100
AcDbSymbolTableRecord
100
AcDbRegAppTableRecord
  2
GradientColor2ACI
 70
     0
  0
APPID
  5
81CF
330
9
100
AcDbSymbolTableRecord
100
AcDbRegAppTableRecord
  2
ACAD_DSTYLE_DIMRADIAL_EXTENSION
 70
     0
  0
ENDTAB
  0
TABLE
  2
DIMSTYLE
  5
A
330
0
100
AcDbSymbolTable
 70
     2
100
AcDbDimStyleTable
 71
     2
340
27
340
7F
  0
DIMSTYLE
105
27
330
A
100
AcDbSymbolTableRecord
100
AcDbDimStyleTableRecord
  2
ISO-25
 70
     0
 41
2.5
 42
0.625
 43
3.75
 44
1.25
 73
     0
 74
     0
 77
     1
 78
     8
140
2.5
141
2.5
143
0.03937007874016
147
0.625
171
     3
172
     1
271
     2
272
     2
274
     3
278
    44
283
     0
284
     8
340
11
  0
DIMSTYLE
105
7F
330
A
100
AcDbSymbolTableRecord
100
AcDbDimStyleTableRecord
  2
Standard
 70
     0
340
11
  0
ENDTAB
  0
TABLE
  2
BLOCK_RECORD
  5
1
330
0
100
AcDbSymbolTable
 70
     1
  0
BLOCK_RECORD
  5
1F
330
1
100
AcDbSymbolTableRecord
100
AcDbBlockTableRecord
  2
*Model_Space
340
22
  0
BLOCK_RECORD
  5
50
330
1
100
AcDbSymbolTableRecord
100
AcDbBlockTableRecord
  2
*Paper_Space
340
51
  0
ENDTAB
  0
ENDSEC
  0
SECTION
  2
BLOCKS
  0
BLOCK
  5
20
330
1F
100
AcDbEntity
  8
0
100
AcDbBlockBegin
  2
*Model_Space
 70
     0
 10
0.0
 20
0.0
 30
0.0
  3
*Model_Space
  1

  0
ENDBLK
  5
21
330
1F
100
AcDbEntity
  8
0
100
AcDbBlockEnd
  0
BLOCK
  5
52
330
50
100
AcDbEntity
 67
     1
  8
0
100
AcDbBlockBegin
  2
*Paper_Space
 70
     0
 10
0.0
 20
0.0
 30
0.0
  3
*Paper_Space
  1

  0
ENDBLK
  5
53
330
50
100
AcDbEntity
 67
     1
  8
0
100
AcDbBlockEnd
  0
ENDSEC
  0
SECTION
  2
ENTITIES
  0
ARC
  5
8205
102
{ACAD_REACTORS
330
8235
102
}
330
1F
100
AcDbEntity
  8
ceco.net 596 - no smoking sign
 62
     1
100
AcDbCircle
 10
0.0000000000000184
 20
99.99999999999978
 30
0.0
 40
77.94960009736489
100
AcDbArc
 50
143.1297355722271
 51
306.8702644277728
  0
CIRCLE
  5
8206
102
{ACAD_REACTORS
330
8235
102
}
330
1F
100
AcDbEntity
  8
ceco.net 596 - no smoking sign
 62
     1
100
AcDbCircle
 10
0.0000000000000184
 20
99.99999999999978
 30
0.0
 40
99.99999999999978
  0
LINE
  5
8207
102
{ACAD_REACTORS
330
8233
330
8235
102
}
330
1F
100
AcDbEntity
  8
ceco.net 596 - no smoking sign
 62
     1
100
AcDbLine
 10
-46.7701592562136
 20
162.3593806775491
 30
0.0
 11
62.35938067754925
 21
53.22984074378596
 31
0.0
  0
LINE
  5
8208
102
{ACAD_REACTORS
330
8233
330
8235
102
}
330
1F
100
AcDbEntity
  8
ceco.net 596 - no smoking sign
 62
     1
100
AcDbLine
 10
-62.35938067754938
 20
146.7701592562135
 30
0.0
 11
46.77015925621363
 21
37.64061932245048
 31
0.0
  0
LINE
  5
8209
102
{ACAD_REACTORS
330
8233
102
}
330
1F
100
AcDbEntity
  8
ceco.net 596 - no smoking sign
100
AcDbLine
 10
-65.65131401325527
 20
97.20898342604785
 30
0.0
 11
-12.79820484738374
 21
97.20898342604785
 31
0.0
  0
LINE
  5
820A
102
{ACAD_REACTORS
330
8233
102
}
330
1F
100
AcDbEntity
  8
ceco.net 596 - no smoking sign
100
AcDbLine
 10
-65.65131401325527
 20
79.21020524225951
 30
0.0
 11
5.200573336404819
 21
79.21020524225951
 31
0.0
  0
LINE
  5
820B
102
{ACAD_REACTORS
330
8233
102
}
330
1F
100
AcDbEntity
  8
ceco.net 596 - no smoking sign
100
AcDbLine
 10
-65.65131401325527
 20
79.21020524225951
 30
0.0
 11
-65.65131401325527
 21
97.20898342604785
 31
0.0
  0
LINE
  5
820C
102
{ACAD_REACTORS
330
8233
330
8235
102
}
330
1F
100
AcDbEntity
  8
ceco.net 596 - no smoking sign
100
AcDbLine
 10
64.79308067615011
 20
79.21020524225951
 30
0.0
 11
64.79308067615011
 21
97.20898342604785
 31
0.0
  0
LINE
  5
820D
102
{ACAD_REACTORS
330
8233
330
8235
102
}
330
1F
100
AcDbEntity
  8
ceco.net 596 - no smoking sign
100
AcDbLine
 10
58.81545780469788
 20
79.21020524225951
 30
0.0
 11
58.81545780469788
 21
97.20898342604785
 31
0.0
  0
LINE
  5
820E
102
{ACAD_REACTORS
330
8233
330
8235
102
}
330
1F
100
AcDbEntity
  8
ceco.net 596 - no smoking sign
100
AcDbLine
 10
55.36851181799796
 20
79.21020524225951
 30
0.0
 11
55.36851181799796
 21
97.20898342604785
 31
0.0
  0
LINE
  5
820F
102
{ACAD_REACTORS
330
8233
330
8235
102
}
330
1F
100
AcDbEntity
  8
ceco.net 596 - no smoking sign
100
AcDbLine
 10
49.39088894654572
 20
79.21020524225951
 30
0.0
 11
49.39088894654572
 21
97.20898342604785
 31
0.0
  0
LINE
  5
8210
102
{ACAD_REACTORS
330
8233
102
}
330
1F
100
AcDbEntity
  8
ceco.net 596 - no smoking sign
100
AcDbLine
 10
45.94394295984562
 20
79.21020524225951
 30
0.0
 11
45.94394295984562
 21
97.20898342604785
 31
0.0
  0
LINE
  5
8211
102
{ACAD_REACTORS
330
8233
330
8235
102
}
330
1F
100
AcDbEntity
  8
ceco.net 596 - no smoking sign
100
AcDbLine
 10
58.81545780469788
 20
79.21020524225951
 30
0.0
 11
64.79308067615011
 21
79.21020524225951
 31
0.0
  0
LINE
  5
8212
102
{ACAD_REACTORS
330
8233
330
8235
102
}
330
1F
100
AcDbEntity
  8
ceco.net 596 - no smoking sign
100
AcDbLine
 10
49.39088894654572
 20
79.21020524225951
 30
0.0
 11
55.36851181799796
 21
79.21020524225951
 31
0.0
  0
LINE
  5
8213
102
{ACAD_REACTORS
330
8233
330
8235
102
}
330
1F
100
AcDbEntity
  8
ceco.net 596 - no smoking sign
100
AcDbLine
 10
49.39088894654572
 20
97.20898342604785
 30
0.0
 11
55.36851181799796
 21
97.20898342604785
 31
0.0
  0
LINE
  5
8214
102
{ACAD_REACTORS
330
8233
330
8235
102
}
330
1F
100
AcDbEntity
  8
ceco.net 596 - no smoking sign
100
AcDbLine
 10
58.81545780469823
 20
97.20898342604785
 30
0.0
 11
64.79308067615011
 21
97.20898342604785
 31
0.0
  0
LINE
  5
8215
102
{ACAD_REACTORS
330
8233
330
8235
102
}
330
1F
100
AcDbEntity
  8
ceco.net 596 - no smoking sign
100
AcDbLine
 10
49.39088894654572
 20
99.99999999999978
 30
0.0
 11
49.39088894654572
 21
110.1087747650492
 31
0.0
  0
LINE
  5
8216
102
{ACAD_REACTORS
330
8234
330
8235
102
}
330
1F
100
AcDbEntity
  8
ceco.net 596 - no smoking sign
100
AcDbLine
 10
58.81545780469788
 20
99.99999999999978
 30
0.0
 11
58.81545780469805
 21
112.038516764175
 31
0.0
  0
LINE
  5
8217
102
{ACAD_REACTORS
330
8234
330
8235
102
}
330
1F
100
AcDbEntity
  8
ceco.net 596 - no smoking sign
100
AcDbLine
 10
64.79308067615028
 20
99.99999999999978
 30
0.0
 11
64.79308067615011
 21
112.5376195640497
 31
0.0
  0
LINE
  5
8218
102
{ACAD_REACTORS
330
8233
330
8235
102
}
330
1F
100
AcDbEntity
  8
ceco.net 596 - no smoking sign
100
AcDbLine
 10
41.91750306149836
 20
117.5821606500967
 30
0.0
 11
22.158087670433
 21
117.5821606500967
 31
0.0
  0
LINE
  5
8219
102
{ACAD_REACTORS
330
8233
330
8235
102
}
330
1F
100
AcDbEntity
  8
ceco.net 596 - no smoking sign
100
AcDbLine
 10
10.01383560723107
 20
129.7264127132987
 30
0.0
 11
10.01383560723107
 21
135.7064902624616
 31
0.0
  0
ARC
  5
821A
102
{ACAD_REACTORS
330
8235
102
}
330
1F
100
AcDbEntity
  8
ceco.net 596 - no smoking sign
 62
     1
100
AcDbCircle
 10
0.0000000000000184
 20
99.99999999999978
 30
0.0
 40
77.94960009736489
100
AcDbArc
 50
323.129735572227
 51
126.8702644277728
  0
ARC
  5
821B
102
{ACAD_REACTORS
330
8233
330
8235
102
}
330
1F
100
AcDbEntity
  8
ceco.net 596 - no smoking sign
100
AcDbCircle
 10
41.91750306149836
 20
110.1087747650492
 30
0.0
 40
7.473385885047425
100
AcDbArc
 50
0.0
 51
90.0
  0
ARC
  5
821C
102
{ACAD_REACTORS
330
8233
330
8235
102
}
330
1F
100
AcDbEntity
  8
ceco.net 596 - no smoking sign
100
AcDbCircle
 10
22.158087670433
 20
129.7264127132987
 30
0.0
 40
12.14425206320206
100
AcDbArc
 50
180.0
 51
270.0
  0
ARC
  5
821D
102
{ACAD_REACTORS
330
8233
330
8235
102
}
330
1F
100
AcDbEntity
  8
ceco.net 596 - no smoking sign
100
AcDbCircle
 10
10.01383560723107
 20
153.5779437132659
 30
0.0
 40
17.8714534508041
100
AcDbArc
 50
90.0
 51
270.0
  0
LINE
  5
821E
102
{ACAD_REACTORS
330
8233
330
8235
102
}
330
1F
100
AcDbEntity
  8
ceco.net 596 - no smoking sign
100
AcDbLine
 10
55.36959765458358
 20
99.99999999999978
 30
0.0
 11
55.36959765458358
 21
110.1087747650492
 31
0.0
  0
ARC
  5
821F
102
{ACAD_REACTORS
330
8233
330
8235
102
}
330
1F
100
AcDbEntity
  8
ceco.net 596 - no smoking sign
100
AcDbCircle
 10
41.91750306149836
 20
110.1087747650492
 30
0.0
 40
13.45209459308536
100
AcDbArc
 50
0.0
 51
90.0
  0
LINE
  5
8220
102
{ACAD_REACTORS
330
8233
330
8235
102
}
330
1F
100
AcDbEntity
  8
ceco.net 596 - no smoking sign
100
AcDbLine
 10
41.91750306149836
 20
123.5608693581346
 30
0.0
 11
21.95275453224374
 21
123.5608693581346
 31
0.0
  0
ARC
  5
8221
102
{ACAD_REACTORS
330
8233
330
8235
102
}
330
1F
100
AcDbEntity
  8
ceco.net 596 - no smoking sign
100
AcDbCircle
 10
10.01383560723107
 20
153.5779437132659
 30
0.0
 40
11.89274474276617
100
AcDbArc
 50
90.0
 51
270.0
  0
LINE
  5
8222
102
{ACAD_REACTORS
330
8233
330
8235
102
}
330
1F
100
AcDbEntity
  8
ceco.net 596 - no smoking sign
100
AcDbLine
 10
10.01383560723107
 20
141.6851989704996
 30
0.0
 11
13.99523353561848
 21
141.6851989704996
 31
0.0
  0
ARC
  5
8223
102
{ACAD_REACTORS
330
8233
330
8235
102
}
330
1F
100
AcDbEntity
  8
ceco.net 596 - no smoking sign
100
AcDbCircle
 10
13.99523353561848
 20
138.6958446164806
 30
0.0
 40
2.989354354018971
100
AcDbArc
 50
330.3855040599565
 51
90.0
  0
ARC
  5
8224
102
{ACAD_REACTORS
330
8233
330
8235
102
}
330
1F
100
AcDbEntity
  8
ceco.net 596 - no smoking sign
100
AcDbCircle
 10
25.43973474319509
 20
132.3740047034733
 30
0.0
 40
10.08542293240127
100
AcDbArc
 50
150.8770615335459
 51
229.9091814451081
  0
ARC
  5
8225
102
{ACAD_REACTORS
330
8233
330
8235
102
}
330
1F
100
AcDbEntity
  8
ceco.net 596 - no smoking sign
100
AcDbCircle
 10
21.95275453224374
 20
128.2317355362893
 30
0.0
 40
4.67086617815464
100
AcDbArc
 50
229.9091814451081
 51
270.0
  0
LINE
  5
8226
102
{ACAD_REACTORS
330
8233
330
8235
102
}
330
1F
100
AcDbEntity
  8
ceco.net 596 - no smoking sign
100
AcDbLine
 10
10.01383560723107
 20
171.4493971640699
 30
0.0
 11
10.01383560723107
 21
165.4706884560319
 31
0.0
  0
ARC
  5
8227
102
{ACAD_REACTORS
330
8234
330
8235
102
}
330
1F
100
AcDbEntity
  8
ceco.net 596 - no smoking sign
100
AcDbCircle
 10
30.46657567652959
 20
134.8300701566045
 30
0.0
 40
2.989354354018971
100
AcDbArc
 50
138.0481308300588
 51
270.0
  0
ARC
  5
8228
102
{ACAD_REACTORS
330
8234
330
8235
102
}
330
1F
100
AcDbEntity
  8
ceco.net 596 - no smoking sign
100
AcDbCircle
 10
17.46834851888616
 20
145.7740478594915
 30
0.0
 40
14.00444510385688
100
AcDbArc
 50
320.300067776405
 51
92.90112931884632
  0
ARC
  5
8229
102
{ACAD_REACTORS
330
8234
330
8235
102
}
330
1F
100
AcDbEntity
  8
ceco.net 596 - no smoking sign
100
AcDbCircle
 10
39.27193076901184
 20
112.0565960498944
 30
0.0
 40
25.52568267850645
100
AcDbArc
 50
1.079784977647153
 51
91.09794166122018
  0
ARC
  5
822A
102
{ACAD_REACTORS
330
8234
330
8235
102
}
330
1F
100
AcDbEntity
  8
ceco.net 596 - no smoking sign
100
AcDbCircle
 10
38.84052712685319
 20
111.8647556236487
 30
0.0
 40
19.97568643422959
100
AcDbArc
 50
359.4936962799
 51
90.0000000003158
  0
LINE
  5
822B
102
{ACAD_REACTORS
330
8234
330
8235
102
}
330
1F
100
AcDbEntity
  8
ceco.net 596 - no smoking sign
100
AcDbLine
 10
39.76104175586192
 20
137.5775922421741
 30
0.0
 11
35.69318189489242
 21
137.5775922421741
 31
0.0
  0
ARC
  5
822C
102
{ACAD_REACTORS
330
8234
330
8235
102
}
330
1F
100
AcDbEntity
  8
ceco.net 596 - no smoking sign
100
AcDbCircle
 10
17.46834851888616
 20
145.7740478594915
 30
0.0
 40
19.98315381189482
100
AcDbArc
 50
335.7845943372207
 51
92.03270557426701
  0
LINE
  5
822D
102
{ACAD_REACTORS
330
8234
330
8235
102
}
330
1F
100
AcDbEntity
  8
ceco.net 596 - no smoking sign
100
AcDbLine
 10
16.7595467883107
 20
159.760544303336
 30
0.0
 11
16.7595467883107
 21
165.7446271294221
 31
0.0
  0
LINE
  5
822E
102
{ACAD_REACTORS
330
8234
330
8235
102
}
330
1F
100
AcDbEntity
  8
ceco.net 596 - no smoking sign
100
AcDbLine
 10
30.46657567652959
 20
131.8407158025856
 30
0.0
 11
38.84052712685319
 21
131.8404420578783
 31
0.0
  0
LINE
  5
822F
102
{ACAD_REACTORS
330
8234
330
8235
102
}
330
1F
100
AcDbEntity
  8
ceco.net 596 - no smoking sign
100
AcDbLine
 10
58.81545780469806
 20
99.99999999999978
 30
0.0
 11
64.79308067615028
 21
99.99999999999978
 31
0.0
  0
LINE
  5
8230
102
{ACAD_REACTORS
330
8233
330
8235
102
}
330
1F
100
AcDbEntity
  8
ceco.net 596 - no smoking sign
100
AcDbLine
 10
49.39088894654572
 20
99.99999999999978
 30
0.0
 11
55.36959765458358
 21
99.99999999999978
 31
0.0
  0
LINE
  5
8231
102
{ACAD_REACTORS
330
8233
102
}
330
1F
100
AcDbEntity
  8
ceco.net 596 - no smoking sign
100
AcDbLine
 10
36.37901617907568
 20
79.21020524225951
 30
0.0
 11
45.94394295984562
 21
79.21020524225951
 31
0.0
  0
LINE
  5
8232
102
{ACAD_REACTORS
330
8233
102
}
330
1F
100
AcDbEntity
  8
ceco.net 596 - no smoking sign
100
AcDbLine
 10
18.38023799528746
 20
97.20898342604785
 30
0.0
 11
45.94394295984562
 21
97.20898342604785
 31
0.0
  0
HATCH
  5
8233
330
1F
100
AcDbEntity
  8
ceco.net 596 - no smoking sign
100
AcDbHatch
 10
0.0
 20
0.0
 30
0.0
210
0.0
220
0.0
230
1.0
  2
SOLID
 70
     1
 71
     1
 91
        5
 92
        7
 72
     0
 73
     1
 93
        4
 10
5.200573336404628
 20
79.21020524225951
 10
-12.79820484738369
 20
97.20898342604785
 10
-65.65131401325527
 20
97.20898342604785
 10
-65.65131401325527
 20
79.21020524225951
 97
        4
330
8209
330
820B
330
820A
330
8208
 92
        7
 72
     0
 73
     1
 93
        4
 10
18.38023799528751
 20
97.20898342604785
 10
36.37901617907575
 20
79.21020524225951
 10
45.94394295984561
 20
79.21020524225951
 10
45.94394295984563
 20
97.20898342604785
 97
        4
330
8232
330
8207
330
8231
330
8210
 92
        7
 72
     0
 73
     1
 93
        4
 10
49.39088894654571
 20
79.21020524225951
 10
55.36851181799796
 20
79.21020524225951
 10
55.36851181799793
 20
97.20898342604785
 10
49.39088894654572
 20
97.20898342604785
 97
        4
330
8213
330
820F
330
8212
330
820E
 92
        7
 72
     0
 73
     1
 93
        4
 10
58.81545780469785
 20
79.21020524225951
 10
64.79308067615011
 20
79.21020524225951
 10
64.79308067615011
 20
97.20898342604785
 10
58.81545780469785
 20
97.20898342604785
 97
        4
330
8214
330
820D
330
8211
330
820C
 92
        7
 72
     1
 73
     1
 93
       16
 10
49.39088894654574
 20
99.99999999999978
 42
0.0
 10
55.36959765458355
 20
99.99999999999978
 42
0.0
 10
55.36959765458373
 20
110.1087747650492
 42
0.4142135623730955
 10
41.91750306149836
 20
123.5608693581346
 42
0.0
 10
21.95275453224374
 20
123.5608693581346
 42
-0.1767356005158647
 10
18.94471182986625
 20
124.6584079617598
 42
-0.359194910399147
 10
16.62933671804717
 20
137.2824303537073
 42
0.5670247467805196
 10
13.99523353561848
 20
141.6851989704996
 42
0.0
 10
10.01383560723094
 20
141.6851989704997
 42
-1.0
 10
10.01383560723107
 20
165.4706884560321
 42
0.0
 10
10.01383560723107
 20
171.44939716407
 42
1.0
 10
10.01383560723107
 20
135.7064902624617
 42
0.0
 10
10.01383560723094
 20
129.7264127132987
 42
0.4142135623730951
 10
22.158087670433
 20
117.5821606500966
 42
0.0
 10
41.91750306149834
 20
117.5821606500967
 42
-0.4142135623730959
 10
49.39088894654579
 20
110.1087747650492
 42
0.0
 97
       16
330
821F
330
8220
330
8225
330
8224
330
8223
330
8222
330
8221
330
8226
330
821D
330
8219
330
821C
330
8218
330
821B
330
8215
330
8230
330
821E
 75
     1
 76
     1
 47
0.0011903942442377
 98
        5
 10
-38.57395543104827
 20
83.97690549418843
 10
39.30303721451837
 20
90.88119266608442
 10
51.09175513688913
 20
90.16695672437633
 10
60.61799500126528
 20
90.16695672437633
 10
51.21083704498803
 20
105.9991991695474
1001
GradientColor1ACI
1070
     5
1001
GradientColor2ACI
1070
     2
1001
ACAD
1010
0.0
1020
0.0
1030
0.0
  0
HATCH
  5
8234
330
1F
100
AcDbEntity
  8
ceco.net 596 - no smoking sign
100
AcDbHatch
 10
0.0
 20
0.0
 30
0.0
210
0.0
220
0.0
230
1.0
  2
SOLID
 70
     1
 71
     1
 91
        1
 92
        7
 72
     1
 73
     1
 93
       11
 10
28.11866716232119
 20
136.6803579890241
 42
0.6263159642749404
 10
30.46647795445211
 20
131.8407158041828
 42
0.0
 10
38.84052712469688
 20
131.8404420578783
 42
-0.4167636659054404
 10
58.81545780469803
 20
111.6909944831223
 42
0.0
 10
58.81545780469788
 20
99.99999999999978
 42
0.0
 10
64.79308067615028
 20
99.99999999999978
 42
0.0
 10
64.79308067615011
 20
112.5376195640616
 42
0.4031244424677481
 10
39.76104175585742
 20
137.5775922421741
 42
0.0
 10
35.69318189489243
 20
137.5775922421741
 42
0.5557251261287051
 10
16.7595467883107
 20
165.7446271294221
 42
0.0
 10
16.7595467883107
 20
159.760544303336
 42
-0.6580847671197664
 97
       11
330
822D
330
8228
330
8227
330
822E
330
822A
330
8216
330
822F
330
8217
330
8229
330
822B
330
822C
 75
     1
 76
     1
 47
0.0013327659889373
 98
        1
 10
28.99070376255716
 20
157.6254373311068
1001
GradientColor1ACI
1070
     5
1001
GradientColor2ACI
1070
     2
1001
ACAD
1010
0.0
1020
0.0
1030
0.0
  0
HATCH
  5
8235
330
1F
100
AcDbEntity
  8
ceco.net 596 - no smoking sign
 62
     1
100
AcDbHatch
 10
0.0
 20
0.0
 30
0.0
210
0.0
220
0.0
230
1.0
  2
SOLID
 70
     1
 71
     1
 91
        7
 92
        7
 72
     1
 73
     1
 93
        2
 10
-99.99999999999976
 20
99.99999999999978
 42
1.0
 10
99.9999999999998
 20
99.99999999999978
 42
1.0
 97
        1
330
8206
 92
       22
 72
     1
 73
     1
 93
        2
 10
-46.77015925621366
 20
162.3593806775491
 42
-0.8673010101148086
 10
62.35938067754929
 20
53.22984074378594
 42
0.0
 97
        2
330
821A
330
8207
 92
       22
 72
     1
 73
     1
 93
        2
 10
-62.35938067754938
 20
146.7701592562135
 42
0.0
 10
46.7701592562137
 20
37.64061932245041
 42
-0.8673010101148117
 97
        2
330
8208
330
8205
 92
        6
 72
     1
 73
     1
 93
       16
 10
10.01383560723108
 20
171.44939716407
 42
0.0
 10
10.01383560723108
 20
165.4706884560321
 42
1.0
 10
10.01383560723108
 20
141.6851989704997
 42
0.0
 10
13.99523353561852
 20
141.6851989704996
 42
-0.5751096713206588
 10
16.59408833145283
 20
137.2186197845542
 42
0.3571560475865883
 10
18.94471182986558
 20
124.658407961759
 42
0.1767356005158851
 10
21.95275453224374
 20
123.5608693581346
 42
0.0
 10
41.91750306149839
 20
123.5608693581346
 42
-0.4142135623730948
 10
55.36959765458373
 20
110.1087747650492
 42
0.0
 10
55.3695976545836
 20
99.99999999999978
 42
0.0
 10
49.39088894654573
 20
99.99999999999978
 42
0.0
 10
49.3908889465458
 20
110.1087747650492
 42
0.4142135623730942
 10
41.91750306149839
 20
117.5821606500967
 42
0.0
 10
22.158087670433
 20
117.5821606500966
 42
-0.4142135623730949
 10
10.01383560723094
 20
129.7264127132987
 42
0.0
 10
10.01383560723108
 20
135.7064902624617
 42
-1.0
 97
       16
330
8226
330
8221
330
8222
330
8223
330
8224
330
8225
330
8220
330
821F
330
821E
330
8230
330
8215
330
821B
330
8218
330
821C
330
8219
330
821D
 92
        6
 72
     1
 73
     1
 93
       11
 10
16.75954678831053
 20
165.7446271294221
 42
-0.5557251261287081
 10
35.69318189489243
 20
137.5775922421741
 42
0.0
 10
38.78281978216628
 20
137.5775922421741
 42
-0.4143063814963349
 10
64.79308067615011
 20
112.5376195640616
 42
0.0
 10
64.79308067615028
 20
99.99999999999978
 42
0.0
 10
58.8154578046979
 20
99.99999999999978
 42
0.0
 10
58.81545780469806
 20
112.0385167641751
 42
0.4116680489631426
 10
38.84052712464018
 20
131.8404420578783
 42
0.0
 10
30.46647795445211
 20
131.8407158041828
 42
-0.6490974399564121
 10
28.24337293239417
 20
136.8284717709856
 42
0.6531426293617385
 10
16.7595467883107
 20
159.760544303336
 42
0.0
 97
       11
330
822C
330
822B
330
8229
330
8217
330
822F
330
8216
330
822A
330
822E
330
8227
330
8228
330
822D
 92
        6
 72
     0
 73
     1
 93
        4
 10
49.39088894654573
 20
97.20898342604785
 10
55.36851181799796
 20
97.20898342604785
 10
55.36851181799796
 20
79.21020524225951
 10
49.39088894654573
 20
79.21020524225953
 97
        4
330
8213
330
820E
330
8212
330
820F
 92
        6
 72
     0
 73
     1
 93
        4
 10
58.81545780469788
 20
97.20898342604785
 10
64.79308067615011
 20
97.20898342604785
 10
64.79308067615011
 20
79.21020524225951
 10
58.81545780469788
 20
79.21020524225953
 97
        4
330
8214
330
820C
330
8211
330
820D
 75
     1
 76
     1
 47
0.0021317964224158
 98
        7
 10
-62.44535541530423
 20
165.7916921845995
 10
-62.44535541530423
 20
165.7916921845995
 10
-62.44535541530423
 20
165.7916921845995
 10
-62.44535541530423
 20
165.7916921845995
 10
-62.44535541530423
 20
165.7916921845995
 10
-62.44535541530423
 20
165.7916921845995
 10
-62.44535541530423
 20
165.7916921845995
1001
GradientColor1ACI
1070
     5
1001
GradientColor2ACI
1070
     2
1001
ACAD
1010
0.0
1020
0.0
1030
0.0
  0
VIEWPORT
  5
75
330
50
100
AcDbEntity
 67
     1
  8
0
100
AcDbViewport
 10
133.3499908447265
 20
101.5999970436096
 30
0.0
 40
474.8123253217753
 41
228.4221935424804
 68
     2
 69
     1
 12
133.3499908447265
 22
101.5999970436096
 13
0.0
 23
0.0
 14
10.0
 24
10.0
 15
10.0
 25
10.0
 16
0.0
 26
0.0
 36
1.0
 17
0.0
 27
0.0
 37
0.0
 42
50.0
 43
0.0
 44
0.0
 45
228.4221935424804
 50
0.0
 51
0.0
 72
   100
 90
    32800
  1

281
     0
 71
     1
 74
     0
110
0.0
120
0.0
130
0.0
111
1.0
121
0.0
131
0.0
112
0.0
122
1.0
132
0.0
 79
     0
146
0.0
  0
VIEWPORT
  5
77
330
50
100
AcDbEntity
 67
     1
  8
0
100
AcDbViewport
 10
133.3499908447265
 20
101.1225258734681
 30
0.0
 40
257.946333691385
 41
192.5163641006549
 68
     1
 69
     2
 12
-0.0134125103826435
 22
99.99671003298329
 13
0.0
 23
0.0
 14
10.0
 24
10.0
 15
10.0
 25
10.0
 16
0.0
 26
0.0
 36
1.0
 17
0.0
 27
0.0
 37
0.0
 42
50.0
 43
0.0
 44
0.0
 45
220.6884448381809
 50
0.0
 51
0.0
 72
   100
 90
    32864
  1

281
     0
 71
     1
 74
     0
110
0.0
120
0.0
130
0.0
111
1.0
121
0.0
131
0.0
112
0.0
122
1.0
132
0.0
 79
     0
146
0.0
  0
ENDSEC
  0
SECTION
  2
OBJECTS
  0
DICTIONARY
  5
C
330
0
100
AcDbDictionary
281
     1
  3
ACAD_GROUP
350
D
  3
ACAD_LAYOUT
350
1A
  3
ACAD_MLINESTYLE
350
17
  3
ACAD_PLOTSETTINGS
350
19
  3
ACAD_PLOTSTYLENAME
350
E
  3
AcDbVariableDictionary
350
5E
  0
DICTIONARY
  5
85
330
2
100
AcDbDictionary
280
     1
281
     1
  3
ACAD_LAYERFILTERS
360
5903
  3
ACAD_LAYERSTATES
360
86
  0
DICTIONARY
  5
81CB
330
81CA
100
AcDbDictionary
280
     1
281
     1
  3
ADSK_XREC_LAYER_RECONCILED
360
81CC
  0
DICTIONARY
  5
D
102
{ACAD_REACTORS
330
C
102
}
330
C
100
AcDbDictionary
281
     1
  0
DICTIONARY
  5
1A
102
{ACAD_REACTORS
330
C
102
}
330
C
100
AcDbDictionary
281
     1
  3
ceco.net
350
51
  3
Model
350
22
  0
DICTIONARY
  5
17
102
{ACAD_REACTORS
330
C
102
}
330
C
100
AcDbDictionary
281
     1
  3
Standard
350
18
  0
DICTIONARY
  5
19
102
{ACAD_REACTORS
330
C
102
}
330
C
100
AcDbDictionary
281
     1
  0
ACDBDICTIONARYWDFLT
  5
E
102
{ACAD_REACTORS
330
C
102
}
330
C
100
AcDbDictionary
281
     1
  3
Normal
350
F
100
AcDbDictionaryWithDefault
340
F
  0
DICTIONARY
  5
5E
102
{ACAD_REACTORS
330
C
102
}
330
C
100
AcDbDictionary
281
     1
  3
DIMASSOC
350
5F
  3
HIDETEXT
350
63
  0
DICTIONARY
  5
5903
102
{ACAD_REACTORS
330
85
102
}
330
85
100
AcDbDictionary
280
     1
281
     1
  0
DICTIONARY
  5
86
102
{ACAD_REACTORS
330
85
102
}
330
85
100
AcDbDictionary
281
     1
  0
XRECORD
  5
81CC
102
{ACAD_REACTORS
330
81CB
102
}
330
81CB
100
AcDbXrecord
280
     1
290
     1
  0
LAYOUT
  5
51
102
{ACAD_REACTORS
330
1A
102
}
330
1A
100
AcDbPlotSettings
  1

  2
none_device
  4
Letter_(8.50_x_11.00_Inches)
  6

 40
6.349999904632568
 41
6.349999904632568
 42
6.350006103515625
 43
6.350006103515625
 44
215.8999938964843
 45
279.3999938964843
 46
0.0
 47
0.0
 48
0.0
 49
0.0
140
0.0
141
0.0
142
1.0
143
1.0
 70
   688
 72
     1
 73
     1
 74
     5
  7

 75
    16
147
1.0
148
0.0
149
0.0
100
AcDbLayout
  1
ceco.net
 70
     1
 71
     1
 10
-6.350006103515625
 20
-6.349999904632568
 11
273.0499877929687
 21
209.5499939918517
 12
0.0
 22
0.0
 32
0.0
 14
4.376823999034058
 24
4.864343823140643
 34
0.0
 15
262.323157690419
 25
197.3807079237956
 35
0.0
146
0.0
 13
0.0
 23
0.0
 33
0.0
 16
1.0
 26
0.0
 36
0.0
 17
0.0
 27
1.0
 37
0.0
 76
     0
330
50
331
77
  0
LAYOUT
  5
22
102
{ACAD_REACTORS
330
1A
102
}
330
1A
100
AcDbPlotSettings
  1

  2
none_device
  4
ANSI_A_(8.50_x_11.00_Inches)
  6

 40
6.349999904632568
 41
19.04999923706054
 42
6.350006103515625
 43
19.04998779296875
 44
215.8999938964843
 45
279.3999938964843
 46
0.0
 47
0.0
 48
0.0
 49
0.0
140
0.0
141
0.0
142
1.0
143
78.436453180766
 70
 11952
 72
     0
 73
     1
 74
     0
  7

 75
     0
147
0.0127491741332998
148
0.0
149
0.0
100
AcDbLayout
  1
Model
 70
     1
 71
     0
 10
0.0
 20
0.0
 11
12.0
 21
9.0
 12
0.0
 22
0.0
 32
0.0
 14
0.0
 24
0.0
 34
0.0
 15
0.0
 25
0.0
 35
0.0
146
0.0
 13
0.0
 23
0.0
 33
0.0
 16
1.0
 26
0.0
 36
0.0
 17
0.0
 27
1.0
 37
0.0
 76
     0
330
1F
  0
MLINESTYLE
  5
18
102
{ACAD_REACTORS
330
17
102
}
330
17
100
AcDbMlineStyle
  2
STANDARD
 70
     0
  3

 62
   256
 51
90.0
 52
90.0
 71
     2
 49
0.5
 62
   256
  6
BYLAYER
 49
-0.5
 62
   256
  6
BYLAYER
  0
ACDBPLACEHOLDER
  5
F
102
{ACAD_REACTORS
330
E
102
}
330
E
  0
DICTIONARYVAR
  5
5F
102
{ACAD_REACTORS
330
5E
102
}
330
5E
100
DictionaryVariables
280
     0
  1
2
  0
DICTIONARYVAR
  5
63
102
{ACAD_REACTORS
330
5E
102
}
330
5E
100
DictionaryVariables
280
     0
  1
1
  0
ENDSEC
  0
EOF
