  0
SECTION
  2
HEADER
  9
$ACADVER
  1
AC1015
  9
$ACADMAINTVER
 70
    13
  9
$DWGCODEPAGE
  3
ANSI_1252
  9
$INSBASE
 10
0.0
 20
0.0
 30
0.0
  9
$EXTMIN
 10
-1.24264068711929
 20
-1.242640687119285
 30
0.0
  9
$EXTMAX
 10
84.10566834024946
 20
84.10566834024946
 30
0.0
  9
$LIMMIN
 10
0.0
 20
0.0
  9
$LIMMAX
 10
420.0
 20
297.0
  9
$ORTHOMODE
 70
     0
  9
$REGENMODE
 70
     1
  9
$FILLMODE
 70
     1
  9
$QTEXTMODE
 70
     0
  9
$MIRRTEXT
 70
     1
  9
$LTSCALE
 40
1.0
  9
$ATTMODE
 70
     1
  9
$TEXTSIZE
 40
2.5
  9
$TRACEWID
 40
1.0
  9
$TEXTSTYLE
  7
Standard
  9
$CLAYER
  8
ceco.net 473 softball field
  9
$CELTYPE
  6
ByLayer
  9
$CECOLOR
 62
   256
  9
$CELTSCALE
 40
1.0
  9
$DISPSILH
 70
     0
  9
$DIMSCALE
 40
1.0
  9
$DIMASZ
 40
2.5
  9
$DIMEXO
 40
0.625
  9
$DIMDLI
 40
3.75
  9
$DIMRND
 40
0.0
  9
$DIMDLE
 40
0.0
  9
$DIMEXE
 40
1.25
  9
$DIMTP
 40
0.0
  9
$DIMTM
 40
0.0
  9
$DIMTXT
 40
2.5
  9
$DIMCEN
 40
2.5
  9
$DIMTSZ
 40
0.0
  9
$DIMTOL
 70
     0
  9
$DIMLIM
 70
     0
  9
$DIMTIH
 70
     0
  9
$DIMTOH
 70
     0
  9
$DIMSE1
 70
     0
  9
$DIMSE2
 70
     0
  9
$DIMTAD
 70
     1
  9
$DIMZIN
 70
     8
  9
$DIMBLK
  1

  9
$DIMASO
 70
     1
  9
$DIMSHO
 70
     1
  9
$DIMPOST
  1

  9
$DIMAPOST
  1

  9
$DIMALT
 70
     0
  9
$DIMALTD
 70
     3
  9
$DIMALTF
 40
0.03937007874016
  9
$DIMLFAC
 40
1.0
  9
$DIMTOFL
 70
     1
  9
$DIMTVP
 40
0.0
  9
$DIMTIX
 70
     0
  9
$DIMSOXD
 70
     0
  9
$DIMSAH
 70
     0
  9
$DIMBLK1
  1

  9
$DIMBLK2
  1

  9
$DIMSTYLE
  2
ISO-25
  9
$DIMCLRD
 70
     0
  9
$DIMCLRE
 70
     0
  9
$DIMCLRT
 70
     0
  9
$DIMTFAC
 40
1.0
  9
$DIMGAP
 40
0.625
  9
$DIMJUST
 70
     0
  9
$DIMSD1
 70
     0
  9
$DIMSD2
 70
     0
  9
$DIMTOLJ
 70
     0
  9
$DIMTZIN
 70
     8
  9
$DIMALTZ
 70
     0
  9
$DIMALTTZ
 70
     0
  9
$DIMUPT
 70
     0
  9
$DIMDEC
 70
     2
  9
$DIMTDEC
 70
     2
  9
$DIMALTU
 70
     2
  9
$DIMALTTD
 70
     3
  9
$DIMTXSTY
  7
Standard
  9
$DIMAUNIT
 70
     0
  9
$DIMADEC
 70
     0
  9
$DIMALTRND
 40
0.0
  9
$DIMAZIN
 70
     0
  9
$DIMDSEP
 70
    44
  9
$DIMATFIT
 70
     3
  9
$DIMFRAC
 70
     0
  9
$DIMLDRBLK
  1

  9
$DIMLUNIT
 70
     2
  9
$DIMLWD
 70
    -2
  9
$DIMLWE
 70
    -2
  9
$DIMTMOVE
 70
     0
  9
$LUNITS
 70
     2
  9
$LUPREC
 70
     4
  9
$SKETCHINC
 40
1.0
  9
$FILLETRAD
 40
10.0
  9
$AUNITS
 70
     0
  9
$AUPREC
 70
     0
  9
$MENU
  1
.
  9
$ELEVATION
 40
0.0
  9
$PELEVATION
 40
0.0
  9
$THICKNESS
 40
0.0
  9
$LIMCHECK
 70
     0
  9
$CHAMFERA
 40
10.0
  9
$CHAMFERB
 40
10.0
  9
$CHAMFERC
 40
20.0
  9
$CHAMFERD
 40
0.0
  9
$SKPOLY
 70
     0
  9
$TDCREATE
 40
2457858.695660799
  9
$TDUCREATE
 40
2457858.820660799
  9
$TDUPDATE
 40
2458701.731949491
  9
$TDUUPDATE
 40
2458701.856949490
  9
$TDINDWG
 40
0.0092036690
  9
$TDUSRTIMER
 40
0.0092036574
  9
$USRTIMER
 70
     1
  9
$ANGBASE
 50
0.0
  9
$ANGDIR
 70
     0
  9
$PDMODE
 70
     0
  9
$PDSIZE
 40
0.0
  9
$PLINEWID
 40
0.0
  9
$SPLFRAME
 70
     0
  9
$SPLINETYPE
 70
     6
  9
$SPLINESEGS
 70
     8
  9
$HANDSEED
  5
12E
  9
$SURFTAB1
 70
     6
  9
$SURFTAB2
 70
     6
  9
$SURFTYPE
 70
     6
  9
$SURFU
 70
     6
  9
$SURFV
 70
     6
  9
$UCSBASE
  2

  9
$UCSNAME
  2

  9
$UCSORG
 10
0.0
 20
0.0
 30
0.0
  9
$UCSXDIR
 10
1.0
 20
0.0
 30
0.0
  9
$UCSYDIR
 10
0.0
 20
1.0
 30
0.0
  9
$UCSORTHOREF
  2

  9
$UCSORTHOVIEW
 70
     0
  9
$UCSORGTOP
 10
0.0
 20
0.0
 30
0.0
  9
$UCSORGBOTTOM
 10
0.0
 20
0.0
 30
0.0
  9
$UCSORGLEFT
 10
0.0
 20
0.0
 30
0.0
  9
$UCSORGRIGHT
 10
0.0
 20
0.0
 30
0.0
  9
$UCSORGFRONT
 10
0.0
 20
0.0
 30
0.0
  9
$UCSORGBACK
 10
0.0
 20
0.0
 30
0.0
  9
$PUCSBASE
  2

  9
$PUCSNAME
  2

  9
$PUCSORG
 10
0.0
 20
0.0
 30
0.0
  9
$PUCSXDIR
 10
1.0
 20
0.0
 30
0.0
  9
$PUCSYDIR
 10
0.0
 20
1.0
 30
0.0
  9
$PUCSORTHOREF
  2

  9
$PUCSORTHOVIEW
 70
     0
  9
$PUCSORGTOP
 10
0.0
 20
0.0
 30
0.0
  9
$PUCSORGBOTTOM
 10
0.0
 20
0.0
 30
0.0
  9
$PUCSORGLEFT
 10
0.0
 20
0.0
 30
0.0
  9
$PUCSORGRIGHT
 10
0.0
 20
0.0
 30
0.0
  9
$PUCSORGFRONT
 10
0.0
 20
0.0
 30
0.0
  9
$PUCSORGBACK
 10
0.0
 20
0.0
 30
0.0
  9
$USERI1
 70
     0
  9
$USERI2
 70
     0
  9
$USERI3
 70
     0
  9
$USERI4
 70
     0
  9
$USERI5
 70
     0
  9
$USERR1
 40
0.0
  9
$USERR2
 40
0.0
  9
$USERR3
 40
0.0
  9
$USERR4
 40
0.0
  9
$USERR5
 40
0.0
  9
$WORLDVIEW
 70
     1
  9
$SHADEDGE
 70
     3
  9
$SHADEDIF
 70
    70
  9
$TILEMODE
 70
     1
  9
$MAXACTVP
 70
    64
  9
$PINSBASE
 10
0.0
 20
0.0
 30
0.0
  9
$PLIMCHECK
 70
     0
  9
$PEXTMIN
 10
26.66999878883362
 20
20.31999878883362
 30
0.0
  9
$PEXTMAX
 10
240.0299890995025
 20
182.8799890995025
 30
0.0
  9
$PLIMMIN
 10
-6.350006103515625
 20
-6.349999904632568
  9
$PLIMMAX
 10
273.0499877929687
 20
209.5499939918517
  9
$UNITMODE
 70
     0
  9
$VISRETAIN
 70
     1
  9
$PLINEGEN
 70
     0
  9
$PSLTSCALE
 70
     1
  9
$TREEDEPTH
 70
  3020
  9
$CMLSTYLE
  2
Standard
  9
$CMLJUST
 70
     0
  9
$CMLSCALE
 40
20.0
  9
$PROXYGRAPHICS
 70
     1
  9
$MEASUREMENT
 70
     1
  9
$CELWEIGHT
370
    -1
  9
$ENDCAPS
280
     0
  9
$JOINSTYLE
280
     0
  9
$LWDISPLAY
290
     0
  9
$INSUNITS
 70
     6
  9
$HYPERLINKBASE
  1

  9
$STYLESHEET
  1

  9
$XEDIT
290
     1
  9
$CEPSNTYPE
380
     0
  9
$PSTYLEMODE
290
     1
  9
$FINGERPRINTGUID
  2
{FDEAD578-A652-11D2-9A35-0060089B3A3F}
  9
$VERSIONGUID
  2
{B7989CA3-813B-4935-85ED-F9EAD2169397}
  9
$EXTNAMES
290
     1
  9
$PSVPSCALE
 40
0.0
  9
$OLESTARTUP
290
     0
  0
ENDSEC
  0
SECTION
  2
CLASSES
  0
CLASS
  1
ACDBDICTIONARYWDFLT
  2
AcDbDictionaryWithDefault
  3
AutoCAD 2000
 90
        0
280
     0
281
     0
  0
CLASS
  1
ACDBPLACEHOLDER
  2
AcDbPlaceHolder
  3
AutoCAD 2000
 90
        0
280
     0
281
     0
  0
CLASS
  1
LAYOUT
  2
AcDbLayout
  3
AutoCAD 2000
 90
        0
280
     0
281
     0
  0
CLASS
  1
DICTIONARYVAR
  2
AcDbDictionaryVar
  3
AutoCAD 2000
 90
        0
280
     0
281
     0
  0
ENDSEC
  0
SECTION
  2
TABLES
  0
TABLE
  2
VPORT
  5
8
330
0
100
AcDbSymbolTable
 70
     4
  0
VPORT
  5
12D
330
8
100
AcDbSymbolTableRecord
100
AcDbViewportTableRecord
  2
*Active
 70
     0
 10
0.0
 20
0.0
 11
1.0
 21
1.0
 12
41.43539506876305
 22
41.43479976120262
 13
0.0
 23
0.0
 14
10.0
 24
10.0
 15
10.0
 25
10.0
 16
0.0
 26
0.0
 36
1.0
 17
0.0
 27
0.0
 37
0.0
 40
85.98721737028171
 41
2.187425860023724
 42
50.0
 43
0.0
 44
0.0
 50
0.0
 51
0.0
 71
     0
 72
   100
 73
     1
 74
     3
 75
     0
 76
     0
 77
     0
 78
     0
281
     0
 65
     1
110
0.0
120
0.0
130
0.0
111
1.0
121
0.0
131
0.0
112
0.0
122
1.0
132
0.0
 79
     0
146
0.0
  0
ENDTAB
  0
TABLE
  2
LTYPE
  5
5
330
0
100
AcDbSymbolTable
 70
     1
  0
LTYPE
  5
14
330
5
100
AcDbSymbolTableRecord
100
AcDbLinetypeTableRecord
  2
ByBlock
 70
     0
  3

 72
    65
 73
     0
 40
0.0
  0
LTYPE
  5
15
330
5
100
AcDbSymbolTableRecord
100
AcDbLinetypeTableRecord
  2
ByLayer
 70
     0
  3

 72
    65
 73
     0
 40
0.0
  0
LTYPE
  5
16
330
5
100
AcDbSymbolTableRecord
100
AcDbLinetypeTableRecord
  2
Continuous
 70
     0
  3
Solid line
 72
    65
 73
     0
 40
0.0
  0
ENDTAB
  0
TABLE
  2
LAYER
  5
2
330
0
100
AcDbSymbolTable
 70
     3
  0
LAYER
  5
10
330
2
100
AcDbSymbolTableRecord
100
AcDbLayerTableRecord
  2
0
 70
     0
 62
     7
  6
Continuous
370
    -3
390
F
  0
LAYER
  5
88
102
{ACAD_XDICTIONARY
360
89
102
}
330
2
100
AcDbSymbolTableRecord
100
AcDbLayerTableRecord
  2
ceco.net 473 grass perimeter
 70
     0
 62
    82
  6
Continuous
370
    -3
390
F
1001
AcAecLayerStandard
1000

1000

  0
LAYER
  5
8B
102
{ACAD_XDICTIONARY
360
8C
102
}
330
2
100
AcDbSymbolTableRecord
100
AcDbLayerTableRecord
  2
ceco.net 473 softball field
 70
     0
 62
     7
  6
Continuous
370
    -3
390
F
1001
AcAecLayerStandard
1000

1000

  0
ENDTAB
  0
TABLE
  2
STYLE
  5
3
330
0
100
AcDbSymbolTable
 70
     1
  0
STYLE
  5
11
330
3
100
AcDbSymbolTableRecord
100
AcDbTextStyleTableRecord
  2
Standard
 70
     0
 40
0.0
 41
1.0
 50
0.0
 71
     0
 42
2.5
  3
txt
  4

  0
ENDTAB
  0
TABLE
  2
VIEW
  5
6
330
0
100
AcDbSymbolTable
 70
     0
  0
ENDTAB
  0
TABLE
  2
UCS
  5
7
330
0
100
AcDbSymbolTable
 70
     0
  0
ENDTAB
  0
TABLE
  2
APPID
  5
9
330
0
100
AcDbSymbolTable
 70
     3
  0
APPID
  5
12
330
9
100
AcDbSymbolTableRecord
100
AcDbRegAppTableRecord
  2
ACAD
 70
     0
  0
APPID
  5
8E
330
9
100
AcDbSymbolTableRecord
100
AcDbRegAppTableRecord
  2
ACAD_EXEMPT_FROM_CAD_STANDARDS
 70
     0
  0
APPID
  5
8F
330
9
100
AcDbSymbolTableRecord
100
AcDbRegAppTableRecord
  2
AcAecLayerStandard
 70
     0
  0
ENDTAB
  0
TABLE
  2
DIMSTYLE
  5
A
330
0
100
AcDbSymbolTable
 70
     1
100
AcDbDimStyleTable
 71
     0
  0
DIMSTYLE
105
27
330
A
100
AcDbSymbolTableRecord
100
AcDbDimStyleTableRecord
  2
ISO-25
 70
     0
 41
2.5
 42
0.625
 43
3.75
 44
1.25
 73
     0
 74
     0
 77
     1
 78
     8
140
2.5
141
2.5
143
0.03937007874016
147
0.625
171
     3
172
     1
271
     2
272
     2
274
     3
278
    44
283
     0
284
     8
340
11
  0
ENDTAB
  0
TABLE
  2
BLOCK_RECORD
  5
1
330
0
100
AcDbSymbolTable
 70
     0
  0
BLOCK_RECORD
  5
1F
330
1
100
AcDbSymbolTableRecord
100
AcDbBlockTableRecord
  2
*Model_Space
340
22
  0
BLOCK_RECORD
  5
55
330
1
100
AcDbSymbolTableRecord
100
AcDbBlockTableRecord
  2
*Paper_Space
340
56
  0
ENDTAB
  0
ENDSEC
  0
SECTION
  2
BLOCKS
  0
BLOCK
  5
20
330
1F
100
AcDbEntity
  8
0
100
AcDbBlockBegin
  2
*Model_Space
 70
     0
 10
0.0
 20
0.0
 30
0.0
  3
*Model_Space
  1

  0
ENDBLK
  5
21
330
1F
100
AcDbEntity
  8
0
100
AcDbBlockEnd
  0
BLOCK
  5
57
330
55
100
AcDbEntity
 67
     1
  8
0
100
AcDbBlockBegin
  2
*Paper_Space
 70
     0
 10
0.0
 20
0.0
 30
0.0
  3
*Paper_Space
  1

  0
ENDBLK
  5
58
330
55
100
AcDbEntity
 67
     1
  8
0
100
AcDbBlockEnd
  0
ENDSEC
  0
SECTION
  2
ENTITIES
  0
LINE
  5
DD
330
1F
100
AcDbEntity
  8
ceco.net 473 softball field
100
AcDbLine
 10
8.0
 20
8.0
 30
0.0
 11
8.318198051533947
 21
8.0
 31
0.0
  0
LINE
  5
DE
330
1F
100
AcDbEntity
  8
ceco.net 473 softball field
100
AcDbLine
 10
26.288
 20
8.0
 30
0.0
 11
26.288
 21
26.088
 31
0.0
  0
LINE
  5
DF
330
1F
100
AcDbEntity
  8
ceco.net 473 softball field
100
AcDbLine
 10
26.088
 20
26.288
 30
0.0
 11
8.0
 21
26.288
 31
0.0
  0
LINE
  5
E0
330
1F
100
AcDbEntity
  8
ceco.net 473 softball field
100
AcDbLine
 10
8.0
 20
8.0
 30
0.0
 11
8.0
 21
8.318198051533947
 31
0.0
  0
LINE
  5
E1
330
1F
100
AcDbEntity
  8
ceco.net 473 softball field
100
AcDbLine
 10
26.088
 20
26.088
 30
0.0
 11
26.488
 21
26.088
 31
0.0
  0
LINE
  5
E2
330
1F
100
AcDbEntity
  8
ceco.net 473 softball field
100
AcDbLine
 10
26.488
 20
26.088
 30
0.0
 11
26.488
 21
26.488
 31
0.0
  0
LINE
  5
E3
330
1F
100
AcDbEntity
  8
ceco.net 473 softball field
100
AcDbLine
 10
26.488
 20
26.488
 30
0.0
 11
26.088
 21
26.488
 31
0.0
  0
LINE
  5
E4
330
1F
100
AcDbEntity
  8
ceco.net 473 softball field
100
AcDbLine
 10
26.088
 20
26.088
 30
0.0
 11
26.088
 21
26.48889036370216
 31
0.0
  0
LINE
  5
E5
330
1F
100
AcDbEntity
  8
ceco.net 473 softball field
100
AcDbLine
 10
25.88799999999999
 20
8.0
 30
0.0
 11
26.288
 21
8.0
 31
0.0
  0
LINE
  5
E6
330
1F
100
AcDbEntity
  8
ceco.net 473 softball field
100
AcDbLine
 10
26.288
 20
8.0
 30
0.0
 11
26.288
 21
8.4
 31
0.0
  0
LINE
  5
E7
330
1F
100
AcDbEntity
  8
ceco.net 473 softball field
100
AcDbLine
 10
26.288
 20
8.4
 30
0.0
 11
25.88799999999999
 21
8.4
 31
0.0
  0
LINE
  5
E8
330
1F
100
AcDbEntity
  8
ceco.net 473 softball field
100
AcDbLine
 10
25.88799999999999
 20
8.0
 30
0.0
 11
25.88799999999999
 21
8.40089036370216
 31
0.0
  0
LINE
  5
E9
330
1F
100
AcDbEntity
  8
ceco.net 473 softball field
100
AcDbLine
 10
8.0
 20
25.88710963629784
 30
0.0
 11
8.4
 21
25.88710963629784
 31
0.0
  0
LINE
  5
EA
330
1F
100
AcDbEntity
  8
ceco.net 473 softball field
100
AcDbLine
 10
8.4
 20
25.88710963629784
 30
0.0
 11
8.4
 21
26.28710963629784
 31
0.0
  0
LINE
  5
EB
330
1F
100
AcDbEntity
  8
ceco.net 473 softball field
100
AcDbLine
 10
8.4
 20
26.28710963629784
 30
0.0
 11
8.0
 21
26.28710963629784
 31
0.0
  0
LINE
  5
EC
330
1F
100
AcDbEntity
  8
ceco.net 473 softball field
100
AcDbLine
 10
8.0
 20
25.88710963629784
 30
0.0
 11
8.0
 21
26.288
 31
0.0
  0
LINE
  5
ED
330
1F
100
AcDbEntity
  8
ceco.net 473 grass perimeter
100
AcDbLine
 10
0.0
 20
6.000000000000005
 30
0.0
 11
0.0000000000000568
 21
71.048
 31
0.0
  0
LINE
  5
EE
330
1F
100
AcDbEntity
  8
ceco.net 473 grass perimeter
100
AcDbLine
 10
5.999999999999999
 20
0.0
 30
0.0
 11
71.04799999999997
 21
0.0
 31
0.0
  0
LINE
  5
EF
330
1F
100
AcDbEntity
  8
ceco.net 473 softball field
100
AcDbLine
 10
25.88799999999999
 20
7.599999999999999
 30
0.0
 11
26.288
 21
7.599999999999999
 31
0.0
  0
LINE
  5
F0
330
1F
100
AcDbEntity
  8
ceco.net 473 softball field
100
AcDbLine
 10
26.288
 20
7.599999999999999
 30
0.0
 11
26.288
 21
8.0
 31
0.0
  0
LINE
  5
F1
330
1F
100
AcDbEntity
  8
ceco.net 473 softball field
100
AcDbLine
 10
26.288
 20
8.0
 30
0.0
 11
25.88799999999999
 21
8.0
 31
0.0
  0
LINE
  5
F2
330
1F
100
AcDbEntity
  8
ceco.net 473 softball field
100
AcDbLine
 10
25.88799999999999
 20
7.599999999999999
 30
0.0
 11
25.88799999999999
 21
8.00089036370216
 31
0.0
  0
LINE
  5
F3
330
1F
100
AcDbEntity
  8
ceco.net 473 softball field
100
AcDbLine
 10
21.288
 20
5.5
 30
0.0
 11
26.288
 21
5.5
 31
0.0
  0
LINE
  5
F4
330
1F
100
AcDbEntity
  8
ceco.net 473 softball field
100
AcDbLine
 10
5.5
 20
21.288
 30
0.0
 11
5.5
 21
26.288
 31
0.0
  0
LINE
  5
F5
330
1F
100
AcDbEntity
  8
ceco.net 473 softball field
100
AcDbLine
 10
26.288
 20
5.5
 30
0.0
 11
26.288
 21
4.5
 31
0.0
  0
LINE
  5
F6
330
1F
100
AcDbEntity
  8
ceco.net 473 softball field
100
AcDbLine
 10
5.5
 20
26.288
 30
0.0
 11
4.5
 21
26.288
 31
0.0
  0
LINE
  5
F7
330
1F
100
AcDbEntity
  8
ceco.net 473 softball field
100
AcDbLine
 10
21.288
 20
4.5
 30
0.0
 11
26.288
 21
4.5
 31
0.0
  0
LINE
  5
F8
330
1F
100
AcDbEntity
  8
ceco.net 473 softball field
100
AcDbLine
 10
4.5
 20
21.288
 30
0.0
 11
4.5
 21
26.288
 31
0.0
  0
LINE
  5
F9
330
1F
100
AcDbEntity
  8
ceco.net 473 softball field
100
AcDbLine
 10
21.288
 20
5.5
 30
0.0
 11
21.288
 21
4.5
 31
0.0
  0
LINE
  5
FA
330
1F
100
AcDbEntity
  8
ceco.net 473 softball field
100
AcDbLine
 10
5.5
 20
21.288
 30
0.0
 11
4.5
 21
21.288
 31
0.0
  0
LINE
  5
FB
330
1F
100
AcDbEntity
  8
ceco.net 473 softball field
100
AcDbLine
 10
8.0
 20
8.318198051533947
 30
0.0
 11
8.176776695296636
 21
8.494974746830584
 31
0.0
  0
LINE
  5
FC
330
1F
100
AcDbEntity
  8
ceco.net 473 softball field
100
AcDbLine
 10
8.318198051533947
 20
8.0
 30
0.0
 11
8.494974746830584
 21
8.176776695296636
 31
0.0
  0
LINE
  5
FD
330
1F
100
AcDbEntity
  8
ceco.net 473 softball field
100
AcDbLine
 10
8.176776695296636
 20
8.494974746830584
 30
0.0
 11
8.494974746830584
 21
8.176776695296636
 31
0.0
  0
LINE
  5
FE
330
1F
100
AcDbEntity
  8
ceco.net 473 softball field
100
AcDbLine
 10
7.186827201635471
 20
7.71715728752538
 30
0.0
 11
8.707106781186547
 21
9.237436867076455
 31
0.0
  0
LINE
  5
FF
330
1F
100
AcDbEntity
  8
ceco.net 473 softball field
100
AcDbLine
 10
7.71715728752538
 20
7.186827201635471
 30
0.0
 11
9.237436867076455
 21
8.707106781186547
 31
0.0
  0
LINE
  5
100
330
1F
100
AcDbEntity
  8
ceco.net 473 softball field
100
AcDbLine
 10
6.30294372515229
 20
4.358400076889278
 30
0.0
 11
9.944543648263005
 21
8.0
 31
0.0
  0
LINE
  5
101
330
1F
100
AcDbEntity
  8
ceco.net 473 softball field
100
AcDbLine
 10
4.358400076889278
 20
6.30294372515229
 30
0.0
 11
8.0
 21
9.944543648263005
 31
0.0
  0
LINE
  5
102
330
1F
100
AcDbEntity
  8
ceco.net 473 softball field
100
AcDbLine
 10
8.318198051533947
 20
8.0
 30
0.0
 11
9.131370849898477
 21
7.186827201635472
 31
0.0
  0
LINE
  5
103
330
1F
100
AcDbEntity
  8
ceco.net 473 softball field
100
AcDbLine
 10
8.0
 20
8.318198051533947
 30
0.0
 11
7.186827201635472
 21
9.131370849898477
 31
0.0
  0
LINE
  5
104
330
1F
100
AcDbEntity
  8
ceco.net 473 softball field
100
AcDbLine
 10
7.71715728752538
 20
7.186827201635471
 30
0.0
 11
8.424264068711929
 21
6.479720420448924
 31
0.0
  0
LINE
  5
105
330
1F
100
AcDbEntity
  8
ceco.net 473 softball field
100
AcDbLine
 10
7.186827201635471
 20
7.71715728752538
 30
0.0
 11
6.479720420448924
 21
8.424264068711929
 31
0.0
  0
LINE
  5
106
330
1F
100
AcDbEntity
  8
ceco.net 473 softball field
100
AcDbLine
 10
8.707106781186546
 20
9.237436867076457
 30
0.0
 11
8.0
 21
9.944543648263005
 31
0.0
  0
LINE
  5
107
330
1F
100
AcDbEntity
  8
ceco.net 473 softball field
100
AcDbLine
 10
9.237436867076455
 20
8.707106781186547
 30
0.0
 11
9.944543648263003
 21
8.000000000000001
 31
0.0
  0
LINE
  5
108
330
1F
100
AcDbEntity
  8
ceco.net 473 softball field
100
AcDbLine
 10
6.30294372515229
 20
4.358400076889278
 30
0.0
 11
4.358400076889278
 21
6.30294372515229
 31
0.0
  0
LINE
  5
109
330
1F
100
AcDbEntity
  8
ceco.net 473 softball field
100
AcDbLine
 10
18.11162697096762
 20
17.6873629022557
 30
0.0
 11
17.6873629022557
 21
18.11162697096762
 31
0.0
  0
CIRCLE
  5
10A
330
1F
100
AcDbEntity
  8
ceco.net 473 softball field
100
AcDbCircle
 10
17.89949493661166
 20
17.89949493661166
 30
0.0
 40
2.5
  0
LINE
  5
10B
330
1F
100
AcDbEntity
  8
ceco.net 473 softball field
100
AcDbLine
 10
17.288
 20
7.0
 30
0.0
 11
26.288
 21
7.0
 31
0.0
  0
LINE
  5
10C
330
1F
100
AcDbEntity
  8
ceco.net 473 softball field
100
AcDbLine
 10
26.288
 20
7.0
 30
0.0
 11
26.288
 21
6.707590258355367
 31
0.0
  0
LINE
  5
10D
330
1F
100
AcDbEntity
  8
ceco.net 473 softball field
100
AcDbLine
 10
17.288
 20
7.0
 30
0.0
 11
17.288
 21
6.707590258355367
 31
0.0
  0
LINE
  5
10E
330
1F
100
AcDbEntity
  8
ceco.net 473 softball field
100
AcDbLine
 10
8.0
 20
9.944543648263005
 30
0.0
 11
8.0
 21
26.288
 31
0.0
  0
LINE
  5
10F
330
1F
100
AcDbEntity
  8
ceco.net 473 softball field
100
AcDbLine
 10
9.944543648263005
 20
8.0
 30
0.0
 11
26.288
 21
8.0
 31
0.0
  0
LINE
  5
110
330
1F
100
AcDbEntity
  8
ceco.net 473 grass perimeter
100
AcDbLine
 10
0.0
 20
68.0
 30
0.0
 11
8.0
 21
68.00000000000001
 31
0.0
  0
LINE
  5
111
330
1F
100
AcDbEntity
  8
ceco.net 473 grass perimeter
100
AcDbLine
 10
68.0
 20
0.0
 30
0.0
 11
68.0
 21
8.0
 31
0.0
  0
ARC
  5
112
330
1F
100
AcDbEntity
  8
ceco.net 473 grass perimeter
100
AcDbCircle
 10
7.999999999999996
 20
8.0
 30
0.0
 40
60.0
100
AcDbArc
 50
0.0
 51
90.0
  0
ARC
  5
113
330
1F
100
AcDbEntity
  8
ceco.net 473 grass perimeter
100
AcDbCircle
 10
7.999999999999996
 20
8.0
 30
0.0
 40
63.048
100
AcDbArc
 50
0.0
 51
90.0
  0
LINE
  5
114
330
1F
100
AcDbEntity
  8
ceco.net 473 grass perimeter
100
AcDbLine
 10
0.0000000000000568
 20
71.048
 30
0.0
 11
8.000000000000056
 21
71.048
 31
0.0
  0
LINE
  5
115
330
1F
100
AcDbEntity
  8
ceco.net 473 grass perimeter
100
AcDbLine
 10
71.04799999999997
 20
0.0
 30
0.0
 11
71.04799999999999
 21
8.0
 31
0.0
  0
LINE
  5
116
330
1F
100
AcDbEntity
  8
ceco.net 473 softball field
100
AcDbLine
 10
18.21769298814561
 20
17.79342891943367
 30
0.0
 11
17.79342891943368
 21
18.21769298814561
 31
0.0
  0
LINE
  5
117
330
1F
100
AcDbEntity
  8
ceco.net 473 softball field
100
AcDbLine
 10
18.11162697096762
 20
17.6873629022557
 30
0.0
 11
18.2176929881456
 21
17.79342891943367
 31
0.0
  0
LINE
  5
118
330
1F
100
AcDbEntity
  8
ceco.net 473 softball field
100
AcDbLine
 10
17.6873629022557
 20
18.11162697096762
 30
0.0
 11
17.79342891943367
 21
18.2176929881456
 31
0.0
  0
CIRCLE
  5
119
330
1F
100
AcDbEntity
  8
ceco.net 473 softball field
100
AcDbCircle
 10
4.773613025199665
 20
11.17358708921142
 30
0.0
 40
0.75
  0
CIRCLE
  5
11A
330
1F
100
AcDbEntity
  8
ceco.net 473 softball field
100
AcDbCircle
 10
11.17358708921142
 20
4.773613025199665
 30
0.0
 40
0.75
  0
LINE
  5
11B
330
1F
100
AcDbEntity
  8
ceco.net 473 softball field
100
AcDbLine
 10
20.04399999999999
 20
1.0
 30
0.0
 11
20.04399999999999
 21
0.0
 31
0.0
  0
LINE
  5
11C
330
1F
100
AcDbEntity
  8
ceco.net 473 softball field
100
AcDbLine
 10
14.044
 20
1.0
 30
0.0
 11
14.04399999999999
 21
0.0
 31
0.0
  0
LINE
  5
11D
330
1F
100
AcDbEntity
  8
ceco.net 473 softball field
100
AcDbLine
 10
14.044
 20
1.0
 30
0.0
 11
20.04399999999999
 21
1.0
 31
0.0
  0
LINE
  5
11E
330
1F
100
AcDbEntity
  8
ceco.net 473 softball field
100
AcDbLine
 10
1.0
 20
14.044
 30
0.0
 11
1.0
 21
20.04399999999999
 31
0.0
  0
LINE
  5
11F
330
1F
100
AcDbEntity
  8
ceco.net 473 softball field
100
AcDbLine
 10
1.0
 20
14.044
 30
0.0
 11
0.0
 21
14.04399999999999
 31
0.0
  0
LINE
  5
120
330
1F
100
AcDbEntity
  8
ceco.net 473 softball field
100
AcDbLine
 10
1.0
 20
20.04399999999999
 30
0.0
 11
0.0
 21
20.04399999999999
 31
0.0
  0
ARC
  5
121
330
1F
100
AcDbEntity
  8
ceco.net 473 grass perimeter
100
AcDbCircle
 10
7.151471862576143
 20
7.151471862576142
 30
0.0
 40
3.70177654572487
100
AcDbArc
 50
84.59750952848251
 51
5.402490471517494
  0
ARC
  5
122
330
1F
100
AcDbEntity
  8
ceco.net 473 grass perimeter
100
AcDbCircle
 10
5.999999999999999
 20
6.0
 30
0.0
 40
6.0
100
AcDbArc
 50
179.9999999999998
 51
270.0
  0
ARC
  5
123
330
1F
100
AcDbEntity
  8
ceco.net 473 grass perimeter
100
AcDbCircle
 10
7.5
 20
7.5
 30
0.0
 40
29.70354487802706
100
AcDbArc
 50
0.0
 51
90.0
  0
LINE
  5
124
330
1F
100
AcDbEntity
  8
ceco.net 473 grass perimeter
100
AcDbLine
 10
7.5
 20
10.83680464699366
 30
0.0
 11
7.5
 21
37.20354487802706
 31
0.0
  0
LINE
  5
125
330
1F
100
AcDbEntity
  8
ceco.net 473 grass perimeter
100
AcDbLine
 10
10.83680464699366
 20
7.5
 30
0.0
 11
37.20354487802706
 21
7.5
 31
0.0
  0
VIEWPORT
  5
7A
330
55
100
AcDbEntity
 67
     1
  8
0
100
AcDbViewport
 10
133.3499908447265
 20
101.5999970436096
 30
0.0
 40
499.656613158166
 41
228.4221935424804
 68
     2
 69
     1
 12
133.3499908447265
 22
101.5999970436096
 13
0.0
 23
0.0
 14
10.0
 24
10.0
 15
10.0
 25
10.0
 16
0.0
 26
0.0
 36
1.0
 17
0.0
 27
0.0
 37
0.0
 42
50.0
 43
0.0
 44
0.0
 45
228.4221935424804
 50
0.0
 51
0.0
 72
   100
 90
    32800
  1

281
     0
 71
     1
 74
     0
110
0.0
120
0.0
130
0.0
111
1.0
121
0.0
131
0.0
112
0.0
122
1.0
132
0.0
 79
     0
146
0.0
  0
VIEWPORT
  5
7C
330
55
100
AcDbEntity
 67
     1
  8
0
100
AcDbViewport
 10
133.349993944168
 20
101.599993944168
 30
0.0
 40
213.3599903106689
 41
162.5599903106689
 68
     1
 69
     2
 12
41.43839992619389
 22
41.42409541270127
 13
0.0
 23
0.0
 14
10.0
 24
10.0
 15
10.0
 25
10.0
 16
0.0
 26
0.0
 36
1.0
 17
0.0
 27
0.0
 37
0.0
 42
50.0
 43
0.0
 44
0.0
 45
86.23366859858549
 50
0.0
 51
0.0
 72
   100
 90
    32864
  1

281
     0
 71
     1
 74
     0
110
0.0
120
0.0
130
0.0
111
1.0
121
0.0
131
0.0
112
0.0
122
1.0
132
0.0
 79
     0
146
0.0
  0
ENDSEC
  0
SECTION
  2
OBJECTS
  0
DICTIONARY
  5
C
330
0
100
AcDbDictionary
281
     1
  3
ACAD_GROUP
350
D
  3
ACAD_LAYOUT
350
1A
  3
ACAD_MLINESTYLE
350
17
  3
ACAD_PLOTSETTINGS
350
19
  3
ACAD_PLOTSTYLENAME
350
E
  3
AcDbVariableDictionary
350
5E
  0
DICTIONARY
  5
89
330
88
100
AcDbDictionary
280
     1
281
     1
  3
ACAD_XREC_ROUNDTRIP
360
8A
  0
DICTIONARY
  5
8C
330
8B
100
AcDbDictionary
280
     1
281
     1
  3
ACAD_XREC_ROUNDTRIP
360
8D
  0
DICTIONARY
  5
D
102
{ACAD_REACTORS
330
C
102
}
330
C
100
AcDbDictionary
281
     1
  0
DICTIONARY
  5
1A
102
{ACAD_REACTORS
330
C
102
}
330
C
100
AcDbDictionary
281
     1
  3
Model
350
22
  3
www.ceco.net
350
56
  0
DICTIONARY
  5
17
102
{ACAD_REACTORS
330
C
102
}
330
C
100
AcDbDictionary
281
     1
  3
Standard
350
18
  0
DICTIONARY
  5
19
102
{ACAD_REACTORS
330
C
102
}
330
C
100
AcDbDictionary
281
     1
  0
ACDBDICTIONARYWDFLT
  5
E
102
{ACAD_REACTORS
330
C
102
}
330
C
100
AcDbDictionary
281
     1
  3
Normal
350
F
100
AcDbDictionaryWithDefault
340
F
  0
DICTIONARY
  5
5E
102
{ACAD_REACTORS
330
C
102
}
330
C
100
AcDbDictionary
281
     1
  3
DIMASSOC
350
5F
  3
HIDETEXT
350
63
  0
XRECORD
  5
8A
102
{ACAD_REACTORS
330
89
102
}
330
89
100
AcDbXrecord
280
     1
102
MATERIAL
340
0
  0
XRECORD
  5
8D
102
{ACAD_REACTORS
330
8C
102
}
330
8C
100
AcDbXrecord
280
     1
102
MATERIAL
340
0
  0
LAYOUT
  5
22
102
{ACAD_REACTORS
330
1A
102
}
330
1A
100
AcDbPlotSettings
  1

  2
none_device
  4
ANSI_A_(8.50_x_11.00_Inches)
  6

 40
6.349999904632568
 41
19.04999923706054
 42
6.350006103515625
 43
19.04998779296875
 44
215.8999938964843
 45
279.3999938964843
 46
0.0
 47
0.0
 48
0.0
 49
0.0
140
0.0
141
0.0
142
1.0
143
78.436453180766
 70
 11952
 72
     0
 73
     1
 74
     0
  7

 75
     0
147
0.0127491741332998
148
0.0
149
0.0
100
AcDbLayout
  1
Model
 70
     1
 71
     0
 10
0.0
 20
0.0
 11
12.0
 21
9.0
 12
0.0
 22
0.0
 32
0.0
 14
0.0
 24
0.0
 34
0.0
 15
0.0
 25
0.0
 35
0.0
146
0.0
 13
0.0
 23
0.0
 33
0.0
 16
1.0
 26
0.0
 36
0.0
 17
0.0
 27
1.0
 37
0.0
 76
     0
330
1F
  0
LAYOUT
  5
56
102
{ACAD_REACTORS
330
1A
102
}
330
1A
100
AcDbPlotSettings
  1

  2
none_device
  4
Letter_(8.50_x_11.00_Inches)
  6

 40
6.349999904632568
 41
6.349999904632568
 42
6.350006103515625
 43
6.350006103515625
 44
215.8999938964843
 45
279.3999938964843
 46
0.0
 47
0.0
 48
0.0
 49
0.0
140
0.0
141
0.0
142
1.0
143
1.0
 70
   688
 72
     1
 73
     1
 74
     5
  7

 75
    16
147
1.0
148
0.0
149
0.0
100
AcDbLayout
  1
www.ceco.net
 70
     1
 71
     1
 10
-6.350006103515625
 20
-6.349999904632568
 11
273.0499877929687
 21
209.5499939918517
 12
0.0
 22
0.0
 32
0.0
 14
26.66999878883362
 24
20.31999878883362
 34
0.0
 15
240.0299890995025
 25
182.8799890995025
 35
0.0
146
0.0
 13
0.0
 23
0.0
 33
0.0
 16
1.0
 26
0.0
 36
0.0
 17
0.0
 27
1.0
 37
0.0
 76
     0
330
55
331
7C
  0
MLINESTYLE
  5
18
102
{ACAD_REACTORS
330
17
102
}
330
17
100
AcDbMlineStyle
  2
STANDARD
 70
     0
  3

 62
   256
 51
90.0
 52
90.0
 71
     2
 49
0.5
 62
   256
  6
BYLAYER
 49
-0.5
 62
   256
  6
BYLAYER
  0
ACDBPLACEHOLDER
  5
F
102
{ACAD_REACTORS
330
E
102
}
330
E
  0
DICTIONARYVAR
  5
5F
102
{ACAD_REACTORS
330
5E
102
}
330
5E
100
DictionaryVariables
280
     0
  1
2
  0
DICTIONARYVAR
  5
63
102
{ACAD_REACTORS
330
5E
102
}
330
5E
100
DictionaryVariables
280
     0
  1
1
  0
ENDSEC
  0
EOF
