  0
SECTION
  2
HEADER
  9
$ACADVER
  1
AC1015
  9
$ACADMAINTVER
 70
    13
  9
$DWGCODEPAGE
  3
ANSI_1252
  9
$INSBASE
 10
0.0
 20
0.0
 30
0.0
  9
$EXTMIN
 10
-2.261465665580203
 20
-4.611193006147175
 30
-0.0000000349181948
  9
$EXTMAX
 10
107.2595184386717
 20
70.00072730495237
 30
0.0000000814935746
  9
$LIMMIN
 10
0.0
 20
0.0
  9
$LIMMAX
 10
297.0
 20
210.0
  9
$ORTHOMODE
 70
     0
  9
$REGENMODE
 70
     1
  9
$FILLMODE
 70
     1
  9
$QTEXTMODE
 70
     0
  9
$MIRRTEXT
 70
     1
  9
$LTSCALE
 40
1.0
  9
$ATTMODE
 70
     1
  9
$TEXTSIZE
 40
2.5
  9
$TRACEWID
 40
1.0
  9
$TEXTSTYLE
  7
Standard
  9
$CLAYER
  8
ceco.net 431 FIFA futbol soccer field
  9
$CELTYPE
  6
ByLayer
  9
$CECOLOR
 62
   256
  9
$CELTSCALE
 40
1.0
  9
$DISPSILH
 70
     0
  9
$DIMSCALE
 40
1.0
  9
$DIMASZ
 40
2.5
  9
$DIMEXO
 40
0.625
  9
$DIMDLI
 40
3.75
  9
$DIMRND
 40
0.0
  9
$DIMDLE
 40
0.0
  9
$DIMEXE
 40
1.25
  9
$DIMTP
 40
0.0
  9
$DIMTM
 40
0.0
  9
$DIMTXT
 40
2.5
  9
$DIMCEN
 40
2.5
  9
$DIMTSZ
 40
0.0
  9
$DIMTOL
 70
     0
  9
$DIMLIM
 70
     0
  9
$DIMTIH
 70
     0
  9
$DIMTOH
 70
     0
  9
$DIMSE1
 70
     0
  9
$DIMSE2
 70
     0
  9
$DIMTAD
 70
     1
  9
$DIMZIN
 70
     8
  9
$DIMBLK
  1

  9
$DIMASO
 70
     1
  9
$DIMSHO
 70
     1
  9
$DIMPOST
  1

  9
$DIMAPOST
  1

  9
$DIMALT
 70
     0
  9
$DIMALTD
 70
     3
  9
$DIMALTF
 40
0.03937007874016
  9
$DIMLFAC
 40
1.0
  9
$DIMTOFL
 70
     1
  9
$DIMTVP
 40
0.0
  9
$DIMTIX
 70
     0
  9
$DIMSOXD
 70
     0
  9
$DIMSAH
 70
     0
  9
$DIMBLK1
  1

  9
$DIMBLK2
  1

  9
$DIMSTYLE
  2
ISO-25
  9
$DIMCLRD
 70
     0
  9
$DIMCLRE
 70
     0
  9
$DIMCLRT
 70
     0
  9
$DIMTFAC
 40
1.0
  9
$DIMGAP
 40
0.625
  9
$DIMJUST
 70
     0
  9
$DIMSD1
 70
     0
  9
$DIMSD2
 70
     0
  9
$DIMTOLJ
 70
     0
  9
$DIMTZIN
 70
     8
  9
$DIMALTZ
 70
     0
  9
$DIMALTTZ
 70
     0
  9
$DIMUPT
 70
     0
  9
$DIMDEC
 70
     2
  9
$DIMTDEC
 70
     2
  9
$DIMALTU
 70
     2
  9
$DIMALTTD
 70
     3
  9
$DIMTXSTY
  7
Standard
  9
$DIMAUNIT
 70
     0
  9
$DIMADEC
 70
     0
  9
$DIMALTRND
 40
0.0
  9
$DIMAZIN
 70
     0
  9
$DIMDSEP
 70
    44
  9
$DIMATFIT
 70
     3
  9
$DIMFRAC
 70
     0
  9
$DIMLDRBLK
  1

  9
$DIMLUNIT
 70
     2
  9
$DIMLWD
 70
    -2
  9
$DIMLWE
 70
    -2
  9
$DIMTMOVE
 70
     0
  9
$LUNITS
 70
     2
  9
$LUPREC
 70
     4
  9
$SKETCHINC
 40
1.0
  9
$FILLETRAD
 40
10.0
  9
$AUNITS
 70
     0
  9
$AUPREC
 70
     0
  9
$MENU
  1
.
  9
$ELEVATION
 40
0.0
  9
$PELEVATION
 40
0.0
  9
$THICKNESS
 40
0.0
  9
$LIMCHECK
 70
     0
  9
$CHAMFERA
 40
10.0
  9
$CHAMFERB
 40
10.0
  9
$CHAMFERC
 40
20.0
  9
$CHAMFERD
 40
0.0
  9
$SKPOLY
 70
     0
  9
$TDCREATE
 40
2457858.695660799
  9
$TDUCREATE
 40
2457858.820660799
  9
$TDUPDATE
 40
2458331.686497546
  9
$TDUUPDATE
 40
2458331.811497546
  9
$TDINDWG
 40
0.0106253356
  9
$TDUSRTIMER
 40
0.0106253241
  9
$USRTIMER
 70
     1
  9
$ANGBASE
 50
0.0
  9
$ANGDIR
 70
     0
  9
$PDMODE
 70
     0
  9
$PDSIZE
 40
0.0
  9
$PLINEWID
 40
0.0
  9
$SPLFRAME
 70
     0
  9
$SPLINETYPE
 70
     6
  9
$SPLINESEGS
 70
     8
  9
$HANDSEED
  5
317
  9
$SURFTAB1
 70
     6
  9
$SURFTAB2
 70
     6
  9
$SURFTYPE
 70
     6
  9
$SURFU
 70
     6
  9
$SURFV
 70
     6
  9
$UCSBASE
  2

  9
$UCSNAME
  2

  9
$UCSORG
 10
0.0
 20
0.0
 30
0.0
  9
$UCSXDIR
 10
1.0
 20
0.0
 30
0.0
  9
$UCSYDIR
 10
0.0
 20
1.0
 30
0.0
  9
$UCSORTHOREF
  2

  9
$UCSORTHOVIEW
 70
     0
  9
$UCSORGTOP
 10
0.0
 20
0.0
 30
0.0
  9
$UCSORGBOTTOM
 10
0.0
 20
0.0
 30
0.0
  9
$UCSORGLEFT
 10
0.0
 20
0.0
 30
0.0
  9
$UCSORGRIGHT
 10
0.0
 20
0.0
 30
0.0
  9
$UCSORGFRONT
 10
0.0
 20
0.0
 30
0.0
  9
$UCSORGBACK
 10
0.0
 20
0.0
 30
0.0
  9
$PUCSBASE
  2

  9
$PUCSNAME
  2

  9
$PUCSORG
 10
0.0
 20
0.0
 30
0.0
  9
$PUCSXDIR
 10
1.0
 20
0.0
 30
0.0
  9
$PUCSYDIR
 10
0.0
 20
1.0
 30
0.0
  9
$PUCSORTHOREF
  2

  9
$PUCSORTHOVIEW
 70
     0
  9
$PUCSORGTOP
 10
0.0
 20
0.0
 30
0.0
  9
$PUCSORGBOTTOM
 10
0.0
 20
0.0
 30
0.0
  9
$PUCSORGLEFT
 10
0.0
 20
0.0
 30
0.0
  9
$PUCSORGRIGHT
 10
0.0
 20
0.0
 30
0.0
  9
$PUCSORGFRONT
 10
0.0
 20
0.0
 30
0.0
  9
$PUCSORGBACK
 10
0.0
 20
0.0
 30
0.0
  9
$USERI1
 70
     0
  9
$USERI2
 70
     0
  9
$USERI3
 70
     0
  9
$USERI4
 70
     0
  9
$USERI5
 70
     0
  9
$USERR1
 40
0.0
  9
$USERR2
 40
0.0
  9
$USERR3
 40
0.0
  9
$USERR4
 40
0.0
  9
$USERR5
 40
0.0
  9
$WORLDVIEW
 70
     1
  9
$SHADEDGE
 70
     3
  9
$SHADEDIF
 70
    70
  9
$TILEMODE
 70
     1
  9
$MAXACTVP
 70
    64
  9
$PINSBASE
 10
0.0
 20
0.0
 30
0.0
  9
$PLIMCHECK
 70
     0
  9
$PEXTMIN
 10
28.68718404769896
 20
19.99191598892213
 30
0.0
  9
$PEXTMAX
 10
258.1846564292908
 20
179.927243900299
 30
0.0
  9
$PLIMMIN
 10
-5.027069091796875
 20
-5.027083396911621
  9
$PLIMMAX
 10
291.89892578125
 20
204.9462442398071
  9
$UNITMODE
 70
     0
  9
$VISRETAIN
 70
     1
  9
$PLINEGEN
 70
     0
  9
$PSLTSCALE
 70
     1
  9
$TREEDEPTH
 70
  3020
  9
$CMLSTYLE
  2
Standard
  9
$CMLJUST
 70
     0
  9
$CMLSCALE
 40
20.0
  9
$PROXYGRAPHICS
 70
     1
  9
$MEASUREMENT
 70
     1
  9
$CELWEIGHT
370
    -1
  9
$ENDCAPS
280
     0
  9
$JOINSTYLE
280
     0
  9
$LWDISPLAY
290
     0
  9
$INSUNITS
 70
     6
  9
$HYPERLINKBASE
  1

  9
$STYLESHEET
  1

  9
$XEDIT
290
     1
  9
$CEPSNTYPE
380
     0
  9
$PSTYLEMODE
290
     1
  9
$FINGERPRINTGUID
  2
{FDEAD578-A652-11D2-9A35-0060089B3A3F}
  9
$VERSIONGUID
  2
{353AEC6C-E7CB-4FA9-8298-8F0AA8E35CDE}
  9
$EXTNAMES
290
     1
  9
$PSVPSCALE
 40
0.0
  9
$OLESTARTUP
290
     0
  0
ENDSEC
  0
SECTION
  2
CLASSES
  0
CLASS
  1
ACDBDICTIONARYWDFLT
  2
AcDbDictionaryWithDefault
  3
AutoCAD 2000
 90
        0
280
     0
281
     0
  0
CLASS
  1
ACDBPLACEHOLDER
  2
AcDbPlaceHolder
  3
AutoCAD 2000
 90
        0
280
     0
281
     0
  0
CLASS
  1
LAYOUT
  2
AcDbLayout
  3
AutoCAD 2000
 90
        0
280
     0
281
     0
  0
CLASS
  1
DICTIONARYVAR
  2
AcDbDictionaryVar
  3
AutoCAD 2000
 90
        0
280
     0
281
     0
  0
ENDSEC
  0
SECTION
  2
TABLES
  0
TABLE
  2
VPORT
  5
8
330
0
100
AcDbSymbolTable
 70
     4
  0
VPORT
  5
316
330
8
100
AcDbSymbolTableRecord
100
AcDbViewportTableRecord
  2
*Active
 70
     0
 10
0.0
 20
0.0
 11
1.0
 21
1.0
 12
52.49902638654577
 22
32.69476714940259
 13
0.0
 23
0.0
 14
10.0
 24
10.0
 15
10.0
 25
10.0
 16
0.0
 26
0.0
 36
1.0
 17
0.0
 27
0.0
 37
0.0
 40
75.15919601020295
 41
2.25703794369645
 42
50.0
 43
0.0
 44
0.0
 50
0.0
 51
0.0
 71
     0
 72
   100
 73
     1
 74
     3
 75
     0
 76
     0
 77
     0
 78
     0
281
     0
 65
     1
110
0.0
120
0.0
130
0.0
111
1.0
121
0.0
131
0.0
112
0.0
122
1.0
132
0.0
 79
     0
146
0.0
  0
ENDTAB
  0
TABLE
  2
LTYPE
  5
5
330
0
100
AcDbSymbolTable
 70
     1
  0
LTYPE
  5
14
330
5
100
AcDbSymbolTableRecord
100
AcDbLinetypeTableRecord
  2
ByBlock
 70
     0
  3

 72
    65
 73
     0
 40
0.0
  0
LTYPE
  5
15
330
5
100
AcDbSymbolTableRecord
100
AcDbLinetypeTableRecord
  2
ByLayer
 70
     0
  3

 72
    65
 73
     0
 40
0.0
  0
LTYPE
  5
16
330
5
100
AcDbSymbolTableRecord
100
AcDbLinetypeTableRecord
  2
Continuous
 70
     0
  3
Solid line
 72
    65
 73
     0
 40
0.0
  0
ENDTAB
  0
TABLE
  2
LAYER
  5
2
330
0
100
AcDbSymbolTable
 70
     4
  0
LAYER
  5
10
330
2
100
AcDbSymbolTableRecord
100
AcDbLayerTableRecord
  2
0
 70
     0
 62
     7
  6
Continuous
370
    -3
390
F
  0
LAYER
  5
9C
102
{ACAD_XDICTIONARY
360
9D
102
}
330
2
100
AcDbSymbolTableRecord
100
AcDbLayerTableRecord
  2
ceco.net 431 Goal net
 70
     0
 62
     8
  6
Continuous
370
    -3
390
F
1001
AcAecLayerStandard
1000

1000

  0
LAYER
  5
9F
102
{ACAD_XDICTIONARY
360
A0
102
}
330
2
100
AcDbSymbolTableRecord
100
AcDbLayerTableRecord
  2
ceco.net 431 tecnical area
 70
     0
 62
     8
  6
Continuous
370
    -3
390
F
1001
AcAecLayerStandard
1000

1000

  0
LAYER
  5
A2
102
{ACAD_XDICTIONARY
360
A3
102
}
330
2
100
AcDbSymbolTableRecord
100
AcDbLayerTableRecord
  2
ceco.net 431 FIFA futbol soccer field
 70
     0
 62
   250
  6
Continuous
370
    -3
390
F
1001
AcAecLayerStandard
1000

1000

  0
ENDTAB
  0
TABLE
  2
STYLE
  5
3
330
0
100
AcDbSymbolTable
 70
     1
  0
STYLE
  5
11
330
3
100
AcDbSymbolTableRecord
100
AcDbTextStyleTableRecord
  2
Standard
 70
     0
 40
0.0
 41
1.0
 50
0.0
 71
     0
 42
2.5
  3
txt
  4

  0
ENDTAB
  0
TABLE
  2
VIEW
  5
6
330
0
100
AcDbSymbolTable
 70
     0
  0
ENDTAB
  0
TABLE
  2
UCS
  5
7
330
0
100
AcDbSymbolTable
 70
     0
  0
ENDTAB
  0
TABLE
  2
APPID
  5
9
330
0
100
AcDbSymbolTable
 70
     4
  0
APPID
  5
12
330
9
100
AcDbSymbolTableRecord
100
AcDbRegAppTableRecord
  2
ACAD
 70
     0
  0
APPID
  5
A5
330
9
100
AcDbSymbolTableRecord
100
AcDbRegAppTableRecord
  2
ACAD_PSEXT
 70
     0
  0
APPID
  5
A6
330
9
100
AcDbSymbolTableRecord
100
AcDbRegAppTableRecord
  2
ACAD_EXEMPT_FROM_CAD_STANDARDS
 70
     0
  0
APPID
  5
A7
330
9
100
AcDbSymbolTableRecord
100
AcDbRegAppTableRecord
  2
AcAecLayerStandard
 70
     0
  0
ENDTAB
  0
TABLE
  2
DIMSTYLE
  5
A
330
0
100
AcDbSymbolTable
 70
     1
100
AcDbDimStyleTable
 71
     0
  0
DIMSTYLE
105
27
330
A
100
AcDbSymbolTableRecord
100
AcDbDimStyleTableRecord
  2
ISO-25
 70
     0
 41
2.5
 42
0.625
 43
3.75
 44
1.25
 73
     0
 74
     0
 77
     1
 78
     8
140
2.5
141
2.5
143
0.03937007874016
147
0.625
171
     3
172
     1
271
     2
272
     2
274
     3
278
    44
283
     0
284
     8
340
11
  0
ENDTAB
  0
TABLE
  2
BLOCK_RECORD
  5
1
330
0
100
AcDbSymbolTable
 70
     0
  0
BLOCK_RECORD
  5
1F
330
1
100
AcDbSymbolTableRecord
100
AcDbBlockTableRecord
  2
*Model_Space
340
22
  0
BLOCK_RECORD
  5
8A
330
1
100
AcDbSymbolTableRecord
100
AcDbBlockTableRecord
  2
*Paper_Space
340
8B
  0
ENDTAB
  0
ENDSEC
  0
SECTION
  2
BLOCKS
  0
BLOCK
  5
20
330
1F
100
AcDbEntity
  8
0
100
AcDbBlockBegin
  2
*Model_Space
 70
     0
 10
0.0
 20
0.0
 30
0.0
  3
*Model_Space
  1

  0
ENDBLK
  5
21
330
1F
100
AcDbEntity
  8
0
100
AcDbBlockEnd
  0
BLOCK
  5
8C
330
8A
100
AcDbEntity
 67
     1
  8
0
100
AcDbBlockBegin
  2
*Paper_Space
 70
     0
 10
0.0
 20
0.0
 30
0.0
  3
*Paper_Space
  1

  0
ENDBLK
  5
8D
330
8A
100
AcDbEntity
 67
     1
  8
0
100
AcDbBlockEnd
  0
ENDSEC
  0
SECTION
  2
ENTITIES
  0
LINE
  5
1DE
330
1F
100
AcDbEntity
  8
ceco.net 431 FIFA futbol soccer field
100
AcDbLine
 10
0.0
 20
0.0
 30
0.0
 11
9.15
 21
0.0
 31
0.0
  0
LINE
  5
1DF
330
1F
100
AcDbEntity
  8
ceco.net 431 FIFA futbol soccer field
100
AcDbLine
 10
0.0
 20
68.0
 30
0.0
 11
9.15
 21
68.0
 31
0.0
  0
LINE
  5
1E0
330
1F
100
AcDbEntity
  8
ceco.net 431 FIFA futbol soccer field
100
AcDbLine
 10
0.0
 20
68.0
 30
0.0
 11
-0.0000000000000017
 21
58.85
 31
0.0
  0
CIRCLE
  5
1E1
330
1F
100
AcDbEntity
  8
ceco.net 431 FIFA futbol soccer field
100
AcDbCircle
 10
52.5
 20
34.0
 30
0.0
 40
9.15
  0
ARC
  5
1E2
330
1F
100
AcDbEntity
  8
ceco.net 431 FIFA futbol soccer field
100
AcDbCircle
 10
52.5
 20
34.0
 30
0.0
 40
0.3
100
AcDbArc
 50
101.5369590328159
 51
258.4630409671853
  0
LINE
  5
1E3
330
1F
100
AcDbEntity
  8
ceco.net 431 FIFA futbol soccer field
100
AcDbLine
 10
0.12
 20
67.88
 30
0.0
 11
0.8717797887081474
 21
67.88
 31
0.0
  0
LINE
  5
1E4
330
1F
100
AcDbEntity
  8
ceco.net 431 FIFA futbol soccer field
100
AcDbLine
 10
0.12
 20
67.88
 30
0.0
 11
0.1199999999999998
 21
67.12822021129186
 31
0.0
  0
LINE
  5
1E5
330
1F
100
AcDbEntity
  8
ceco.net 431 FIFA futbol soccer field
100
AcDbLine
 10
0.1199999999999875
 20
0.12
 30
0.0
 11
0.8717797887081346
 21
0.12
 31
0.0
  0
CIRCLE
  5
1E6
330
1F
100
AcDbEntity
  8
ceco.net 431 FIFA futbol soccer field
100
AcDbCircle
 10
52.5
 20
34.0
 30
0.0
 40
9.269999999999999
  0
CIRCLE
  5
1E7
330
1F
100
AcDbEntity
  8
ceco.net 431 FIFA futbol soccer field
100
AcDbCircle
 10
11.11999999999998
 20
34.0
 30
0.0
 40
0.3
  0
ARC
  5
1E8
330
1F
100
AcDbEntity
  8
ceco.net 431 FIFA futbol soccer field
100
AcDbCircle
 10
11.11999999999998
 20
34.0
 30
0.0
 40
9.15
100
AcDbArc
 50
306.9482107330499
 51
53.05178926694999
  0
LINE
  5
1E9
330
1F
100
AcDbEntity
  8
ceco.net 431 FIFA futbol soccer field
100
AcDbLine
 10
16.61999999999999
 20
54.15
 30
0.0
 11
16.61999999999999
 21
41.46209756033783
 31
0.0
  0
LINE
  5
1EA
330
1F
100
AcDbEntity
  8
ceco.net 431 FIFA futbol soccer field
100
AcDbLine
 10
16.61999999999999
 20
54.15
 30
0.0
 11
0.1199999999999974
 21
54.15
 31
0.0
  0
LINE
  5
1EB
330
1F
100
AcDbEntity
  8
ceco.net 431 FIFA futbol soccer field
100
AcDbLine
 10
16.61999999999999
 20
13.85
 30
0.0
 11
0.1199999999999903
 21
13.85
 31
0.0
  0
LINE
  5
1EC
330
1F
100
AcDbEntity
  8
ceco.net 431 FIFA futbol soccer field
100
AcDbLine
 10
16.49999999999999
 20
54.02999999999999
 30
0.0
 11
0.1199999999999974
 21
54.03
 31
0.0
  0
LINE
  5
1ED
330
1F
100
AcDbEntity
  8
ceco.net 431 FIFA futbol soccer field
100
AcDbLine
 10
16.49999999999999
 20
54.02999999999999
 30
0.0
 11
16.49999999999999
 21
13.97
 31
0.0
  0
ARC
  5
1EE
330
1F
100
AcDbEntity
  8
ceco.net 431 FIFA futbol soccer field
100
AcDbCircle
 10
11.11999999999998
 20
34.0
 30
0.0
 40
9.269999999999999
100
AcDbArc
 50
306.3923745280061
 51
53.60762547199379
  0
LINE
  5
1EF
330
1F
100
AcDbEntity
  8
ceco.net 431 FIFA futbol soccer field
100
AcDbLine
 10
16.49999999999999
 20
13.97
 30
0.0
 11
0.1199999999999903
 21
13.97
 31
0.0
  0
LINE
  5
1F0
330
1F
100
AcDbEntity
  8
ceco.net 431 FIFA futbol soccer field
100
AcDbLine
 10
0.11999999999999
 20
13.85
 30
0.0
 11
0.1199999999999877
 21
0.99277389167927
 31
0.0
  0
LINE
  5
1F1
330
1F
100
AcDbEntity
  8
ceco.net 431 FIFA futbol soccer field
100
AcDbLine
 10
16.61999999999999
 20
26.53790243966215
 30
0.0
 11
16.61999999999999
 21
13.85
 31
0.0
  0
LINE
  5
1F2
330
1F
100
AcDbEntity
  8
ceco.net 431 FIFA futbol soccer field
100
AcDbLine
 10
16.61999999999999
 20
41.3124893162315
 30
0.0
 11
16.61999999999999
 21
26.68751068376849
 31
0.0
  0
LINE
  5
1F3
330
1F
100
AcDbEntity
  8
ceco.net 431 FIFA futbol soccer field
100
AcDbLine
 10
0.1199999999999974
 20
54.03000000000001
 30
0.0
 11
0.11999999999999
 21
13.97
 31
0.0
  0
ARC
  5
1F4
330
1F
100
AcDbEntity
  8
ceco.net 431 FIFA futbol soccer field
100
AcDbCircle
 10
0.0
 20
0.0
 30
0.0
 40
1.0
100
AcDbArc
 50
6.892102579346381
 51
83.10789742065434
  0
ARC
  5
1F5
330
1F
100
AcDbEntity
  8
ceco.net 431 FIFA futbol soccer field
100
AcDbCircle
 10
0.0
 20
0.0
 30
0.0
 40
0.88
100
AcDbArc
 50
7.837479763084288
 51
82.16252023691652
  0
ARC
  5
1F6
330
1F
100
AcDbEntity
  8
ceco.net 431 FIFA futbol soccer field
100
AcDbCircle
 10
0.0000000000000125
 20
68.0
 30
0.0
 40
1.0
100
AcDbArc
 50
276.8921025793456
 51
353.1078974206534
  0
ARC
  5
1F7
330
1F
100
AcDbEntity
  8
ceco.net 431 FIFA futbol soccer field
100
AcDbCircle
 10
0.0000000000000125
 20
68.0
 30
0.0
 40
0.88
100
AcDbArc
 50
277.8374797630834
 51
352.1625202369154
  0
LINE
  5
1F8
330
1F
100
AcDbEntity
  8
ceco.net 431 FIFA futbol soccer field
100
AcDbLine
 10
0.9927738916792813
 20
67.88
 30
0.0
 11
52.44
 21
67.88
 31
0.0
  0
LINE
  5
1F9
330
1F
100
AcDbEntity
  8
ceco.net 431 FIFA futbol soccer field
100
AcDbLine
 10
0.1199999999999998
 20
67.00722610832073
 30
0.0
 11
0.1199999999999975
 21
54.15
 31
0.0
  0
LINE
  5
1FA
330
1F
100
AcDbEntity
  8
ceco.net 431 FIFA futbol soccer field
100
AcDbLine
 10
0.9927738916792685
 20
0.12
 30
0.0
 11
52.43999999999999
 21
0.12
 31
0.0
  0
LINE
  5
1FB
330
1F
100
AcDbEntity
  8
ceco.net 431 FIFA futbol soccer field
100
AcDbLine
 10
0.1199999999999877
 20
0.8717797887081363
 30
0.0
 11
0.1199999999999875
 21
0.12
 31
0.0
  0
LINE
  5
1FC
330
1F
100
AcDbEntity
  8
ceco.net 431 FIFA futbol soccer field
100
AcDbLine
 10
5.619999999999993
 20
43.15
 30
0.0
 11
5.619999999999991
 21
24.84999999999999
 31
0.0
  0
LINE
  5
1FD
330
1F
100
AcDbEntity
  8
ceco.net 431 FIFA futbol soccer field
100
AcDbLine
 10
5.739999999999991
 20
24.73
 30
0.0
 11
0.119999999999992
 21
24.73
 31
0.0
  0
LINE
  5
1FE
330
1F
100
AcDbEntity
  8
ceco.net 431 FIFA futbol soccer field
100
AcDbLine
 10
5.739999999999993
 20
43.26999999999999
 30
0.0
 11
0.1199999999999955
 21
43.26999999999999
 31
0.0
  0
LINE
  5
1FF
330
1F
100
AcDbEntity
  8
ceco.net 431 FIFA futbol soccer field
100
AcDbLine
 10
5.619999999999992
 20
24.84999999999999
 30
0.0
 11
0.1199999999999921
 21
24.84999999999999
 31
0.0
  0
LINE
  5
200
330
1F
100
AcDbEntity
  8
ceco.net 431 FIFA futbol soccer field
100
AcDbLine
 10
5.619999999999995
 20
43.15
 30
0.0
 11
0.1199999999999954
 21
43.15
 31
0.0
  0
LINE
  5
201
330
1F
100
AcDbEntity
  8
ceco.net 431 FIFA futbol soccer field
100
AcDbLine
 10
5.739999999999993
 20
43.26999999999999
 30
0.0
 11
5.739999999999991
 21
24.73
 31
0.0
  0
LINE
  5
202
330
1F
100
AcDbEntity
  8
ceco.net 431 FIFA futbol soccer field
100
AcDbLine
 10
9.269999999999997
 20
68.0
 30
0.0
 11
9.269999999999997
 21
70.0
 31
0.0
  0
LINE
  5
203
330
1F
100
AcDbEntity
  8
ceco.net 431 FIFA futbol soccer field
100
AcDbLine
 10
9.15
 20
68.0
 30
0.0
 11
9.149999999999998
 21
70.0
 31
0.0
  0
LINE
  5
204
330
1F
100
AcDbEntity
  8
ceco.net 431 FIFA futbol soccer field
100
AcDbLine
 10
9.149999999999998
 20
70.0
 30
0.0
 11
9.269999999999997
 21
70.0
 31
0.0
  0
LINE
  5
205
330
1F
100
AcDbEntity
  8
ceco.net 431 FIFA futbol soccer field
100
AcDbLine
 10
9.269999999999997
 20
68.0
 30
0.0
 11
105.0
 21
68.0
 31
0.0
  0
LINE
  5
206
330
1F
100
AcDbEntity
  8
ceco.net 431 FIFA futbol soccer field
100
AcDbLine
 10
9.149999999999998
 20
-2.0
 30
0.0
 11
9.269999999999997
 21
-2.0
 31
0.0
  0
LINE
  5
207
330
1F
100
AcDbEntity
  8
ceco.net 431 FIFA futbol soccer field
100
AcDbLine
 10
9.15
 20
0.0
 30
0.0
 11
9.149999999999998
 21
-2.0
 31
0.0
  0
LINE
  5
208
330
1F
100
AcDbEntity
  8
ceco.net 431 FIFA futbol soccer field
100
AcDbLine
 10
9.269999999999997
 20
0.0
 30
0.0
 11
9.269999999999997
 21
-2.0
 31
0.0
  0
LINE
  5
209
330
1F
100
AcDbEntity
  8
ceco.net 431 FIFA futbol soccer field
100
AcDbLine
 10
9.269999999999997
 20
0.0
 30
0.0
 11
105.0
 21
0.0
 31
0.0
  0
LINE
  5
20A
330
1F
100
AcDbEntity
  8
ceco.net 431 FIFA futbol soccer field
100
AcDbLine
 10
-1.999999999999971
 20
58.84999999999999
 30
0.0
 11
-1.999999999999971
 21
58.73
 31
0.0
  0
LINE
  5
20B
330
1F
100
AcDbEntity
  8
ceco.net 431 FIFA futbol soccer field
100
AcDbLine
 10
0.0000000000000284
 20
58.85
 30
0.0
 11
-1.999999999999971
 21
58.84999999999999
 31
0.0
  0
LINE
  5
20C
330
1F
100
AcDbEntity
  8
ceco.net 431 FIFA futbol soccer field
100
AcDbLine
 10
0.0000000000000284
 20
58.73000000000001
 30
0.0
 11
-1.999999999999971
 21
58.73
 31
0.0
  0
LINE
  5
20D
102
{ACAD_REACTORS
330
21E
102
}
330
1F
100
AcDbEntity
  8
ceco.net 431 FIFA futbol soccer field
100
AcDbLine
 10
-0.0000000000000017
 20
58.73000000000001
 30
0.0
 11
-0.0000000000000108
 21
9.269999999999996
 31
0.0
  0
LINE
  5
20E
330
1F
100
AcDbEntity
  8
ceco.net 431 FIFA futbol soccer field
100
AcDbLine
 10
-1.999999999999971
 20
9.150000000000005
 30
0.0
 11
-1.999999999999971
 21
9.270000000000003
 31
0.0
  0
LINE
  5
20F
330
1F
100
AcDbEntity
  8
ceco.net 431 FIFA futbol soccer field
100
AcDbLine
 10
0.0000000000000284
 20
9.149999999999998
 30
0.0
 11
-1.999999999999971
 21
9.150000000000005
 31
0.0
  0
LINE
  5
210
330
1F
100
AcDbEntity
  8
ceco.net 431 FIFA futbol soccer field
100
AcDbLine
 10
0.0000000000000284
 20
9.269999999999996
 30
0.0
 11
-1.999999999999971
 21
9.270000000000003
 31
0.0
  0
LINE
  5
211
330
1F
100
AcDbEntity
  8
ceco.net 431 FIFA futbol soccer field
100
AcDbLine
 10
-0.0000000000000108
 20
9.15
 30
0.0
 11
-0.0000000000000125
 21
0.0
 31
0.0
  0
LINE
  5
212
330
1F
100
AcDbEntity
  8
ceco.net 431 FIFA futbol soccer field
100
AcDbLine
 10
-2.243003721474457
 20
37.77999999999998
 30
0.0
 11
-0.0000000000000056
 21
37.78
 31
0.0
  0
LINE
  5
213
102
{ACAD_REACTORS
330
21E
102
}
330
1F
100
AcDbEntity
  8
ceco.net 431 FIFA futbol soccer field
100
AcDbLine
 10
-2.243003721474457
 20
30.21999999999999
 30
0.0
 11
-0.0000000000000069
 21
30.22
 31
0.0
  0
CIRCLE
  5
214
102
{ACAD_REACTORS
330
215
102
}
330
1F
100
AcDbEntity
  8
ceco.net 431 FIFA futbol soccer field
100
AcDbCircle
 10
0.0599999999999943
 20
30.28
 30
0.0
 40
0.06
  0
HATCH
  5
215
330
1F
100
AcDbEntity
  8
ceco.net 431 FIFA futbol soccer field
100
AcDbHatch
 10
0.0
 20
0.0
 30
0.0
210
0.0
220
0.0
230
1.0
  2
SOLID
 70
     1
 71
     1
 91
        1
 92
        1
 93
        1
 72
     2
 10
0.0599999999999943
 20
30.28
 40
0.06
 50
0.0
 51
360.0
 73
     1
 97
        1
330
214
 75
     0
 76
     1
 98
        1
 10
0.0
 20
0.0
1001
ACAD
1010
0.0
1020
0.0
1030
0.0
  0
LINE
  5
216
330
1F
100
AcDbEntity
  8
ceco.net 431 FIFA futbol soccer field
100
AcDbLine
 10
-2.243003721474457
 20
37.77999999999999
 30
0.0
 11
-2.243003721474458
 21
30.21999999999999
 31
0.0
  0
HATCH
  5
217
330
1F
100
AcDbEntity
  8
ceco.net 431 FIFA futbol soccer field
100
AcDbHatch
 10
0.0
 20
0.0
 30
0.0
210
0.0
220
0.0
230
1.0
  2
SOLID
 70
     1
 71
     1
 91
        1
 92
        1
 93
        1
 72
     2
 10
0.0599999999999943
 20
37.72
 40
0.06
 50
0.0
 51
360.0
 73
     1
 97
        1
330
218
 75
     0
 76
     1
 98
        1
 10
0.0
 20
68.0
1001
ACAD
1010
0.0
1020
0.0
1030
0.0
  0
CIRCLE
  5
218
102
{ACAD_REACTORS
330
217
102
}
330
1F
100
AcDbEntity
  8
ceco.net 431 FIFA futbol soccer field
100
AcDbCircle
 10
0.0599999999999943
 20
37.72
 30
0.0
 40
0.06
  0
ARC
  5
219
102
{ACAD_REACTORS
330
21E
102
}
330
1F
100
AcDbEntity
  8
ceco.net 431 FIFA futbol soccer field
100
AcDbCircle
 10
-2.017057879252207
 20
46.11717007897389
 30
0.0
 40
8.577699424320654
100
AcDbArc
 50
270.1139402402002
 51
283.6005464255595
  0
ARC
  5
21A
102
{ACAD_REACTORS
330
21E
102
}
330
1F
100
AcDbEntity
  8
ceco.net 431 FIFA futbol soccer field
100
AcDbCircle
 10
-21.35412355060965
 20
33.99901133837041
 30
0.0
 40
19.67529086651008
100
AcDbArc
 50
349.6334258249483
 51
10.36657417505164
  0
ARC
  5
21B
102
{ACAD_REACTORS
330
21E
102
}
330
1F
100
AcDbEntity
  8
ceco.net 431 FIFA futbol soccer field
100
AcDbCircle
 10
-2.015185710965824
 20
21.88080048913948
 30
0.0
 40
8.577699424320654
100
AcDbArc
 50
76.41231938233055
 51
89.89856515614411
  0
LINE
  5
21C
330
1F
100
AcDbEntity
  8
ceco.net 431 FIFA futbol soccer field
100
AcDbLine
 10
-2.000000000000003
 20
37.539487615584
 30
0.0
 11
-2.243003721474457
 21
37.77999999999998
 31
0.0
  0
LINE
  5
21D
330
1F
100
AcDbEntity
  8
ceco.net 431 FIFA futbol soccer field
100
AcDbLine
 10
-2.000000000000005
 20
30.45848647127786
 30
0.0
 11
-2.243003721474457
 21
30.21999999999999
 31
0.0
  0
HATCH
  5
21E
330
1F
100
AcDbEntity
  8
ceco.net 431 Goal net
100
AcDbHatch
 10
0.0
 20
0.0
 30
0.0
210
0.0
220
0.0
230
1.0
  2
HONEY
 70
     0
 71
     1
 91
        1
 92
        7
 72
     1
 73
     1
 93
        5
 10
-0.0000000000000053
 20
37.78
 42
-0.0589144413822572
 10
-2.000000000000001
 20
37.53948761558401
 42
-0.0907136584086144
 10
-2.000008885799087
 20
30.45848648700445
 42
-0.0587165242351794
 10
-0.0065346880017683
 20
30.22
 42
0.0
 10
-0.0000000000000069
 20
30.22
 42
0.0
 97
        5
330
219
330
21A
330
21B
330
213
330
20D
 75
     0
 76
     1
 52
0.0
 41
0.025
 77
     0
 78
     3
 53
0.0
 43
0.0
 44
0.0
 45
0.1190625
 46
0.06874075
 79
     2
 49
0.079375
 49
-0.15875
 53
119.9999999999999
 43
0.0
 44
0.0
 45
-0.1190624857751951
 46
0.0687407746380848
 79
     2
 49
0.079375
 49
-0.15875
 53
60.0
 43
0.0
 44
0.0
 45
0.0000000142248049
 46
0.1374815246380847
 79
     2
 49
-0.15875
 49
0.079375
 47
0.028616447955339
 98
        1
 10
-0.5628084714371653
 20
36.29008065403468
1001
ACAD
1010
0.0
1020
0.0
1030
0.0
  0
LINE
  5
21F
330
1F
100
AcDbEntity
  8
ceco.net 431 FIFA futbol soccer field
100
AcDbLine
 10
52.56
 20
67.88000000000001
 30
0.0
 11
52.56
 21
34.29393876913398
 31
0.0
  0
LINE
  5
220
330
1F
100
AcDbEntity
  8
ceco.net 431 FIFA futbol soccer field
100
AcDbLine
 10
52.43999999999999
 20
67.88000000000001
 30
0.0
 11
52.44
 21
34.29393876913398
 31
0.0
  0
LINE
  5
221
330
1F
100
AcDbEntity
  8
ceco.net 431 FIFA futbol soccer field
100
AcDbLine
 10
52.56000000000001
 20
67.88
 30
0.0
 11
104.0072261083207
 21
67.88
 31
0.0
  0
LINE
  5
222
330
1F
100
AcDbEntity
  8
ceco.net 431 FIFA futbol soccer field
100
AcDbLine
 10
52.56
 20
0.12
 30
0.0
 11
104.0072261083207
 21
0.12
 31
0.0
  0
LINE
  5
223
330
1F
100
AcDbEntity
  8
ceco.net 431 FIFA futbol soccer field
100
AcDbLine
 10
105.0
 20
0.0
 30
0.0
 11
95.84999999999999
 21
0.0
 31
0.0
  0
LINE
  5
224
330
1F
100
AcDbEntity
  8
ceco.net 431 FIFA futbol soccer field
100
AcDbLine
 10
104.88
 20
0.12
 30
0.0
 11
104.1282202112918
 21
0.12
 31
0.0
  0
LINE
  5
225
330
1F
100
AcDbEntity
  8
ceco.net 431 FIFA futbol soccer field
100
AcDbLine
 10
105.0
 20
68.0
 30
0.0
 11
95.84999999999999
 21
68.0
 31
0.0
  0
LINE
  5
226
330
1F
100
AcDbEntity
  8
ceco.net 431 FIFA futbol soccer field
100
AcDbLine
 10
95.84999999999999
 20
70.0
 30
0.0
 11
95.73
 21
70.0
 31
0.0
  0
LINE
  5
227
330
1F
100
AcDbEntity
  8
ceco.net 431 FIFA futbol soccer field
100
AcDbLine
 10
104.8799999999999
 20
67.88
 30
0.0
 11
104.1282202112918
 21
67.88
 31
0.0
  0
LINE
  5
228
330
1F
100
AcDbEntity
  8
ceco.net 431 FIFA futbol soccer field
100
AcDbLine
 10
105.0
 20
68.0
 30
0.0
 11
105.0
 21
58.85
 31
0.0
  0
HATCH
  5
229
330
1F
100
AcDbEntity
  8
ceco.net 431 Goal net
100
AcDbHatch
 10
0.0
 20
0.0
 30
0.0
210
0.0
220
0.0
230
1.0
  2
HONEY
 70
     0
 71
     1
 91
        1
 92
        7
 72
     1
 73
     1
 93
        5
 10
105.0
 20
30.22
 42
0.0
 10
105.0065346880017
 20
30.22
 42
-0.0587165242351794
 10
107.0000088857991
 20
30.45848648700444
 42
-0.0907136584086147
 10
107.0
 20
37.53948761558401
 42
-0.058914441382258
 10
105.0
 20
37.78
 42
0.0
 97
        5
330
258
330
259
330
25A
330
252
330
22A
 75
     0
 76
     1
 52
0.0
 41
0.025
 77
     0
 78
     3
 53
180.0
 43
105.0
 44
0.0
 45
-0.1190625
 46
0.06874075
 79
     2
 49
0.079375
 49
-0.15875
 53
60.0
 43
105.0
 44
0.0
 45
0.1190624857751951
 46
0.0687407746380848
 79
     2
 49
0.079375
 49
-0.15875
 53
120.0
 43
105.0
 44
0.0
 45
-0.0000000142248049
 46
0.1374815246380847
 79
     2
 49
-0.15875
 49
0.079375
 47
0.028616447955339
 98
        1
 10
105.5628084714371
 20
36.29008065403468
1001
ACAD
1010
0.0
1020
0.0
1030
0.0
  0
LINE
  5
22A
102
{ACAD_REACTORS
330
229
102
}
330
1F
100
AcDbEntity
  8
ceco.net 431 FIFA futbol soccer field
100
AcDbLine
 10
105.0
 20
58.73000000000001
 30
0.0
 11
105.0
 21
9.269999999999996
 31
0.0
  0
LINE
  5
22B
330
1F
100
AcDbEntity
  8
ceco.net 431 FIFA futbol soccer field
100
AcDbLine
 10
107.2430037214744
 20
37.77999999999999
 30
0.0
 11
107.2430037214744
 21
30.21999999999999
 31
0.0
  0
LINE
  5
22C
330
1F
100
AcDbEntity
  8
ceco.net 431 FIFA futbol soccer field
100
AcDbLine
 10
105.0
 20
9.15
 30
0.0
 11
105.0
 21
0.0
 31
0.0
  0
LINE
  5
22D
330
1F
100
AcDbEntity
  8
ceco.net 431 FIFA futbol soccer field
100
AcDbLine
 10
104.8799999999999
 20
67.88
 30
0.0
 11
104.8799999999999
 21
67.12822021129186
 31
0.0
  0
LINE
  5
22E
330
1F
100
AcDbEntity
  8
ceco.net 431 FIFA futbol soccer field
100
AcDbLine
 10
104.8799999999999
 20
67.00722610832073
 30
0.0
 11
104.8799999999999
 21
54.15
 31
0.0
  0
LINE
  5
22F
330
1F
100
AcDbEntity
  8
ceco.net 431 FIFA futbol soccer field
100
AcDbLine
 10
104.8799999999999
 20
54.03000000000001
 30
0.0
 11
104.88
 21
13.97
 31
0.0
  0
LINE
  5
230
330
1F
100
AcDbEntity
  8
ceco.net 431 FIFA futbol soccer field
100
AcDbLine
 10
99.38000000000002
 20
43.15
 30
0.0
 11
99.38000000000002
 21
24.84999999999999
 31
0.0
  0
LINE
  5
231
330
1F
100
AcDbEntity
  8
ceco.net 431 FIFA futbol soccer field
100
AcDbLine
 10
99.26000000000001
 20
43.26999999999999
 30
0.0
 11
99.26000000000001
 21
24.73
 31
0.0
  0
LINE
  5
232
330
1F
100
AcDbEntity
  8
ceco.net 431 FIFA futbol soccer field
100
AcDbLine
 10
104.88
 20
13.85
 30
0.0
 11
104.88
 21
0.99277389167927
 31
0.0
  0
LINE
  5
233
330
1F
100
AcDbEntity
  8
ceco.net 431 FIFA futbol soccer field
100
AcDbLine
 10
104.88
 20
0.8717797887081363
 30
0.0
 11
104.88
 21
0.12
 31
0.0
  0
LINE
  5
234
330
1F
100
AcDbEntity
  8
ceco.net 431 FIFA futbol soccer field
100
AcDbLine
 10
88.37999999999999
 20
54.15
 30
0.0
 11
88.37999999999999
 21
41.46209756033783
 31
0.0
  0
LINE
  5
235
330
1F
100
AcDbEntity
  8
ceco.net 431 FIFA futbol soccer field
100
AcDbLine
 10
88.37999999999999
 20
41.3124893162315
 30
0.0
 11
88.38
 21
26.68751068376849
 31
0.0
  0
LINE
  5
236
330
1F
100
AcDbEntity
  8
ceco.net 431 FIFA futbol soccer field
100
AcDbLine
 10
88.38
 20
26.53790243966215
 30
0.0
 11
88.38
 21
13.85
 31
0.0
  0
LINE
  5
237
330
1F
100
AcDbEntity
  8
ceco.net 431 FIFA futbol soccer field
100
AcDbLine
 10
88.49999999999999
 20
54.02999999999999
 30
0.0
 11
88.49999999999999
 21
13.97
 31
0.0
  0
CIRCLE
  5
238
330
1F
100
AcDbEntity
  8
ceco.net 431 FIFA futbol soccer field
100
AcDbCircle
 10
93.88000000000001
 20
34.0
 30
0.0
 40
0.3
  0
ARC
  5
239
330
1F
100
AcDbEntity
  8
ceco.net 431 FIFA futbol soccer field
100
AcDbCircle
 10
93.88000000000001
 20
34.0
 30
0.0
 40
9.15
100
AcDbArc
 50
126.9482107330498
 51
233.0517892669501
  0
ARC
  5
23A
330
1F
100
AcDbEntity
  8
ceco.net 431 FIFA futbol soccer field
100
AcDbCircle
 10
93.88000000000001
 20
34.0
 30
0.0
 40
9.269999999999999
100
AcDbArc
 50
126.3923745280061
 51
233.6076254719939
  0
LINE
  5
23B
330
1F
100
AcDbEntity
  8
ceco.net 431 FIFA futbol soccer field
100
AcDbLine
 10
88.37999999999999
 20
54.15
 30
0.0
 11
104.8799999999999
 21
54.15
 31
0.0
  0
LINE
  5
23C
330
1F
100
AcDbEntity
  8
ceco.net 431 FIFA futbol soccer field
100
AcDbLine
 10
88.49999999999999
 20
54.02999999999999
 30
0.0
 11
104.8799999999999
 21
54.03
 31
0.0
  0
LINE
  5
23D
330
1F
100
AcDbEntity
  8
ceco.net 431 FIFA futbol soccer field
100
AcDbLine
 10
88.38
 20
13.85
 30
0.0
 11
104.88
 21
13.85
 31
0.0
  0
LINE
  5
23E
330
1F
100
AcDbEntity
  8
ceco.net 431 FIFA futbol soccer field
100
AcDbLine
 10
88.49999999999999
 20
13.97
 30
0.0
 11
104.88
 21
13.97
 31
0.0
  0
ARC
  5
23F
330
1F
100
AcDbEntity
  8
ceco.net 431 FIFA futbol soccer field
100
AcDbCircle
 10
105.0
 20
0.0
 30
0.0
 40
1.0
100
AcDbArc
 50
96.89210257934583
 51
173.1078974206536
  0
ARC
  5
240
330
1F
100
AcDbEntity
  8
ceco.net 431 FIFA futbol soccer field
100
AcDbCircle
 10
105.0
 20
0.0
 30
0.0
 40
0.88
100
AcDbArc
 50
97.83747976308367
 51
172.1625202369156
  0
ARC
  5
241
330
1F
100
AcDbEntity
  8
ceco.net 431 FIFA futbol soccer field
100
AcDbCircle
 10
104.9999999999999
 20
68.0
 30
0.0
 40
1.0
100
AcDbArc
 50
186.8921025793466
 51
263.1078974206541
  0
ARC
  5
242
330
1F
100
AcDbEntity
  8
ceco.net 431 FIFA futbol soccer field
100
AcDbCircle
 10
104.9999999999999
 20
68.0
 30
0.0
 40
0.88
100
AcDbArc
 50
187.8374797630846
 51
262.1625202369163
  0
LINE
  5
243
330
1F
100
AcDbEntity
  8
ceco.net 431 FIFA futbol soccer field
100
AcDbLine
 10
99.26000000000001
 20
24.73
 30
0.0
 11
104.88
 21
24.73
 31
0.0
  0
LINE
  5
244
330
1F
100
AcDbEntity
  8
ceco.net 431 FIFA futbol soccer field
100
AcDbLine
 10
99.38000000000002
 20
24.84999999999999
 30
0.0
 11
104.88
 21
24.84999999999999
 31
0.0
  0
LINE
  5
245
330
1F
100
AcDbEntity
  8
ceco.net 431 FIFA futbol soccer field
100
AcDbLine
 10
99.26000000000001
 20
43.26999999999999
 30
0.0
 11
104.88
 21
43.26999999999999
 31
0.0
  0
LINE
  5
246
330
1F
100
AcDbEntity
  8
ceco.net 431 FIFA futbol soccer field
100
AcDbLine
 10
99.38000000000002
 20
43.15
 30
0.0
 11
104.88
 21
43.15
 31
0.0
  0
LINE
  5
247
330
1F
100
AcDbEntity
  8
ceco.net 431 FIFA futbol soccer field
100
AcDbLine
 10
95.84999999999999
 20
68.0
 30
0.0
 11
95.84999999999999
 21
70.0
 31
0.0
  0
LINE
  5
248
330
1F
100
AcDbEntity
  8
ceco.net 431 FIFA futbol soccer field
100
AcDbLine
 10
95.73
 20
68.0
 30
0.0
 11
95.73
 21
70.0
 31
0.0
  0
LINE
  5
249
330
1F
100
AcDbEntity
  8
ceco.net 431 FIFA futbol soccer field
100
AcDbLine
 10
95.84999999999999
 20
-2.0
 30
0.0
 11
95.73
 21
-2.0
 31
0.0
  0
LINE
  5
24A
330
1F
100
AcDbEntity
  8
ceco.net 431 FIFA futbol soccer field
100
AcDbLine
 10
95.84999999999999
 20
0.0
 30
0.0
 11
95.84999999999999
 21
-2.0
 31
0.0
  0
LINE
  5
24B
330
1F
100
AcDbEntity
  8
ceco.net 431 FIFA futbol soccer field
100
AcDbLine
 10
95.73
 20
0.0
 30
0.0
 11
95.73
 21
-2.0
 31
0.0
  0
LINE
  5
24C
330
1F
100
AcDbEntity
  8
ceco.net 431 FIFA futbol soccer field
100
AcDbLine
 10
106.9999999999999
 20
58.84999999999999
 30
0.0
 11
106.9999999999999
 21
58.73
 31
0.0
  0
LINE
  5
24D
330
1F
100
AcDbEntity
  8
ceco.net 431 FIFA futbol soccer field
100
AcDbLine
 10
104.9999999999999
 20
58.85
 30
0.0
 11
106.9999999999999
 21
58.84999999999999
 31
0.0
  0
LINE
  5
24E
330
1F
100
AcDbEntity
  8
ceco.net 431 FIFA futbol soccer field
100
AcDbLine
 10
104.9999999999999
 20
58.73000000000001
 30
0.0
 11
106.9999999999999
 21
58.73
 31
0.0
  0
LINE
  5
24F
330
1F
100
AcDbEntity
  8
ceco.net 431 FIFA futbol soccer field
100
AcDbLine
 10
106.9999999999999
 20
9.150000000000005
 30
0.0
 11
106.9999999999999
 21
9.270000000000003
 31
0.0
  0
LINE
  5
250
330
1F
100
AcDbEntity
  8
ceco.net 431 FIFA futbol soccer field
100
AcDbLine
 10
104.9999999999999
 20
9.149999999999998
 30
0.0
 11
106.9999999999999
 21
9.150000000000005
 31
0.0
  0
LINE
  5
251
330
1F
100
AcDbEntity
  8
ceco.net 431 FIFA futbol soccer field
100
AcDbLine
 10
104.9999999999999
 20
9.269999999999996
 30
0.0
 11
106.9999999999999
 21
9.270000000000003
 31
0.0
  0
LINE
  5
252
102
{ACAD_REACTORS
330
229
102
}
330
1F
100
AcDbEntity
  8
ceco.net 431 FIFA futbol soccer field
100
AcDbLine
 10
107.2430037214744
 20
30.21999999999999
 30
0.0
 11
105.0
 21
30.22
 31
0.0
  0
LINE
  5
253
330
1F
100
AcDbEntity
  8
ceco.net 431 FIFA futbol soccer field
100
AcDbLine
 10
107.2430037214744
 20
37.77999999999998
 30
0.0
 11
105.0
 21
37.78
 31
0.0
  0
HATCH
  5
254
330
1F
100
AcDbEntity
  8
ceco.net 431 FIFA futbol soccer field
100
AcDbHatch
 10
0.0
 20
0.0
 30
0.0
210
0.0
220
0.0
230
1.0
  2
SOLID
 70
     1
 71
     1
 91
        1
 92
        1
 93
        1
 72
     2
 10
104.94
 20
30.28
 40
0.06
 50
0.0
 51
360.0
 73
     1
 97
        1
330
255
 75
     0
 76
     1
 98
        1
 10
105.0
 20
0.0
1001
ACAD
1010
0.0
1020
0.0
1030
0.0
  0
CIRCLE
  5
255
102
{ACAD_REACTORS
330
254
102
}
330
1F
100
AcDbEntity
  8
ceco.net 431 FIFA futbol soccer field
100
AcDbCircle
 10
104.94
 20
30.28
 30
0.0
 40
0.06
  0
HATCH
  5
256
330
1F
100
AcDbEntity
  8
ceco.net 431 FIFA futbol soccer field
100
AcDbHatch
 10
0.0
 20
0.0
 30
0.0
210
0.0
220
0.0
230
1.0
  2
SOLID
 70
     1
 71
     1
 91
        1
 92
        1
 93
        1
 72
     2
 10
104.94
 20
37.72
 40
0.06
 50
0.0
 51
360.0
 73
     1
 97
        1
330
257
 75
     0
 76
     1
 98
        1
 10
105.0
 20
68.0
1001
ACAD
1010
0.0
1020
0.0
1030
0.0
  0
CIRCLE
  5
257
102
{ACAD_REACTORS
330
256
102
}
330
1F
100
AcDbEntity
  8
ceco.net 431 FIFA futbol soccer field
100
AcDbCircle
 10
104.94
 20
37.72
 30
0.0
 40
0.06
  0
ARC
  5
258
102
{ACAD_REACTORS
330
229
102
}
330
1F
100
AcDbEntity
  8
ceco.net 431 FIFA futbol soccer field
100
AcDbCircle
 10
107.0170578792522
 20
46.11717007897389
 30
0.0
 40
8.577699424320654
100
AcDbArc
 50
256.3994535744402
 51
269.8860597597997
  0
ARC
  5
259
102
{ACAD_REACTORS
330
229
102
}
330
1F
100
AcDbEntity
  8
ceco.net 431 FIFA futbol soccer field
100
AcDbCircle
 10
126.3541235506096
 20
33.99901133837041
 30
0.0
 40
19.67529086651008
100
AcDbArc
 50
169.6334258249483
 51
190.3665741750517
  0
ARC
  5
25A
102
{ACAD_REACTORS
330
229
102
}
330
1F
100
AcDbEntity
  8
ceco.net 431 FIFA futbol soccer field
100
AcDbCircle
 10
107.0151857109658
 20
21.88080048913948
 30
0.0
 40
8.577699424320654
100
AcDbArc
 50
90.10143484385597
 51
103.5876806176696
  0
LINE
  5
25B
330
1F
100
AcDbEntity
  8
ceco.net 431 FIFA futbol soccer field
100
AcDbLine
 10
107.0
 20
37.539487615584
 30
0.0
 11
107.2430037214744
 21
37.77999999999998
 31
0.0
  0
LINE
  5
25C
330
1F
100
AcDbEntity
  8
ceco.net 431 FIFA futbol soccer field
100
AcDbLine
 10
107.0
 20
30.45848647127786
 30
0.0
 11
107.2430037214744
 21
30.21999999999999
 31
0.0
  0
LINE
  5
25D
330
1F
100
AcDbEntity
  8
ceco.net 431 tecnical area
100
AcDbLine
 10
54.5
 20
-1.0
 30
0.0
 11
54.50000000000001
 21
-1.6
 31
0.0
  0
LINE
  5
25E
330
1F
100
AcDbEntity
  8
ceco.net 431 tecnical area
100
AcDbLine
 10
54.50000000000001
 20
-1.0
 30
0.0
 11
55.09999999999999
 21
-1.0
 31
0.0
  0
LINE
  5
25F
330
1F
100
AcDbEntity
  8
ceco.net 431 tecnical area
100
AcDbLine
 10
62.5
 20
-1.0
 30
0.0
 11
62.5
 21
-1.6
 31
0.0
  0
LINE
  5
260
330
1F
100
AcDbEntity
  8
ceco.net 431 tecnical area
100
AcDbLine
 10
54.61999999999999
 20
-1.12
 30
0.0
 11
54.61999999999999
 21
-1.6
 31
0.0
  0
LINE
  5
261
330
1F
100
AcDbEntity
  8
ceco.net 431 tecnical area
100
AcDbLine
 10
62.38
 20
-1.12
 30
0.0
 11
62.38
 21
-1.6
 31
0.0
  0
LINE
  5
262
330
1F
100
AcDbEntity
  8
ceco.net 431 tecnical area
100
AcDbLine
 10
54.61999999999999
 20
-1.12
 30
0.0
 11
55.09999999999999
 21
-1.12
 31
0.0
  0
LINE
  5
263
330
1F
100
AcDbEntity
  8
ceco.net 431 tecnical area
100
AcDbLine
 10
55.1
 20
-1.0
 30
0.0
 11
55.1
 21
-1.12
 31
0.0
  0
LINE
  5
264
330
1F
100
AcDbEntity
  8
ceco.net 431 tecnical area
100
AcDbLine
 10
61.9
 20
-1.0
 30
0.0
 11
61.9
 21
-1.12
 31
0.0
  0
LINE
  5
265
330
1F
100
AcDbEntity
  8
ceco.net 431 tecnical area
100
AcDbLine
 10
54.50000000000001
 20
-1.6
 30
0.0
 11
54.61999999999999
 21
-1.6
 31
0.0
  0
LINE
  5
266
330
1F
100
AcDbEntity
  8
ceco.net 431 tecnical area
100
AcDbLine
 10
55.30000000000001
 20
-1.0
 30
0.0
 11
55.30000000000001
 21
-1.12
 31
0.0
  0
LINE
  5
267
330
1F
100
AcDbEntity
  8
ceco.net 431 tecnical area
100
AcDbLine
 10
61.69999999999999
 20
-1.0
 30
0.0
 11
61.7
 21
-1.12
 31
0.0
  0
LINE
  5
268
330
1F
100
AcDbEntity
  8
ceco.net 431 tecnical area
100
AcDbLine
 10
54.50000000000001
 20
-1.8
 30
0.0
 11
54.61999999999999
 21
-1.799999999999999
 31
0.0
  0
LINE
  5
269
330
1F
100
AcDbEntity
  8
ceco.net 431 tecnical area
100
AcDbLine
 10
56.2
 20
-1.0
 30
0.0
 11
56.20000000000001
 21
-1.12
 31
0.0
  0
LINE
  5
26A
330
1F
100
AcDbEntity
  8
ceco.net 431 tecnical area
100
AcDbLine
 10
60.8
 20
-1.0
 30
0.0
 11
60.79999999999998
 21
-1.12
 31
0.0
  0
LINE
  5
26B
330
1F
100
AcDbEntity
  8
ceco.net 431 tecnical area
100
AcDbLine
 10
56.4
 20
-1.0
 30
0.0
 11
56.4
 21
-1.12
 31
0.0
  0
LINE
  5
26C
330
1F
100
AcDbEntity
  8
ceco.net 431 tecnical area
100
AcDbLine
 10
60.59999999999999
 20
-1.0
 30
0.0
 11
60.59999999999999
 21
-1.12
 31
0.0
  0
LINE
  5
26D
330
1F
100
AcDbEntity
  8
ceco.net 431 tecnical area
100
AcDbLine
 10
57.3
 20
-1.0
 30
0.0
 11
57.3
 21
-1.12
 31
0.0
  0
LINE
  5
26E
330
1F
100
AcDbEntity
  8
ceco.net 431 tecnical area
100
AcDbLine
 10
59.69999999999999
 20
-1.0
 30
0.0
 11
59.69999999999999
 21
-1.12
 31
0.0
  0
LINE
  5
26F
330
1F
100
AcDbEntity
  8
ceco.net 431 tecnical area
100
AcDbLine
 10
57.5
 20
-1.0
 30
0.0
 11
57.50000000000001
 21
-1.12
 31
0.0
  0
LINE
  5
270
330
1F
100
AcDbEntity
  8
ceco.net 431 tecnical area
100
AcDbLine
 10
59.49999999999999
 20
-1.0
 30
0.0
 11
59.49999999999999
 21
-1.12
 31
0.0
  0
LINE
  5
271
330
1F
100
AcDbEntity
  8
ceco.net 431 tecnical area
100
AcDbLine
 10
58.59999999999999
 20
-1.0
 30
0.0
 11
58.59999999999999
 21
-1.12
 31
0.0
  0
LINE
  5
272
330
1F
100
AcDbEntity
  8
ceco.net 431 tecnical area
100
AcDbLine
 10
58.4
 20
-1.0
 30
0.0
 11
58.39999999999999
 21
-1.12
 31
0.0
  0
LINE
  5
273
330
1F
100
AcDbEntity
  8
ceco.net 431 tecnical area
100
AcDbLine
 10
54.50000000000001
 20
-2.7
 30
0.0
 11
54.62
 21
-2.7
 31
0.0
  0
LINE
  5
274
330
1F
100
AcDbEntity
  8
ceco.net 431 tecnical area
100
AcDbLine
 10
54.50000000000001
 20
-2.9
 30
0.0
 11
54.62
 21
-2.9
 31
0.0
  0
LINE
  5
275
330
1F
100
AcDbEntity
  8
ceco.net 431 tecnical area
100
AcDbLine
 10
54.50000000000001
 20
-3.8
 30
0.0
 11
54.62
 21
-3.8
 31
0.0
  0
LINE
  5
276
330
1F
100
AcDbEntity
  8
ceco.net 431 tecnical area
100
AcDbLine
 10
54.50000000000001
 20
-4.0
 30
0.0
 11
54.62
 21
-4.0
 31
0.0
  0
LINE
  5
277
330
1F
100
AcDbEntity
  8
ceco.net 431 tecnical area
100
AcDbLine
 10
54.50000000000001
 20
-4.599999999999999
 30
0.0
 11
55.10000000000001
 21
-4.599999999999999
 31
0.0
  0
LINE
  5
278
330
1F
100
AcDbEntity
  8
ceco.net 431 tecnical area
100
AcDbLine
 10
54.62
 20
-4.48
 30
0.0
 11
55.10000000000001
 21
-4.479999999999999
 31
0.0
  0
LINE
  5
279
330
1F
100
AcDbEntity
  8
ceco.net 431 tecnical area
100
AcDbLine
 10
55.10000000000001
 20
-4.479999999999999
 30
0.0
 11
55.10000000000001
 21
-4.599999999999999
 31
0.0
  0
LINE
  5
27A
330
1F
100
AcDbEntity
  8
ceco.net 431 tecnical area
100
AcDbLine
 10
55.30000000000001
 20
-4.479999999999999
 30
0.0
 11
55.30000000000001
 21
-4.599999999999999
 31
0.0
  0
LINE
  5
27B
330
1F
100
AcDbEntity
  8
ceco.net 431 tecnical area
100
AcDbLine
 10
58.59999999999999
 20
-4.479999999999999
 30
0.0
 11
58.6
 21
-4.599999999999999
 31
0.0
  0
LINE
  5
27C
330
1F
100
AcDbEntity
  8
ceco.net 431 tecnical area
100
AcDbLine
 10
59.49999999999999
 20
-4.479999999999999
 30
0.0
 11
59.49999999999999
 21
-4.599999999999999
 31
0.0
  0
LINE
  5
27D
330
1F
100
AcDbEntity
  8
ceco.net 431 tecnical area
100
AcDbLine
 10
59.69999999999998
 20
-4.479999999999999
 30
0.0
 11
59.69999999999999
 21
-4.599999999999999
 31
0.0
  0
LINE
  5
27E
330
1F
100
AcDbEntity
  8
ceco.net 431 tecnical area
100
AcDbLine
 10
60.59999999999998
 20
-4.479999999999999
 30
0.0
 11
60.59999999999998
 21
-4.599999999999999
 31
0.0
  0
LINE
  5
27F
330
1F
100
AcDbEntity
  8
ceco.net 431 tecnical area
100
AcDbLine
 10
60.79999999999998
 20
-4.479999999999999
 30
0.0
 11
60.79999999999999
 21
-4.599999999999999
 31
0.0
  0
LINE
  5
280
330
1F
100
AcDbEntity
  8
ceco.net 431 tecnical area
100
AcDbLine
 10
61.69999999999999
 20
-4.479999999999999
 30
0.0
 11
61.69999999999999
 21
-4.599999999999999
 31
0.0
  0
LINE
  5
281
330
1F
100
AcDbEntity
  8
ceco.net 431 tecnical area
100
AcDbLine
 10
61.89999999999999
 20
-4.479999999999999
 30
0.0
 11
61.89999999999999
 21
-4.599999999999999
 31
0.0
  0
LINE
  5
282
330
1F
100
AcDbEntity
  8
ceco.net 431 tecnical area
100
AcDbLine
 10
58.40000000000002
 20
-4.479999999999999
 30
0.0
 11
58.40000000000002
 21
-4.599999999999999
 31
0.0
  0
LINE
  5
283
330
1F
100
AcDbEntity
  8
ceco.net 431 tecnical area
100
AcDbLine
 10
57.50000000000001
 20
-4.479999999999999
 30
0.0
 11
57.50000000000001
 21
-4.599999999999999
 31
0.0
  0
LINE
  5
284
330
1F
100
AcDbEntity
  8
ceco.net 431 tecnical area
100
AcDbLine
 10
57.30000000000002
 20
-4.479999999999999
 30
0.0
 11
57.30000000000001
 21
-4.599999999999999
 31
0.0
  0
LINE
  5
285
330
1F
100
AcDbEntity
  8
ceco.net 431 tecnical area
100
AcDbLine
 10
56.4
 20
-4.479999999999999
 30
0.0
 11
56.4
 21
-4.599999999999999
 31
0.0
  0
LINE
  5
286
330
1F
100
AcDbEntity
  8
ceco.net 431 tecnical area
100
AcDbLine
 10
56.20000000000001
 20
-4.479999999999999
 30
0.0
 11
56.20000000000001
 21
-4.599999999999999
 31
0.0
  0
LINE
  5
287
330
1F
100
AcDbEntity
  8
ceco.net 431 tecnical area
100
AcDbLine
 10
62.38000000000001
 20
-4.0
 30
0.0
 11
62.5
 21
-4.0
 31
0.0
  0
LINE
  5
288
330
1F
100
AcDbEntity
  8
ceco.net 431 tecnical area
100
AcDbLine
 10
62.38000000000001
 20
-3.799999999999999
 30
0.0
 11
62.5
 21
-3.8
 31
0.0
  0
LINE
  5
289
330
1F
100
AcDbEntity
  8
ceco.net 431 tecnical area
100
AcDbLine
 10
62.38000000000001
 20
-2.9
 30
0.0
 11
62.5
 21
-2.9
 31
0.0
  0
LINE
  5
28A
330
1F
100
AcDbEntity
  8
ceco.net 431 tecnical area
100
AcDbLine
 10
62.38000000000001
 20
-2.7
 30
0.0
 11
62.5
 21
-2.7
 31
0.0
  0
LINE
  5
28B
330
1F
100
AcDbEntity
  8
ceco.net 431 tecnical area
100
AcDbLine
 10
62.38
 20
-1.8
 30
0.0
 11
62.5
 21
-1.8
 31
0.0
  0
LINE
  5
28C
330
1F
100
AcDbEntity
  8
ceco.net 431 tecnical area
100
AcDbLine
 10
62.38
 20
-1.6
 30
0.0
 11
62.5
 21
-1.6
 31
0.0
  0
LINE
  5
28D
330
1F
100
AcDbEntity
  8
ceco.net 431 tecnical area
100
AcDbLine
 10
55.3
 20
-1.12
 30
0.0
 11
56.2
 21
-1.12
 31
0.0
  0
LINE
  5
28E
330
1F
100
AcDbEntity
  8
ceco.net 431 tecnical area
100
AcDbLine
 10
55.30000000000001
 20
-1.0
 30
0.0
 11
56.2
 21
-1.0
 31
0.0
  0
LINE
  5
28F
330
1F
100
AcDbEntity
  8
ceco.net 431 tecnical area
100
AcDbLine
 10
56.4
 20
-1.12
 30
0.0
 11
57.3
 21
-1.12
 31
0.0
  0
LINE
  5
290
330
1F
100
AcDbEntity
  8
ceco.net 431 tecnical area
100
AcDbLine
 10
56.4
 20
-1.0
 30
0.0
 11
57.30000000000001
 21
-1.0
 31
0.0
  0
LINE
  5
291
330
1F
100
AcDbEntity
  8
ceco.net 431 tecnical area
100
AcDbLine
 10
57.5
 20
-1.12
 30
0.0
 11
58.4
 21
-1.12
 31
0.0
  0
LINE
  5
292
330
1F
100
AcDbEntity
  8
ceco.net 431 tecnical area
100
AcDbLine
 10
57.50000000000001
 20
-1.0
 30
0.0
 11
58.40000000000001
 21
-1.0
 31
0.0
  0
LINE
  5
293
330
1F
100
AcDbEntity
  8
ceco.net 431 tecnical area
100
AcDbLine
 10
58.59999999999999
 20
-1.12
 30
0.0
 11
59.5
 21
-1.12
 31
0.0
  0
LINE
  5
294
330
1F
100
AcDbEntity
  8
ceco.net 431 tecnical area
100
AcDbLine
 10
58.59999999999999
 20
-1.0
 30
0.0
 11
59.49999999999999
 21
-1.0
 31
0.0
  0
LINE
  5
295
330
1F
100
AcDbEntity
  8
ceco.net 431 tecnical area
100
AcDbLine
 10
59.69999999999999
 20
-1.12
 30
0.0
 11
60.6
 21
-1.12
 31
0.0
  0
LINE
  5
296
330
1F
100
AcDbEntity
  8
ceco.net 431 tecnical area
100
AcDbLine
 10
59.69999999999999
 20
-1.0
 30
0.0
 11
60.6
 21
-1.0
 31
0.0
  0
LINE
  5
297
330
1F
100
AcDbEntity
  8
ceco.net 431 tecnical area
100
AcDbLine
 10
60.79999999999999
 20
-1.12
 30
0.0
 11
61.69999999999999
 21
-1.12
 31
0.0
  0
LINE
  5
298
330
1F
100
AcDbEntity
  8
ceco.net 431 tecnical area
100
AcDbLine
 10
60.8
 20
-1.0
 30
0.0
 11
61.7
 21
-1.0
 31
0.0
  0
LINE
  5
299
330
1F
100
AcDbEntity
  8
ceco.net 431 tecnical area
100
AcDbLine
 10
61.9
 20
-1.12
 30
0.0
 11
62.38000000000001
 21
-1.12
 31
0.0
  0
LINE
  5
29A
330
1F
100
AcDbEntity
  8
ceco.net 431 tecnical area
100
AcDbLine
 10
61.9
 20
-1.0
 30
0.0
 11
62.5
 21
-1.0
 31
0.0
  0
LINE
  5
29B
330
1F
100
AcDbEntity
  8
ceco.net 431 tecnical area
100
AcDbLine
 10
62.38
 20
-1.8
 30
0.0
 11
62.38000000000002
 21
-2.7
 31
0.0
  0
LINE
  5
29C
330
1F
100
AcDbEntity
  8
ceco.net 431 tecnical area
100
AcDbLine
 10
62.5
 20
-1.8
 30
0.0
 11
62.50000000000001
 21
-2.7
 31
0.0
  0
LINE
  5
29D
330
1F
100
AcDbEntity
  8
ceco.net 431 tecnical area
100
AcDbLine
 10
62.38000000000002
 20
-2.9
 30
0.0
 11
62.38
 21
-3.8
 31
0.0
  0
LINE
  5
29E
330
1F
100
AcDbEntity
  8
ceco.net 431 tecnical area
100
AcDbLine
 10
62.50000000000001
 20
-2.9
 30
0.0
 11
62.5
 21
-3.8
 31
0.0
  0
LINE
  5
29F
330
1F
100
AcDbEntity
  8
ceco.net 431 tecnical area
100
AcDbLine
 10
62.38
 20
-4.0
 30
0.0
 11
62.37999999999999
 21
-4.48
 31
0.0
  0
LINE
  5
2A0
330
1F
100
AcDbEntity
  8
ceco.net 431 tecnical area
100
AcDbLine
 10
62.5
 20
-4.0
 30
0.0
 11
62.5
 21
-4.599999999999999
 31
0.0
  0
LINE
  5
2A1
330
1F
100
AcDbEntity
  8
ceco.net 431 tecnical area
100
AcDbLine
 10
61.9
 20
-4.48
 30
0.0
 11
62.38000000000001
 21
-4.48
 31
0.0
  0
LINE
  5
2A2
330
1F
100
AcDbEntity
  8
ceco.net 431 tecnical area
100
AcDbLine
 10
61.89999999999999
 20
-4.599999999999998
 30
0.0
 11
62.5
 21
-4.599999999999999
 31
0.0
  0
LINE
  5
2A3
330
1F
100
AcDbEntity
  8
ceco.net 431 tecnical area
100
AcDbLine
 10
60.79999999999999
 20
-4.48
 30
0.0
 11
61.69999999999999
 21
-4.48
 31
0.0
  0
LINE
  5
2A4
330
1F
100
AcDbEntity
  8
ceco.net 431 tecnical area
100
AcDbLine
 10
60.79999999999999
 20
-4.599999999999998
 30
0.0
 11
61.69999999999999
 21
-4.599999999999998
 31
0.0
  0
LINE
  5
2A5
330
1F
100
AcDbEntity
  8
ceco.net 431 tecnical area
100
AcDbLine
 10
59.69999999999998
 20
-4.479999999999999
 30
0.0
 11
60.59999999999998
 21
-4.48
 31
0.0
  0
LINE
  5
2A6
330
1F
100
AcDbEntity
  8
ceco.net 431 tecnical area
100
AcDbLine
 10
59.69999999999998
 20
-4.599999999999999
 30
0.0
 11
60.59999999999998
 21
-4.599999999999998
 31
0.0
  0
LINE
  5
2A7
330
1F
100
AcDbEntity
  8
ceco.net 431 tecnical area
100
AcDbLine
 10
58.6
 20
-4.479999999999999
 30
0.0
 11
59.49999999999999
 21
-4.479999999999999
 31
0.0
  0
LINE
  5
2A8
330
1F
100
AcDbEntity
  8
ceco.net 431 tecnical area
100
AcDbLine
 10
58.6
 20
-4.599999999999999
 30
0.0
 11
59.49999999999999
 21
-4.599999999999999
 31
0.0
  0
LINE
  5
2A9
330
1F
100
AcDbEntity
  8
ceco.net 431 tecnical area
100
AcDbLine
 10
57.50000000000001
 20
-4.479999999999999
 30
0.0
 11
58.40000000000001
 21
-4.479999999999999
 31
0.0
  0
LINE
  5
2AA
330
1F
100
AcDbEntity
  8
ceco.net 431 tecnical area
100
AcDbLine
 10
57.50000000000001
 20
-4.6
 30
0.0
 11
58.40000000000001
 21
-4.599999999999999
 31
0.0
  0
LINE
  5
2AB
330
1F
100
AcDbEntity
  8
ceco.net 431 tecnical area
100
AcDbLine
 10
56.40000000000001
 20
-4.48
 30
0.0
 11
57.30000000000002
 21
-4.479999999999999
 31
0.0
  0
LINE
  5
2AC
330
1F
100
AcDbEntity
  8
ceco.net 431 tecnical area
100
AcDbLine
 10
56.40000000000001
 20
-4.599999999999999
 30
0.0
 11
57.30000000000002
 21
-4.6
 31
0.0
  0
LINE
  5
2AD
330
1F
100
AcDbEntity
  8
ceco.net 431 tecnical area
100
AcDbLine
 10
55.30000000000001
 20
-4.479999999999999
 30
0.0
 11
56.20000000000003
 21
-4.48
 31
0.0
  0
LINE
  5
2AE
330
1F
100
AcDbEntity
  8
ceco.net 431 tecnical area
100
AcDbLine
 10
55.30000000000001
 20
-4.599999999999999
 30
0.0
 11
56.20000000000003
 21
-4.599999999999999
 31
0.0
  0
LINE
  5
2AF
330
1F
100
AcDbEntity
  8
ceco.net 431 tecnical area
100
AcDbLine
 10
54.62
 20
-4.0
 30
0.0
 11
54.62
 21
-4.48
 31
0.0
  0
LINE
  5
2B0
330
1F
100
AcDbEntity
  8
ceco.net 431 tecnical area
100
AcDbLine
 10
54.5
 20
-4.0
 30
0.0
 11
54.5
 21
-4.599999999999999
 31
0.0
  0
LINE
  5
2B1
330
1F
100
AcDbEntity
  8
ceco.net 431 tecnical area
100
AcDbLine
 10
54.61999999999999
 20
-2.9
 30
0.0
 11
54.62
 21
-3.8
 31
0.0
  0
LINE
  5
2B2
330
1F
100
AcDbEntity
  8
ceco.net 431 tecnical area
100
AcDbLine
 10
54.50000000000001
 20
-2.9
 30
0.0
 11
54.5
 21
-3.8
 31
0.0
  0
LINE
  5
2B3
330
1F
100
AcDbEntity
  8
ceco.net 431 tecnical area
100
AcDbLine
 10
54.61999999999999
 20
-1.8
 30
0.0
 11
54.61999999999999
 21
-2.7
 31
0.0
  0
LINE
  5
2B4
330
1F
100
AcDbEntity
  8
ceco.net 431 tecnical area
100
AcDbLine
 10
54.50000000000001
 20
-1.8
 30
0.0
 11
54.50000000000001
 21
-2.7
 31
0.0
  0
LINE
  5
2B5
330
1F
100
AcDbEntity
  8
ceco.net 431 tecnical area
100
AcDbLine
 10
50.49999999999999
 20
-1.0
 30
0.0
 11
49.90000000000001
 21
-1.0
 31
0.0
  0
LINE
  5
2B6
330
1F
100
AcDbEntity
  8
ceco.net 431 tecnical area
100
AcDbLine
 10
49.69999999999999
 20
-1.0
 30
0.0
 11
48.79999999999999
 21
-1.0
 31
0.0
  0
LINE
  5
2B7
330
1F
100
AcDbEntity
  8
ceco.net 431 tecnical area
100
AcDbLine
 10
48.59999999999999
 20
-1.0
 30
0.0
 11
47.69999999999998
 21
-1.0
 31
0.0
  0
LINE
  5
2B8
330
1F
100
AcDbEntity
  8
ceco.net 431 tecnical area
100
AcDbLine
 10
47.49999999999999
 20
-1.0
 30
0.0
 11
46.59999999999999
 21
-1.0
 31
0.0
  0
LINE
  5
2B9
330
1F
100
AcDbEntity
  8
ceco.net 431 tecnical area
100
AcDbLine
 10
46.4
 20
-1.0
 30
0.0
 11
45.5
 21
-1.0
 31
0.0
  0
LINE
  5
2BA
330
1F
100
AcDbEntity
  8
ceco.net 431 tecnical area
100
AcDbLine
 10
45.3
 20
-1.0
 30
0.0
 11
44.4
 21
-1.0
 31
0.0
  0
LINE
  5
2BB
330
1F
100
AcDbEntity
  8
ceco.net 431 tecnical area
100
AcDbLine
 10
44.2
 20
-1.0
 30
0.0
 11
43.3
 21
-1.0
 31
0.0
  0
LINE
  5
2BC
330
1F
100
AcDbEntity
  8
ceco.net 431 tecnical area
100
AcDbLine
 10
43.1
 20
-1.0
 30
0.0
 11
42.5
 21
-1.0
 31
0.0
  0
LINE
  5
2BD
330
1F
100
AcDbEntity
  8
ceco.net 431 tecnical area
100
AcDbLine
 10
50.49999999999999
 20
-1.6
 30
0.0
 11
50.38
 21
-1.6
 31
0.0
  0
LINE
  5
2BE
330
1F
100
AcDbEntity
  8
ceco.net 431 tecnical area
100
AcDbLine
 10
42.61999999999999
 20
-1.6
 30
0.0
 11
42.5
 21
-1.6
 31
0.0
  0
LINE
  5
2BF
330
1F
100
AcDbEntity
  8
ceco.net 431 tecnical area
100
AcDbLine
 10
50.49999999999999
 20
-1.8
 30
0.0
 11
50.38
 21
-1.799999999999999
 31
0.0
  0
LINE
  5
2C0
330
1F
100
AcDbEntity
  8
ceco.net 431 tecnical area
100
AcDbLine
 10
42.61999999999999
 20
-1.8
 30
0.0
 11
42.5
 21
-1.8
 31
0.0
  0
LINE
  5
2C1
330
1F
100
AcDbEntity
  8
ceco.net 431 tecnical area
100
AcDbLine
 10
50.49999999999999
 20
-2.7
 30
0.0
 11
50.38
 21
-2.7
 31
0.0
  0
LINE
  5
2C2
330
1F
100
AcDbEntity
  8
ceco.net 431 tecnical area
100
AcDbLine
 10
42.61999999999999
 20
-2.7
 30
0.0
 11
42.5
 21
-2.7
 31
0.0
  0
LINE
  5
2C3
330
1F
100
AcDbEntity
  8
ceco.net 431 tecnical area
100
AcDbLine
 10
50.49999999999999
 20
-2.9
 30
0.0
 11
50.38
 21
-2.9
 31
0.0
  0
LINE
  5
2C4
330
1F
100
AcDbEntity
  8
ceco.net 431 tecnical area
100
AcDbLine
 10
42.61999999999999
 20
-2.9
 30
0.0
 11
42.5
 21
-2.9
 31
0.0
  0
LINE
  5
2C5
330
1F
100
AcDbEntity
  8
ceco.net 431 tecnical area
100
AcDbLine
 10
50.49999999999999
 20
-3.8
 30
0.0
 11
50.38
 21
-3.8
 31
0.0
  0
LINE
  5
2C6
330
1F
100
AcDbEntity
  8
ceco.net 431 tecnical area
100
AcDbLine
 10
42.61999999999999
 20
-3.799999999999999
 30
0.0
 11
42.5
 21
-3.8
 31
0.0
  0
LINE
  5
2C7
330
1F
100
AcDbEntity
  8
ceco.net 431 tecnical area
100
AcDbLine
 10
50.49999999999999
 20
-4.0
 30
0.0
 11
50.38
 21
-4.0
 31
0.0
  0
LINE
  5
2C8
330
1F
100
AcDbEntity
  8
ceco.net 431 tecnical area
100
AcDbLine
 10
42.61999999999999
 20
-4.0
 30
0.0
 11
42.5
 21
-4.0
 31
0.0
  0
LINE
  5
2C9
330
1F
100
AcDbEntity
  8
ceco.net 431 tecnical area
100
AcDbLine
 10
50.49999999999999
 20
-4.599999999999999
 30
0.0
 11
49.89999999999999
 21
-4.599999999999999
 31
0.0
  0
LINE
  5
2CA
330
1F
100
AcDbEntity
  8
ceco.net 431 tecnical area
100
AcDbLine
 10
49.69999999999999
 20
-4.599999999999999
 30
0.0
 11
48.79999999999997
 21
-4.599999999999999
 31
0.0
  0
LINE
  5
2CB
330
1F
100
AcDbEntity
  8
ceco.net 431 tecnical area
100
AcDbLine
 10
48.59999999999999
 20
-4.599999999999999
 30
0.0
 11
47.69999999999998
 21
-4.6
 31
0.0
  0
LINE
  5
2CC
330
1F
100
AcDbEntity
  8
ceco.net 431 tecnical area
100
AcDbLine
 10
47.49999999999999
 20
-4.6
 30
0.0
 11
46.59999999999999
 21
-4.599999999999999
 31
0.0
  0
LINE
  5
2CD
330
1F
100
AcDbEntity
  8
ceco.net 431 tecnical area
100
AcDbLine
 10
46.39999999999999
 20
-4.599999999999999
 30
0.0
 11
45.50000000000001
 21
-4.599999999999999
 31
0.0
  0
LINE
  5
2CE
330
1F
100
AcDbEntity
  8
ceco.net 431 tecnical area
100
AcDbLine
 10
45.30000000000001
 20
-4.599999999999999
 30
0.0
 11
44.40000000000001
 21
-4.599999999999998
 31
0.0
  0
LINE
  5
2CF
330
1F
100
AcDbEntity
  8
ceco.net 431 tecnical area
100
AcDbLine
 10
44.2
 20
-4.599999999999998
 30
0.0
 11
43.3
 21
-4.599999999999998
 31
0.0
  0
LINE
  5
2D0
330
1F
100
AcDbEntity
  8
ceco.net 431 tecnical area
100
AcDbLine
 10
43.10000000000001
 20
-4.599999999999998
 30
0.0
 11
42.5
 21
-4.599999999999999
 31
0.0
  0
LINE
  5
2D1
330
1F
100
AcDbEntity
  8
ceco.net 431 tecnical area
100
AcDbLine
 10
50.38
 20
-4.48
 30
0.0
 11
49.89999999999999
 21
-4.479999999999999
 31
0.0
  0
LINE
  5
2D2
330
1F
100
AcDbEntity
  8
ceco.net 431 tecnical area
100
AcDbLine
 10
49.69999999999999
 20
-4.479999999999999
 30
0.0
 11
48.79999999999997
 21
-4.48
 31
0.0
  0
LINE
  5
2D3
330
1F
100
AcDbEntity
  8
ceco.net 431 tecnical area
100
AcDbLine
 10
48.59999999999999
 20
-4.48
 30
0.0
 11
47.69999999999998
 21
-4.479999999999999
 31
0.0
  0
LINE
  5
2D4
330
1F
100
AcDbEntity
  8
ceco.net 431 tecnical area
100
AcDbLine
 10
47.49999999999999
 20
-4.479999999999999
 30
0.0
 11
46.59999999999999
 21
-4.479999999999999
 31
0.0
  0
LINE
  5
2D5
330
1F
100
AcDbEntity
  8
ceco.net 431 tecnical area
100
AcDbLine
 10
46.39999999999999
 20
-4.479999999999999
 30
0.0
 11
45.50000000000001
 21
-4.479999999999999
 31
0.0
  0
LINE
  5
2D6
330
1F
100
AcDbEntity
  8
ceco.net 431 tecnical area
100
AcDbLine
 10
45.30000000000001
 20
-4.479999999999999
 30
0.0
 11
44.40000000000001
 21
-4.48
 31
0.0
  0
LINE
  5
2D7
330
1F
100
AcDbEntity
  8
ceco.net 431 tecnical area
100
AcDbLine
 10
44.2
 20
-4.48
 30
0.0
 11
43.3
 21
-4.48
 31
0.0
  0
LINE
  5
2D8
330
1F
100
AcDbEntity
  8
ceco.net 431 tecnical area
100
AcDbLine
 10
43.1
 20
-4.48
 30
0.0
 11
42.61999999999999
 21
-4.48
 31
0.0
  0
LINE
  5
2D9
330
1F
100
AcDbEntity
  8
ceco.net 431 tecnical area
100
AcDbLine
 10
50.38
 20
-1.12
 30
0.0
 11
49.90000000000001
 21
-1.12
 31
0.0
  0
LINE
  5
2DA
330
1F
100
AcDbEntity
  8
ceco.net 431 tecnical area
100
AcDbLine
 10
49.7
 20
-1.12
 30
0.0
 11
48.79999999999999
 21
-1.12
 31
0.0
  0
LINE
  5
2DB
330
1F
100
AcDbEntity
  8
ceco.net 431 tecnical area
100
AcDbLine
 10
48.59999999999999
 20
-1.12
 30
0.0
 11
47.69999999999999
 21
-1.12
 31
0.0
  0
LINE
  5
2DC
330
1F
100
AcDbEntity
  8
ceco.net 431 tecnical area
100
AcDbLine
 10
47.5
 20
-1.12
 30
0.0
 11
46.59999999999999
 21
-1.12
 31
0.0
  0
LINE
  5
2DD
330
1F
100
AcDbEntity
  8
ceco.net 431 tecnical area
100
AcDbLine
 10
46.40000000000001
 20
-1.12
 30
0.0
 11
45.49999999999999
 21
-1.12
 31
0.0
  0
LINE
  5
2DE
330
1F
100
AcDbEntity
  8
ceco.net 431 tecnical area
100
AcDbLine
 10
45.3
 20
-1.12
 30
0.0
 11
44.4
 21
-1.12
 31
0.0
  0
LINE
  5
2DF
330
1F
100
AcDbEntity
  8
ceco.net 431 tecnical area
100
AcDbLine
 10
44.2
 20
-1.12
 30
0.0
 11
43.3
 21
-1.12
 31
0.0
  0
LINE
  5
2E0
330
1F
100
AcDbEntity
  8
ceco.net 431 tecnical area
100
AcDbLine
 10
43.1
 20
-1.12
 30
0.0
 11
42.61999999999999
 21
-1.12
 31
0.0
  0
LINE
  5
2E1
330
1F
100
AcDbEntity
  8
ceco.net 431 tecnical area
100
AcDbLine
 10
50.5
 20
-1.0
 30
0.0
 11
50.49999999999999
 21
-1.6
 31
0.0
  0
LINE
  5
2E2
330
1F
100
AcDbEntity
  8
ceco.net 431 tecnical area
100
AcDbLine
 10
50.49999999999999
 20
-1.8
 30
0.0
 11
50.49999999999999
 21
-2.7
 31
0.0
  0
LINE
  5
2E3
330
1F
100
AcDbEntity
  8
ceco.net 431 tecnical area
100
AcDbLine
 10
50.49999999999999
 20
-2.9
 30
0.0
 11
50.5
 21
-3.8
 31
0.0
  0
LINE
  5
2E4
330
1F
100
AcDbEntity
  8
ceco.net 431 tecnical area
100
AcDbLine
 10
50.5
 20
-4.0
 30
0.0
 11
50.5
 21
-4.599999999999999
 31
0.0
  0
LINE
  5
2E5
330
1F
100
AcDbEntity
  8
ceco.net 431 tecnical area
100
AcDbLine
 10
49.9
 20
-1.0
 30
0.0
 11
49.9
 21
-1.12
 31
0.0
  0
LINE
  5
2E6
330
1F
100
AcDbEntity
  8
ceco.net 431 tecnical area
100
AcDbLine
 10
49.89999999999999
 20
-4.479999999999999
 30
0.0
 11
49.89999999999998
 21
-4.599999999999999
 31
0.0
  0
LINE
  5
2E7
330
1F
100
AcDbEntity
  8
ceco.net 431 tecnical area
100
AcDbLine
 10
49.69999999999999
 20
-1.0
 30
0.0
 11
49.69999999999999
 21
-1.12
 31
0.0
  0
LINE
  5
2E8
330
1F
100
AcDbEntity
  8
ceco.net 431 tecnical area
100
AcDbLine
 10
49.69999999999999
 20
-4.479999999999999
 30
0.0
 11
49.69999999999999
 21
-4.599999999999999
 31
0.0
  0
LINE
  5
2E9
330
1F
100
AcDbEntity
  8
ceco.net 431 tecnical area
100
AcDbLine
 10
48.79999999999999
 20
-1.0
 30
0.0
 11
48.79999999999999
 21
-1.12
 31
0.0
  0
LINE
  5
2EA
330
1F
100
AcDbEntity
  8
ceco.net 431 tecnical area
100
AcDbLine
 10
48.79999999999999
 20
-4.479999999999999
 30
0.0
 11
48.79999999999999
 21
-4.599999999999999
 31
0.0
  0
LINE
  5
2EB
330
1F
100
AcDbEntity
  8
ceco.net 431 tecnical area
100
AcDbLine
 10
48.59999999999999
 20
-1.0
 30
0.0
 11
48.59999999999999
 21
-1.12
 31
0.0
  0
LINE
  5
2EC
330
1F
100
AcDbEntity
  8
ceco.net 431 tecnical area
100
AcDbLine
 10
48.59999999999999
 20
-4.479999999999999
 30
0.0
 11
48.59999999999999
 21
-4.599999999999999
 31
0.0
  0
LINE
  5
2ED
330
1F
100
AcDbEntity
  8
ceco.net 431 tecnical area
100
AcDbLine
 10
47.69999999999999
 20
-1.0
 30
0.0
 11
47.69999999999999
 21
-1.12
 31
0.0
  0
LINE
  5
2EE
330
1F
100
AcDbEntity
  8
ceco.net 431 tecnical area
100
AcDbLine
 10
47.69999999999998
 20
-4.479999999999999
 30
0.0
 11
47.69999999999998
 21
-4.599999999999999
 31
0.0
  0
LINE
  5
2EF
330
1F
100
AcDbEntity
  8
ceco.net 431 tecnical area
100
AcDbLine
 10
47.49999999999999
 20
-1.0
 30
0.0
 11
47.49999999999999
 21
-1.12
 31
0.0
  0
LINE
  5
2F0
330
1F
100
AcDbEntity
  8
ceco.net 431 tecnical area
100
AcDbLine
 10
47.49999999999999
 20
-4.479999999999999
 30
0.0
 11
47.49999999999999
 21
-4.599999999999999
 31
0.0
  0
LINE
  5
2F1
330
1F
100
AcDbEntity
  8
ceco.net 431 tecnical area
100
AcDbLine
 10
46.59999999999999
 20
-1.0
 30
0.0
 11
46.6
 21
-1.12
 31
0.0
  0
LINE
  5
2F2
330
1F
100
AcDbEntity
  8
ceco.net 431 tecnical area
100
AcDbLine
 10
46.59999999999998
 20
-4.479999999999999
 30
0.0
 11
46.59999999999998
 21
-4.599999999999999
 31
0.0
  0
LINE
  5
2F3
330
1F
100
AcDbEntity
  8
ceco.net 431 tecnical area
100
AcDbLine
 10
50.38
 20
-1.12
 30
0.0
 11
50.38
 21
-1.6
 31
0.0
  0
LINE
  5
2F4
330
1F
100
AcDbEntity
  8
ceco.net 431 tecnical area
100
AcDbLine
 10
50.38
 20
-1.8
 30
0.0
 11
50.38
 21
-2.7
 31
0.0
  0
LINE
  5
2F5
330
1F
100
AcDbEntity
  8
ceco.net 431 tecnical area
100
AcDbLine
 10
50.38
 20
-2.9
 30
0.0
 11
50.38
 21
-3.8
 31
0.0
  0
LINE
  5
2F6
330
1F
100
AcDbEntity
  8
ceco.net 431 tecnical area
100
AcDbLine
 10
50.38
 20
-4.0
 30
0.0
 11
50.38
 21
-4.48
 31
0.0
  0
LINE
  5
2F7
330
1F
100
AcDbEntity
  8
ceco.net 431 tecnical area
100
AcDbLine
 10
42.5
 20
-1.0
 30
0.0
 11
42.5
 21
-1.6
 31
0.0
  0
LINE
  5
2F8
330
1F
100
AcDbEntity
  8
ceco.net 431 tecnical area
100
AcDbLine
 10
42.5
 20
-1.8
 30
0.0
 11
42.49999999999999
 21
-2.7
 31
0.0
  0
LINE
  5
2F9
330
1F
100
AcDbEntity
  8
ceco.net 431 tecnical area
100
AcDbLine
 10
42.49999999999999
 20
-2.9
 30
0.0
 11
42.49999999999999
 21
-3.8
 31
0.0
  0
LINE
  5
2FA
330
1F
100
AcDbEntity
  8
ceco.net 431 tecnical area
100
AcDbLine
 10
42.49999999999999
 20
-4.0
 30
0.0
 11
42.5
 21
-4.599999999999999
 31
0.0
  0
LINE
  5
2FB
330
1F
100
AcDbEntity
  8
ceco.net 431 tecnical area
100
AcDbLine
 10
43.1
 20
-1.0
 30
0.0
 11
43.1
 21
-1.12
 31
0.0
  0
LINE
  5
2FC
330
1F
100
AcDbEntity
  8
ceco.net 431 tecnical area
100
AcDbLine
 10
43.10000000000001
 20
-4.479999999999999
 30
0.0
 11
43.10000000000001
 21
-4.599999999999999
 31
0.0
  0
LINE
  5
2FD
330
1F
100
AcDbEntity
  8
ceco.net 431 tecnical area
100
AcDbLine
 10
43.3
 20
-1.0
 30
0.0
 11
43.3
 21
-1.12
 31
0.0
  0
LINE
  5
2FE
330
1F
100
AcDbEntity
  8
ceco.net 431 tecnical area
100
AcDbLine
 10
43.3
 20
-4.479999999999999
 30
0.0
 11
43.3
 21
-4.599999999999999
 31
0.0
  0
LINE
  5
2FF
330
1F
100
AcDbEntity
  8
ceco.net 431 tecnical area
100
AcDbLine
 10
44.2
 20
-1.0
 30
0.0
 11
44.20000000000001
 21
-1.12
 31
0.0
  0
LINE
  5
300
330
1F
100
AcDbEntity
  8
ceco.net 431 tecnical area
100
AcDbLine
 10
44.20000000000001
 20
-4.479999999999999
 30
0.0
 11
44.2
 21
-4.599999999999999
 31
0.0
  0
LINE
  5
301
330
1F
100
AcDbEntity
  8
ceco.net 431 tecnical area
100
AcDbLine
 10
44.4
 20
-1.0
 30
0.0
 11
44.4
 21
-1.12
 31
0.0
  0
LINE
  5
302
330
1F
100
AcDbEntity
  8
ceco.net 431 tecnical area
100
AcDbLine
 10
44.40000000000001
 20
-4.479999999999999
 30
0.0
 11
44.40000000000001
 21
-4.599999999999999
 31
0.0
  0
LINE
  5
303
330
1F
100
AcDbEntity
  8
ceco.net 431 tecnical area
100
AcDbLine
 10
45.3
 20
-1.0
 30
0.0
 11
45.3
 21
-1.12
 31
0.0
  0
LINE
  5
304
330
1F
100
AcDbEntity
  8
ceco.net 431 tecnical area
100
AcDbLine
 10
45.30000000000001
 20
-4.479999999999999
 30
0.0
 11
45.3
 21
-4.599999999999999
 31
0.0
  0
LINE
  5
305
330
1F
100
AcDbEntity
  8
ceco.net 431 tecnical area
100
AcDbLine
 10
45.5
 20
-1.0
 30
0.0
 11
45.50000000000001
 21
-1.12
 31
0.0
  0
LINE
  5
306
330
1F
100
AcDbEntity
  8
ceco.net 431 tecnical area
100
AcDbLine
 10
45.50000000000001
 20
-4.479999999999999
 30
0.0
 11
45.50000000000001
 21
-4.599999999999999
 31
0.0
  0
LINE
  5
307
330
1F
100
AcDbEntity
  8
ceco.net 431 tecnical area
100
AcDbLine
 10
46.4
 20
-1.0
 30
0.0
 11
46.40000000000001
 21
-1.12
 31
0.0
  0
LINE
  5
308
330
1F
100
AcDbEntity
  8
ceco.net 431 tecnical area
100
AcDbLine
 10
46.4
 20
-4.479999999999999
 30
0.0
 11
46.39999999999999
 21
-4.599999999999999
 31
0.0
  0
LINE
  5
309
330
1F
100
AcDbEntity
  8
ceco.net 431 tecnical area
100
AcDbLine
 10
42.61999999999999
 20
-1.12
 30
0.0
 11
42.61999999999999
 21
-1.6
 31
0.0
  0
LINE
  5
30A
330
1F
100
AcDbEntity
  8
ceco.net 431 tecnical area
100
AcDbLine
 10
42.61999999999999
 20
-1.8
 30
0.0
 11
42.61999999999998
 21
-2.7
 31
0.0
  0
LINE
  5
30B
330
1F
100
AcDbEntity
  8
ceco.net 431 tecnical area
100
AcDbLine
 10
42.61999999999998
 20
-2.9
 30
0.0
 11
42.61999999999999
 21
-3.8
 31
0.0
  0
LINE
  5
30C
330
1F
100
AcDbEntity
  8
ceco.net 431 tecnical area
100
AcDbLine
 10
42.61999999999999
 20
-4.0
 30
0.0
 11
42.62
 21
-4.48
 31
0.0
  0
LINE
  5
30D
330
1F
100
AcDbEntity
  8
ceco.net 431 FIFA futbol soccer field
100
AcDbLine
 10
52.56
 20
33.70606123086602
 30
0.0
 11
52.56
 21
0.12
 31
0.0
  0
LINE
  5
30E
330
1F
100
AcDbEntity
  8
ceco.net 431 FIFA futbol soccer field
100
AcDbLine
 10
52.44
 20
33.70606123086602
 30
0.0
 11
52.44
 21
0.12
 31
0.0
  0
ARC
  5
30F
330
1F
100
AcDbEntity
  8
ceco.net 431 FIFA futbol soccer field
100
AcDbCircle
 10
52.5
 20
34.0
 30
0.0
 40
0.3
100
AcDbArc
 50
281.5369590328172
 51
78.46304096718404
  0
VIEWPORT
  5
91
330
8A
100
AcDbEntity
 67
     1
  8
0
100
AcDbViewport
 10
143.4359283447265
 20
99.95958042144776
 30
0.0
 40
501.404998163417
 41
222.1517806396484
 68
     1
 69
     1
 12
143.4359283447265
 22
99.95958042144776
 13
0.0
 23
0.0
 14
10.0
 24
10.0
 15
10.0
 25
10.0
 16
0.0
 26
0.0
 36
1.0
 17
0.0
 27
0.0
 37
0.0
 42
50.0
 43
0.0
 44
0.0
 45
222.1517806396484
 50
0.0
 51
0.0
 72
   100
 90
    32800
  1

281
     0
 71
     1
 74
     0
110
0.0
120
0.0
130
0.0
111
1.0
121
0.0
131
0.0
112
0.0
122
1.0
132
0.0
 79
     0
146
0.0
  0
VIEWPORT
  5
93
330
8A
100
AcDbEntity
 67
     1
  8
0
100
AcDbViewport
 10
143.4359202384948
 20
99.95957994461059
 30
0.0
 40
229.4974723815918
 41
159.9353279113769
 68
     2
 69
     2
 12
148.5
 22
105.0
 13
0.0
 23
0.0
 14
10.0
 24
10.0
 15
10.0
 25
10.0
 16
0.0
 26
0.0
 36
1.0
 17
0.0
 27
0.0
 37
0.0
 42
50.0
 43
0.0
 44
0.0
 45
212.1428571428571
 50
0.0
 51
0.0
 72
   100
 90
    33376
  1

281
     0
 71
     1
 74
     0
110
0.0
120
0.0
130
0.0
111
1.0
121
0.0
131
0.0
112
0.0
122
1.0
132
0.0
 79
     0
146
0.0
  0
ENDSEC
  0
SECTION
  2
OBJECTS
  0
DICTIONARY
  5
C
330
0
100
AcDbDictionary
281
     1
  3
ACAD_GROUP
350
D
  3
ACAD_LAYOUT
350
1A
  3
ACAD_MLINESTYLE
350
17
  3
ACAD_PLOTSETTINGS
350
19
  3
ACAD_PLOTSTYLENAME
350
E
  3
AcDbVariableDictionary
350
5E
  0
DICTIONARY
  5
9D
330
9C
100
AcDbDictionary
280
     1
281
     1
  3
ACAD_XREC_ROUNDTRIP
360
9E
  0
DICTIONARY
  5
A0
330
9F
100
AcDbDictionary
280
     1
281
     1
  3
ACAD_XREC_ROUNDTRIP
360
A1
  0
DICTIONARY
  5
A3
330
A2
100
AcDbDictionary
280
     1
281
     1
  3
ACAD_XREC_ROUNDTRIP
360
A4
  0
DICTIONARY
  5
D
102
{ACAD_REACTORS
330
C
102
}
330
C
100
AcDbDictionary
281
     1
  0
DICTIONARY
  5
1A
102
{ACAD_REACTORS
330
C
102
}
330
C
100
AcDbDictionary
281
     1
  3
Model
350
22
  3
www.ceco.net
350
8B
  0
DICTIONARY
  5
17
102
{ACAD_REACTORS
330
C
102
}
330
C
100
AcDbDictionary
281
     1
  3
Standard
350
18
  0
DICTIONARY
  5
19
102
{ACAD_REACTORS
330
C
102
}
330
C
100
AcDbDictionary
281
     1
  0
ACDBDICTIONARYWDFLT
  5
E
102
{ACAD_REACTORS
330
C
102
}
330
C
100
AcDbDictionary
281
     1
  3
Normal
350
F
100
AcDbDictionaryWithDefault
340
F
  0
DICTIONARY
  5
5E
102
{ACAD_REACTORS
330
C
102
}
330
C
100
AcDbDictionary
281
     1
  3
DIMASSOC
350
5F
  3
HIDETEXT
350
63
  0
XRECORD
  5
9E
102
{ACAD_REACTORS
330
9D
102
}
330
9D
100
AcDbXrecord
280
     1
102
MATERIAL
340
0
  0
XRECORD
  5
A1
102
{ACAD_REACTORS
330
A0
102
}
330
A0
100
AcDbXrecord
280
     1
102
MATERIAL
340
0
  0
XRECORD
  5
A4
102
{ACAD_REACTORS
330
A3
102
}
330
A3
100
AcDbXrecord
280
     1
102
MATERIAL
340
0
  0
LAYOUT
  5
22
102
{ACAD_REACTORS
330
1A
102
}
330
1A
100
AcDbPlotSettings
  1

  2
none_device
  4
ANSI_A_(8.50_x_11.00_Inches)
  6

 40
6.349999904632568
 41
19.04999923706054
 42
6.350006103515625
 43
19.04998779296875
 44
215.8999938964843
 45
279.3999938964843
 46
0.0
 47
0.0
 48
0.0
 49
0.0
140
0.0
141
0.0
142
1.0
143
78.436453180766
 70
 11952
 72
     0
 73
     1
 74
     0
  7

 75
     0
147
0.0127491741332998
148
0.0
149
0.0
100
AcDbLayout
  1
Model
 70
     1
 71
     0
 10
0.0
 20
0.0
 11
12.0
 21
9.0
 12
0.0
 22
0.0
 32
0.0
 14
0.0
 24
0.0
 34
0.0
 15
0.0
 25
0.0
 35
0.0
146
0.0
 13
0.0
 23
0.0
 33
0.0
 16
1.0
 26
0.0
 36
0.0
 17
0.0
 27
1.0
 37
0.0
 76
     0
330
1F
  0
LAYOUT
  5
8B
102
{ACAD_REACTORS
330
1A
102
}
330
1A
100
AcDbPlotSettings
  1

  2
Brother HL-L2360D series Printer
  4
A4
  6

 40
5.027083396911621
 41
5.027085304260253
 42
5.027084350585937
 43
5.027069091796875
 44
209.9733276367187
 45
296.9259948730469
 46
0.0
 47
0.0
 48
0.0
 49
0.0
140
0.0
141
0.0
142
1.0
143
1.0
 70
   688
 72
     1
 73
     1
 74
     5
  7

 75
    16
147
1.0
148
0.0
149
0.0
100
AcDbLayout
  1
www.ceco.net
 70
     1
 71
     1
 10
-5.027069091796875
 20
-5.027083396911621
 11
291.89892578125
 21
204.9462442398071
 12
0.0
 22
0.0
 32
0.0
 14
28.68718404769896
 24
19.99191598892213
 34
0.0
 15
258.1846564292908
 25
179.927243900299
 35
0.0
146
0.0
 13
0.0
 23
0.0
 33
0.0
 16
1.0
 26
0.0
 36
0.0
 17
0.0
 27
1.0
 37
0.0
 76
     0
330
8A
331
91
  0
MLINESTYLE
  5
18
102
{ACAD_REACTORS
330
17
102
}
330
17
100
AcDbMlineStyle
  2
STANDARD
 70
     0
  3

 62
   256
 51
90.0
 52
90.0
 71
     2
 49
0.5
 62
   256
  6
BYLAYER
 49
-0.5
 62
   256
  6
BYLAYER
  0
ACDBPLACEHOLDER
  5
F
102
{ACAD_REACTORS
330
E
102
}
330
E
  0
DICTIONARYVAR
  5
5F
102
{ACAD_REACTORS
330
5E
102
}
330
5E
100
DictionaryVariables
280
     0
  1
2
  0
DICTIONARYVAR
  5
63
102
{ACAD_REACTORS
330
5E
102
}
330
5E
100
DictionaryVariables
280
     0
  1
1
  0
ENDSEC
  0
EOF
