  0
SECTION
  2
HEADER
  9
$ACADVER
  1
AC1015
  9
$ACADMAINTVER
 70
    13
  9
$DWGCODEPAGE
  3
ANSI_1252
  9
$INSBASE
 10
0.0
 20
0.0
 30
0.0
  9
$EXTMIN
 10
-33.92605634647088
 20
-15.2444783306604
 30
-0.0000000349181948
  9
$EXTMAX
 10
138.9292187219344
 20
83.24167926649034
 30
0.0000000814935746
  9
$LIMMIN
 10
0.0
 20
0.0
  9
$LIMMAX
 10
420.0
 20
297.0
  9
$ORTHOMODE
 70
     0
  9
$REGENMODE
 70
     1
  9
$FILLMODE
 70
     1
  9
$QTEXTMODE
 70
     0
  9
$MIRRTEXT
 70
     1
  9
$LTSCALE
 40
1.0
  9
$ATTMODE
 70
     1
  9
$TEXTSIZE
 40
2.5
  9
$TRACEWID
 40
1.0
  9
$TEXTSTYLE
  7
Standard
  9
$CLAYER
  8
472 running track
  9
$CELTYPE
  6
ByLayer
  9
$CECOLOR
 62
   256
  9
$CELTSCALE
 40
1.0
  9
$DISPSILH
 70
     0
  9
$DIMSCALE
 40
1.0
  9
$DIMASZ
 40
2.5
  9
$DIMEXO
 40
0.625
  9
$DIMDLI
 40
3.75
  9
$DIMRND
 40
0.0
  9
$DIMDLE
 40
0.0
  9
$DIMEXE
 40
1.25
  9
$DIMTP
 40
0.0
  9
$DIMTM
 40
0.0
  9
$DIMTXT
 40
2.5
  9
$DIMCEN
 40
2.5
  9
$DIMTSZ
 40
0.0
  9
$DIMTOL
 70
     0
  9
$DIMLIM
 70
     0
  9
$DIMTIH
 70
     0
  9
$DIMTOH
 70
     0
  9
$DIMSE1
 70
     0
  9
$DIMSE2
 70
     0
  9
$DIMTAD
 70
     1
  9
$DIMZIN
 70
     8
  9
$DIMBLK
  1

  9
$DIMASO
 70
     1
  9
$DIMSHO
 70
     1
  9
$DIMPOST
  1

  9
$DIMAPOST
  1

  9
$DIMALT
 70
     0
  9
$DIMALTD
 70
     3
  9
$DIMALTF
 40
0.03937007874016
  9
$DIMLFAC
 40
1.0
  9
$DIMTOFL
 70
     1
  9
$DIMTVP
 40
0.0
  9
$DIMTIX
 70
     0
  9
$DIMSOXD
 70
     0
  9
$DIMSAH
 70
     0
  9
$DIMBLK1
  1

  9
$DIMBLK2
  1

  9
$DIMSTYLE
  2
ISO-25
  9
$DIMCLRD
 70
     0
  9
$DIMCLRE
 70
     0
  9
$DIMCLRT
 70
     0
  9
$DIMTFAC
 40
1.0
  9
$DIMGAP
 40
0.625
  9
$DIMJUST
 70
     0
  9
$DIMSD1
 70
     0
  9
$DIMSD2
 70
     0
  9
$DIMTOLJ
 70
     0
  9
$DIMTZIN
 70
     8
  9
$DIMALTZ
 70
     0
  9
$DIMALTTZ
 70
     0
  9
$DIMUPT
 70
     0
  9
$DIMDEC
 70
     2
  9
$DIMTDEC
 70
     2
  9
$DIMALTU
 70
     2
  9
$DIMALTTD
 70
     3
  9
$DIMTXSTY
  7
Standard
  9
$DIMAUNIT
 70
     0
  9
$DIMADEC
 70
     0
  9
$DIMALTRND
 40
0.0
  9
$DIMAZIN
 70
     0
  9
$DIMDSEP
 70
    44
  9
$DIMATFIT
 70
     3
  9
$DIMFRAC
 70
     0
  9
$DIMLDRBLK
  1

  9
$DIMLUNIT
 70
     2
  9
$DIMLWD
 70
    -2
  9
$DIMLWE
 70
    -2
  9
$DIMTMOVE
 70
     0
  9
$LUNITS
 70
     2
  9
$LUPREC
 70
     4
  9
$SKETCHINC
 40
1.0
  9
$FILLETRAD
 40
10.0
  9
$AUNITS
 70
     0
  9
$AUPREC
 70
     0
  9
$MENU
  1
.
  9
$ELEVATION
 40
0.0
  9
$PELEVATION
 40
0.0
  9
$THICKNESS
 40
0.0
  9
$LIMCHECK
 70
     0
  9
$CHAMFERA
 40
10.0
  9
$CHAMFERB
 40
10.0
  9
$CHAMFERC
 40
20.0
  9
$CHAMFERD
 40
0.0
  9
$SKPOLY
 70
     0
  9
$TDCREATE
 40
2457858.695660799
  9
$TDUCREATE
 40
2457858.820660799
  9
$TDUPDATE
 40
2458695.033436898
  9
$TDUUPDATE
 40
2458695.158436898
  9
$TDINDWG
 40
0.0080153704
  9
$TDUSRTIMER
 40
0.0080153588
  9
$USRTIMER
 70
     1
  9
$ANGBASE
 50
0.0
  9
$ANGDIR
 70
     0
  9
$PDMODE
 70
     0
  9
$PDSIZE
 40
0.0
  9
$PLINEWID
 40
0.0
  9
$SPLFRAME
 70
     0
  9
$SPLINETYPE
 70
     6
  9
$SPLINESEGS
 70
     8
  9
$HANDSEED
  5
12E
  9
$SURFTAB1
 70
     6
  9
$SURFTAB2
 70
     6
  9
$SURFTYPE
 70
     6
  9
$SURFU
 70
     6
  9
$SURFV
 70
     6
  9
$UCSBASE
  2

  9
$UCSNAME
  2

  9
$UCSORG
 10
0.0
 20
0.0
 30
0.0
  9
$UCSXDIR
 10
1.0
 20
0.0
 30
0.0
  9
$UCSYDIR
 10
0.0
 20
1.0
 30
0.0
  9
$UCSORTHOREF
  2

  9
$UCSORTHOVIEW
 70
     0
  9
$UCSORGTOP
 10
0.0
 20
0.0
 30
0.0
  9
$UCSORGBOTTOM
 10
0.0
 20
0.0
 30
0.0
  9
$UCSORGLEFT
 10
0.0
 20
0.0
 30
0.0
  9
$UCSORGRIGHT
 10
0.0
 20
0.0
 30
0.0
  9
$UCSORGFRONT
 10
0.0
 20
0.0
 30
0.0
  9
$UCSORGBACK
 10
0.0
 20
0.0
 30
0.0
  9
$PUCSBASE
  2

  9
$PUCSNAME
  2

  9
$PUCSORG
 10
0.0
 20
0.0
 30
0.0
  9
$PUCSXDIR
 10
1.0
 20
0.0
 30
0.0
  9
$PUCSYDIR
 10
0.0
 20
1.0
 30
0.0
  9
$PUCSORTHOREF
  2

  9
$PUCSORTHOVIEW
 70
     0
  9
$PUCSORGTOP
 10
0.0
 20
0.0
 30
0.0
  9
$PUCSORGBOTTOM
 10
0.0
 20
0.0
 30
0.0
  9
$PUCSORGLEFT
 10
0.0
 20
0.0
 30
0.0
  9
$PUCSORGRIGHT
 10
0.0
 20
0.0
 30
0.0
  9
$PUCSORGFRONT
 10
0.0
 20
0.0
 30
0.0
  9
$PUCSORGBACK
 10
0.0
 20
0.0
 30
0.0
  9
$USERI1
 70
     0
  9
$USERI2
 70
     0
  9
$USERI3
 70
     0
  9
$USERI4
 70
     0
  9
$USERI5
 70
     0
  9
$USERR1
 40
0.0
  9
$USERR2
 40
0.0
  9
$USERR3
 40
0.0
  9
$USERR4
 40
0.0
  9
$USERR5
 40
0.0
  9
$WORLDVIEW
 70
     1
  9
$SHADEDGE
 70
     3
  9
$SHADEDIF
 70
    70
  9
$TILEMODE
 70
     1
  9
$MAXACTVP
 70
    64
  9
$PINSBASE
 10
0.0
 20
0.0
 30
0.0
  9
$PLIMCHECK
 70
     0
  9
$PEXTMIN
 10
26.66999878883362
 20
20.31999878883362
 30
0.0
  9
$PEXTMAX
 10
240.0299890995025
 20
182.8799890995025
 30
0.0
  9
$PLIMMIN
 10
-6.350006103515625
 20
-6.349999904632568
  9
$PLIMMAX
 10
273.0499877929687
 20
209.5499939918517
  9
$UNITMODE
 70
     0
  9
$VISRETAIN
 70
     1
  9
$PLINEGEN
 70
     0
  9
$PSLTSCALE
 70
     1
  9
$TREEDEPTH
 70
  3020
  9
$CMLSTYLE
  2
Standard
  9
$CMLJUST
 70
     0
  9
$CMLSCALE
 40
20.0
  9
$PROXYGRAPHICS
 70
     1
  9
$MEASUREMENT
 70
     1
  9
$CELWEIGHT
370
    -1
  9
$ENDCAPS
280
     0
  9
$JOINSTYLE
280
     0
  9
$LWDISPLAY
290
     0
  9
$INSUNITS
 70
     6
  9
$HYPERLINKBASE
  1

  9
$STYLESHEET
  1

  9
$XEDIT
290
     1
  9
$CEPSNTYPE
380
     0
  9
$PSTYLEMODE
290
     1
  9
$FINGERPRINTGUID
  2
{FDEAD578-A652-11D2-9A35-0060089B3A3F}
  9
$VERSIONGUID
  2
{70512DDA-08D6-43AB-8C21-17EFF9B8459C}
  9
$EXTNAMES
290
     1
  9
$PSVPSCALE
 40
0.0
  9
$OLESTARTUP
290
     0
  0
ENDSEC
  0
SECTION
  2
CLASSES
  0
CLASS
  1
ACDBDICTIONARYWDFLT
  2
AcDbDictionaryWithDefault
  3
AutoCAD 2000
 90
        0
280
     0
281
     0
  0
CLASS
  1
ACDBPLACEHOLDER
  2
AcDbPlaceHolder
  3
AutoCAD 2000
 90
        0
280
     0
281
     0
  0
CLASS
  1
LAYOUT
  2
AcDbLayout
  3
AutoCAD 2000
 90
        0
280
     0
281
     0
  0
CLASS
  1
DICTIONARYVAR
  2
AcDbDictionaryVar
  3
AutoCAD 2000
 90
        0
280
     0
281
     0
  0
ENDSEC
  0
SECTION
  2
TABLES
  0
TABLE
  2
VPORT
  5
8
330
0
100
AcDbSymbolTable
 70
     4
  0
VPORT
  5
12D
330
8
100
AcDbSymbolTableRecord
100
AcDbViewportTableRecord
  2
*Active
 70
     0
 10
0.0
 20
0.0
 11
1.0
 21
1.0
 12
52.49038775741405
 22
33.99121912509576
 13
0.0
 23
0.0
 14
10.0
 24
10.0
 15
10.0
 25
10.0
 16
0.0
 26
0.0
 36
1.0
 17
0.0
 27
0.0
 37
0.0
 40
99.20022136683357
 41
2.187425860023724
 42
50.0
 43
0.0
 44
0.0
 50
0.0
 51
0.0
 71
     0
 72
   100
 73
     1
 74
     3
 75
     0
 76
     0
 77
     0
 78
     0
281
     0
 65
     1
110
0.0
120
0.0
130
0.0
111
1.0
121
0.0
131
0.0
112
0.0
122
1.0
132
0.0
 79
     0
146
0.0
  0
ENDTAB
  0
TABLE
  2
LTYPE
  5
5
330
0
100
AcDbSymbolTable
 70
     1
  0
LTYPE
  5
14
330
5
100
AcDbSymbolTableRecord
100
AcDbLinetypeTableRecord
  2
ByBlock
 70
     0
  3

 72
    65
 73
     0
 40
0.0
  0
LTYPE
  5
15
330
5
100
AcDbSymbolTableRecord
100
AcDbLinetypeTableRecord
  2
ByLayer
 70
     0
  3

 72
    65
 73
     0
 40
0.0
  0
LTYPE
  5
16
330
5
100
AcDbSymbolTableRecord
100
AcDbLinetypeTableRecord
  2
Continuous
 70
     0
  3
Solid line
 72
    65
 73
     0
 40
0.0
  0
ENDTAB
  0
TABLE
  2
LAYER
  5
2
330
0
100
AcDbSymbolTable
 70
     4
  0
LAYER
  5
10
330
2
100
AcDbSymbolTableRecord
100
AcDbLayerTableRecord
  2
0
 70
     0
 62
     7
  6
Continuous
370
    -3
390
F
  0
LAYER
  5
88
102
{ACAD_XDICTIONARY
360
89
102
}
330
2
100
AcDbSymbolTableRecord
100
AcDbLayerTableRecord
  2
472 soccer field
 70
     0
 62
    94
  6
Continuous
370
    -3
390
F
1001
AcAecLayerStandard
1000

1000

  0
LAYER
  5
8B
102
{ACAD_XDICTIONARY
360
8C
102
}
330
2
100
AcDbSymbolTableRecord
100
AcDbLayerTableRecord
  2
472 running track
 70
     0
 62
    30
  6
Continuous
370
    -3
390
F
1001
AcAecLayerStandard
1000

1000

  0
LAYER
  5
8E
102
{ACAD_XDICTIONARY
360
8F
102
}
330
2
100
AcDbSymbolTableRecord
100
AcDbLayerTableRecord
  2
472 soccer arch
 70
     0
 62
     7
  6
Continuous
370
    -3
390
F
1001
AcAecLayerStandard
1000

1000

  0
ENDTAB
  0
TABLE
  2
STYLE
  5
3
330
0
100
AcDbSymbolTable
 70
     1
  0
STYLE
  5
11
330
3
100
AcDbSymbolTableRecord
100
AcDbTextStyleTableRecord
  2
Standard
 70
     0
 40
0.0
 41
1.0
 50
0.0
 71
     0
 42
2.5
  3
txt
  4

  0
ENDTAB
  0
TABLE
  2
VIEW
  5
6
330
0
100
AcDbSymbolTable
 70
     0
  0
ENDTAB
  0
TABLE
  2
UCS
  5
7
330
0
100
AcDbSymbolTable
 70
     0
  0
ENDTAB
  0
TABLE
  2
APPID
  5
9
330
0
100
AcDbSymbolTable
 70
     4
  0
APPID
  5
12
330
9
100
AcDbSymbolTableRecord
100
AcDbRegAppTableRecord
  2
ACAD
 70
     0
  0
APPID
  5
92
330
9
100
AcDbSymbolTableRecord
100
AcDbRegAppTableRecord
  2
ACAD_MLEADERVER
 70
     0
  0
APPID
  5
93
330
9
100
AcDbSymbolTableRecord
100
AcDbRegAppTableRecord
  2
AcAecLayerStandard
 70
     0
  0
APPID
  5
94
330
9
100
AcDbSymbolTableRecord
100
AcDbRegAppTableRecord
  2
ACAD_EXEMPT_FROM_CAD_STANDARDS
 70
     0
  0
ENDTAB
  0
TABLE
  2
DIMSTYLE
  5
A
330
0
100
AcDbSymbolTable
 70
     2
100
AcDbDimStyleTable
 71
     0
  0
DIMSTYLE
105
27
330
A
100
AcDbSymbolTableRecord
100
AcDbDimStyleTableRecord
  2
ISO-25
 70
     0
 41
2.5
 42
0.625
 43
3.75
 44
1.25
 73
     0
 74
     0
 77
     1
 78
     8
140
2.5
141
2.5
143
0.03937007874016
147
0.625
171
     3
172
     1
271
     2
272
     2
274
     3
278
    44
283
     0
284
     8
340
11
  0
DIMSTYLE
105
91
330
A
100
AcDbSymbolTableRecord
100
AcDbDimStyleTableRecord
  2
STANDARD
 70
     0
 41
2.5
 42
0.625
 43
3.75
 44
1.25
 73
     0
 74
     0
 77
     1
 78
     8
140
2.5
141
2.5
143
0.0394
147
0.625
171
     4
172
     1
273
     8
274
     4
277
     6
340
11
  0
ENDTAB
  0
TABLE
  2
BLOCK_RECORD
  5
1
330
0
100
AcDbSymbolTable
 70
     1
  0
BLOCK_RECORD
  5
1F
330
1
100
AcDbSymbolTableRecord
100
AcDbBlockTableRecord
  2
*Model_Space
340
22
  0
BLOCK_RECORD
  5
55
330
1
100
AcDbSymbolTableRecord
100
AcDbBlockTableRecord
  2
*Paper_Space
340
56
  0
ENDTAB
  0
ENDSEC
  0
SECTION
  2
BLOCKS
  0
BLOCK
  5
20
330
1F
100
AcDbEntity
  8
0
100
AcDbBlockBegin
  2
*Model_Space
 70
     0
 10
0.0
 20
0.0
 30
0.0
  3
*Model_Space
  1

  0
ENDBLK
  5
21
330
1F
100
AcDbEntity
  8
0
100
AcDbBlockEnd
  0
BLOCK
  5
57
330
55
100
AcDbEntity
 67
     1
  8
0
100
AcDbBlockBegin
  2
*Paper_Space
 70
     0
 10
0.0
 20
0.0
 30
0.0
  3
*Paper_Space
  1

  0
ENDBLK
  5
58
330
55
100
AcDbEntity
 67
     1
  8
0
100
AcDbBlockEnd
  0
ENDSEC
  0
SECTION
  2
ENTITIES
  0
LINE
  5
E2
330
1F
100
AcDbEntity
  8
472 soccer field
100
AcDbLine
 10
0.0
 20
0.0
 30
0.0
 11
105.0
 21
0.0
 31
0.0
  0
LINE
  5
E3
102
{ACAD_REACTORS
330
129
102
}
330
1F
100
AcDbEntity
  8
472 soccer field
100
AcDbLine
 10
105.0
 20
0.0
 30
0.0
 11
105.0
 21
68.0
 31
0.0
  0
LINE
  5
E4
330
1F
100
AcDbEntity
  8
472 soccer field
100
AcDbLine
 10
105.0
 20
68.0
 30
0.0
 11
0.0
 21
68.0
 31
0.0
  0
LINE
  5
E5
102
{ACAD_REACTORS
330
128
102
}
330
1F
100
AcDbEntity
  8
472 soccer field
100
AcDbLine
 10
0.0
 20
68.0
 30
0.0
 11
0.0
 21
0.0
 31
0.0
  0
LINE
  5
E6
330
1F
100
AcDbEntity
  8
472 soccer field
100
AcDbLine
 10
52.5
 20
0.0
 30
0.0
 11
52.5
 21
68.0
 31
0.0
  0
CIRCLE
  5
E7
330
1F
100
AcDbEntity
  8
472 soccer field
100
AcDbCircle
 10
52.5
 20
34.0
 30
0.0
 40
9.15
  0
LINE
  5
E8
330
1F
100
AcDbEntity
  8
472 soccer field
100
AcDbLine
 10
0.0
 20
13.84
 30
0.0
 11
16.49999999999999
 21
13.84000000000001
 31
0.0
  0
LINE
  5
E9
330
1F
100
AcDbEntity
  8
472 soccer field
100
AcDbLine
 10
16.5
 20
54.15999999999998
 30
0.0
 11
0.0
 21
54.16
 31
0.0
  0
LINE
  5
EA
330
1F
100
AcDbEntity
  8
472 soccer field
100
AcDbLine
 10
16.5
 20
54.15999999999998
 30
0.0
 11
16.49999999999999
 21
13.84000000000001
 31
0.0
  0
LINE
  5
EB
330
1F
100
AcDbEntity
  8
472 soccer field
100
AcDbLine
 10
-0.0000000000000071
 20
24.84
 30
0.0
 11
5.5
 21
24.84000000000001
 31
0.0
  0
LINE
  5
EC
330
1F
100
AcDbEntity
  8
472 soccer field
100
AcDbLine
 10
5.5
 20
43.15999999999998
 30
0.0
 11
-0.0000000000000071
 21
43.15999999999999
 31
0.0
  0
LINE
  5
ED
330
1F
100
AcDbEntity
  8
472 soccer field
100
AcDbLine
 10
5.5
 20
43.15999999999998
 30
0.0
 11
5.5
 21
24.84000000000001
 31
0.0
  0
LINE
  5
EE
102
{ACAD_REACTORS
330
128
102
}
330
1F
100
AcDbEntity
  8
472 soccer arch
100
AcDbLine
 10
-1.799999999999997
 20
30.34
 30
0.0
 11
0.0
 21
30.34
 31
0.0
  0
LINE
  5
EF
102
{ACAD_REACTORS
330
128
102
}
330
1F
100
AcDbEntity
  8
472 soccer arch
100
AcDbLine
 10
0.0
 20
37.66
 30
0.0
 11
-1.799999999999997
 21
37.66
 31
0.0
  0
LINE
  5
F0
102
{ACAD_REACTORS
330
127
330
128
102
}
330
1F
100
AcDbEntity
  8
472 soccer arch
100
AcDbLine
 10
-1.799999999999997
 20
37.66
 30
0.0
 11
-1.799999999999997
 21
30.34
 31
0.0
1001
ACAD
1000
ASC_BOUNDS
1002
{
1070
    19
1005
0
1002
}
  0
ARC
  5
F1
330
1F
100
AcDbEntity
  8
472 soccer field
100
AcDbCircle
 10
11.0
 20
34.0
 30
0.0
 40
9.15
100
AcDbArc
 50
306.9482107330498
 51
53.05178926695013
  0
CIRCLE
  5
F2
330
1F
100
AcDbEntity
  8
472 soccer field
100
AcDbCircle
 10
10.99999999999999
 20
34.0
 30
0.0
 40
0.620368328210823
  0
LINE
  5
F3
330
1F
100
AcDbEntity
  8
472 soccer field
100
AcDbLine
 10
88.49999999999999
 20
54.15999999999998
 30
0.0
 11
88.49999999999999
 21
13.84000000000001
 31
0.0
  0
LINE
  5
F4
330
1F
100
AcDbEntity
  8
472 soccer field
100
AcDbLine
 10
88.49999999999999
 20
54.15999999999998
 30
0.0
 11
105.0
 21
54.16
 31
0.0
  0
CIRCLE
  5
F5
330
1F
100
AcDbEntity
  8
472 soccer field
100
AcDbCircle
 10
94.0
 20
34.0
 30
0.0
 40
0.620368328210823
  0
LINE
  5
F6
330
1F
100
AcDbEntity
  8
472 soccer field
100
AcDbLine
 10
99.50000000000001
 20
43.15999999999998
 30
0.0
 11
99.50000000000001
 21
24.84000000000001
 31
0.0
  0
ARC
  5
F7
330
1F
100
AcDbEntity
  8
472 soccer field
100
AcDbCircle
 10
94.0
 20
34.0
 30
0.0
 40
9.15
100
AcDbArc
 50
126.9482107330498
 51
233.0517892669501
  0
LINE
  5
F8
330
1F
100
AcDbEntity
  8
472 soccer field
100
AcDbLine
 10
99.50000000000001
 20
43.15999999999998
 30
0.0
 11
105.0
 21
43.15999999999999
 31
0.0
  0
LINE
  5
F9
330
1F
100
AcDbEntity
  8
472 soccer field
100
AcDbLine
 10
105.0
 20
24.84
 30
0.0
 11
99.50000000000001
 21
24.84000000000001
 31
0.0
  0
LINE
  5
FA
330
1F
100
AcDbEntity
  8
472 soccer arch
100
AcDbLine
 10
106.8
 20
37.66
 30
0.0
 11
106.8
 21
30.34
 31
0.0
  0
LINE
  5
FB
102
{ACAD_REACTORS
330
129
102
}
330
1F
100
AcDbEntity
  8
472 soccer arch
100
AcDbLine
 10
106.8
 20
30.34
 30
0.0
 11
105.0
 21
30.34
 31
0.0
  0
LINE
  5
FC
102
{ACAD_REACTORS
330
129
102
}
330
1F
100
AcDbEntity
  8
472 soccer arch
100
AcDbLine
 10
105.0
 20
37.66
 30
0.0
 11
106.8
 21
37.66
 31
0.0
  0
LINE
  5
FD
330
1F
100
AcDbEntity
  8
472 soccer field
100
AcDbLine
 10
105.0
 20
13.84
 30
0.0
 11
88.49999999999999
 21
13.84000000000001
 31
0.0
  0
LINE
  5
FE
330
1F
100
AcDbEntity
  8
472 running track
100
AcDbLine
 10
89.67999999999999
 20
73.70000000000001
 30
0.0
 11
15.31999999999999
 21
73.7
 31
0.0
  0
LINE
  5
FF
330
1F
100
AcDbEntity
  8
472 running track
100
AcDbLine
 10
89.68000000000001
 20
83.24000000000003
 30
0.0
 11
15.32
 21
83.23999999999999
 31
0.0
  0
LINE
  5
100
330
1F
100
AcDbEntity
  8
472 running track
100
AcDbLine
 10
89.68000000000001
 20
81.87710000000002
 30
0.0
 11
15.32
 21
81.8771
 31
0.0
  0
LINE
  5
101
330
1F
100
AcDbEntity
  8
472 running track
100
AcDbLine
 10
89.68000000000001
 20
80.51420000000002
 30
0.0
 11
15.32
 21
80.51420000000002
 31
0.0
  0
LINE
  5
102
330
1F
100
AcDbEntity
  8
472 running track
100
AcDbLine
 10
89.68000000000001
 20
79.15130000000001
 30
0.0
 11
15.32
 21
79.15130000000002
 31
0.0
  0
LINE
  5
103
330
1F
100
AcDbEntity
  8
472 running track
100
AcDbLine
 10
89.68000000000001
 20
77.78840000000005
 30
0.0
 11
15.32
 21
77.78840000000001
 31
0.0
  0
LINE
  5
104
330
1F
100
AcDbEntity
  8
472 running track
100
AcDbLine
 10
89.68000000000001
 20
76.42550000000004
 30
0.0
 11
15.32
 21
76.42550000000001
 31
0.0
  0
LINE
  5
105
330
1F
100
AcDbEntity
  8
472 running track
100
AcDbLine
 10
89.68000000000001
 20
75.06260000000003
 30
0.0
 11
15.32
 21
75.06260000000004
 31
0.0
  0
ARC
  5
106
330
1F
100
AcDbEntity
  8
472 running track
100
AcDbCircle
 10
89.68000000000001
 20
34.0
 30
0.0
 40
39.7
100
AcDbArc
 50
270.0
 51
90.0
  0
ARC
  5
107
330
1F
100
AcDbEntity
  8
472 running track
100
AcDbCircle
 10
89.68000000000001
 20
34.0
 30
0.0
 40
41.0629
100
AcDbArc
 50
270.0
 51
90.0
  0
ARC
  5
108
330
1F
100
AcDbEntity
  8
472 running track
100
AcDbCircle
 10
89.68000000000001
 20
34.0
 30
0.0
 40
42.42580000000001
100
AcDbArc
 50
270.0
 51
90.0
  0
ARC
  5
109
330
1F
100
AcDbEntity
  8
472 running track
100
AcDbCircle
 10
89.68000000000001
 20
34.0
 30
0.0
 40
43.78870000000001
100
AcDbArc
 50
270.0
 51
90.0
  0
ARC
  5
10A
330
1F
100
AcDbEntity
  8
472 running track
100
AcDbCircle
 10
89.68000000000001
 20
34.0
 30
0.0
 40
45.15160000000001
100
AcDbArc
 50
270.0
 51
90.0
  0
ARC
  5
10B
330
1F
100
AcDbEntity
  8
472 running track
100
AcDbCircle
 10
89.68000000000001
 20
34.0
 30
0.0
 40
46.51450000000002
100
AcDbArc
 50
270.0
 51
90.0
  0
ARC
  5
10C
330
1F
100
AcDbEntity
  8
472 running track
100
AcDbCircle
 10
89.68000000000001
 20
34.0
 30
0.0
 40
47.87740000000002
100
AcDbArc
 50
270.0
 51
90.0
  0
ARC
  5
10D
330
1F
100
AcDbEntity
  8
472 running track
100
AcDbCircle
 10
89.68000000000001
 20
34.0
 30
0.0
 40
49.24030000000002
100
AcDbArc
 50
270.0
 51
90.0
  0
ARC
  5
10E
330
1F
100
AcDbEntity
  8
472 running track
100
AcDbCircle
 10
15.32
 20
34.0
 30
0.0
 40
39.7
100
AcDbArc
 50
90.0
 51
270.0
  0
ARC
  5
10F
330
1F
100
AcDbEntity
  8
472 running track
100
AcDbCircle
 10
15.32
 20
34.0
 30
0.0
 40
41.0629
100
AcDbArc
 50
90.0
 51
270.0
  0
ARC
  5
110
330
1F
100
AcDbEntity
  8
472 running track
100
AcDbCircle
 10
15.32
 20
34.0
 30
0.0
 40
42.42580000000001
100
AcDbArc
 50
90.0
 51
270.0
  0
ARC
  5
111
330
1F
100
AcDbEntity
  8
472 running track
100
AcDbCircle
 10
15.32
 20
34.0
 30
0.0
 40
43.78870000000001
100
AcDbArc
 50
90.0
 51
270.0
  0
ARC
  5
112
330
1F
100
AcDbEntity
  8
472 running track
100
AcDbCircle
 10
15.32
 20
34.0
 30
0.0
 40
45.15160000000001
100
AcDbArc
 50
90.0
 51
270.0
  0
ARC
  5
113
330
1F
100
AcDbEntity
  8
472 running track
100
AcDbCircle
 10
15.32
 20
34.0
 30
0.0
 40
46.51450000000002
100
AcDbArc
 50
90.0
 51
270.0
  0
ARC
  5
114
330
1F
100
AcDbEntity
  8
472 running track
100
AcDbCircle
 10
15.32
 20
34.0
 30
0.0
 40
47.87740000000002
100
AcDbArc
 50
90.0
 51
270.0
  0
ARC
  5
115
330
1F
100
AcDbEntity
  8
472 running track
100
AcDbCircle
 10
15.32
 20
34.0
 30
0.0
 40
49.24030000000002
100
AcDbArc
 50
90.0
 51
270.0
  0
LINE
  5
116
330
1F
100
AcDbEntity
  8
472 running track
100
AcDbLine
 10
89.68000000000001
 20
-7.062900000000013
 30
0.0
 11
15.32
 21
-7.062900000000013
 31
0.0
  0
LINE
  5
117
330
1F
100
AcDbEntity
  8
472 running track
100
AcDbLine
 10
15.32
 20
-8.425800000000002
 30
0.0
 11
89.68000000000001
 21
-8.425800000000009
 31
0.0
  0
LINE
  5
118
330
1F
100
AcDbEntity
  8
472 running track
100
AcDbLine
 10
88.78001777971617
 20
-8.425800000000009
 30
0.0
 11
89.68000000000001
 21
-8.425800000000009
 31
0.0
  0
LINE
  5
119
330
1F
100
AcDbEntity
  8
472 running track
100
AcDbLine
 10
89.68000000000001
 20
-9.788700000000005
 30
0.0
 11
15.32
 21
-9.788700000000005
 31
0.0
  0
LINE
  5
11A
330
1F
100
AcDbEntity
  8
472 running track
100
AcDbLine
 10
15.32
 20
-11.15160000000001
 30
0.0
 11
89.68000000000001
 21
-11.15160000000001
 31
0.0
  0
LINE
  5
11B
330
1F
100
AcDbEntity
  8
472 running track
100
AcDbLine
 10
89.68000000000001
 20
-12.51450000000002
 30
0.0
 11
15.32
 21
-12.51450000000001
 31
0.0
  0
LINE
  5
11C
330
1F
100
AcDbEntity
  8
472 running track
100
AcDbLine
 10
15.32
 20
-13.87740000000002
 30
0.0
 11
89.68000000000001
 21
-13.87740000000002
 31
0.0
  0
LINE
  5
11D
330
1F
100
AcDbEntity
  8
472 running track
100
AcDbLine
 10
89.68000000000001
 20
-15.24030000000001
 30
0.0
 11
15.32
 21
-15.24030000000002
 31
0.0
  0
LINE
  5
11E
330
1F
100
AcDbEntity
  8
472 running track
100
AcDbLine
 10
15.32
 20
-5.700000000000002
 30
0.0
 11
89.68000000000001
 21
-5.700000000000002
 31
0.0
  0
LINE
  5
11F
102
{ACAD_REACTORS
330
127
102
}
330
1F
100
AcDbEntity
  8
472 soccer arch
100
AcDbLine
 10
-4.269206451886457
 20
37.66
 30
0.0
 11
-4.269206451886457
 21
30.34
 31
0.0
1001
ACAD
1000
ASC_BOUNDS
1002
{
1070
    19
1005
0
1002
}
  0
ARC
  5
120
102
{ACAD_REACTORS
330
127
102
}
330
1F
100
AcDbEntity
  8
472 soccer arch
100
AcDbCircle
 10
-3.034603225943225
 20
40.51921664349928
 30
0.0
 40
3.114380346067691
100
AcDbArc
 50
246.6454233003459
 51
293.3545766996537
1001
ACAD
1000
ASC_BOUNDS
1002
{
1070
    19
1005
0
1002
}
  0
LINE
  5
121
102
{ACAD_REACTORS
330
12A
102
}
330
1F
100
AcDbEntity
  8
472 soccer arch
100
AcDbLine
 10
109.2692064518864
 20
37.66
 30
0.0
 11
109.2692064518864
 21
30.34
 31
0.0
1001
ACAD
1000
ASC_BOUNDS
1002
{
1070
    19
1005
0
1002
}
  0
LINE
  5
122
102
{ACAD_REACTORS
330
129
330
12A
102
}
330
1F
100
AcDbEntity
  8
472 soccer arch
100
AcDbLine
 10
106.8
 20
37.66
 30
0.0
 11
106.8
 21
30.34
 31
0.0
1001
ACAD
1000
ASC_BOUNDS
1002
{
1070
    19
1005
0
1002
}
  0
CIRCLE
  5
123
330
1F
100
AcDbEntity
  8
472 soccer field
100
AcDbCircle
 10
52.5
 20
34.0
 30
0.0
 40
0.620368328210823
  0
ARC
  5
124
102
{ACAD_REACTORS
330
127
102
}
330
1F
100
AcDbEntity
  8
472 soccer arch
100
AcDbCircle
 10
-3.034603225943225
 20
27.48078335650072
 30
0.0
 40
3.114380346067691
100
AcDbArc
 50
66.64542330034632
 51
113.3545766996536
1001
ACAD
1000
ASC_BOUNDS
1002
{
1070
    19
1005
0
1002
}
  0
ARC
  5
125
102
{ACAD_REACTORS
330
12A
102
}
330
1F
100
AcDbEntity
  8
472 soccer arch
100
AcDbCircle
 10
108.0346032259432
 20
40.51921664349928
 30
0.0
 40
3.114380346067691
100
AcDbArc
 50
246.6454233003463
 51
293.3545766996537
  0
ARC
  5
126
102
{ACAD_REACTORS
330
12A
102
}
330
1F
100
AcDbEntity
  8
472 soccer arch
100
AcDbCircle
 10
108.0346032259432
 20
27.48078335650072
 30
0.0
 40
3.114380346067691
100
AcDbArc
 50
66.64542330034632
 51
113.3545766996536
  0
HATCH
  5
127
330
1F
100
AcDbEntity
  8
472 soccer arch
100
AcDbHatch
 10
0.0
 20
0.0
 30
0.0
210
0.0
220
0.0
230
1.0
  2
HONEY
 70
     0
 71
     1
 91
        1
 92
        7
 72
     1
 73
     1
 93
        4
 10
-4.269206451886457
 20
30.34
 42
-0.2066766854375167
 10
-1.799999999999997
 20
30.34
 42
0.0
 10
-1.799999999999997
 20
37.66
 42
-0.2066766854375167
 10
-4.269206451886457
 20
37.66
 42
0.0
 97
        4
330
120
330
11F
330
124
330
F0
 75
     0
 76
     1
 52
0.0
 41
0.1
 77
     0
 78
     3
 53
0.0
 43
-35.0
 44
-35.0
 45
0.4762500000000001
 46
0.274963
 79
     2
 49
0.3175
 49
-0.635
 53
119.9999999999999
 43
-35.0
 44
-35.0
 45
-0.4762499431007806
 46
0.2749630985523391
 79
     2
 49
0.3174999999999999
 49
-0.6349999999999999
 53
60.0
 43
-35.0
 44
-35.0
 45
0.0000000568992195
 46
0.5499260985523389
 79
     2
 49
-0.635
 49
0.3175
 47
0.0454155826095965
 98
        1
 10
-3.191525428074101
 20
35.04577276746934
1001
ACAD
1010
0.0
1020
0.0
1030
0.0
  0
HATCH
  5
128
330
1F
100
AcDbEntity
  8
472 soccer arch
100
AcDbHatch
 10
0.0
 20
0.0
 30
0.0
210
0.0
220
0.0
230
1.0
  2
HONEY
 70
     0
 71
     1
 91
        1
 92
        7
 72
     0
 73
     1
 93
        4
 10
-1.799999999999997
 20
30.34
 10
0.0
 20
30.34
 10
0.0
 20
37.66
 10
-1.799999999999997
 20
37.66
 97
        4
330
EF
330
F0
330
EE
330
E5
 75
     0
 76
     1
 52
0.0
 41
0.1
 77
     0
 78
     3
 53
0.0
 43
-35.0
 44
-35.0
 45
0.4762500000000001
 46
0.274963
 79
     2
 49
0.3175
 49
-0.635
 53
119.9999999999999
 43
-35.0
 44
-35.0
 45
-0.4762499431007806
 46
0.2749630985523391
 79
     2
 49
0.3174999999999999
 49
-0.6349999999999999
 53
60.0
 43
-35.0
 44
-35.0
 45
0.0000000568992195
 46
0.5499260985523389
 79
     2
 49
-0.635
 49
0.3175
 47
0.0454155826095965
 98
        1
 10
-1.282813752224683
 20
35.81783766032674
1001
ACAD
1010
0.0
1020
0.0
1030
0.0
  0
HATCH
  5
129
330
1F
100
AcDbEntity
  8
472 soccer arch
100
AcDbHatch
 10
0.0
 20
0.0
 30
0.0
210
0.0
220
0.0
230
1.0
  2
HONEY
 70
     0
 71
     1
 91
        1
 92
        7
 72
     0
 73
     1
 93
        4
 10
106.8
 20
37.66
 10
105.0
 20
37.66
 10
105.0
 20
30.34
 10
106.8
 20
30.34
 97
        4
330
FC
330
E3
330
FB
330
122
 75
     0
 76
     1
 52
0.0
 41
0.1
 77
     0
 78
     3
 53
0.0
 43
-35.0
 44
-35.0
 45
0.4762500000000001
 46
0.274963
 79
     2
 49
0.3175
 49
-0.635
 53
119.9999999999999
 43
-35.0
 44
-35.0
 45
-0.4762499431007806
 46
0.2749630985523391
 79
     2
 49
0.3174999999999999
 49
-0.6349999999999999
 53
60.0
 43
-35.0
 44
-35.0
 45
0.0000000568992195
 46
0.5499260985523389
 79
     2
 49
-0.635
 49
0.3175
 47
0.02174096307584
 98
        1
 10
105.9606737871653
 20
34.98288250858957
1001
ACAD
1010
0.0
1020
0.0
1030
0.0
  0
HATCH
  5
12A
330
1F
100
AcDbEntity
  8
472 soccer arch
100
AcDbHatch
 10
0.0
 20
0.0
 30
0.0
210
0.0
220
0.0
230
1.0
  2
HONEY
 70
     0
 71
     1
 91
        1
 92
        7
 72
     1
 73
     1
 93
        4
 10
106.8
 20
30.34
 42
-0.2066766854375143
 10
109.2692064518864
 20
30.34
 42
0.0
 10
109.2692064518864
 20
37.66
 42
-0.2066766854375145
 10
106.8
 20
37.65999999999998
 42
0.0
 97
        4
330
125
330
122
330
126
330
121
 75
     0
 76
     1
 52
0.0
 41
0.1
 77
     0
 78
     3
 53
0.0
 43
-35.0
 44
-35.0
 45
0.4762500000000001
 46
0.274963
 79
     2
 49
0.3175
 49
-0.635
 53
119.9999999999999
 43
-35.0
 44
-35.0
 45
-0.4762499431007806
 46
0.2749630985523391
 79
     2
 49
0.3174999999999999
 49
-0.6349999999999999
 53
60.0
 43
-35.0
 44
-35.0
 45
0.0000000568992195
 46
0.5499260985523389
 79
     2
 49
-0.635
 49
0.3175
 47
0.02174096307584
 98
        1
 10
107.3530054896474
 20
35.0698462411213
1001
ACAD
1010
0.0
1020
0.0
1030
0.0
  0
VIEWPORT
  5
7A
330
55
100
AcDbEntity
 67
     1
  8
0
100
AcDbViewport
 10
133.3499908447265
 20
101.5999970436096
 30
0.0
 40
499.656613158166
 41
228.4221935424804
 68
     2
 69
     1
 12
133.3499908447265
 22
101.5999970436096
 13
0.0
 23
0.0
 14
10.0
 24
10.0
 15
10.0
 25
10.0
 16
0.0
 26
0.0
 36
1.0
 17
0.0
 27
0.0
 37
0.0
 42
50.0
 43
0.0
 44
0.0
 45
228.4221935424804
 50
0.0
 51
0.0
 72
   100
 90
    32800
  1

281
     0
 71
     1
 74
     0
110
0.0
120
0.0
130
0.0
111
1.0
121
0.0
131
0.0
112
0.0
122
1.0
132
0.0
 79
     0
146
0.0
  0
VIEWPORT
  5
7C
330
55
100
AcDbEntity
 67
     1
  8
0
100
AcDbViewport
 10
133.349993944168
 20
101.599993944168
 30
0.0
 40
213.3599903106689
 41
162.5599903106689
 68
     1
 69
     2
 12
52.50158118773182
 22
33.99860046791497
 13
0.0
 23
0.0
 14
10.0
 24
10.0
 15
10.0
 25
10.0
 16
0.0
 26
0.0
 36
1.0
 17
0.0
 27
0.0
 37
0.0
 42
50.0
 43
0.0
 44
0.0
 45
132.7060341388122
 50
0.0
 51
0.0
 72
   100
 90
    32864
  1

281
     0
 71
     1
 74
     0
110
0.0
120
0.0
130
0.0
111
1.0
121
0.0
131
0.0
112
0.0
122
1.0
132
0.0
 79
     0
146
0.0
  0
ENDSEC
  0
SECTION
  2
OBJECTS
  0
DICTIONARY
  5
C
330
0
100
AcDbDictionary
281
     1
  3
ACAD_GROUP
350
D
  3
ACAD_LAYOUT
350
1A
  3
ACAD_MLINESTYLE
350
17
  3
ACAD_PLOTSETTINGS
350
19
  3
ACAD_PLOTSTYLENAME
350
E
  3
AcDbVariableDictionary
350
5E
  0
DICTIONARY
  5
89
330
88
100
AcDbDictionary
280
     1
281
     1
  3
ACAD_XREC_ROUNDTRIP
360
8A
  0
DICTIONARY
  5
8C
330
8B
100
AcDbDictionary
280
     1
281
     1
  3
ACAD_XREC_ROUNDTRIP
360
8D
  0
DICTIONARY
  5
8F
330
8E
100
AcDbDictionary
280
     1
281
     1
  3
ACAD_XREC_ROUNDTRIP
360
90
  0
DICTIONARY
  5
D
102
{ACAD_REACTORS
330
C
102
}
330
C
100
AcDbDictionary
281
     1
  0
DICTIONARY
  5
1A
102
{ACAD_REACTORS
330
C
102
}
330
C
100
AcDbDictionary
281
     1
  3
Model
350
22
  3
www.ceco.net
350
56
  0
DICTIONARY
  5
17
102
{ACAD_REACTORS
330
C
102
}
330
C
100
AcDbDictionary
281
     1
  3
Standard
350
18
  0
DICTIONARY
  5
19
102
{ACAD_REACTORS
330
C
102
}
330
C
100
AcDbDictionary
281
     1
  0
ACDBDICTIONARYWDFLT
  5
E
102
{ACAD_REACTORS
330
C
102
}
330
C
100
AcDbDictionary
281
     1
  3
Normal
350
F
100
AcDbDictionaryWithDefault
340
F
  0
DICTIONARY
  5
5E
102
{ACAD_REACTORS
330
C
102
}
330
C
100
AcDbDictionary
281
     1
  3
DIMASSOC
350
5F
  3
HIDETEXT
350
63
  0
XRECORD
  5
8A
102
{ACAD_REACTORS
330
89
102
}
330
89
100
AcDbXrecord
280
     1
102
MATERIAL
340
0
  0
XRECORD
  5
8D
102
{ACAD_REACTORS
330
8C
102
}
330
8C
100
AcDbXrecord
280
     1
102
MATERIAL
340
0
  0
XRECORD
  5
90
102
{ACAD_REACTORS
330
8F
102
}
330
8F
100
AcDbXrecord
280
     1
102
MATERIAL
340
0
  0
LAYOUT
  5
22
102
{ACAD_REACTORS
330
1A
102
}
330
1A
100
AcDbPlotSettings
  1

  2
none_device
  4
ANSI_A_(8.50_x_11.00_Inches)
  6

 40
6.349999904632568
 41
19.04999923706054
 42
6.350006103515625
 43
19.04998779296875
 44
215.8999938964843
 45
279.3999938964843
 46
0.0
 47
0.0
 48
0.0
 49
0.0
140
0.0
141
0.0
142
1.0
143
78.436453180766
 70
 11952
 72
     0
 73
     1
 74
     0
  7

 75
     0
147
0.0127491741332998
148
0.0
149
0.0
100
AcDbLayout
  1
Model
 70
     1
 71
     0
 10
0.0
 20
0.0
 11
12.0
 21
9.0
 12
0.0
 22
0.0
 32
0.0
 14
0.0
 24
0.0
 34
0.0
 15
0.0
 25
0.0
 35
0.0
146
0.0
 13
0.0
 23
0.0
 33
0.0
 16
1.0
 26
0.0
 36
0.0
 17
0.0
 27
1.0
 37
0.0
 76
     0
330
1F
  0
LAYOUT
  5
56
102
{ACAD_REACTORS
330
1A
102
}
330
1A
100
AcDbPlotSettings
  1

  2
none_device
  4
Letter_(8.50_x_11.00_Inches)
  6

 40
6.349999904632568
 41
6.349999904632568
 42
6.350006103515625
 43
6.350006103515625
 44
215.8999938964843
 45
279.3999938964843
 46
0.0
 47
0.0
 48
0.0
 49
0.0
140
0.0
141
0.0
142
1.0
143
1.0
 70
   688
 72
     1
 73
     1
 74
     5
  7

 75
    16
147
1.0
148
0.0
149
0.0
100
AcDbLayout
  1
www.ceco.net
 70
     1
 71
     1
 10
-6.350006103515625
 20
-6.349999904632568
 11
273.0499877929687
 21
209.5499939918517
 12
0.0
 22
0.0
 32
0.0
 14
26.66999878883362
 24
20.31999878883362
 34
0.0
 15
240.0299890995025
 25
182.8799890995025
 35
0.0
146
0.0
 13
0.0
 23
0.0
 33
0.0
 16
1.0
 26
0.0
 36
0.0
 17
0.0
 27
1.0
 37
0.0
 76
     0
330
55
331
7C
  0
MLINESTYLE
  5
18
102
{ACAD_REACTORS
330
17
102
}
330
17
100
AcDbMlineStyle
  2
STANDARD
 70
     0
  3

 62
   256
 51
90.0
 52
90.0
 71
     2
 49
0.5
 62
   256
  6
BYLAYER
 49
-0.5
 62
   256
  6
BYLAYER
  0
ACDBPLACEHOLDER
  5
F
102
{ACAD_REACTORS
330
E
102
}
330
E
  0
DICTIONARYVAR
  5
5F
102
{ACAD_REACTORS
330
5E
102
}
330
5E
100
DictionaryVariables
280
     0
  1
2
  0
DICTIONARYVAR
  5
63
102
{ACAD_REACTORS
330
5E
102
}
330
5E
100
DictionaryVariables
280
     0
  1
1
  0
ENDSEC
  0
EOF
